<svg xmlns="http://www.w3.org/2000/svg" version="1.1" width="1060" height="408"><line x1="0" y1="16.5" x2="1060" y2="16.5" style="stroke:#000000;"/><line x1="2.5091612699416146" y1="15" x2="2.5091612699416146" y2="17" style="stroke:#000000;"/><line x1="19.252171852788024" y1="15" x2="19.252171852788024" y2="17" style="stroke:#000000;"/><line x1="35.995182435634206" y1="15" x2="35.995182435634206" y2="17" style="stroke:#000000;"/><text font-family="arial" x="30.492099268480615" y="10" style="font-size:8pt;fill:#000000;">89740200</text><line x1="52.738193018480615" y1="12" x2="52.738193018480615" y2="17" style="stroke:#000000;"/><line x1="69.4812036013268" y1="15" x2="69.4812036013268" y2="17" style="stroke:#000000;"/><line x1="86.2242141841732" y1="15" x2="86.2242141841732" y2="17" style="stroke:#000000;"/><line x1="102.96722476701939" y1="15" x2="102.96722476701939" y2="17" style="stroke:#000000;"/><text font-family="arial" x="97.4641415998658" y="10" style="font-size:8pt;fill:#000000;">89740600</text><line x1="119.7102353498658" y1="12" x2="119.7102353498658" y2="17" style="stroke:#000000;"/><line x1="136.4532459327122" y1="15" x2="136.4532459327122" y2="17" style="stroke:#000000;"/><line x1="153.1962565155584" y1="15" x2="153.1962565155584" y2="17" style="stroke:#000000;"/><line x1="169.9392670984048" y1="15" x2="169.9392670984048" y2="17" style="stroke:#000000;"/><text font-family="arial" x="164.43618393125098" y="10" style="font-size:8pt;fill:#000000;">89741000</text><line x1="186.68227768125098" y1="12" x2="186.68227768125098" y2="17" style="stroke:#000000;"/><line x1="203.4252882640974" y1="15" x2="203.4252882640974" y2="17" style="stroke:#000000;"/><line x1="220.16829884694357" y1="15" x2="220.16829884694357" y2="17" style="stroke:#000000;"/><line x1="236.91130942978998" y1="15" x2="236.91130942978998" y2="17" style="stroke:#000000;"/><text font-family="arial" x="231.4082262626364" y="10" style="font-size:8pt;fill:#000000;">89741400</text><line x1="253.6543200126364" y1="12" x2="253.6543200126364" y2="17" style="stroke:#000000;"/><line x1="270.3973305954826" y1="15" x2="270.3973305954826" y2="17" style="stroke:#000000;"/><line x1="287.140341178329" y1="15" x2="287.140341178329" y2="17" style="stroke:#000000;"/><line x1="303.88335176117516" y1="15" x2="303.88335176117516" y2="17" style="stroke:#000000;"/><text font-family="arial" x="298.3802685940216" y="10" style="font-size:8pt;fill:#000000;">89741800</text><line x1="320.6263623440216" y1="12" x2="320.6263623440216" y2="17" style="stroke:#000000;"/><line x1="337.36937292686775" y1="15" x2="337.36937292686775" y2="17" style="stroke:#000000;"/><line x1="354.11238350971416" y1="15" x2="354.11238350971416" y2="17" style="stroke:#000000;"/><line x1="370.8553940925606" y1="15" x2="370.8553940925606" y2="17" style="stroke:#000000;"/><text font-family="arial" x="365.35231092540675" y="10" style="font-size:8pt;fill:#000000;">89742200</text><line x1="387.59840467540675" y1="12" x2="387.59840467540675" y2="17" style="stroke:#000000;"/><line x1="404.34141525825316" y1="15" x2="404.34141525825316" y2="17" style="stroke:#000000;"/><line x1="421.08442584109935" y1="15" x2="421.08442584109935" y2="17" style="stroke:#000000;"/><line x1="437.82743642394576" y1="15" x2="437.82743642394576" y2="17" style="stroke:#000000;"/><text font-family="arial" x="432.32435325679194" y="10" style="font-size:8pt;fill:#000000;">89742600</text><line x1="454.57044700679194" y1="12" x2="454.57044700679194" y2="17" style="stroke:#000000;"/><line x1="471.31345758963835" y1="15" x2="471.31345758963835" y2="17" style="stroke:#000000;"/><line x1="488.05646817248476" y1="15" x2="488.05646817248476" y2="17" style="stroke:#000000;"/><line x1="504.79947875533094" y1="15" x2="504.79947875533094" y2="17" style="stroke:#000000;"/><text font-family="arial" x="499.29639558817735" y="10" style="font-size:8pt;fill:#000000;">89743000</text><line x1="521.5424893381773" y1="12" x2="521.5424893381773" y2="17" style="stroke:#000000;"/><line x1="538.2854999210235" y1="15" x2="538.2854999210235" y2="17" style="stroke:#000000;"/><line x1="555.0285105038699" y1="15" x2="555.0285105038699" y2="17" style="stroke:#000000;"/><line x1="571.7715210867161" y1="15" x2="571.7715210867161" y2="17" style="stroke:#000000;"/><text font-family="arial" x="566.2684379195625" y="10" style="font-size:8pt;fill:#000000;">89743400</text><line x1="588.5145316695625" y1="12" x2="588.5145316695625" y2="17" style="stroke:#000000;"/><line x1="605.2575422524089" y1="15" x2="605.2575422524089" y2="17" style="stroke:#000000;"/><line x1="622.0005528352551" y1="15" x2="622.0005528352551" y2="17" style="stroke:#000000;"/><line x1="638.7435634181015" y1="15" x2="638.7435634181015" y2="17" style="stroke:#000000;"/><text font-family="arial" x="633.2404802509477" y="10" style="font-size:8pt;fill:#000000;">89743800</text><line x1="655.4865740009477" y1="12" x2="655.4865740009477" y2="17" style="stroke:#000000;"/><line x1="672.2295845837941" y1="15" x2="672.2295845837941" y2="17" style="stroke:#000000;"/><line x1="688.9725951666405" y1="15" x2="688.9725951666405" y2="17" style="stroke:#000000;"/><line x1="705.7156057494867" y1="15" x2="705.7156057494867" y2="17" style="stroke:#000000;"/><text font-family="arial" x="700.2125225823331" y="10" style="font-size:8pt;fill:#000000;">89744200</text><line x1="722.4586163323331" y1="12" x2="722.4586163323331" y2="17" style="stroke:#000000;"/><line x1="739.2016269151793" y1="15" x2="739.2016269151793" y2="17" style="stroke:#000000;"/><line x1="755.9446374980257" y1="15" x2="755.9446374980257" y2="17" style="stroke:#000000;"/><line x1="772.6876480808719" y1="15" x2="772.6876480808719" y2="17" style="stroke:#000000;"/><text font-family="arial" x="767.1845649137183" y="10" style="font-size:8pt;fill:#000000;">89744600</text><line x1="789.4306586637183" y1="12" x2="789.4306586637183" y2="17" style="stroke:#000000;"/><line x1="806.1736692465647" y1="15" x2="806.1736692465647" y2="17" style="stroke:#000000;"/><line x1="822.9166798294109" y1="15" x2="822.9166798294109" y2="17" style="stroke:#000000;"/><line x1="839.6596904122573" y1="15" x2="839.6596904122573" y2="17" style="stroke:#000000;"/><text font-family="arial" x="834.1566072451035" y="10" style="font-size:8pt;fill:#000000;">89745000</text><line x1="856.4027009951035" y1="12" x2="856.4027009951035" y2="17" style="stroke:#000000;"/><line x1="873.1457115779499" y1="15" x2="873.1457115779499" y2="17" style="stroke:#000000;"/><line x1="889.8887221607961" y1="15" x2="889.8887221607961" y2="17" style="stroke:#000000;"/><line x1="906.6317327436425" y1="15" x2="906.6317327436425" y2="17" style="stroke:#000000;"/><text font-family="arial" x="901.1286495764889" y="10" style="font-size:8pt;fill:#000000;">89745400</text><line x1="923.3747433264889" y1="12" x2="923.3747433264889" y2="17" style="stroke:#000000;"/><line x1="940.1177539093351" y1="15" x2="940.1177539093351" y2="17" style="stroke:#000000;"/><line x1="956.8607644921815" y1="15" x2="956.8607644921815" y2="17" style="stroke:#000000;"/><line x1="973.6037750750277" y1="15" x2="973.6037750750277" y2="17" style="stroke:#000000;"/><text font-family="arial" x="968.1006919078741" y="10" style="font-size:8pt;fill:#000000;">89745800</text><line x1="990.3467856578741" y1="12" x2="990.3467856578741" y2="17" style="stroke:#000000;"/><line x1="1007.0897962407203" y1="15" x2="1007.0897962407203" y2="17" style="stroke:#000000;"/><line x1="1023.8328068235669" y1="15" x2="1023.8328068235669" y2="17" style="stroke:#000000;"/><line x1="1040.575817406413" y1="15" x2="1040.575817406413" y2="17" style="stroke:#000000;"/><text font-family="arial" x="1035.0727342392593" y="10" style="font-size:8pt;fill:#000000;">89746200</text><line x1="1057.3188279892593" y1="12" x2="1057.3188279892593" y2="17" style="stroke:#000000;"/><line x1="0" y1="43" x2="1060" y2="43" style="stroke:#ccc;stroke-width:0.5;"/><rect x="0" y="43" width="1060" height="24" style="fill:white;"/><line x1="325.98641604801765" y1="49" x2="1060" y2="49" style="stroke:#002eb8;stroke-width:1;"/><line x1="332.85555204549064" y1="46" x2="329.85555204549064" y2="49.5" style="stroke:#002eb8;"/><line x1="329.85555204549064" y1="49.5" x2="332.85555204549064" y2="53" style="stroke:#002eb8;"/><line x1="340.85555204549064" y1="46" x2="337.85555204549064" y2="49.5" style="stroke:#002eb8;"/><line x1="337.85555204549064" y1="49.5" x2="340.85555204549064" y2="53" style="stroke:#002eb8;"/><line x1="348.85555204549064" y1="46" x2="345.85555204549064" y2="49.5" style="stroke:#002eb8;"/><line x1="345.85555204549064" y1="49.5" x2="348.85555204549064" y2="53" style="stroke:#002eb8;"/><line x1="356.85555204549064" y1="46" x2="353.85555204549064" y2="49.5" style="stroke:#002eb8;"/><line x1="353.85555204549064" y1="49.5" x2="356.85555204549064" y2="53" style="stroke:#002eb8;"/><line x1="364.85555204549064" y1="46" x2="361.85555204549064" y2="49.5" style="stroke:#002eb8;"/><line x1="361.85555204549064" y1="49.5" x2="364.85555204549064" y2="53" style="stroke:#002eb8;"/><line x1="372.85555204549064" y1="46" x2="369.85555204549064" y2="49.5" style="stroke:#002eb8;"/><line x1="369.85555204549064" y1="49.5" x2="372.85555204549064" y2="53" style="stroke:#002eb8;"/><line x1="380.85555204549064" y1="46" x2="377.85555204549064" y2="49.5" style="stroke:#002eb8;"/><line x1="377.85555204549064" y1="49.5" x2="380.85555204549064" y2="53" style="stroke:#002eb8;"/><line x1="388.85555204549064" y1="46" x2="385.85555204549064" y2="49.5" style="stroke:#002eb8;"/><line x1="385.85555204549064" y1="49.5" x2="388.85555204549064" y2="53" style="stroke:#002eb8;"/><line x1="396.85555204549064" y1="46" x2="393.85555204549064" y2="49.5" style="stroke:#002eb8;"/><line x1="393.85555204549064" y1="49.5" x2="396.85555204549064" y2="53" style="stroke:#002eb8;"/><line x1="404.85555204549064" y1="46" x2="401.85555204549064" y2="49.5" style="stroke:#002eb8;"/><line x1="401.85555204549064" y1="49.5" x2="404.85555204549064" y2="53" style="stroke:#002eb8;"/><line x1="412.85555204549064" y1="46" x2="409.85555204549064" y2="49.5" style="stroke:#002eb8;"/><line x1="409.85555204549064" y1="49.5" x2="412.85555204549064" y2="53" style="stroke:#002eb8;"/><line x1="420.85555204549064" y1="46" x2="417.85555204549064" y2="49.5" style="stroke:#002eb8;"/><line x1="417.85555204549064" y1="49.5" x2="420.85555204549064" y2="53" style="stroke:#002eb8;"/><line x1="428.85555204549064" y1="46" x2="425.85555204549064" y2="49.5" style="stroke:#002eb8;"/><line x1="425.85555204549064" y1="49.5" x2="428.85555204549064" y2="53" style="stroke:#002eb8;"/><line x1="436.85555204549064" y1="46" x2="433.85555204549064" y2="49.5" style="stroke:#002eb8;"/><line x1="433.85555204549064" y1="49.5" x2="436.85555204549064" y2="53" style="stroke:#002eb8;"/><line x1="444.85555204549064" y1="46" x2="441.85555204549064" y2="49.5" style="stroke:#002eb8;"/><line x1="441.85555204549064" y1="49.5" x2="444.85555204549064" y2="53" style="stroke:#002eb8;"/><line x1="452.85555204549064" y1="46" x2="449.85555204549064" y2="49.5" style="stroke:#002eb8;"/><line x1="449.85555204549064" y1="49.5" x2="452.85555204549064" y2="53" style="stroke:#002eb8;"/><line x1="460.85555204549064" y1="46" x2="457.85555204549064" y2="49.5" style="stroke:#002eb8;"/><line x1="457.85555204549064" y1="49.5" x2="460.85555204549064" y2="53" style="stroke:#002eb8;"/><line x1="468.85555204549064" y1="46" x2="465.85555204549064" y2="49.5" style="stroke:#002eb8;"/><line x1="465.85555204549064" y1="49.5" x2="468.85555204549064" y2="53" style="stroke:#002eb8;"/><line x1="476.85555204549064" y1="46" x2="473.85555204549064" y2="49.5" style="stroke:#002eb8;"/><line x1="473.85555204549064" y1="49.5" x2="476.85555204549064" y2="53" style="stroke:#002eb8;"/><line x1="484.85555204549064" y1="46" x2="481.85555204549064" y2="49.5" style="stroke:#002eb8;"/><line x1="481.85555204549064" y1="49.5" x2="484.85555204549064" y2="53" style="stroke:#002eb8;"/><line x1="492.85555204549064" y1="46" x2="489.85555204549064" y2="49.5" style="stroke:#002eb8;"/><line x1="489.85555204549064" y1="49.5" x2="492.85555204549064" y2="53" style="stroke:#002eb8;"/><line x1="500.85555204549064" y1="46" x2="497.85555204549064" y2="49.5" style="stroke:#002eb8;"/><line x1="497.85555204549064" y1="49.5" x2="500.85555204549064" y2="53" style="stroke:#002eb8;"/><line x1="508.85555204549064" y1="46" x2="505.85555204549064" y2="49.5" style="stroke:#002eb8;"/><line x1="505.85555204549064" y1="49.5" x2="508.85555204549064" y2="53" style="stroke:#002eb8;"/><line x1="516.8555520454906" y1="46" x2="513.8555520454906" y2="49.5" style="stroke:#002eb8;"/><line x1="513.8555520454906" y1="49.5" x2="516.8555520454906" y2="53" style="stroke:#002eb8;"/><line x1="524.8555520454906" y1="46" x2="521.8555520454906" y2="49.5" style="stroke:#002eb8;"/><line x1="521.8555520454906" y1="49.5" x2="524.8555520454906" y2="53" style="stroke:#002eb8;"/><line x1="532.8555520454906" y1="46" x2="529.8555520454906" y2="49.5" style="stroke:#002eb8;"/><line x1="529.8555520454906" y1="49.5" x2="532.8555520454906" y2="53" style="stroke:#002eb8;"/><line x1="540.8555520454906" y1="46" x2="537.8555520454906" y2="49.5" style="stroke:#002eb8;"/><line x1="537.8555520454906" y1="49.5" x2="540.8555520454906" y2="53" style="stroke:#002eb8;"/><line x1="548.8555520454906" y1="46" x2="545.8555520454906" y2="49.5" style="stroke:#002eb8;"/><line x1="545.8555520454906" y1="49.5" x2="548.8555520454906" y2="53" style="stroke:#002eb8;"/><line x1="556.8555520454906" y1="46" x2="553.8555520454906" y2="49.5" style="stroke:#002eb8;"/><line x1="553.8555520454906" y1="49.5" x2="556.8555520454906" y2="53" style="stroke:#002eb8;"/><line x1="564.8555520454906" y1="46" x2="561.8555520454906" y2="49.5" style="stroke:#002eb8;"/><line x1="561.8555520454906" y1="49.5" x2="564.8555520454906" y2="53" style="stroke:#002eb8;"/><line x1="572.8555520454906" y1="46" x2="569.8555520454906" y2="49.5" style="stroke:#002eb8;"/><line x1="569.8555520454906" y1="49.5" x2="572.8555520454906" y2="53" style="stroke:#002eb8;"/><line x1="580.8555520454906" y1="46" x2="577.8555520454906" y2="49.5" style="stroke:#002eb8;"/><line x1="577.8555520454906" y1="49.5" x2="580.8555520454906" y2="53" style="stroke:#002eb8;"/><line x1="588.8555520454906" y1="46" x2="585.8555520454906" y2="49.5" style="stroke:#002eb8;"/><line x1="585.8555520454906" y1="49.5" x2="588.8555520454906" y2="53" style="stroke:#002eb8;"/><line x1="596.8555520454906" y1="46" x2="593.8555520454906" y2="49.5" style="stroke:#002eb8;"/><line x1="593.8555520454906" y1="49.5" x2="596.8555520454906" y2="53" style="stroke:#002eb8;"/><line x1="604.8555520454906" y1="46" x2="601.8555520454906" y2="49.5" style="stroke:#002eb8;"/><line x1="601.8555520454906" y1="49.5" x2="604.8555520454906" y2="53" style="stroke:#002eb8;"/><line x1="612.8555520454906" y1="46" x2="609.8555520454906" y2="49.5" style="stroke:#002eb8;"/><line x1="609.8555520454906" y1="49.5" x2="612.8555520454906" y2="53" style="stroke:#002eb8;"/><line x1="620.8555520454906" y1="46" x2="617.8555520454906" y2="49.5" style="stroke:#002eb8;"/><line x1="617.8555520454906" y1="49.5" x2="620.8555520454906" y2="53" style="stroke:#002eb8;"/><line x1="628.8555520454906" y1="46" x2="625.8555520454906" y2="49.5" style="stroke:#002eb8;"/><line x1="625.8555520454906" y1="49.5" x2="628.8555520454906" y2="53" style="stroke:#002eb8;"/><line x1="636.8555520454906" y1="46" x2="633.8555520454906" y2="49.5" style="stroke:#002eb8;"/><line x1="633.8555520454906" y1="49.5" x2="636.8555520454906" y2="53" style="stroke:#002eb8;"/><line x1="644.8555520454906" y1="46" x2="641.8555520454906" y2="49.5" style="stroke:#002eb8;"/><line x1="641.8555520454906" y1="49.5" x2="644.8555520454906" y2="53" style="stroke:#002eb8;"/><line x1="652.8555520454906" y1="46" x2="649.8555520454906" y2="49.5" style="stroke:#002eb8;"/><line x1="649.8555520454906" y1="49.5" x2="652.8555520454906" y2="53" style="stroke:#002eb8;"/><line x1="660.8555520454906" y1="46" x2="657.8555520454906" y2="49.5" style="stroke:#002eb8;"/><line x1="657.8555520454906" y1="49.5" x2="660.8555520454906" y2="53" style="stroke:#002eb8;"/><line x1="668.8555520454906" y1="46" x2="665.8555520454906" y2="49.5" style="stroke:#002eb8;"/><line x1="665.8555520454906" y1="49.5" x2="668.8555520454906" y2="53" style="stroke:#002eb8;"/><line x1="676.8555520454906" y1="46" x2="673.8555520454906" y2="49.5" style="stroke:#002eb8;"/><line x1="673.8555520454906" y1="49.5" x2="676.8555520454906" y2="53" style="stroke:#002eb8;"/><line x1="684.8555520454906" y1="46" x2="681.8555520454906" y2="49.5" style="stroke:#002eb8;"/><line x1="681.8555520454906" y1="49.5" x2="684.8555520454906" y2="53" style="stroke:#002eb8;"/><line x1="692.8555520454906" y1="46" x2="689.8555520454906" y2="49.5" style="stroke:#002eb8;"/><line x1="689.8555520454906" y1="49.5" x2="692.8555520454906" y2="53" style="stroke:#002eb8;"/><line x1="700.8555520454906" y1="46" x2="697.8555520454906" y2="49.5" style="stroke:#002eb8;"/><line x1="697.8555520454906" y1="49.5" x2="700.8555520454906" y2="53" style="stroke:#002eb8;"/><line x1="708.8555520454906" y1="46" x2="705.8555520454906" y2="49.5" style="stroke:#002eb8;"/><line x1="705.8555520454906" y1="49.5" x2="708.8555520454906" y2="53" style="stroke:#002eb8;"/><line x1="716.8555520454906" y1="46" x2="713.8555520454906" y2="49.5" style="stroke:#002eb8;"/><line x1="713.8555520454906" y1="49.5" x2="716.8555520454906" y2="53" style="stroke:#002eb8;"/><line x1="724.8555520454906" y1="46" x2="721.8555520454906" y2="49.5" style="stroke:#002eb8;"/><line x1="721.8555520454906" y1="49.5" x2="724.8555520454906" y2="53" style="stroke:#002eb8;"/><line x1="732.8555520454906" y1="46" x2="729.8555520454906" y2="49.5" style="stroke:#002eb8;"/><line x1="729.8555520454906" y1="49.5" x2="732.8555520454906" y2="53" style="stroke:#002eb8;"/><line x1="740.8555520454906" y1="46" x2="737.8555520454906" y2="49.5" style="stroke:#002eb8;"/><line x1="737.8555520454906" y1="49.5" x2="740.8555520454906" y2="53" style="stroke:#002eb8;"/><line x1="748.8555520454906" y1="46" x2="745.8555520454906" y2="49.5" style="stroke:#002eb8;"/><line x1="745.8555520454906" y1="49.5" x2="748.8555520454906" y2="53" style="stroke:#002eb8;"/><line x1="756.8555520454906" y1="46" x2="753.8555520454906" y2="49.5" style="stroke:#002eb8;"/><line x1="753.8555520454906" y1="49.5" x2="756.8555520454906" y2="53" style="stroke:#002eb8;"/><line x1="764.8555520454906" y1="46" x2="761.8555520454906" y2="49.5" style="stroke:#002eb8;"/><line x1="761.8555520454906" y1="49.5" x2="764.8555520454906" y2="53" style="stroke:#002eb8;"/><line x1="772.8555520454906" y1="46" x2="769.8555520454906" y2="49.5" style="stroke:#002eb8;"/><line x1="769.8555520454906" y1="49.5" x2="772.8555520454906" y2="53" style="stroke:#002eb8;"/><line x1="780.8555520454906" y1="46" x2="777.8555520454906" y2="49.5" style="stroke:#002eb8;"/><line x1="777.8555520454906" y1="49.5" x2="780.8555520454906" y2="53" style="stroke:#002eb8;"/><line x1="788.8555520454906" y1="46" x2="785.8555520454906" y2="49.5" style="stroke:#002eb8;"/><line x1="785.8555520454906" y1="49.5" x2="788.8555520454906" y2="53" style="stroke:#002eb8;"/><line x1="796.8555520454906" y1="46" x2="793.8555520454906" y2="49.5" style="stroke:#002eb8;"/><line x1="793.8555520454906" y1="49.5" x2="796.8555520454906" y2="53" style="stroke:#002eb8;"/><line x1="804.8555520454906" y1="46" x2="801.8555520454906" y2="49.5" style="stroke:#002eb8;"/><line x1="801.8555520454906" y1="49.5" x2="804.8555520454906" y2="53" style="stroke:#002eb8;"/><line x1="812.8555520454906" y1="46" x2="809.8555520454906" y2="49.5" style="stroke:#002eb8;"/><line x1="809.8555520454906" y1="49.5" x2="812.8555520454906" y2="53" style="stroke:#002eb8;"/><line x1="820.8555520454906" y1="46" x2="817.8555520454906" y2="49.5" style="stroke:#002eb8;"/><line x1="817.8555520454906" y1="49.5" x2="820.8555520454906" y2="53" style="stroke:#002eb8;"/><line x1="828.8555520454906" y1="46" x2="825.8555520454906" y2="49.5" style="stroke:#002eb8;"/><line x1="825.8555520454906" y1="49.5" x2="828.8555520454906" y2="53" style="stroke:#002eb8;"/><line x1="836.8555520454906" y1="46" x2="833.8555520454906" y2="49.5" style="stroke:#002eb8;"/><line x1="833.8555520454906" y1="49.5" x2="836.8555520454906" y2="53" style="stroke:#002eb8;"/><line x1="844.8555520454906" y1="46" x2="841.8555520454906" y2="49.5" style="stroke:#002eb8;"/><line x1="841.8555520454906" y1="49.5" x2="844.8555520454906" y2="53" style="stroke:#002eb8;"/><line x1="852.8555520454906" y1="46" x2="849.8555520454906" y2="49.5" style="stroke:#002eb8;"/><line x1="849.8555520454906" y1="49.5" x2="852.8555520454906" y2="53" style="stroke:#002eb8;"/><line x1="860.8555520454906" y1="46" x2="857.8555520454906" y2="49.5" style="stroke:#002eb8;"/><line x1="857.8555520454906" y1="49.5" x2="860.8555520454906" y2="53" style="stroke:#002eb8;"/><line x1="868.8555520454906" y1="46" x2="865.8555520454906" y2="49.5" style="stroke:#002eb8;"/><line x1="865.8555520454906" y1="49.5" x2="868.8555520454906" y2="53" style="stroke:#002eb8;"/><line x1="876.8555520454906" y1="46" x2="873.8555520454906" y2="49.5" style="stroke:#002eb8;"/><line x1="873.8555520454906" y1="49.5" x2="876.8555520454906" y2="53" style="stroke:#002eb8;"/><line x1="884.8555520454906" y1="46" x2="881.8555520454906" y2="49.5" style="stroke:#002eb8;"/><line x1="881.8555520454906" y1="49.5" x2="884.8555520454906" y2="53" style="stroke:#002eb8;"/><line x1="892.8555520454906" y1="46" x2="889.8555520454906" y2="49.5" style="stroke:#002eb8;"/><line x1="889.8555520454906" y1="49.5" x2="892.8555520454906" y2="53" style="stroke:#002eb8;"/><line x1="900.8555520454906" y1="46" x2="897.8555520454906" y2="49.5" style="stroke:#002eb8;"/><line x1="897.8555520454906" y1="49.5" x2="900.8555520454906" y2="53" style="stroke:#002eb8;"/><line x1="908.8555520454906" y1="46" x2="905.8555520454906" y2="49.5" style="stroke:#002eb8;"/><line x1="905.8555520454906" y1="49.5" x2="908.8555520454906" y2="53" style="stroke:#002eb8;"/><line x1="916.8555520454906" y1="46" x2="913.8555520454906" y2="49.5" style="stroke:#002eb8;"/><line x1="913.8555520454906" y1="49.5" x2="916.8555520454906" y2="53" style="stroke:#002eb8;"/><line x1="924.8555520454906" y1="46" x2="921.8555520454906" y2="49.5" style="stroke:#002eb8;"/><line x1="921.8555520454906" y1="49.5" x2="924.8555520454906" y2="53" style="stroke:#002eb8;"/><line x1="932.8555520454906" y1="46" x2="929.8555520454906" y2="49.5" style="stroke:#002eb8;"/><line x1="929.8555520454906" y1="49.5" x2="932.8555520454906" y2="53" style="stroke:#002eb8;"/><line x1="940.8555520454906" y1="46" x2="937.8555520454906" y2="49.5" style="stroke:#002eb8;"/><line x1="937.8555520454906" y1="49.5" x2="940.8555520454906" y2="53" style="stroke:#002eb8;"/><line x1="948.8555520454906" y1="46" x2="945.8555520454906" y2="49.5" style="stroke:#002eb8;"/><line x1="945.8555520454906" y1="49.5" x2="948.8555520454906" y2="53" style="stroke:#002eb8;"/><line x1="956.8555520454906" y1="46" x2="953.8555520454906" y2="49.5" style="stroke:#002eb8;"/><line x1="953.8555520454906" y1="49.5" x2="956.8555520454906" y2="53" style="stroke:#002eb8;"/><line x1="964.8555520454906" y1="46" x2="961.8555520454906" y2="49.5" style="stroke:#002eb8;"/><line x1="961.8555520454906" y1="49.5" x2="964.8555520454906" y2="53" style="stroke:#002eb8;"/><line x1="972.8555520454906" y1="46" x2="969.8555520454906" y2="49.5" style="stroke:#002eb8;"/><line x1="969.8555520454906" y1="49.5" x2="972.8555520454906" y2="53" style="stroke:#002eb8;"/><line x1="980.8555520454906" y1="46" x2="977.8555520454906" y2="49.5" style="stroke:#002eb8;"/><line x1="977.8555520454906" y1="49.5" x2="980.8555520454906" y2="53" style="stroke:#002eb8;"/><line x1="988.8555520454906" y1="46" x2="985.8555520454906" y2="49.5" style="stroke:#002eb8;"/><line x1="985.8555520454906" y1="49.5" x2="988.8555520454906" y2="53" style="stroke:#002eb8;"/><line x1="996.8555520454906" y1="46" x2="993.8555520454906" y2="49.5" style="stroke:#002eb8;"/><line x1="993.8555520454906" y1="49.5" x2="996.8555520454906" y2="53" style="stroke:#002eb8;"/><line x1="1004.8555520454906" y1="46" x2="1001.8555520454906" y2="49.5" style="stroke:#002eb8;"/><line x1="1001.8555520454906" y1="49.5" x2="1004.8555520454906" y2="53" style="stroke:#002eb8;"/><line x1="1012.8555520454906" y1="46" x2="1009.8555520454906" y2="49.5" style="stroke:#002eb8;"/><line x1="1009.8555520454906" y1="49.5" x2="1012.8555520454906" y2="53" style="stroke:#002eb8;"/><line x1="1020.8555520454906" y1="46" x2="1017.8555520454906" y2="49.5" style="stroke:#002eb8;"/><line x1="1017.8555520454906" y1="49.5" x2="1020.8555520454906" y2="53" style="stroke:#002eb8;"/><line x1="1028.8555520454906" y1="46" x2="1025.8555520454906" y2="49.5" style="stroke:#002eb8;"/><line x1="1025.8555520454906" y1="49.5" x2="1028.8555520454906" y2="53" style="stroke:#002eb8;"/><line x1="1036.8555520454906" y1="46" x2="1033.8555520454906" y2="49.5" style="stroke:#002eb8;"/><line x1="1033.8555520454906" y1="49.5" x2="1036.8555520454906" y2="53" style="stroke:#002eb8;"/><line x1="1044.8555520454906" y1="46" x2="1041.8555520454906" y2="49.5" style="stroke:#002eb8;"/><line x1="1041.8555520454906" y1="49.5" x2="1044.8555520454906" y2="53" style="stroke:#002eb8;"/><line x1="1052.8555520454906" y1="46" x2="1049.8555520454906" y2="49.5" style="stroke:#002eb8;"/><line x1="1049.8555520454906" y1="49.5" x2="1052.8555520454906" y2="53" style="stroke:#002eb8;"/><line x1="1057.8555520454906" y1="49.5" x2="1060" y2="53" style="stroke:#002eb8;"/><rect x="325.98641604801765" y="46" width="199.91154635918497" height="7" style="fill:#002EB8;"/><rect x="992.3582372453011" y="46" width="67.6417627546989" height="7" style="fill:#002EB8;"/><rect x="525.8979624072026" y="44" width="51.56847259516667" height="11" style="fill:#002EB8;"/><line x1="533.1821987047861" y1="46" x2="530.1821987047861" y2="49.5" style="stroke:#ffffff;"/><line x1="530.1821987047861" y1="49.5" x2="533.1821987047861" y2="53" style="stroke:#ffffff;"/><line x1="541.1821987047861" y1="46" x2="538.1821987047861" y2="49.5" style="stroke:#ffffff;"/><line x1="538.1821987047861" y1="49.5" x2="541.1821987047861" y2="53" style="stroke:#ffffff;"/><line x1="549.1821987047861" y1="46" x2="546.1821987047861" y2="49.5" style="stroke:#ffffff;"/><line x1="546.1821987047861" y1="49.5" x2="549.1821987047861" y2="53" style="stroke:#ffffff;"/><line x1="557.1821987047861" y1="46" x2="554.1821987047861" y2="49.5" style="stroke:#ffffff;"/><line x1="554.1821987047861" y1="49.5" x2="557.1821987047861" y2="53" style="stroke:#ffffff;"/><line x1="565.1821987047861" y1="46" x2="562.1821987047861" y2="49.5" style="stroke:#ffffff;"/><line x1="562.1821987047861" y1="49.5" x2="565.1821987047861" y2="53" style="stroke:#ffffff;"/><line x1="573.1821987047861" y1="46" x2="570.1821987047861" y2="49.5" style="stroke:#ffffff;"/><line x1="570.1821987047861" y1="49.5" x2="573.1821987047861" y2="53" style="stroke:#ffffff;"/><rect x="749.2497235823726" y="44" width="73.33438635286689" height="11" style="fill:#002EB8;"/><line x1="755.4169167588061" y1="46" x2="752.4169167588061" y2="49.5" style="stroke:#ffffff;"/><line x1="752.4169167588061" y1="49.5" x2="755.4169167588061" y2="53" style="stroke:#ffffff;"/><line x1="763.4169167588061" y1="46" x2="760.4169167588061" y2="49.5" style="stroke:#ffffff;"/><line x1="760.4169167588061" y1="49.5" x2="763.4169167588061" y2="53" style="stroke:#ffffff;"/><line x1="771.4169167588061" y1="46" x2="768.4169167588061" y2="49.5" style="stroke:#ffffff;"/><line x1="768.4169167588061" y1="49.5" x2="771.4169167588061" y2="53" style="stroke:#ffffff;"/><line x1="779.4169167588061" y1="46" x2="776.4169167588061" y2="49.5" style="stroke:#ffffff;"/><line x1="776.4169167588061" y1="49.5" x2="779.4169167588061" y2="53" style="stroke:#ffffff;"/><line x1="787.4169167588061" y1="46" x2="784.4169167588061" y2="49.5" style="stroke:#ffffff;"/><line x1="784.4169167588061" y1="49.5" x2="787.4169167588061" y2="53" style="stroke:#ffffff;"/><line x1="795.4169167588061" y1="46" x2="792.4169167588061" y2="49.5" style="stroke:#ffffff;"/><line x1="792.4169167588061" y1="49.5" x2="795.4169167588061" y2="53" style="stroke:#ffffff;"/><line x1="803.4169167588061" y1="46" x2="800.4169167588061" y2="49.5" style="stroke:#ffffff;"/><line x1="800.4169167588061" y1="49.5" x2="803.4169167588061" y2="53" style="stroke:#ffffff;"/><line x1="811.4169167588061" y1="46" x2="808.4169167588061" y2="49.5" style="stroke:#ffffff;"/><line x1="808.4169167588061" y1="49.5" x2="811.4169167588061" y2="53" style="stroke:#ffffff;"/><line x1="819.4169167588061" y1="46" x2="816.4169167588061" y2="49.5" style="stroke:#ffffff;"/><line x1="816.4169167588061" y1="49.5" x2="819.4169167588061" y2="53" style="stroke:#ffffff;"/><rect x="925.3861949139157" y="44" width="66.97204233138541" height="11" style="fill:#002EB8;"/><line x1="932.3722160796083" y1="46" x2="929.3722160796083" y2="49.5" style="stroke:#ffffff;"/><line x1="929.3722160796083" y1="49.5" x2="932.3722160796083" y2="53" style="stroke:#ffffff;"/><line x1="940.3722160796083" y1="46" x2="937.3722160796083" y2="49.5" style="stroke:#ffffff;"/><line x1="937.3722160796083" y1="49.5" x2="940.3722160796083" y2="53" style="stroke:#ffffff;"/><line x1="948.3722160796083" y1="46" x2="945.3722160796083" y2="49.5" style="stroke:#ffffff;"/><line x1="945.3722160796083" y1="49.5" x2="948.3722160796083" y2="53" style="stroke:#ffffff;"/><line x1="956.3722160796083" y1="46" x2="953.3722160796083" y2="49.5" style="stroke:#ffffff;"/><line x1="953.3722160796083" y1="49.5" x2="956.3722160796083" y2="53" style="stroke:#ffffff;"/><line x1="964.3722160796083" y1="46" x2="961.3722160796083" y2="49.5" style="stroke:#ffffff;"/><line x1="961.3722160796083" y1="49.5" x2="964.3722160796083" y2="53" style="stroke:#ffffff;"/><line x1="972.3722160796083" y1="46" x2="969.3722160796083" y2="49.5" style="stroke:#ffffff;"/><line x1="969.3722160796083" y1="49.5" x2="972.3722160796083" y2="53" style="stroke:#ffffff;"/><line x1="980.3722160796083" y1="46" x2="977.3722160796083" y2="49.5" style="stroke:#ffffff;"/><line x1="977.3722160796083" y1="49.5" x2="980.3722160796083" y2="53" style="stroke:#ffffff;"/><line x1="988.3722160796083" y1="46" x2="985.3722160796083" y2="49.5" style="stroke:#ffffff;"/><line x1="985.3722160796083" y1="49.5" x2="988.3722160796083" y2="53" style="stroke:#ffffff;"/><text font-family="arial" x="289.4410211505567" y="54" style="font-size:8pt;fill:#002eb8;">DUSP6</text><line x1="325.98641604801765" y1="61" x2="1060" y2="61" style="stroke:#002eb8;stroke-width:1;"/><line x1="332.85555204549064" y1="58" x2="329.85555204549064" y2="61.5" style="stroke:#002eb8;"/><line x1="329.85555204549064" y1="61.5" x2="332.85555204549064" y2="65" style="stroke:#002eb8;"/><line x1="340.85555204549064" y1="58" x2="337.85555204549064" y2="61.5" style="stroke:#002eb8;"/><line x1="337.85555204549064" y1="61.5" x2="340.85555204549064" y2="65" style="stroke:#002eb8;"/><line x1="348.85555204549064" y1="58" x2="345.85555204549064" y2="61.5" style="stroke:#002eb8;"/><line x1="345.85555204549064" y1="61.5" x2="348.85555204549064" y2="65" style="stroke:#002eb8;"/><line x1="356.85555204549064" y1="58" x2="353.85555204549064" y2="61.5" style="stroke:#002eb8;"/><line x1="353.85555204549064" y1="61.5" x2="356.85555204549064" y2="65" style="stroke:#002eb8;"/><line x1="364.85555204549064" y1="58" x2="361.85555204549064" y2="61.5" style="stroke:#002eb8;"/><line x1="361.85555204549064" y1="61.5" x2="364.85555204549064" y2="65" style="stroke:#002eb8;"/><line x1="372.85555204549064" y1="58" x2="369.85555204549064" y2="61.5" style="stroke:#002eb8;"/><line x1="369.85555204549064" y1="61.5" x2="372.85555204549064" y2="65" style="stroke:#002eb8;"/><line x1="380.85555204549064" y1="58" x2="377.85555204549064" y2="61.5" style="stroke:#002eb8;"/><line x1="377.85555204549064" y1="61.5" x2="380.85555204549064" y2="65" style="stroke:#002eb8;"/><line x1="388.85555204549064" y1="58" x2="385.85555204549064" y2="61.5" style="stroke:#002eb8;"/><line x1="385.85555204549064" y1="61.5" x2="388.85555204549064" y2="65" style="stroke:#002eb8;"/><line x1="396.85555204549064" y1="58" x2="393.85555204549064" y2="61.5" style="stroke:#002eb8;"/><line x1="393.85555204549064" y1="61.5" x2="396.85555204549064" y2="65" style="stroke:#002eb8;"/><line x1="404.85555204549064" y1="58" x2="401.85555204549064" y2="61.5" style="stroke:#002eb8;"/><line x1="401.85555204549064" y1="61.5" x2="404.85555204549064" y2="65" style="stroke:#002eb8;"/><line x1="412.85555204549064" y1="58" x2="409.85555204549064" y2="61.5" style="stroke:#002eb8;"/><line x1="409.85555204549064" y1="61.5" x2="412.85555204549064" y2="65" style="stroke:#002eb8;"/><line x1="420.85555204549064" y1="58" x2="417.85555204549064" y2="61.5" style="stroke:#002eb8;"/><line x1="417.85555204549064" y1="61.5" x2="420.85555204549064" y2="65" style="stroke:#002eb8;"/><line x1="428.85555204549064" y1="58" x2="425.85555204549064" y2="61.5" style="stroke:#002eb8;"/><line x1="425.85555204549064" y1="61.5" x2="428.85555204549064" y2="65" style="stroke:#002eb8;"/><line x1="436.85555204549064" y1="58" x2="433.85555204549064" y2="61.5" style="stroke:#002eb8;"/><line x1="433.85555204549064" y1="61.5" x2="436.85555204549064" y2="65" style="stroke:#002eb8;"/><line x1="444.85555204549064" y1="58" x2="441.85555204549064" y2="61.5" style="stroke:#002eb8;"/><line x1="441.85555204549064" y1="61.5" x2="444.85555204549064" y2="65" style="stroke:#002eb8;"/><line x1="452.85555204549064" y1="58" x2="449.85555204549064" y2="61.5" style="stroke:#002eb8;"/><line x1="449.85555204549064" y1="61.5" x2="452.85555204549064" y2="65" style="stroke:#002eb8;"/><line x1="460.85555204549064" y1="58" x2="457.85555204549064" y2="61.5" style="stroke:#002eb8;"/><line x1="457.85555204549064" y1="61.5" x2="460.85555204549064" y2="65" style="stroke:#002eb8;"/><line x1="468.85555204549064" y1="58" x2="465.85555204549064" y2="61.5" style="stroke:#002eb8;"/><line x1="465.85555204549064" y1="61.5" x2="468.85555204549064" y2="65" style="stroke:#002eb8;"/><line x1="476.85555204549064" y1="58" x2="473.85555204549064" y2="61.5" style="stroke:#002eb8;"/><line x1="473.85555204549064" y1="61.5" x2="476.85555204549064" y2="65" style="stroke:#002eb8;"/><line x1="484.85555204549064" y1="58" x2="481.85555204549064" y2="61.5" style="stroke:#002eb8;"/><line x1="481.85555204549064" y1="61.5" x2="484.85555204549064" y2="65" style="stroke:#002eb8;"/><line x1="492.85555204549064" y1="58" x2="489.85555204549064" y2="61.5" style="stroke:#002eb8;"/><line x1="489.85555204549064" y1="61.5" x2="492.85555204549064" y2="65" style="stroke:#002eb8;"/><line x1="500.85555204549064" y1="58" x2="497.85555204549064" y2="61.5" style="stroke:#002eb8;"/><line x1="497.85555204549064" y1="61.5" x2="500.85555204549064" y2="65" style="stroke:#002eb8;"/><line x1="508.85555204549064" y1="58" x2="505.85555204549064" y2="61.5" style="stroke:#002eb8;"/><line x1="505.85555204549064" y1="61.5" x2="508.85555204549064" y2="65" style="stroke:#002eb8;"/><line x1="516.8555520454906" y1="58" x2="513.8555520454906" y2="61.5" style="stroke:#002eb8;"/><line x1="513.8555520454906" y1="61.5" x2="516.8555520454906" y2="65" style="stroke:#002eb8;"/><line x1="524.8555520454906" y1="58" x2="521.8555520454906" y2="61.5" style="stroke:#002eb8;"/><line x1="521.8555520454906" y1="61.5" x2="524.8555520454906" y2="65" style="stroke:#002eb8;"/><line x1="532.8555520454906" y1="58" x2="529.8555520454906" y2="61.5" style="stroke:#002eb8;"/><line x1="529.8555520454906" y1="61.5" x2="532.8555520454906" y2="65" style="stroke:#002eb8;"/><line x1="540.8555520454906" y1="58" x2="537.8555520454906" y2="61.5" style="stroke:#002eb8;"/><line x1="537.8555520454906" y1="61.5" x2="540.8555520454906" y2="65" style="stroke:#002eb8;"/><line x1="548.8555520454906" y1="58" x2="545.8555520454906" y2="61.5" style="stroke:#002eb8;"/><line x1="545.8555520454906" y1="61.5" x2="548.8555520454906" y2="65" style="stroke:#002eb8;"/><line x1="556.8555520454906" y1="58" x2="553.8555520454906" y2="61.5" style="stroke:#002eb8;"/><line x1="553.8555520454906" y1="61.5" x2="556.8555520454906" y2="65" style="stroke:#002eb8;"/><line x1="564.8555520454906" y1="58" x2="561.8555520454906" y2="61.5" style="stroke:#002eb8;"/><line x1="561.8555520454906" y1="61.5" x2="564.8555520454906" y2="65" style="stroke:#002eb8;"/><line x1="572.8555520454906" y1="58" x2="569.8555520454906" y2="61.5" style="stroke:#002eb8;"/><line x1="569.8555520454906" y1="61.5" x2="572.8555520454906" y2="65" style="stroke:#002eb8;"/><line x1="580.8555520454906" y1="58" x2="577.8555520454906" y2="61.5" style="stroke:#002eb8;"/><line x1="577.8555520454906" y1="61.5" x2="580.8555520454906" y2="65" style="stroke:#002eb8;"/><line x1="588.8555520454906" y1="58" x2="585.8555520454906" y2="61.5" style="stroke:#002eb8;"/><line x1="585.8555520454906" y1="61.5" x2="588.8555520454906" y2="65" style="stroke:#002eb8;"/><line x1="596.8555520454906" y1="58" x2="593.8555520454906" y2="61.5" style="stroke:#002eb8;"/><line x1="593.8555520454906" y1="61.5" x2="596.8555520454906" y2="65" style="stroke:#002eb8;"/><line x1="604.8555520454906" y1="58" x2="601.8555520454906" y2="61.5" style="stroke:#002eb8;"/><line x1="601.8555520454906" y1="61.5" x2="604.8555520454906" y2="65" style="stroke:#002eb8;"/><line x1="612.8555520454906" y1="58" x2="609.8555520454906" y2="61.5" style="stroke:#002eb8;"/><line x1="609.8555520454906" y1="61.5" x2="612.8555520454906" y2="65" style="stroke:#002eb8;"/><line x1="620.8555520454906" y1="58" x2="617.8555520454906" y2="61.5" style="stroke:#002eb8;"/><line x1="617.8555520454906" y1="61.5" x2="620.8555520454906" y2="65" style="stroke:#002eb8;"/><line x1="628.8555520454906" y1="58" x2="625.8555520454906" y2="61.5" style="stroke:#002eb8;"/><line x1="625.8555520454906" y1="61.5" x2="628.8555520454906" y2="65" style="stroke:#002eb8;"/><line x1="636.8555520454906" y1="58" x2="633.8555520454906" y2="61.5" style="stroke:#002eb8;"/><line x1="633.8555520454906" y1="61.5" x2="636.8555520454906" y2="65" style="stroke:#002eb8;"/><line x1="644.8555520454906" y1="58" x2="641.8555520454906" y2="61.5" style="stroke:#002eb8;"/><line x1="641.8555520454906" y1="61.5" x2="644.8555520454906" y2="65" style="stroke:#002eb8;"/><line x1="652.8555520454906" y1="58" x2="649.8555520454906" y2="61.5" style="stroke:#002eb8;"/><line x1="649.8555520454906" y1="61.5" x2="652.8555520454906" y2="65" style="stroke:#002eb8;"/><line x1="660.8555520454906" y1="58" x2="657.8555520454906" y2="61.5" style="stroke:#002eb8;"/><line x1="657.8555520454906" y1="61.5" x2="660.8555520454906" y2="65" style="stroke:#002eb8;"/><line x1="668.8555520454906" y1="58" x2="665.8555520454906" y2="61.5" style="stroke:#002eb8;"/><line x1="665.8555520454906" y1="61.5" x2="668.8555520454906" y2="65" style="stroke:#002eb8;"/><line x1="676.8555520454906" y1="58" x2="673.8555520454906" y2="61.5" style="stroke:#002eb8;"/><line x1="673.8555520454906" y1="61.5" x2="676.8555520454906" y2="65" style="stroke:#002eb8;"/><line x1="684.8555520454906" y1="58" x2="681.8555520454906" y2="61.5" style="stroke:#002eb8;"/><line x1="681.8555520454906" y1="61.5" x2="684.8555520454906" y2="65" style="stroke:#002eb8;"/><line x1="692.8555520454906" y1="58" x2="689.8555520454906" y2="61.5" style="stroke:#002eb8;"/><line x1="689.8555520454906" y1="61.5" x2="692.8555520454906" y2="65" style="stroke:#002eb8;"/><line x1="700.8555520454906" y1="58" x2="697.8555520454906" y2="61.5" style="stroke:#002eb8;"/><line x1="697.8555520454906" y1="61.5" x2="700.8555520454906" y2="65" style="stroke:#002eb8;"/><line x1="708.8555520454906" y1="58" x2="705.8555520454906" y2="61.5" style="stroke:#002eb8;"/><line x1="705.8555520454906" y1="61.5" x2="708.8555520454906" y2="65" style="stroke:#002eb8;"/><line x1="716.8555520454906" y1="58" x2="713.8555520454906" y2="61.5" style="stroke:#002eb8;"/><line x1="713.8555520454906" y1="61.5" x2="716.8555520454906" y2="65" style="stroke:#002eb8;"/><line x1="724.8555520454906" y1="58" x2="721.8555520454906" y2="61.5" style="stroke:#002eb8;"/><line x1="721.8555520454906" y1="61.5" x2="724.8555520454906" y2="65" style="stroke:#002eb8;"/><line x1="732.8555520454906" y1="58" x2="729.8555520454906" y2="61.5" style="stroke:#002eb8;"/><line x1="729.8555520454906" y1="61.5" x2="732.8555520454906" y2="65" style="stroke:#002eb8;"/><line x1="740.8555520454906" y1="58" x2="737.8555520454906" y2="61.5" style="stroke:#002eb8;"/><line x1="737.8555520454906" y1="61.5" x2="740.8555520454906" y2="65" style="stroke:#002eb8;"/><line x1="748.8555520454906" y1="58" x2="745.8555520454906" y2="61.5" style="stroke:#002eb8;"/><line x1="745.8555520454906" y1="61.5" x2="748.8555520454906" y2="65" style="stroke:#002eb8;"/><line x1="756.8555520454906" y1="58" x2="753.8555520454906" y2="61.5" style="stroke:#002eb8;"/><line x1="753.8555520454906" y1="61.5" x2="756.8555520454906" y2="65" style="stroke:#002eb8;"/><line x1="764.8555520454906" y1="58" x2="761.8555520454906" y2="61.5" style="stroke:#002eb8;"/><line x1="761.8555520454906" y1="61.5" x2="764.8555520454906" y2="65" style="stroke:#002eb8;"/><line x1="772.8555520454906" y1="58" x2="769.8555520454906" y2="61.5" style="stroke:#002eb8;"/><line x1="769.8555520454906" y1="61.5" x2="772.8555520454906" y2="65" style="stroke:#002eb8;"/><line x1="780.8555520454906" y1="58" x2="777.8555520454906" y2="61.5" style="stroke:#002eb8;"/><line x1="777.8555520454906" y1="61.5" x2="780.8555520454906" y2="65" style="stroke:#002eb8;"/><line x1="788.8555520454906" y1="58" x2="785.8555520454906" y2="61.5" style="stroke:#002eb8;"/><line x1="785.8555520454906" y1="61.5" x2="788.8555520454906" y2="65" style="stroke:#002eb8;"/><line x1="796.8555520454906" y1="58" x2="793.8555520454906" y2="61.5" style="stroke:#002eb8;"/><line x1="793.8555520454906" y1="61.5" x2="796.8555520454906" y2="65" style="stroke:#002eb8;"/><line x1="804.8555520454906" y1="58" x2="801.8555520454906" y2="61.5" style="stroke:#002eb8;"/><line x1="801.8555520454906" y1="61.5" x2="804.8555520454906" y2="65" style="stroke:#002eb8;"/><line x1="812.8555520454906" y1="58" x2="809.8555520454906" y2="61.5" style="stroke:#002eb8;"/><line x1="809.8555520454906" y1="61.5" x2="812.8555520454906" y2="65" style="stroke:#002eb8;"/><line x1="820.8555520454906" y1="58" x2="817.8555520454906" y2="61.5" style="stroke:#002eb8;"/><line x1="817.8555520454906" y1="61.5" x2="820.8555520454906" y2="65" style="stroke:#002eb8;"/><line x1="828.8555520454906" y1="58" x2="825.8555520454906" y2="61.5" style="stroke:#002eb8;"/><line x1="825.8555520454906" y1="61.5" x2="828.8555520454906" y2="65" style="stroke:#002eb8;"/><line x1="836.8555520454906" y1="58" x2="833.8555520454906" y2="61.5" style="stroke:#002eb8;"/><line x1="833.8555520454906" y1="61.5" x2="836.8555520454906" y2="65" style="stroke:#002eb8;"/><line x1="844.8555520454906" y1="58" x2="841.8555520454906" y2="61.5" style="stroke:#002eb8;"/><line x1="841.8555520454906" y1="61.5" x2="844.8555520454906" y2="65" style="stroke:#002eb8;"/><line x1="852.8555520454906" y1="58" x2="849.8555520454906" y2="61.5" style="stroke:#002eb8;"/><line x1="849.8555520454906" y1="61.5" x2="852.8555520454906" y2="65" style="stroke:#002eb8;"/><line x1="860.8555520454906" y1="58" x2="857.8555520454906" y2="61.5" style="stroke:#002eb8;"/><line x1="857.8555520454906" y1="61.5" x2="860.8555520454906" y2="65" style="stroke:#002eb8;"/><line x1="868.8555520454906" y1="58" x2="865.8555520454906" y2="61.5" style="stroke:#002eb8;"/><line x1="865.8555520454906" y1="61.5" x2="868.8555520454906" y2="65" style="stroke:#002eb8;"/><line x1="876.8555520454906" y1="58" x2="873.8555520454906" y2="61.5" style="stroke:#002eb8;"/><line x1="873.8555520454906" y1="61.5" x2="876.8555520454906" y2="65" style="stroke:#002eb8;"/><line x1="884.8555520454906" y1="58" x2="881.8555520454906" y2="61.5" style="stroke:#002eb8;"/><line x1="881.8555520454906" y1="61.5" x2="884.8555520454906" y2="65" style="stroke:#002eb8;"/><line x1="892.8555520454906" y1="58" x2="889.8555520454906" y2="61.5" style="stroke:#002eb8;"/><line x1="889.8555520454906" y1="61.5" x2="892.8555520454906" y2="65" style="stroke:#002eb8;"/><line x1="900.8555520454906" y1="58" x2="897.8555520454906" y2="61.5" style="stroke:#002eb8;"/><line x1="897.8555520454906" y1="61.5" x2="900.8555520454906" y2="65" style="stroke:#002eb8;"/><line x1="908.8555520454906" y1="58" x2="905.8555520454906" y2="61.5" style="stroke:#002eb8;"/><line x1="905.8555520454906" y1="61.5" x2="908.8555520454906" y2="65" style="stroke:#002eb8;"/><line x1="916.8555520454906" y1="58" x2="913.8555520454906" y2="61.5" style="stroke:#002eb8;"/><line x1="913.8555520454906" y1="61.5" x2="916.8555520454906" y2="65" style="stroke:#002eb8;"/><line x1="924.8555520454906" y1="58" x2="921.8555520454906" y2="61.5" style="stroke:#002eb8;"/><line x1="921.8555520454906" y1="61.5" x2="924.8555520454906" y2="65" style="stroke:#002eb8;"/><line x1="932.8555520454906" y1="58" x2="929.8555520454906" y2="61.5" style="stroke:#002eb8;"/><line x1="929.8555520454906" y1="61.5" x2="932.8555520454906" y2="65" style="stroke:#002eb8;"/><line x1="940.8555520454906" y1="58" x2="937.8555520454906" y2="61.5" style="stroke:#002eb8;"/><line x1="937.8555520454906" y1="61.5" x2="940.8555520454906" y2="65" style="stroke:#002eb8;"/><line x1="948.8555520454906" y1="58" x2="945.8555520454906" y2="61.5" style="stroke:#002eb8;"/><line x1="945.8555520454906" y1="61.5" x2="948.8555520454906" y2="65" style="stroke:#002eb8;"/><line x1="956.8555520454906" y1="58" x2="953.8555520454906" y2="61.5" style="stroke:#002eb8;"/><line x1="953.8555520454906" y1="61.5" x2="956.8555520454906" y2="65" style="stroke:#002eb8;"/><line x1="964.8555520454906" y1="58" x2="961.8555520454906" y2="61.5" style="stroke:#002eb8;"/><line x1="961.8555520454906" y1="61.5" x2="964.8555520454906" y2="65" style="stroke:#002eb8;"/><line x1="972.8555520454906" y1="58" x2="969.8555520454906" y2="61.5" style="stroke:#002eb8;"/><line x1="969.8555520454906" y1="61.5" x2="972.8555520454906" y2="65" style="stroke:#002eb8;"/><line x1="980.8555520454906" y1="58" x2="977.8555520454906" y2="61.5" style="stroke:#002eb8;"/><line x1="977.8555520454906" y1="61.5" x2="980.8555520454906" y2="65" style="stroke:#002eb8;"/><line x1="988.8555520454906" y1="58" x2="985.8555520454906" y2="61.5" style="stroke:#002eb8;"/><line x1="985.8555520454906" y1="61.5" x2="988.8555520454906" y2="65" style="stroke:#002eb8;"/><line x1="996.8555520454906" y1="58" x2="993.8555520454906" y2="61.5" style="stroke:#002eb8;"/><line x1="993.8555520454906" y1="61.5" x2="996.8555520454906" y2="65" style="stroke:#002eb8;"/><line x1="1004.8555520454906" y1="58" x2="1001.8555520454906" y2="61.5" style="stroke:#002eb8;"/><line x1="1001.8555520454906" y1="61.5" x2="1004.8555520454906" y2="65" style="stroke:#002eb8;"/><line x1="1012.8555520454906" y1="58" x2="1009.8555520454906" y2="61.5" style="stroke:#002eb8;"/><line x1="1009.8555520454906" y1="61.5" x2="1012.8555520454906" y2="65" style="stroke:#002eb8;"/><line x1="1020.8555520454906" y1="58" x2="1017.8555520454906" y2="61.5" style="stroke:#002eb8;"/><line x1="1017.8555520454906" y1="61.5" x2="1020.8555520454906" y2="65" style="stroke:#002eb8;"/><line x1="1028.8555520454906" y1="58" x2="1025.8555520454906" y2="61.5" style="stroke:#002eb8;"/><line x1="1025.8555520454906" y1="61.5" x2="1028.8555520454906" y2="65" style="stroke:#002eb8;"/><line x1="1036.8555520454906" y1="58" x2="1033.8555520454906" y2="61.5" style="stroke:#002eb8;"/><line x1="1033.8555520454906" y1="61.5" x2="1036.8555520454906" y2="65" style="stroke:#002eb8;"/><line x1="1044.8555520454906" y1="58" x2="1041.8555520454906" y2="61.5" style="stroke:#002eb8;"/><line x1="1041.8555520454906" y1="61.5" x2="1044.8555520454906" y2="65" style="stroke:#002eb8;"/><line x1="1052.8555520454906" y1="58" x2="1049.8555520454906" y2="61.5" style="stroke:#002eb8;"/><line x1="1049.8555520454906" y1="61.5" x2="1052.8555520454906" y2="65" style="stroke:#002eb8;"/><line x1="1057.8555520454906" y1="61.5" x2="1060" y2="65" style="stroke:#002eb8;"/><rect x="325.98641604801765" y="58" width="199.91154635918497" height="7" style="fill:#002EB8;"/><rect x="992.3582372453011" y="58" width="67.6417627546989" height="7" style="fill:#002EB8;"/><rect x="525.8979624072026" y="56" width="51.56847259516667" height="11" style="fill:#002EB8;"/><line x1="533.1821987047861" y1="58" x2="530.1821987047861" y2="61.5" style="stroke:#ffffff;"/><line x1="530.1821987047861" y1="61.5" x2="533.1821987047861" y2="65" style="stroke:#ffffff;"/><line x1="541.1821987047861" y1="58" x2="538.1821987047861" y2="61.5" style="stroke:#ffffff;"/><line x1="538.1821987047861" y1="61.5" x2="541.1821987047861" y2="65" style="stroke:#ffffff;"/><line x1="549.1821987047861" y1="58" x2="546.1821987047861" y2="61.5" style="stroke:#ffffff;"/><line x1="546.1821987047861" y1="61.5" x2="549.1821987047861" y2="65" style="stroke:#ffffff;"/><line x1="557.1821987047861" y1="58" x2="554.1821987047861" y2="61.5" style="stroke:#ffffff;"/><line x1="554.1821987047861" y1="61.5" x2="557.1821987047861" y2="65" style="stroke:#ffffff;"/><line x1="565.1821987047861" y1="58" x2="562.1821987047861" y2="61.5" style="stroke:#ffffff;"/><line x1="562.1821987047861" y1="61.5" x2="565.1821987047861" y2="65" style="stroke:#ffffff;"/><line x1="573.1821987047861" y1="58" x2="570.1821987047861" y2="61.5" style="stroke:#ffffff;"/><line x1="570.1821987047861" y1="61.5" x2="573.1821987047861" y2="65" style="stroke:#ffffff;"/><rect x="925.3861949139157" y="56" width="66.97204233138541" height="11" style="fill:#002EB8;"/><line x1="932.3722160796083" y1="58" x2="929.3722160796083" y2="61.5" style="stroke:#ffffff;"/><line x1="929.3722160796083" y1="61.5" x2="932.3722160796083" y2="65" style="stroke:#ffffff;"/><line x1="940.3722160796083" y1="58" x2="937.3722160796083" y2="61.5" style="stroke:#ffffff;"/><line x1="937.3722160796083" y1="61.5" x2="940.3722160796083" y2="65" style="stroke:#ffffff;"/><line x1="948.3722160796083" y1="58" x2="945.3722160796083" y2="61.5" style="stroke:#ffffff;"/><line x1="945.3722160796083" y1="61.5" x2="948.3722160796083" y2="65" style="stroke:#ffffff;"/><line x1="956.3722160796083" y1="58" x2="953.3722160796083" y2="61.5" style="stroke:#ffffff;"/><line x1="953.3722160796083" y1="61.5" x2="956.3722160796083" y2="65" style="stroke:#ffffff;"/><line x1="964.3722160796083" y1="58" x2="961.3722160796083" y2="61.5" style="stroke:#ffffff;"/><line x1="961.3722160796083" y1="61.5" x2="964.3722160796083" y2="65" style="stroke:#ffffff;"/><line x1="972.3722160796083" y1="58" x2="969.3722160796083" y2="61.5" style="stroke:#ffffff;"/><line x1="969.3722160796083" y1="61.5" x2="972.3722160796083" y2="65" style="stroke:#ffffff;"/><line x1="980.3722160796083" y1="58" x2="977.3722160796083" y2="61.5" style="stroke:#ffffff;"/><line x1="977.3722160796083" y1="61.5" x2="980.3722160796083" y2="65" style="stroke:#ffffff;"/><line x1="988.3722160796083" y1="58" x2="985.3722160796083" y2="61.5" style="stroke:#ffffff;"/><line x1="985.3722160796083" y1="61.5" x2="988.3722160796083" y2="65" style="stroke:#ffffff;"/><text font-family="arial" x="289.4410211505567" y="66" style="font-size:8pt;fill:#002eb8;">DUSP6</text><line x1="0" y1="67" x2="1060" y2="67" style="stroke:#ccc;stroke-width:0.5;"/><rect x="0" y="67" width="1060" height="12" style="fill:white;"/><rect x="0" y="68" width="25.281945980098044" height="11" style="fill:#336666;"/><rect x="38.84378455220349" y="68" width="32.31401042489347" height="11" style="fill:#336666;"/><rect x="980.9729900489656" y="68" width="79.02700995103442" height="11" style="fill:#336666;"/><line x1="0" y1="79" x2="1060" y2="79" style="stroke:#ccc;stroke-width:0.5;"/><rect x="0" y="79" width="1060" height="215" style="fill:white;"/><path d="M8.706365503080178 79 A 729.1435062391176 729.1435062391176 1 0 0 1040.5781077238985 79" style="fill: none; stroke:rgb(184,0,138);stroke-opacity:1; stroke-width:1;"/><rect x="0" y="20" width="1060" height="14" style="fill:rgb(0,0,0);"/><text font-family="arial" x="513.4062423706055" y="30" style="font-size:8pt;fill:#ffffff;">q21.33</text><line x1="0" y1="20.5" x2="1060" y2="20.5" style="stroke:#000000;"/><line x1="0" y1="33.5" x2="1060" y2="33.5" style="stroke:#000000;"/><text font-family="arial" x="515.7771530151367" y="43" style="font-size:8pt;fill:#000000;">chr12</text><rect x="1060" y="0" width="0" height="20" style="fill:white;"/><rect x="1060" y="20" width="0" height="408" style="fill:white;"/></svg>