<svg xmlns="http://www.w3.org/2000/svg" version="1.1" width="1060" height="358"><line x1="0" y1="16.5" x2="1060" y2="16.5" style="stroke:#000000;"/><line x1="18.33594390961707" y1="12" x2="18.33594390961707" y2="17" style="stroke:#000000;"/><text font-family="arial" x="62.57737684871381" y="10" style="font-size:8pt;fill:#000000;">53900000</text><line x1="84.82347059871381" y1="12" x2="84.82347059871381" y2="17" style="stroke:#000000;"/><text font-family="arial" x="129.06490353781055" y="10" style="font-size:8pt;fill:#000000;">54000000</text><line x1="151.31099728781055" y1="12" x2="151.31099728781055" y2="17" style="stroke:#000000;"/><text font-family="arial" x="195.55243022690752" y="10" style="font-size:8pt;fill:#000000;">54100000</text><line x1="217.79852397690752" y1="12" x2="217.79852397690752" y2="17" style="stroke:#000000;"/><text font-family="arial" x="262.03995691600426" y="10" style="font-size:8pt;fill:#000000;">54200000</text><line x1="284.28605066600426" y1="12" x2="284.28605066600426" y2="17" style="stroke:#000000;"/><text font-family="arial" x="328.527483605101" y="10" style="font-size:8pt;fill:#000000;">54300000</text><line x1="350.773577355101" y1="12" x2="350.773577355101" y2="17" style="stroke:#000000;"/><text font-family="arial" x="395.01501029419774" y="10" style="font-size:8pt;fill:#000000;">54400000</text><line x1="417.26110404419774" y1="12" x2="417.26110404419774" y2="17" style="stroke:#000000;"/><text font-family="arial" x="461.5025369832947" y="10" style="font-size:8pt;fill:#000000;">54500000</text><line x1="483.7486307332947" y1="12" x2="483.7486307332947" y2="17" style="stroke:#000000;"/><text font-family="arial" x="527.9900636723914" y="10" style="font-size:8pt;fill:#000000;">54600000</text><line x1="550.2361574223914" y1="12" x2="550.2361574223914" y2="17" style="stroke:#000000;"/><text font-family="arial" x="594.4775903614882" y="10" style="font-size:8pt;fill:#000000;">54700000</text><line x1="616.7236841114882" y1="12" x2="616.7236841114882" y2="17" style="stroke:#000000;"/><text font-family="arial" x="660.9651170505849" y="10" style="font-size:8pt;fill:#000000;">54800000</text><line x1="683.2112108005849" y1="12" x2="683.2112108005849" y2="17" style="stroke:#000000;"/><text font-family="arial" x="727.4526437396819" y="10" style="font-size:8pt;fill:#000000;">54900000</text><line x1="749.6987374896819" y1="12" x2="749.6987374896819" y2="17" style="stroke:#000000;"/><text font-family="arial" x="793.9401704287786" y="10" style="font-size:8pt;fill:#000000;">55000000</text><line x1="816.1862641787786" y1="12" x2="816.1862641787786" y2="17" style="stroke:#000000;"/><text font-family="arial" x="860.4276971178754" y="10" style="font-size:8pt;fill:#000000;">55100000</text><line x1="882.6737908678754" y1="12" x2="882.6737908678754" y2="17" style="stroke:#000000;"/><text font-family="arial" x="926.9152238069721" y="10" style="font-size:8pt;fill:#000000;">55200000</text><line x1="949.1613175569721" y1="12" x2="949.1613175569721" y2="17" style="stroke:#000000;"/><text font-family="arial" x="993.4027504960691" y="10" style="font-size:8pt;fill:#000000;">55300000</text><line x1="1015.6488442460691" y1="12" x2="1015.6488442460691" y2="17" style="stroke:#000000;"/><text font-family="arial" x="1059.8902771851658" y="10" style="font-size:8pt;fill:#000000;">55400000</text><line x1="0" y1="43" x2="1060" y2="43" style="stroke:#ccc;stroke-width:0.5;"/><rect x="0" y="43" width="1060" height="48" style="fill:white;"/><line x1="0" y1="73" x2="249.4638596385587" y2="73" style="stroke:#002eb8;stroke-width:1;"/><line x1="3.4965489210203486" y1="70" x2="6.496548921020349" y2="73.5" style="stroke:#002eb8;"/><line x1="6.496548921020349" y1="73.5" x2="3.4965489210203486" y2="77" style="stroke:#002eb8;"/><line x1="11.496548921020349" y1="70" x2="14.496548921020349" y2="73.5" style="stroke:#002eb8;"/><line x1="14.496548921020349" y1="73.5" x2="11.496548921020349" y2="77" style="stroke:#002eb8;"/><line x1="19.49654892102035" y1="70" x2="22.49654892102035" y2="73.5" style="stroke:#002eb8;"/><line x1="22.49654892102035" y1="73.5" x2="19.49654892102035" y2="77" style="stroke:#002eb8;"/><line x1="27.49654892102035" y1="70" x2="30.49654892102035" y2="73.5" style="stroke:#002eb8;"/><line x1="30.49654892102035" y1="73.5" x2="27.49654892102035" y2="77" style="stroke:#002eb8;"/><line x1="35.49654892102035" y1="70" x2="38.49654892102035" y2="73.5" style="stroke:#002eb8;"/><line x1="38.49654892102035" y1="73.5" x2="35.49654892102035" y2="77" style="stroke:#002eb8;"/><line x1="43.49654892102035" y1="70" x2="46.49654892102035" y2="73.5" style="stroke:#002eb8;"/><line x1="46.49654892102035" y1="73.5" x2="43.49654892102035" y2="77" style="stroke:#002eb8;"/><line x1="51.49654892102035" y1="70" x2="54.49654892102035" y2="73.5" style="stroke:#002eb8;"/><line x1="54.49654892102035" y1="73.5" x2="51.49654892102035" y2="77" style="stroke:#002eb8;"/><line x1="59.49654892102035" y1="70" x2="62.49654892102035" y2="73.5" style="stroke:#002eb8;"/><line x1="62.49654892102035" y1="73.5" x2="59.49654892102035" y2="77" style="stroke:#002eb8;"/><line x1="67.49654892102035" y1="70" x2="70.49654892102035" y2="73.5" style="stroke:#002eb8;"/><line x1="70.49654892102035" y1="73.5" x2="67.49654892102035" y2="77" style="stroke:#002eb8;"/><line x1="75.49654892102035" y1="70" x2="78.49654892102035" y2="73.5" style="stroke:#002eb8;"/><line x1="78.49654892102035" y1="73.5" x2="75.49654892102035" y2="77" style="stroke:#002eb8;"/><line x1="83.49654892102035" y1="70" x2="86.49654892102035" y2="73.5" style="stroke:#002eb8;"/><line x1="86.49654892102035" y1="73.5" x2="83.49654892102035" y2="77" style="stroke:#002eb8;"/><line x1="91.49654892102035" y1="70" x2="94.49654892102035" y2="73.5" style="stroke:#002eb8;"/><line x1="94.49654892102035" y1="73.5" x2="91.49654892102035" y2="77" style="stroke:#002eb8;"/><line x1="99.49654892102035" y1="70" x2="102.49654892102035" y2="73.5" style="stroke:#002eb8;"/><line x1="102.49654892102035" y1="73.5" x2="99.49654892102035" y2="77" style="stroke:#002eb8;"/><line x1="107.49654892102035" y1="70" x2="110.49654892102035" y2="73.5" style="stroke:#002eb8;"/><line x1="110.49654892102035" y1="73.5" x2="107.49654892102035" y2="77" style="stroke:#002eb8;"/><line x1="115.49654892102035" y1="70" x2="118.49654892102035" y2="73.5" style="stroke:#002eb8;"/><line x1="118.49654892102035" y1="73.5" x2="115.49654892102035" y2="77" style="stroke:#002eb8;"/><line x1="123.49654892102035" y1="70" x2="126.49654892102035" y2="73.5" style="stroke:#002eb8;"/><line x1="126.49654892102035" y1="73.5" x2="123.49654892102035" y2="77" style="stroke:#002eb8;"/><line x1="131.49654892102035" y1="70" x2="134.49654892102035" y2="73.5" style="stroke:#002eb8;"/><line x1="134.49654892102035" y1="73.5" x2="131.49654892102035" y2="77" style="stroke:#002eb8;"/><line x1="139.49654892102035" y1="70" x2="142.49654892102035" y2="73.5" style="stroke:#002eb8;"/><line x1="142.49654892102035" y1="73.5" x2="139.49654892102035" y2="77" style="stroke:#002eb8;"/><line x1="147.49654892102035" y1="70" x2="150.49654892102035" y2="73.5" style="stroke:#002eb8;"/><line x1="150.49654892102035" y1="73.5" x2="147.49654892102035" y2="77" style="stroke:#002eb8;"/><line x1="155.49654892102035" y1="70" x2="158.49654892102035" y2="73.5" style="stroke:#002eb8;"/><line x1="158.49654892102035" y1="73.5" x2="155.49654892102035" y2="77" style="stroke:#002eb8;"/><line x1="163.49654892102035" y1="70" x2="166.49654892102035" y2="73.5" style="stroke:#002eb8;"/><line x1="166.49654892102035" y1="73.5" x2="163.49654892102035" y2="77" style="stroke:#002eb8;"/><line x1="171.49654892102035" y1="70" x2="174.49654892102035" y2="73.5" style="stroke:#002eb8;"/><line x1="174.49654892102035" y1="73.5" x2="171.49654892102035" y2="77" style="stroke:#002eb8;"/><line x1="179.49654892102035" y1="70" x2="182.49654892102035" y2="73.5" style="stroke:#002eb8;"/><line x1="182.49654892102035" y1="73.5" x2="179.49654892102035" y2="77" style="stroke:#002eb8;"/><line x1="187.49654892102035" y1="70" x2="190.49654892102035" y2="73.5" style="stroke:#002eb8;"/><line x1="190.49654892102035" y1="73.5" x2="187.49654892102035" y2="77" style="stroke:#002eb8;"/><line x1="195.49654892102035" y1="70" x2="198.49654892102035" y2="73.5" style="stroke:#002eb8;"/><line x1="198.49654892102035" y1="73.5" x2="195.49654892102035" y2="77" style="stroke:#002eb8;"/><line x1="203.49654892102035" y1="70" x2="206.49654892102035" y2="73.5" style="stroke:#002eb8;"/><line x1="206.49654892102035" y1="73.5" x2="203.49654892102035" y2="77" style="stroke:#002eb8;"/><line x1="211.49654892102035" y1="70" x2="214.49654892102035" y2="73.5" style="stroke:#002eb8;"/><line x1="214.49654892102035" y1="73.5" x2="211.49654892102035" y2="77" style="stroke:#002eb8;"/><line x1="219.49654892102035" y1="70" x2="222.49654892102035" y2="73.5" style="stroke:#002eb8;"/><line x1="222.49654892102035" y1="73.5" x2="219.49654892102035" y2="77" style="stroke:#002eb8;"/><line x1="227.49654892102035" y1="70" x2="230.49654892102035" y2="73.5" style="stroke:#002eb8;"/><line x1="230.49654892102035" y1="73.5" x2="227.49654892102035" y2="77" style="stroke:#002eb8;"/><line x1="235.49654892102035" y1="70" x2="238.49654892102035" y2="73.5" style="stroke:#002eb8;"/><line x1="238.49654892102035" y1="73.5" x2="235.49654892102035" y2="77" style="stroke:#002eb8;"/><line x1="243.49654892102035" y1="70" x2="246.49654892102035" y2="73.5" style="stroke:#002eb8;"/><line x1="246.49654892102035" y1="73.5" x2="243.49654892102035" y2="77" style="stroke:#002eb8;"/><rect x="247.76709795745296" y="70" width="1.696761681105727" height="7" style="fill:#002EB8;"/><rect x="47.1236994161643" y="68" width="1" height="11" style="fill:#002EB8;"/><rect x="57.57819811275772" y="68" width="1" height="11" style="fill:#002EB8;"/><rect x="69.73943161946045" y="68" width="1" height="11" style="fill:#002EB8;"/><rect x="89.44035065270668" y="68" width="1" height="11" style="fill:#002EB8;"/><rect x="93.46816501953231" y="68" width="1" height="11" style="fill:#002EB8;"/><rect x="99.44406391834832" y="68" width="1" height="11" style="fill:#002EB8;"/><rect x="129.46517684427613" y="68" width="1" height="11" style="fill:#002EB8;"/><rect x="247.66470716635172" y="68" width="1" height="11" style="fill:#002EB8;"/><text font-family="arial" x="250.4638596385587" y="78" style="font-size:8pt;fill:#002eb8;">FTO</text><line x1="199.54834897671935" y1="49" x2="200.20059161353925" y2="49" style="stroke:#002eb8;stroke-width:1;"/><rect x="199.54834897671935" y="46" width="1" height="7" style="fill:#002EB8;"/><rect x="199.65007489255368" y="46" width="1" height="7" style="fill:#002EB8;"/><text font-family="arial" x="158.46933896695373" y="54" style="font-size:8pt;fill:#002eb8;">FTO-IT1</text><line x1="361.7160806982945" y1="49" x2="363.82174066853827" y2="49" style="stroke:#002eb8;stroke-width:1;"/><rect x="361.7160806982945" y="46" width="1" height="7" style="fill:#002EB8;"/><rect x="363.5451525575115" y="46" width="1" height="7" style="fill:#002EB8;"/><rect x="361.9727225513145" y="44" width="1" height="11" style="fill:#002EB8;"/><rect x="362.3450527007735" y="44" width="1" height="11" style="fill:#002EB8;"/><rect x="362.5119363927631" y="44" width="1" height="11" style="fill:#002EB8;"/><rect x="363.36763086125166" y="44" width="1" height="11" style="fill:#002EB8;"/><text font-family="arial" x="337.01741126470074" y="54" style="font-size:8pt;fill:#002eb8;">IRX3</text><line x1="784.2875296998527" y1="49" x2="791.1523668305019" y2="49" style="stroke:#002eb8;stroke-width:1;"/><rect x="784.2875296998527" y="46" width="1" height="7" style="fill:#002EB8;"/><rect x="785.2402959573074" y="46" width="1" height="7" style="fill:#002EB8;"/><rect x="787.425740959578" y="46" width="1" height="7" style="fill:#002EB8;"/><rect x="788.4336918641848" y="46" width="1" height="7" style="fill:#002EB8;"/><rect x="790.8731192184077" y="46" width="1" height="7" style="fill:#002EB8;"/><text font-family="arial" x="745.3842551637199" y="54" style="font-size:8pt;fill:#002eb8;">CRNDE</text><line x1="784.2881945751194" y1="61" x2="790.8791030958096" y2="61" style="stroke:#002eb8;stroke-width:1;"/><rect x="784.2881945751194" y="58" width="1" height="7" style="fill:#002EB8;"/><rect x="785.2402959573074" y="58" width="1" height="7" style="fill:#002EB8;"/><rect x="787.425740959578" y="58" width="1" height="7" style="fill:#002EB8;"/><rect x="788.4336918641848" y="58" width="1" height="7" style="fill:#002EB8;"/><rect x="790.6896136447458" y="58" width="1" height="7" style="fill:#002EB8;"/><text font-family="arial" x="745.3849200389866" y="66" style="font-size:8pt;fill:#002eb8;">CRNDE</text><line x1="792.4881012416859" y1="73" x2="794.6722164934226" y2="73" style="stroke:#002eb8;stroke-width:1;"/><rect x="794.2666425806192" y="70" width="1" height="7" style="fill:#002EB8;"/><rect x="792.4881012416859" y="68" width="1" height="11" style="fill:#002EB8;"/><rect x="793.3517742133772" y="68" width="1" height="11" style="fill:#002EB8;"/><rect x="793.7387316187078" y="68" width="1" height="11" style="fill:#002EB8;"/><text font-family="arial" x="767.7894318080921" y="78" style="font-size:8pt;fill:#002eb8;">IRX5</text><line x1="792.4881012416859" y1="85" x2="794.6722164934226" y2="85" style="stroke:#002eb8;stroke-width:1;"/><rect x="794.2666425806192" y="82" width="1" height="7" style="fill:#002EB8;"/><rect x="792.4881012416859" y="80" width="1" height="11" style="fill:#002EB8;"/><rect x="793.3517742133772" y="80" width="1" height="11" style="fill:#002EB8;"/><rect x="793.736736992907" y="80" width="1" height="11" style="fill:#002EB8;"/><text font-family="arial" x="767.7894318080921" y="90" style="font-size:8pt;fill:#002eb8;">IRX5</text><line x1="1054.023436225917" y1="49" x2="1058.1469926311747" y2="49" style="stroke:#002eb8;stroke-width:1;"/><rect x="1054.023436225917" y="46" width="1" height="7" style="fill:#002EB8;"/><rect x="1057.8444743847394" y="46" width="1" height="7" style="fill:#002EB8;"/><rect x="1054.37781474317" y="44" width="1" height="11" style="fill:#002EB8;"/><rect x="1055.2049195751824" y="44" width="1" height="11" style="fill:#002EB8;"/><rect x="1055.8431998313977" y="44" width="1" height="11" style="fill:#002EB8;"/><rect x="1056.036013658796" y="44" width="1" height="11" style="fill:#002EB8;"/><rect x="1056.7766847061125" y="44" width="1" height="11" style="fill:#002EB8;"/><rect x="1057.839155382604" y="44" width="1" height="11" style="fill:#002EB8;"/><text font-family="arial" x="1029.3247667923233" y="54" style="font-size:8pt;fill:#002eb8;">IRX6</text><line x1="0" y1="91" x2="1060" y2="91" style="stroke:#ccc;stroke-width:0.5;"/><rect x="0" y="91" width="1060" height="154" style="fill:white;"/><path d="M22.676235852583204 91 A 240.00463828853194 240.00463828853194 1 0 0 362.80115713386067 91" style="fill: none; stroke:rgb(184,0,138);stroke-opacity:0.11764705882352941; stroke-width:1;"/><path d="M101.71062370317964 91 A 24.776489209410734 24.776489209410734 1 0 0 137.4569775523055 91" style="fill: none; stroke:rgb(184,0,138);stroke-opacity:0.29411764705882354; stroke-width:1;"/><path d="M101.71062370317964 91 A 184.11888669244755 184.11888669244755 1 0 0 362.80115713386067 91" style="fill: none; stroke:rgb(184,0,138);stroke-opacity:0.23529411764705882; stroke-width:1;"/><path d="M137.45631267703857 91 A 116.12896704366096 116.12896704366096 1 0 0 302.39457963574864 91" style="fill: none; stroke:rgb(184,0,138);stroke-opacity:0.11764705882352941; stroke-width:1;"/><path d="M137.45631267703857 91 A 521.7605784277694 521.7605784277694 1 0 0 876.0443057824075 91" style="fill: none; stroke:rgb(184,0,138);stroke-opacity:0.11764705882352941; stroke-width:1;"/><path d="M137.45631267703857 91 A 158.84286762084668 158.84286762084668 1 0 0 362.80115713386067 91" style="fill: none; stroke:rgb(184,0,138);stroke-opacity:0.35294117647058826; stroke-width:1;"/><path d="M137.45631267703857 91 A 322.9402389128258 322.9402389128258 1 0 0 594.8698851647509 91" style="fill: none; stroke:rgb(184,0,138);stroke-opacity:0.11764705882352941; stroke-width:1;"/><path d="M137.45631267703857 91 A 155.6567436834132 155.6567436834132 1 0 0 358.29529745014065 91" style="fill: none; stroke:rgb(184,0,138);stroke-opacity:0.11764705882352941; stroke-width:1;"/><path d="M302.3939147604817 91 A 42.21437071499561 42.21437071499561 1 0 0 362.80115713386067 91" style="fill: none; stroke:rgb(184,0,138);stroke-opacity:0.5294117647058824; stroke-width:1;"/><path d="M302.3939147604817 91 A 44.94916235496182 44.94916235496182 1 0 0 366.66873656136545 91" style="fill: none; stroke:rgb(184,0,138);stroke-opacity:0.11764705882352941; stroke-width:1;"/><path d="M358.29463257487373 91 A 309.41108315843223 309.41108315843223 1 0 0 796.5750895072647 91" style="fill: none; stroke:rgb(184,0,138);stroke-opacity:0.11764705882352941; stroke-width:1;"/><path d="M22.676235852583204 91 A 240.00463828853194 240.00463828853194 1 0 0 362.80115713386067 91" style="fill: none; stroke:rgb(184,0,138);stroke-opacity:0.11764705882352941; stroke-width:1;"/><path d="M101.71062370317964 91 A 184.11888669244755 184.11888669244755 1 0 0 362.80115713386067 91" style="fill: none; stroke:rgb(184,0,138);stroke-opacity:0.23529411764705882; stroke-width:1;"/><path d="M137.45631267703857 91 A 158.84286762084668 158.84286762084668 1 0 0 362.80115713386067 91" style="fill: none; stroke:rgb(184,0,138);stroke-opacity:0.35294117647058826; stroke-width:1;"/><path d="M362.80049225859375 91 A 2.2352617777760972 2.2352617777760972 1 0 0 366.66873656136545 91" style="fill: none; stroke:rgb(184,0,138);stroke-opacity:0.7058823529411765; stroke-width:1;"/><path d="M362.80049225859375 91 A 21.349184575518105 21.349184575518105 1 0 0 393.6999054120845 91" style="fill: none; stroke:rgb(184,0,138);stroke-opacity:0.11764705882352941; stroke-width:1;"/><path d="M362.80049225859375 91 A 67.98356434914155 67.98356434914155 1 0 0 459.6508777608003 91" style="fill: none; stroke:rgb(184,0,138);stroke-opacity:0.11764705882352941; stroke-width:1;"/><path d="M362.80049225859375 91 A 137.1967825791888 137.1967825791888 1 0 0 557.5331496772219 91" style="fill: none; stroke:rgb(184,0,138);stroke-opacity:0.17647058823529413; stroke-width:1;"/><path d="M362.80049225859375 91 A 140.82953743599109 140.82953743599109 1 0 0 562.6706408644884 91" style="fill: none; stroke:rgb(184,0,138);stroke-opacity:0.11764705882352941; stroke-width:1;"/><path d="M362.80049225859375 91 A 143.9286858786001 143.9286858786001 1 0 0 567.0534986238335 91" style="fill: none; stroke:rgb(184,0,138);stroke-opacity:0.17647058823529413; stroke-width:1;"/><path d="M362.80049225859375 91 A 163.597841429789 163.597841429789 1 0 0 594.8698851647509 91" style="fill: none; stroke:rgb(184,0,138);stroke-opacity:0.11764705882352941; stroke-width:1;"/><path d="M362.80049225859375 91 A 302.61994249497826 302.61994249497826 1 0 0 791.4768259607447 91" style="fill: none; stroke:rgb(184,0,138);stroke-opacity:1; stroke-width:1;"/><path d="M362.80049225859375 91 A 304.3161997129597 304.3161997129597 1 0 0 793.8756959236873 91" style="fill: none; stroke:rgb(184,0,138);stroke-opacity:0.17647058823529413; stroke-width:1;"/><path d="M362.80049225859375 91 A 306.2249592209987 306.2249592209987 1 0 0 796.5750895072647 91" style="fill: none; stroke:rgb(184,0,138);stroke-opacity:0.7058823529411765; stroke-width:1;"/><path d="M362.80049225859375 91 A 315.8735974927927 315.8735974927927 1 0 0 810.2203246096678 91" style="fill: none; stroke:rgb(184,0,138);stroke-opacity:0.11764705882352941; stroke-width:1;"/><path d="M362.80049225859375 91 A 488.14854584950825 488.14854584950825 1 0 0 1053.8538930328596 91" style="fill: none; stroke:rgb(184,0,138);stroke-opacity:0.11764705882352941; stroke-width:1;"/><path d="M302.3939147604817 91 A 44.94916235496182 44.94916235496182 1 0 0 366.66873656136545 91" style="fill: none; stroke:rgb(184,0,138);stroke-opacity:0.11764705882352941; stroke-width:1;"/><path d="M366.66807168609853 91 A 18.61439293555189 18.61439293555189 1 0 0 393.6999054120845 91" style="fill: none; stroke:rgb(184,0,138);stroke-opacity:0.11764705882352941; stroke-width:1;"/><path d="M366.66807168609853 91 A 299.88515085501206 299.88515085501206 1 0 0 791.4768259607447 91" style="fill: none; stroke:rgb(184,0,138);stroke-opacity:0.11764705882352941; stroke-width:1;"/><path d="M366.66807168609853 91 A 303.4901675810325 303.4901675810325 1 0 0 796.5750895072647 91" style="fill: none; stroke:rgb(184,0,138);stroke-opacity:0.35294117647058826; stroke-width:1;"/><path d="M362.80049225859375 91 A 21.349184575518105 21.349184575518105 1 0 0 393.6999054120845 91" style="fill: none; stroke:rgb(184,0,138);stroke-opacity:0.11764705882352941; stroke-width:1;"/><path d="M557.532484801955 91 A 5.639529658985432 5.639529658985432 1 0 0 566.215090912284 91" style="fill: none; stroke:rgb(184,0,138);stroke-opacity:0.11764705882352941; stroke-width:1;"/><path d="M557.532484801955 91 A 164.92363005359934 164.92363005359934 1 0 0 791.4768259607447 91" style="fill: none; stroke:rgb(184,0,138);stroke-opacity:0.11764705882352941; stroke-width:1;"/><path d="M567.0528337485666 91 A 158.19172675418804 158.19172675418804 1 0 0 791.4768259607447 91" style="fill: none; stroke:rgb(184,0,138);stroke-opacity:0.11764705882352941; stroke-width:1;"/><path d="M137.45631267703857 91 A 322.9402389128258 322.9402389128258 1 0 0 594.8698851647509 91" style="fill: none; stroke:rgb(184,0,138);stroke-opacity:0.11764705882352941; stroke-width:1;"/><path d="M594.869220289484 91 A 138.52257120299913 138.52257120299913 1 0 0 791.4768259607447 91" style="fill: none; stroke:rgb(184,0,138);stroke-opacity:0.23529411764705882; stroke-width:1;"/><path d="M594.869220289484 91 A 142.1275879290196 142.1275879290196 1 0 0 796.5750895072647 91" style="fill: none; stroke:rgb(184,0,138);stroke-opacity:0.17647058823529413; stroke-width:1;"/><path d="M606.6694265262649 91 A 133.783582079592 133.783582079592 1 0 0 796.5750895072647 91" style="fill: none; stroke:rgb(184,0,138);stroke-opacity:0.11764705882352941; stroke-width:1;"/><path d="M606.6694265262649 91 A 130.17856535357154 130.17856535357154 1 0 0 791.4768259607447 91" style="fill: none; stroke:rgb(184,0,138);stroke-opacity:0.11764705882352941; stroke-width:1;"/><path d="M717.0812728472467 91 A 55.71061682269884 55.71061682269884 1 0 0 796.5750895072647 91" style="fill: none; stroke:rgb(184,0,138);stroke-opacity:0.11764705882352941; stroke-width:1;"/><path d="M791.4761610854778 91 A 3.1054868638303534 3.1054868638303534 1 0 0 796.5750895072647 91" style="fill: none; stroke:rgb(184,0,138);stroke-opacity:0.6470588235294118; stroke-width:1;"/><path d="M557.532484801955 91 A 164.92363005359934 164.92363005359934 1 0 0 791.4768259607447 91" style="fill: none; stroke:rgb(184,0,138);stroke-opacity:0.11764705882352941; stroke-width:1;"/><path d="M567.0528337485666 91 A 158.19172675418804 158.19172675418804 1 0 0 791.4768259607447 91" style="fill: none; stroke:rgb(184,0,138);stroke-opacity:0.11764705882352941; stroke-width:1;"/><path d="M594.869220289484 91 A 138.52257120299913 138.52257120299913 1 0 0 791.4768259607447 91" style="fill: none; stroke:rgb(184,0,138);stroke-opacity:0.23529411764705882; stroke-width:1;"/><path d="M366.66807168609853 91 A 299.88515085501206 299.88515085501206 1 0 0 791.4768259607447 91" style="fill: none; stroke:rgb(184,0,138);stroke-opacity:0.11764705882352941; stroke-width:1;"/><path d="M791.4761610854778 91 A 12.754125135624333 12.754125135624333 1 0 0 810.2203246096678 91" style="fill: none; stroke:rgb(184,0,138);stroke-opacity:0.11764705882352941; stroke-width:1;"/><path d="M362.80049225859375 91 A 302.61994249497826 302.61994249497826 1 0 0 791.4768259607447 91" style="fill: none; stroke:rgb(184,0,138);stroke-opacity:1; stroke-width:1;"/><path d="M793.8750310484204 91 A 1.4092296458489004 1.4092296458489004 1 0 0 796.5750895072647 91" style="fill: none; stroke:rgb(184,0,138);stroke-opacity:0.4117647058823529; stroke-width:1;"/><path d="M796.5744246319978 91 A 150.298583064418 150.298583064418 1 0 0 1009.8358259883435 91" style="fill: none; stroke:rgb(184,0,138);stroke-opacity:0.5294117647058824; stroke-width:1;"/><path d="M362.80049225859375 91 A 306.2249592209987 306.2249592209987 1 0 0 796.5750895072647 91" style="fill: none; stroke:rgb(184,0,138);stroke-opacity:0.7058823529411765; stroke-width:1;"/><path d="M366.66807168609853 91 A 303.4901675810325 303.4901675810325 1 0 0 796.5750895072647 91" style="fill: none; stroke:rgb(184,0,138);stroke-opacity:0.35294117647058826; stroke-width:1;"/><path d="M594.869220289484 91 A 142.1275879290196 142.1275879290196 1 0 0 796.5750895072647 91" style="fill: none; stroke:rgb(184,0,138);stroke-opacity:0.17647058823529413; stroke-width:1;"/><path d="M606.6694265262649 91 A 133.783582079592 133.783582079592 1 0 0 796.5750895072647 91" style="fill: none; stroke:rgb(184,0,138);stroke-opacity:0.11764705882352941; stroke-width:1;"/><path d="M717.0812728472467 91 A 55.71061682269884 55.71061682269884 1 0 0 796.5750895072647 91" style="fill: none; stroke:rgb(184,0,138);stroke-opacity:0.11764705882352941; stroke-width:1;"/><path d="M791.4761610854778 91 A 3.1054868638303534 3.1054868638303534 1 0 0 796.5750895072647 91" style="fill: none; stroke:rgb(184,0,138);stroke-opacity:0.6470588235294118; stroke-width:1;"/><path d="M796.5744246319978 91 A 9.149108409603862 9.149108409603862 1 0 0 810.2203246096678 91" style="fill: none; stroke:rgb(184,0,138);stroke-opacity:0.11764705882352941; stroke-width:1;"/><path d="M796.5744246319978 91 A 39.305628085380455 39.305628085380455 1 0 0 852.8680837291222 91" style="fill: none; stroke:rgb(184,0,138);stroke-opacity:0.17647058823529413; stroke-width:1;"/><path d="M796.5744246319978 91 A 85.6508731059388 85.6508731059388 1 0 0 918.4101577887 91" style="fill: none; stroke:rgb(184,0,138);stroke-opacity:0.11764705882352941; stroke-width:1;"/><path d="M796.5744246319978 91 A 181.42405676631944 181.42405676631944 1 0 0 1053.8538930328596 91" style="fill: none; stroke:rgb(184,0,138);stroke-opacity:0.11764705882352941; stroke-width:1;"/><path d="M358.29463257487373 91 A 309.41108315843223 309.41108315843223 1 0 0 796.5750895072647 91" style="fill: none; stroke:rgb(184,0,138);stroke-opacity:0.11764705882352941; stroke-width:1;"/><path d="M362.80049225859375 91 A 315.8735974927927 315.8735974927927 1 0 0 810.2203246096678 91" style="fill: none; stroke:rgb(184,0,138);stroke-opacity:0.11764705882352941; stroke-width:1;"/><path d="M810.2196597344011 91 A 29.656989813586314 29.656989813586314 1 0 0 852.8680837291222 91" style="fill: none; stroke:rgb(184,0,138);stroke-opacity:0.17647058823529413; stroke-width:1;"/><path d="M810.2196597344011 91 A 140.64994479262387 140.64994479262387 1 0 0 1009.8358259883435 91" style="fill: none; stroke:rgb(184,0,138);stroke-opacity:0.17647058823529413; stroke-width:1;"/><path d="M791.4761610854778 91 A 12.754125135624333 12.754125135624333 1 0 0 810.2203246096678 91" style="fill: none; stroke:rgb(184,0,138);stroke-opacity:0.11764705882352941; stroke-width:1;"/><path d="M796.5744246319978 91 A 39.305628085380455 39.305628085380455 1 0 0 852.8680837291222 91" style="fill: none; stroke:rgb(184,0,138);stroke-opacity:0.17647058823529413; stroke-width:1;"/><path d="M852.8674188538553 91 A 110.49342511684743 110.49342511684743 1 0 0 1009.8358259883435 91" style="fill: none; stroke:rgb(184,0,138);stroke-opacity:0.11764705882352941; stroke-width:1;"/><path d="M861.6863243938972 91 A 104.2575172068402 104.2575172068402 1 0 0 1009.8358259883435 91" style="fill: none; stroke:rgb(184,0,138);stroke-opacity:0.4117647058823529; stroke-width:1;"/><path d="M876.0436409071406 91 A 94.1053613406842 94.1053613406842 1 0 0 1009.8358259883435 91" style="fill: none; stroke:rgb(184,0,138);stroke-opacity:0.11764705882352941; stroke-width:1;"/><path d="M876.0436409071406 91 A 125.23083504258561 125.23083504258561 1 0 0 1053.8538930328596 91" style="fill: none; stroke:rgb(184,0,138);stroke-opacity:0.11764705882352941; stroke-width:1;"/><path d="M918.409492913433 91 A 64.14818009628908 64.14818009628908 1 0 0 1009.8358259883435 91" style="fill: none; stroke:rgb(184,0,138);stroke-opacity:0.11764705882352941; stroke-width:1;"/><path d="M796.5744246319978 91 A 150.298583064418 150.298583064418 1 0 0 1009.8358259883435 91" style="fill: none; stroke:rgb(184,0,138);stroke-opacity:0.5294117647058824; stroke-width:1;"/><path d="M810.2196597344011 91 A 140.64994479262387 140.64994479262387 1 0 0 1009.8358259883435 91" style="fill: none; stroke:rgb(184,0,138);stroke-opacity:0.17647058823529413; stroke-width:1;"/><path d="M852.8674188538553 91 A 110.49342511684743 110.49342511684743 1 0 0 1009.8358259883435 91" style="fill: none; stroke:rgb(184,0,138);stroke-opacity:0.11764705882352941; stroke-width:1;"/><path d="M861.6863243938972 91 A 104.2575172068402 104.2575172068402 1 0 0 1009.8358259883435 91" style="fill: none; stroke:rgb(184,0,138);stroke-opacity:0.4117647058823529; stroke-width:1;"/><path d="M876.0436409071406 91 A 94.1053613406842 94.1053613406842 1 0 0 1009.8358259883435 91" style="fill: none; stroke:rgb(184,0,138);stroke-opacity:0.11764705882352941; stroke-width:1;"/><path d="M1009.8351611130765 91 A 30.625943839711308 30.625943839711308 1 0 0 1053.8538930328596 91" style="fill: none; stroke:rgb(184,0,138);stroke-opacity:0.17647058823529413; stroke-width:1;"/><path d="M876.0436409071406 91 A 125.23083504258561 125.23083504258561 1 0 0 1053.8538930328596 91" style="fill: none; stroke:rgb(184,0,138);stroke-opacity:0.11764705882352941; stroke-width:1;"/><path d="M362.80049225859375 91 A 488.14854584950825 488.14854584950825 1 0 0 1053.8538930328596 91" style="fill: none; stroke:rgb(184,0,138);stroke-opacity:0.11764705882352941; stroke-width:1;"/><path d="M796.5744246319978 91 A 181.42405676631944 181.42405676631944 1 0 0 1053.8538930328596 91" style="fill: none; stroke:rgb(184,0,138);stroke-opacity:0.11764705882352941; stroke-width:1;"/><rect x="0" y="20" width="1059.9999999999998" height="14" style="fill:rgb(120,120,120);"/><text font-family="arial" x="569.3497850664776" y="30" style="font-size:8pt;fill:#ffffff;">q12.2</text><line x1="0" y1="20.5" x2="1060" y2="20.5" style="stroke:#000000;"/><line x1="0" y1="33.5" x2="1060" y2="33.5" style="stroke:#000000;"/><text font-family="arial" x="515.7771530151367" y="43" style="font-size:8pt;fill:#000000;">chr16</text><rect x="1060" y="0" width="0" height="20" style="fill:white;"/><rect x="1060" y="20" width="0" height="358" style="fill:white;"/></svg>