<svg xmlns="http://www.w3.org/2000/svg" version="1.1" width="1060" height="397"><line x1="0" y1="16.5" x2="1060" y2="16.5" style="stroke:#000000;"/><line x1="1.452458748570507" y1="12" x2="1.452458748570507" y2="17" style="stroke:#000000;"/><text font-family="arial" x="63.01276224077469" y="10" style="font-size:8pt;fill:#000000;">226088000</text><line x1="88.03961770952469" y1="12" x2="88.03961770952469" y2="17" style="stroke:#000000;"/><text font-family="arial" x="149.59992120172865" y="10" style="font-size:8pt;fill:#000000;">226089000</text><line x1="174.62677667047865" y1="12" x2="174.62677667047865" y2="17" style="stroke:#000000;"/><text font-family="arial" x="236.18708016268283" y="10" style="font-size:8pt;fill:#000000;">226090000</text><line x1="261.21393563143283" y1="12" x2="261.21393563143283" y2="17" style="stroke:#000000;"/><text font-family="arial" x="322.774239123637" y="10" style="font-size:8pt;fill:#000000;">226091000</text><line x1="347.801094592387" y1="12" x2="347.801094592387" y2="17" style="stroke:#000000;"/><text font-family="arial" x="409.361398084591" y="10" style="font-size:8pt;fill:#000000;">226092000</text><line x1="434.388253553341" y1="12" x2="434.388253553341" y2="17" style="stroke:#000000;"/><text font-family="arial" x="495.94855704554516" y="10" style="font-size:8pt;fill:#000000;">226093000</text><line x1="520.9754125142952" y1="12" x2="520.9754125142952" y2="17" style="stroke:#000000;"/><text font-family="arial" x="582.5357160064993" y="10" style="font-size:8pt;fill:#000000;">226094000</text><line x1="607.5625714752493" y1="12" x2="607.5625714752493" y2="17" style="stroke:#000000;"/><text font-family="arial" x="669.1228749674533" y="10" style="font-size:8pt;fill:#000000;">226095000</text><line x1="694.1497304362033" y1="12" x2="694.1497304362033" y2="17" style="stroke:#000000;"/><text font-family="arial" x="755.7100339284075" y="10" style="font-size:8pt;fill:#000000;">226096000</text><line x1="780.7368893971575" y1="12" x2="780.7368893971575" y2="17" style="stroke:#000000;"/><text font-family="arial" x="842.2971928893614" y="10" style="font-size:8pt;fill:#000000;">226097000</text><line x1="867.3240483581114" y1="12" x2="867.3240483581114" y2="17" style="stroke:#000000;"/><text font-family="arial" x="928.8843518503156" y="10" style="font-size:8pt;fill:#000000;">226098000</text><line x1="953.9112073190656" y1="12" x2="953.9112073190656" y2="17" style="stroke:#000000;"/><text font-family="arial" x="1015.4715108112696" y="10" style="font-size:8pt;fill:#000000;">226099000</text><line x1="1040.4983662800196" y1="12" x2="1040.4983662800196" y2="17" style="stroke:#000000;"/><line x1="0" y1="43" x2="1060" y2="43" style="stroke:#ccc;stroke-width:0.5;"/><rect x="0" y="43" width="1060" height="12" style="fill:white;"/><line x1="0" y1="55" x2="1060" y2="55" style="stroke:#ccc;stroke-width:0.5;"/><rect x="0" y="55" width="1060" height="12" style="fill:white;"/><rect x="0" y="56" width="55.84871752981553" height="11" style="fill:#336666;"/><line x1="0" y1="67" x2="1060" y2="67" style="stroke:#ccc;stroke-width:0.5;"/><rect x="0" y="67" width="1060" height="216" style="fill:white;"/><path d="M19.04917497140991 67 A 732.0734843253441 732.0734843253441 1 0 0 1055.0645319392256 67" style="fill: none; stroke:rgb(184,0,138);stroke-opacity:1; stroke-width:1;"/><rect x="0" y="20" width="1060" height="14" style="fill:rgb(180,180,180);"/><text font-family="arial" x="513.4062423706055" y="30" style="font-size:8pt;fill:#000000;">q42.12</text><line x1="0" y1="20.5" x2="1060" y2="20.5" style="stroke:#000000;"/><line x1="0" y1="33.5" x2="1060" y2="33.5" style="stroke:#000000;"/><text font-family="arial" x="518.7414398193359" y="43" style="font-size:8pt;fill:#000000;">chr1</text><rect x="1060" y="0" width="0" height="20" style="fill:white;"/><rect x="1060" y="20" width="0" height="397" style="fill:white;"/></svg>