<svg xmlns="http://www.w3.org/2000/svg" version="1.1" width="1060" height="397"><line x1="0" y1="16.5" x2="1060" y2="16.5" style="stroke:#000000;"/><text font-family="arial" x="9.448773064882744" y="10" style="font-size:8pt;fill:#000000;">7790000</text><line x1="28.914105096132744" y1="12" x2="28.914105096132744" y2="17" style="stroke:#000000;"/><text font-family="arial" x="69.09215068061053" y="10" style="font-size:8pt;fill:#000000;">7800000</text><line x1="88.55748271186053" y1="12" x2="88.55748271186053" y2="17" style="stroke:#000000;"/><text font-family="arial" x="128.73552829633854" y="10" style="font-size:8pt;fill:#000000;">7810000</text><line x1="148.20086032758854" y1="12" x2="148.20086032758854" y2="17" style="stroke:#000000;"/><text font-family="arial" x="188.37890591206633" y="10" style="font-size:8pt;fill:#000000;">7820000</text><line x1="207.84423794331633" y1="12" x2="207.84423794331633" y2="17" style="stroke:#000000;"/><text font-family="arial" x="248.02228352779412" y="10" style="font-size:8pt;fill:#000000;">7830000</text><line x1="267.4876155590441" y1="12" x2="267.4876155590441" y2="17" style="stroke:#000000;"/><text font-family="arial" x="307.66566114352213" y="10" style="font-size:8pt;fill:#000000;">7840000</text><line x1="327.13099317477213" y1="12" x2="327.13099317477213" y2="17" style="stroke:#000000;"/><text font-family="arial" x="367.3090387592499" y="10" style="font-size:8pt;fill:#000000;">7850000</text><line x1="386.7743707904999" y1="12" x2="386.7743707904999" y2="17" style="stroke:#000000;"/><text font-family="arial" x="426.9524163749777" y="10" style="font-size:8pt;fill:#000000;">7860000</text><line x1="446.4177484062277" y1="12" x2="446.4177484062277" y2="17" style="stroke:#000000;"/><text font-family="arial" x="486.5957939907055" y="10" style="font-size:8pt;fill:#000000;">7870000</text><line x1="506.0611260219555" y1="12" x2="506.0611260219555" y2="17" style="stroke:#000000;"/><text font-family="arial" x="546.2391716064335" y="10" style="font-size:8pt;fill:#000000;">7880000</text><line x1="565.7045036376835" y1="12" x2="565.7045036376835" y2="17" style="stroke:#000000;"/><text font-family="arial" x="605.8825492221613" y="10" style="font-size:8pt;fill:#000000;">7890000</text><line x1="625.3478812534113" y1="12" x2="625.3478812534113" y2="17" style="stroke:#000000;"/><text font-family="arial" x="665.5259268378891" y="10" style="font-size:8pt;fill:#000000;">7900000</text><line x1="684.9912588691391" y1="12" x2="684.9912588691391" y2="17" style="stroke:#000000;"/><text font-family="arial" x="725.1693044536169" y="10" style="font-size:8pt;fill:#000000;">7910000</text><line x1="744.6346364848669" y1="12" x2="744.6346364848669" y2="17" style="stroke:#000000;"/><text font-family="arial" x="784.8126820693449" y="10" style="font-size:8pt;fill:#000000;">7920000</text><line x1="804.2780141005949" y1="12" x2="804.2780141005949" y2="17" style="stroke:#000000;"/><text font-family="arial" x="844.4560596850727" y="10" style="font-size:8pt;fill:#000000;">7930000</text><line x1="863.9213917163227" y1="12" x2="863.9213917163227" y2="17" style="stroke:#000000;"/><text font-family="arial" x="904.0994373008004" y="10" style="font-size:8pt;fill:#000000;">7940000</text><line x1="923.5647693320504" y1="12" x2="923.5647693320504" y2="17" style="stroke:#000000;"/><text font-family="arial" x="963.7428149165285" y="10" style="font-size:8pt;fill:#000000;">7950000</text><line x1="983.2081469477785" y1="12" x2="983.2081469477785" y2="17" style="stroke:#000000;"/><text font-family="arial" x="1023.3861925322562" y="10" style="font-size:8pt;fill:#000000;">7960000</text><line x1="1042.8515245635062" y1="12" x2="1042.8515245635062" y2="17" style="stroke:#000000;"/><line x1="0" y1="43" x2="1060" y2="43" style="stroke:#ccc;stroke-width:0.5;"/><rect x="0" y="43" width="1060" height="24" style="fill:white;"/><line x1="99.95037220843687" y1="49" x2="198.40369563871877" y2="49" style="stroke:#002eb8;stroke-width:1;"/><line x1="106.67703392357771" y1="46" x2="103.67703392357771" y2="49.5" style="stroke:#002eb8;"/><line x1="103.67703392357771" y1="49.5" x2="106.67703392357771" y2="53" style="stroke:#002eb8;"/><line x1="114.67703392357771" y1="46" x2="111.67703392357771" y2="49.5" style="stroke:#002eb8;"/><line x1="111.67703392357771" y1="49.5" x2="114.67703392357771" y2="53" style="stroke:#002eb8;"/><line x1="122.67703392357771" y1="46" x2="119.67703392357771" y2="49.5" style="stroke:#002eb8;"/><line x1="119.67703392357771" y1="49.5" x2="122.67703392357771" y2="53" style="stroke:#002eb8;"/><line x1="130.6770339235777" y1="46" x2="127.67703392357771" y2="49.5" style="stroke:#002eb8;"/><line x1="127.67703392357771" y1="49.5" x2="130.6770339235777" y2="53" style="stroke:#002eb8;"/><line x1="138.6770339235777" y1="46" x2="135.6770339235777" y2="49.5" style="stroke:#002eb8;"/><line x1="135.6770339235777" y1="49.5" x2="138.6770339235777" y2="53" style="stroke:#002eb8;"/><line x1="146.6770339235777" y1="46" x2="143.6770339235777" y2="49.5" style="stroke:#002eb8;"/><line x1="143.6770339235777" y1="49.5" x2="146.6770339235777" y2="53" style="stroke:#002eb8;"/><line x1="154.6770339235777" y1="46" x2="151.6770339235777" y2="49.5" style="stroke:#002eb8;"/><line x1="151.6770339235777" y1="49.5" x2="154.6770339235777" y2="53" style="stroke:#002eb8;"/><line x1="162.6770339235777" y1="46" x2="159.6770339235777" y2="49.5" style="stroke:#002eb8;"/><line x1="159.6770339235777" y1="49.5" x2="162.6770339235777" y2="53" style="stroke:#002eb8;"/><line x1="170.6770339235777" y1="46" x2="167.6770339235777" y2="49.5" style="stroke:#002eb8;"/><line x1="167.6770339235777" y1="49.5" x2="170.6770339235777" y2="53" style="stroke:#002eb8;"/><line x1="178.6770339235777" y1="46" x2="175.6770339235777" y2="49.5" style="stroke:#002eb8;"/><line x1="175.6770339235777" y1="49.5" x2="178.6770339235777" y2="53" style="stroke:#002eb8;"/><line x1="186.6770339235777" y1="46" x2="183.6770339235777" y2="49.5" style="stroke:#002eb8;"/><line x1="183.6770339235777" y1="49.5" x2="186.6770339235777" y2="53" style="stroke:#002eb8;"/><line x1="194.6770339235777" y1="46" x2="191.6770339235777" y2="49.5" style="stroke:#002eb8;"/><line x1="191.6770339235777" y1="49.5" x2="194.6770339235777" y2="53" style="stroke:#002eb8;"/><rect x="99.95037220843687" y="46" width="1" height="7" style="fill:#002EB8;"/><rect x="198.20090815482536" y="46" width="1" height="7" style="fill:#002EB8;"/><rect x="100.82712985938792" y="44" width="1" height="11" style="fill:#002EB8;"/><rect x="109.63049239546945" y="44" width="1" height="11" style="fill:#002EB8;"/><rect x="118.07003032809484" y="44" width="2.3738064291060255" height="11" style="fill:#002EB8;"/><rect x="130.99475025742322" y="44" width="1" height="11" style="fill:#002EB8;"/><rect x="198.10547875064003" y="44" width="1" height="11" style="fill:#002EB8;"/><text font-family="arial" x="48.59134816058531" y="54" style="font-size:8pt;fill:#002eb8;">APOBEC1</text><line x1="340.82015270955367" y1="49" x2="376.486892523759" y2="49" style="stroke:#002eb8;stroke-width:1;"/><line x1="348.15352261665635" y1="46" x2="345.15352261665635" y2="49.5" style="stroke:#002eb8;"/><line x1="345.15352261665635" y1="49.5" x2="348.15352261665635" y2="53" style="stroke:#002eb8;"/><line x1="356.15352261665635" y1="46" x2="353.15352261665635" y2="49.5" style="stroke:#002eb8;"/><line x1="353.15352261665635" y1="49.5" x2="356.15352261665635" y2="53" style="stroke:#002eb8;"/><line x1="364.15352261665635" y1="46" x2="361.15352261665635" y2="49.5" style="stroke:#002eb8;"/><line x1="361.15352261665635" y1="49.5" x2="364.15352261665635" y2="53" style="stroke:#002eb8;"/><line x1="372.15352261665635" y1="46" x2="369.15352261665635" y2="49.5" style="stroke:#002eb8;"/><line x1="369.15352261665635" y1="49.5" x2="372.15352261665635" y2="53" style="stroke:#002eb8;"/><rect x="340.82015270955367" y="46" width="1" height="7" style="fill:#002EB8;"/><rect x="376.2721763643424" y="46" width="1" height="7" style="fill:#002EB8;"/><rect x="341.37483612138" y="44" width="4.932507328820748" height="11" style="fill:#002EB8;"/><rect x="374.6737338442408" y="44" width="1.598442520101571" height="11" style="fill:#002EB8;"/><text font-family="arial" x="311.3900837398271" y="54" style="font-size:8pt;fill:#002eb8;">GDF3</text><line x1="470.2939968377757" y1="49" x2="506.461741023953" y2="49" style="stroke:#002eb8;stroke-width:1;"/><line x1="474.8778689308642" y1="46" x2="477.8778689308642" y2="49.5" style="stroke:#002eb8;"/><line x1="477.8778689308642" y1="49.5" x2="474.8778689308642" y2="53" style="stroke:#002eb8;"/><line x1="482.8778689308642" y1="46" x2="485.8778689308642" y2="49.5" style="stroke:#002eb8;"/><line x1="485.8778689308642" y1="49.5" x2="482.8778689308642" y2="53" style="stroke:#002eb8;"/><line x1="490.8778689308642" y1="46" x2="493.8778689308642" y2="49.5" style="stroke:#002eb8;"/><line x1="493.8778689308642" y1="49.5" x2="490.8778689308642" y2="53" style="stroke:#002eb8;"/><line x1="498.8778689308642" y1="46" x2="501.8778689308642" y2="49.5" style="stroke:#002eb8;"/><line x1="501.8778689308642" y1="49.5" x2="498.8778689308642" y2="53" style="stroke:#002eb8;"/><rect x="470.2939968377757" y="46" width="1" height="7" style="fill:#002EB8;"/><rect x="503.60482323615975" y="46" width="2.856917787793236" height="7" style="fill:#002EB8;"/><rect x="470.7592151831784" y="44" width="1" height="11" style="fill:#002EB8;"/><rect x="492.3024031779794" y="44" width="1.4612627515853092" height="11" style="fill:#002EB8;"/><rect x="498.35620600597576" y="44" width="1" height="11" style="fill:#002EB8;"/><rect x="502.9427817446251" y="44" width="1" height="11" style="fill:#002EB8;"/><text font-family="arial" x="435.1227321893382" y="54" style="font-size:8pt;fill:#002eb8;">DPPA3</text><line x1="577.1868582006832" y1="49" x2="696.8255093600717" y2="49" style="stroke:#002eb8;stroke-width:1;"/><line x1="582.5061837803773" y1="46" x2="579.5061837803773" y2="49.5" style="stroke:#002eb8;"/><line x1="579.5061837803773" y1="49.5" x2="582.5061837803773" y2="53" style="stroke:#002eb8;"/><line x1="590.5061837803773" y1="46" x2="587.5061837803773" y2="49.5" style="stroke:#002eb8;"/><line x1="587.5061837803773" y1="49.5" x2="590.5061837803773" y2="53" style="stroke:#002eb8;"/><line x1="598.5061837803773" y1="46" x2="595.5061837803773" y2="49.5" style="stroke:#002eb8;"/><line x1="595.5061837803773" y1="49.5" x2="598.5061837803773" y2="53" style="stroke:#002eb8;"/><line x1="606.5061837803773" y1="46" x2="603.5061837803773" y2="49.5" style="stroke:#002eb8;"/><line x1="603.5061837803773" y1="49.5" x2="606.5061837803773" y2="53" style="stroke:#002eb8;"/><line x1="614.5061837803773" y1="46" x2="611.5061837803773" y2="49.5" style="stroke:#002eb8;"/><line x1="611.5061837803773" y1="49.5" x2="614.5061837803773" y2="53" style="stroke:#002eb8;"/><line x1="622.5061837803773" y1="46" x2="619.5061837803773" y2="49.5" style="stroke:#002eb8;"/><line x1="619.5061837803773" y1="49.5" x2="622.5061837803773" y2="53" style="stroke:#002eb8;"/><line x1="630.5061837803773" y1="46" x2="627.5061837803773" y2="49.5" style="stroke:#002eb8;"/><line x1="627.5061837803773" y1="49.5" x2="630.5061837803773" y2="53" style="stroke:#002eb8;"/><line x1="638.5061837803773" y1="46" x2="635.5061837803773" y2="49.5" style="stroke:#002eb8;"/><line x1="635.5061837803773" y1="49.5" x2="638.5061837803773" y2="53" style="stroke:#002eb8;"/><line x1="646.5061837803773" y1="46" x2="643.5061837803773" y2="49.5" style="stroke:#002eb8;"/><line x1="643.5061837803773" y1="49.5" x2="646.5061837803773" y2="53" style="stroke:#002eb8;"/><line x1="654.5061837803773" y1="46" x2="651.5061837803773" y2="49.5" style="stroke:#002eb8;"/><line x1="651.5061837803773" y1="49.5" x2="654.5061837803773" y2="53" style="stroke:#002eb8;"/><line x1="662.5061837803773" y1="46" x2="659.5061837803773" y2="49.5" style="stroke:#002eb8;"/><line x1="659.5061837803773" y1="49.5" x2="662.5061837803773" y2="53" style="stroke:#002eb8;"/><line x1="670.5061837803773" y1="46" x2="667.5061837803773" y2="49.5" style="stroke:#002eb8;"/><line x1="667.5061837803773" y1="49.5" x2="670.5061837803773" y2="53" style="stroke:#002eb8;"/><line x1="678.5061837803773" y1="46" x2="675.5061837803773" y2="49.5" style="stroke:#002eb8;"/><line x1="675.5061837803773" y1="49.5" x2="678.5061837803773" y2="53" style="stroke:#002eb8;"/><line x1="686.5061837803773" y1="46" x2="683.5061837803773" y2="49.5" style="stroke:#002eb8;"/><line x1="683.5061837803773" y1="49.5" x2="686.5061837803773" y2="53" style="stroke:#002eb8;"/><line x1="694.5061837803773" y1="46" x2="691.5061837803773" y2="49.5" style="stroke:#002eb8;"/><line x1="691.5061837803773" y1="49.5" x2="694.5061837803773" y2="53" style="stroke:#002eb8;"/><rect x="577.1868582006832" y="46" width="1.0795451348446932" height="7" style="fill:#002EB8;"/><rect x="684.1512916167294" y="46" width="1" height="7" style="fill:#002EB8;"/><rect x="694.6723834281438" y="46" width="2.153125931927889" height="7" style="fill:#002EB8;"/><rect x="578.2664033355279" y="44" width="1" height="11" style="fill:#002EB8;"/><rect x="585.4295729871767" y="44" width="1" height="11" style="fill:#002EB8;"/><rect x="624.9850610219275" y="44" width="1" height="11" style="fill:#002EB8;"/><rect x="648.794697366126" y="44" width="1" height="11" style="fill:#002EB8;"/><rect x="678.0795957754483" y="44" width="1" height="11" style="fill:#002EB8;"/><rect x="683.9663971461207" y="44" width="1" height="11" style="fill:#002EB8;"/><text font-family="arial" x="534.1247244116207" y="54" style="font-size:8pt;fill:#002eb8;">CLEC4C</text><line x1="577.1868582006832" y1="61" x2="696.8255093600717" y2="61" style="stroke:#002eb8;stroke-width:1;"/><line x1="582.5061837803773" y1="58" x2="579.5061837803773" y2="61.5" style="stroke:#002eb8;"/><line x1="579.5061837803773" y1="61.5" x2="582.5061837803773" y2="65" style="stroke:#002eb8;"/><line x1="590.5061837803773" y1="58" x2="587.5061837803773" y2="61.5" style="stroke:#002eb8;"/><line x1="587.5061837803773" y1="61.5" x2="590.5061837803773" y2="65" style="stroke:#002eb8;"/><line x1="598.5061837803773" y1="58" x2="595.5061837803773" y2="61.5" style="stroke:#002eb8;"/><line x1="595.5061837803773" y1="61.5" x2="598.5061837803773" y2="65" style="stroke:#002eb8;"/><line x1="606.5061837803773" y1="58" x2="603.5061837803773" y2="61.5" style="stroke:#002eb8;"/><line x1="603.5061837803773" y1="61.5" x2="606.5061837803773" y2="65" style="stroke:#002eb8;"/><line x1="614.5061837803773" y1="58" x2="611.5061837803773" y2="61.5" style="stroke:#002eb8;"/><line x1="611.5061837803773" y1="61.5" x2="614.5061837803773" y2="65" style="stroke:#002eb8;"/><line x1="622.5061837803773" y1="58" x2="619.5061837803773" y2="61.5" style="stroke:#002eb8;"/><line x1="619.5061837803773" y1="61.5" x2="622.5061837803773" y2="65" style="stroke:#002eb8;"/><line x1="630.5061837803773" y1="58" x2="627.5061837803773" y2="61.5" style="stroke:#002eb8;"/><line x1="627.5061837803773" y1="61.5" x2="630.5061837803773" y2="65" style="stroke:#002eb8;"/><line x1="638.5061837803773" y1="58" x2="635.5061837803773" y2="61.5" style="stroke:#002eb8;"/><line x1="635.5061837803773" y1="61.5" x2="638.5061837803773" y2="65" style="stroke:#002eb8;"/><line x1="646.5061837803773" y1="58" x2="643.5061837803773" y2="61.5" style="stroke:#002eb8;"/><line x1="643.5061837803773" y1="61.5" x2="646.5061837803773" y2="65" style="stroke:#002eb8;"/><line x1="654.5061837803773" y1="58" x2="651.5061837803773" y2="61.5" style="stroke:#002eb8;"/><line x1="651.5061837803773" y1="61.5" x2="654.5061837803773" y2="65" style="stroke:#002eb8;"/><line x1="662.5061837803773" y1="58" x2="659.5061837803773" y2="61.5" style="stroke:#002eb8;"/><line x1="659.5061837803773" y1="61.5" x2="662.5061837803773" y2="65" style="stroke:#002eb8;"/><line x1="670.5061837803773" y1="58" x2="667.5061837803773" y2="61.5" style="stroke:#002eb8;"/><line x1="667.5061837803773" y1="61.5" x2="670.5061837803773" y2="65" style="stroke:#002eb8;"/><line x1="678.5061837803773" y1="58" x2="675.5061837803773" y2="61.5" style="stroke:#002eb8;"/><line x1="675.5061837803773" y1="61.5" x2="678.5061837803773" y2="65" style="stroke:#002eb8;"/><line x1="686.5061837803773" y1="58" x2="683.5061837803773" y2="61.5" style="stroke:#002eb8;"/><line x1="683.5061837803773" y1="61.5" x2="686.5061837803773" y2="65" style="stroke:#002eb8;"/><line x1="694.5061837803773" y1="58" x2="691.5061837803773" y2="61.5" style="stroke:#002eb8;"/><line x1="691.5061837803773" y1="61.5" x2="694.5061837803773" y2="65" style="stroke:#002eb8;"/><rect x="577.1868582006832" y="58" width="1.0795451348446932" height="7" style="fill:#002EB8;"/><rect x="684.1512916167294" y="58" width="1" height="7" style="fill:#002EB8;"/><rect x="694.6723834281438" y="58" width="2.153125931927889" height="7" style="fill:#002EB8;"/><rect x="578.2664033355279" y="56" width="1" height="11" style="fill:#002EB8;"/><rect x="585.4295729871767" y="56" width="1" height="11" style="fill:#002EB8;"/><rect x="624.9850610219275" y="56" width="1" height="11" style="fill:#002EB8;"/><rect x="648.794697366126" y="56" width="1" height="11" style="fill:#002EB8;"/><rect x="683.9663971461207" y="56" width="1" height="11" style="fill:#002EB8;"/><text font-family="arial" x="534.1247244116207" y="66" style="font-size:8pt;fill:#002eb8;">CLEC4C</text><line x1="790.7161144027505" y1="49" x2="843.8345065073177" y2="49" style="stroke:#002eb8;stroke-width:1;"/><line x1="795.7753104550341" y1="46" x2="798.7753104550341" y2="49.5" style="stroke:#002eb8;"/><line x1="798.7753104550341" y1="49.5" x2="795.7753104550341" y2="53" style="stroke:#002eb8;"/><line x1="803.7753104550341" y1="46" x2="806.7753104550341" y2="49.5" style="stroke:#002eb8;"/><line x1="806.7753104550341" y1="49.5" x2="803.7753104550341" y2="53" style="stroke:#002eb8;"/><line x1="811.7753104550341" y1="46" x2="814.7753104550341" y2="49.5" style="stroke:#002eb8;"/><line x1="814.7753104550341" y1="49.5" x2="811.7753104550341" y2="53" style="stroke:#002eb8;"/><line x1="819.7753104550341" y1="46" x2="822.7753104550341" y2="49.5" style="stroke:#002eb8;"/><line x1="822.7753104550341" y1="49.5" x2="819.7753104550341" y2="53" style="stroke:#002eb8;"/><line x1="827.7753104550341" y1="46" x2="830.7753104550341" y2="49.5" style="stroke:#002eb8;"/><line x1="830.7753104550341" y1="49.5" x2="827.7753104550341" y2="53" style="stroke:#002eb8;"/><line x1="835.7753104550341" y1="46" x2="838.7753104550341" y2="49.5" style="stroke:#002eb8;"/><line x1="838.7753104550341" y1="49.5" x2="835.7753104550341" y2="53" style="stroke:#002eb8;"/><rect x="790.7161144027505" y="46" width="1" height="7" style="fill:#002EB8;"/><rect x="842.2241353116931" y="46" width="1.610371195624566" height="7" style="fill:#002EB8;"/><rect x="791.1336180460605" y="44" width="1" height="11" style="fill:#002EB8;"/><rect x="819.1481125121679" y="44" width="1.9861244746036846" height="11" style="fill:#002EB8;"/><rect x="821.8678505314451" y="44" width="1" height="11" style="fill:#002EB8;"/><rect x="841.9139897480911" y="44" width="1" height="11" style="fill:#002EB8;"/><text font-family="arial" x="735.8176616439614" y="54" style="font-size:8pt;fill:#002eb8;">NANOGNB</text><line x1="934.9516944908651" y1="49" x2="974.6801483207014" y2="49" style="stroke:#002eb8;stroke-width:1;"/><line x1="937.3159214057832" y1="46" x2="940.3159214057832" y2="49.5" style="stroke:#002eb8;"/><line x1="940.3159214057832" y1="49.5" x2="937.3159214057832" y2="53" style="stroke:#002eb8;"/><line x1="945.3159214057832" y1="46" x2="948.3159214057832" y2="49.5" style="stroke:#002eb8;"/><line x1="948.3159214057832" y1="49.5" x2="945.3159214057832" y2="53" style="stroke:#002eb8;"/><line x1="953.3159214057832" y1="46" x2="956.3159214057832" y2="49.5" style="stroke:#002eb8;"/><line x1="956.3159214057832" y1="49.5" x2="953.3159214057832" y2="53" style="stroke:#002eb8;"/><line x1="961.3159214057832" y1="46" x2="964.3159214057832" y2="49.5" style="stroke:#002eb8;"/><line x1="964.3159214057832" y1="49.5" x2="961.3159214057832" y2="53" style="stroke:#002eb8;"/><line x1="969.3159214057832" y1="46" x2="972.3159214057832" y2="49.5" style="stroke:#002eb8;"/><line x1="972.3159214057832" y1="49.5" x2="969.3159214057832" y2="53" style="stroke:#002eb8;"/><rect x="934.9516944908651" y="46" width="1.2882969564998348" height="7" style="fill:#002EB8;"/><rect x="968.9305267185453" y="46" width="5.7496216021561395" height="7" style="fill:#002EB8;"/><rect x="936.2399914473649" y="44" width="1" height="11" style="fill:#002EB8;"/><rect x="956.1310578822101" y="44" width="1.5686208312936287" height="11" style="fill:#002EB8;"/><rect x="965.1193148889001" y="44" width="1" height="11" style="fill:#002EB8;"/><rect x="966.4433978719694" y="44" width="2.4871288465758425" height="11" style="fill:#002EB8;"/><text font-family="arial" x="894.8616523766073" y="54" style="font-size:8pt;fill:#002eb8;">NANOG</text><line x1="0" y1="67" x2="1060" y2="67" style="stroke:#ccc;stroke-width:0.5;"/><rect x="0" y="67" width="1060" height="12" style="fill:white;"/><rect x="1039.399177371528" y="68" width="1.807194341756258" height="11" style="fill:#336666;"/><line x1="0" y1="79" x2="1060" y2="79" style="stroke:#ccc;stroke-width:0.5;"/><rect x="0" y="79" width="1060" height="204" style="fill:white;"/><path d="M61.46846497076922 79 A 691.2587011134337 691.2587011134337 1 0 0 1039.7630019749836 79" style="fill: none; stroke:rgb(184,0,138);stroke-opacity:0.6363636363636364; stroke-width:1;"/><path d="M61.46846497076922 79 A 691.2587011134337 691.2587011134337 1 0 0 1039.7630019749836 79" style="fill: none; stroke:rgb(184,0,138);stroke-opacity:0.6363636363636364; stroke-width:1;"/><path d="M77.32167474102971 79 A 680.0487889813097 680.0487889813097 1 0 0 1039.7630019749836 79" style="fill: none; stroke:rgb(184,0,138);stroke-opacity:0.18181818181818182; stroke-width:1;"/><path d="M268.11487539598147 79 A 465.50001171065054 465.50001171065054 1 0 0 927.1384120232046 79" style="fill: none; stroke:rgb(184,0,138);stroke-opacity:0.2727272727272727; stroke-width:1;"/><path d="M268.11487539598147 79 A 545.1376229939077 545.1376229939077 1 0 0 1039.7630019749836 79" style="fill: none; stroke:rgb(184,0,138);stroke-opacity:1; stroke-width:1;"/><path d="M372.4013211570816 79 A 471.3959700103907 471.3959700103907 1 0 0 1039.7630019749836 79" style="fill: none; stroke:rgb(184,0,138);stroke-opacity:0.18181818181818182; stroke-width:1;"/><path d="M500.5033676001419 79 A 380.81414428662873 380.81414428662873 1 0 0 1039.7630019749836 79" style="fill: none; stroke:rgb(184,0,138);stroke-opacity:0.7272727272727273; stroke-width:1;"/><path d="M372.4013211570816 79 A 471.3959700103907 471.3959700103907 1 0 0 1039.7630019749836 79" style="fill: none; stroke:rgb(184,0,138);stroke-opacity:0.18181818181818182; stroke-width:1;"/><path d="M61.46846497076922 79 A 691.2587011134337 691.2587011134337 1 0 0 1039.7630019749836 79" style="fill: none; stroke:rgb(184,0,138);stroke-opacity:0.6363636363636364; stroke-width:1;"/><path d="M61.46846497076922 79 A 691.2587011134337 691.2587011134337 1 0 0 1039.7630019749836 79" style="fill: none; stroke:rgb(184,0,138);stroke-opacity:0.6363636363636364; stroke-width:1;"/><path d="M77.32167474102971 79 A 680.0487889813097 680.0487889813097 1 0 0 1039.7630019749836 79" style="fill: none; stroke:rgb(184,0,138);stroke-opacity:0.18181818181818182; stroke-width:1;"/><path d="M268.11487539598147 79 A 545.1376229939077 545.1376229939077 1 0 0 1039.7630019749836 79" style="fill: none; stroke:rgb(184,0,138);stroke-opacity:1; stroke-width:1;"/><rect x="0" y="20" width="1060" height="14" style="fill:rgb(255,255,255);"/><text font-family="arial" x="513.4062423706055" y="30" style="font-size:8pt;fill:#000000;">p13.31</text><line x1="0" y1="20.5" x2="1060" y2="20.5" style="stroke:#000000;"/><line x1="0" y1="33.5" x2="1060" y2="33.5" style="stroke:#000000;"/><text font-family="arial" x="515.7771530151367" y="43" style="font-size:8pt;fill:#000000;">chr12</text><rect x="1060" y="0" width="0" height="20" style="fill:white;"/><rect x="1060" y="20" width="0" height="397" style="fill:white;"/></svg>