<svg xmlns="http://www.w3.org/2000/svg" version="1.1" width="1060" height="492"><line x1="0" y1="16.5" x2="1060" y2="16.5" style="stroke:#000000;"/><line x1="0.8351486308949916" y1="15" x2="0.8351486308949916" y2="17" style="stroke:#000000;"/><text font-family="arial" x="7.481178233907485" y="10" style="font-size:8pt;fill:#000000;">67240000</text><line x1="29.727271983907485" y1="12" x2="29.727271983907485" y2="17" style="stroke:#000000;"/><line x1="58.619395336920206" y1="15" x2="58.619395336920206" y2="17" style="stroke:#000000;"/><text font-family="arial" x="65.26542493993293" y="10" style="font-size:8pt;fill:#000000;">67260000</text><line x1="87.51151868993293" y1="12" x2="87.51151868993293" y2="17" style="stroke:#000000;"/><line x1="116.40364204294565" y1="15" x2="116.40364204294565" y2="17" style="stroke:#000000;"/><text font-family="arial" x="123.04967164595837" y="10" style="font-size:8pt;fill:#000000;">67280000</text><line x1="145.29576539595837" y1="12" x2="145.29576539595837" y2="17" style="stroke:#000000;"/><line x1="174.1878887489711" y1="15" x2="174.1878887489711" y2="17" style="stroke:#000000;"/><text font-family="arial" x="180.83391835198358" y="10" style="font-size:8pt;fill:#000000;">67300000</text><line x1="203.08001210198358" y1="12" x2="203.08001210198358" y2="17" style="stroke:#000000;"/><line x1="231.9721354549963" y1="15" x2="231.9721354549963" y2="17" style="stroke:#000000;"/><text font-family="arial" x="238.61816505800903" y="10" style="font-size:8pt;fill:#000000;">67320000</text><line x1="260.864258808009" y1="12" x2="260.864258808009" y2="17" style="stroke:#000000;"/><line x1="289.75638216102175" y1="15" x2="289.75638216102175" y2="17" style="stroke:#000000;"/><text font-family="arial" x="296.40241176403447" y="10" style="font-size:8pt;fill:#000000;">67340000</text><line x1="318.64850551403447" y1="12" x2="318.64850551403447" y2="17" style="stroke:#000000;"/><line x1="347.5406288670472" y1="15" x2="347.5406288670472" y2="17" style="stroke:#000000;"/><text font-family="arial" x="354.1866584700597" y="10" style="font-size:8pt;fill:#000000;">67360000</text><line x1="376.4327522200597" y1="12" x2="376.4327522200597" y2="17" style="stroke:#000000;"/><line x1="405.3248755730724" y1="15" x2="405.3248755730724" y2="17" style="stroke:#000000;"/><text font-family="arial" x="411.9709051760851" y="10" style="font-size:8pt;fill:#000000;">67380000</text><line x1="434.2169989260851" y1="12" x2="434.2169989260851" y2="17" style="stroke:#000000;"/><line x1="463.10912227909785" y1="15" x2="463.10912227909785" y2="17" style="stroke:#000000;"/><text font-family="arial" x="469.75515188211057" y="10" style="font-size:8pt;fill:#000000;">67400000</text><line x1="492.00124563211057" y1="12" x2="492.00124563211057" y2="17" style="stroke:#000000;"/><line x1="520.8933689851233" y1="15" x2="520.8933689851233" y2="17" style="stroke:#000000;"/><text font-family="arial" x="527.5393985881358" y="10" style="font-size:8pt;fill:#000000;">67420000</text><line x1="549.7854923381358" y1="12" x2="549.7854923381358" y2="17" style="stroke:#000000;"/><line x1="578.6776156911485" y1="15" x2="578.6776156911485" y2="17" style="stroke:#000000;"/><text font-family="arial" x="585.3236452941612" y="10" style="font-size:8pt;fill:#000000;">67440000</text><line x1="607.5697390441612" y1="12" x2="607.5697390441612" y2="17" style="stroke:#000000;"/><line x1="636.461862397174" y1="15" x2="636.461862397174" y2="17" style="stroke:#000000;"/><text font-family="arial" x="643.1078920001867" y="10" style="font-size:8pt;fill:#000000;">67460000</text><line x1="665.3539857501867" y1="12" x2="665.3539857501867" y2="17" style="stroke:#000000;"/><line x1="694.2461091031994" y1="15" x2="694.2461091031994" y2="17" style="stroke:#000000;"/><text font-family="arial" x="700.8921387062119" y="10" style="font-size:8pt;fill:#000000;">67480000</text><line x1="723.1382324562119" y1="12" x2="723.1382324562119" y2="17" style="stroke:#000000;"/><line x1="752.0303558092246" y1="15" x2="752.0303558092246" y2="17" style="stroke:#000000;"/><text font-family="arial" x="758.6763854122373" y="10" style="font-size:8pt;fill:#000000;">67500000</text><line x1="780.9224791622373" y1="12" x2="780.9224791622373" y2="17" style="stroke:#000000;"/><line x1="809.81460251525" y1="15" x2="809.81460251525" y2="17" style="stroke:#000000;"/><text font-family="arial" x="816.4606321182628" y="10" style="font-size:8pt;fill:#000000;">67520000</text><line x1="838.7067258682628" y1="12" x2="838.7067258682628" y2="17" style="stroke:#000000;"/><line x1="867.5988492212755" y1="15" x2="867.5988492212755" y2="17" style="stroke:#000000;"/><text font-family="arial" x="874.2448788242882" y="10" style="font-size:8pt;fill:#000000;">67540000</text><line x1="896.4909725742882" y1="12" x2="896.4909725742882" y2="17" style="stroke:#000000;"/><line x1="925.3830959273007" y1="15" x2="925.3830959273007" y2="17" style="stroke:#000000;"/><text font-family="arial" x="932.0291255303134" y="10" style="font-size:8pt;fill:#000000;">67560000</text><line x1="954.2752192803134" y1="12" x2="954.2752192803134" y2="17" style="stroke:#000000;"/><line x1="983.1673426333261" y1="15" x2="983.1673426333261" y2="17" style="stroke:#000000;"/><text font-family="arial" x="989.8133722363386" y="10" style="font-size:8pt;fill:#000000;">67580000</text><line x1="1012.0594659863386" y1="12" x2="1012.0594659863386" y2="17" style="stroke:#000000;"/><line x1="1040.9515893393514" y1="15" x2="1040.9515893393514" y2="17" style="stroke:#000000;"/><text font-family="arial" x="1047.597618942364" y="10" style="font-size:8pt;fill:#000000;">67600000</text><line x1="0" y1="43" x2="1060" y2="43" style="stroke:#ccc;stroke-width:0.5;"/><rect x="0" y="43" width="1060" height="96" style="fill:white;"/><line x1="370.7119455301704" y1="49" x2="744.3997797657012" y2="49" style="stroke:#002eb8;stroke-width:1;"/><line x1="376.0558626479358" y1="46" x2="379.0558626479358" y2="49.5" style="stroke:#002eb8;"/><line x1="379.0558626479358" y1="49.5" x2="376.0558626479358" y2="53" style="stroke:#002eb8;"/><line x1="384.0558626479358" y1="46" x2="387.0558626479358" y2="49.5" style="stroke:#002eb8;"/><line x1="387.0558626479358" y1="49.5" x2="384.0558626479358" y2="53" style="stroke:#002eb8;"/><line x1="392.0558626479358" y1="46" x2="395.0558626479358" y2="49.5" style="stroke:#002eb8;"/><line x1="395.0558626479358" y1="49.5" x2="392.0558626479358" y2="53" style="stroke:#002eb8;"/><line x1="400.0558626479358" y1="46" x2="403.0558626479358" y2="49.5" style="stroke:#002eb8;"/><line x1="403.0558626479358" y1="49.5" x2="400.0558626479358" y2="53" style="stroke:#002eb8;"/><line x1="408.0558626479358" y1="46" x2="411.0558626479358" y2="49.5" style="stroke:#002eb8;"/><line x1="411.0558626479358" y1="49.5" x2="408.0558626479358" y2="53" style="stroke:#002eb8;"/><line x1="416.0558626479358" y1="46" x2="419.0558626479358" y2="49.5" style="stroke:#002eb8;"/><line x1="419.0558626479358" y1="49.5" x2="416.0558626479358" y2="53" style="stroke:#002eb8;"/><line x1="424.0558626479358" y1="46" x2="427.0558626479358" y2="49.5" style="stroke:#002eb8;"/><line x1="427.0558626479358" y1="49.5" x2="424.0558626479358" y2="53" style="stroke:#002eb8;"/><line x1="432.0558626479358" y1="46" x2="435.0558626479358" y2="49.5" style="stroke:#002eb8;"/><line x1="435.0558626479358" y1="49.5" x2="432.0558626479358" y2="53" style="stroke:#002eb8;"/><line x1="440.0558626479358" y1="46" x2="443.0558626479358" y2="49.5" style="stroke:#002eb8;"/><line x1="443.0558626479358" y1="49.5" x2="440.0558626479358" y2="53" style="stroke:#002eb8;"/><line x1="448.0558626479358" y1="46" x2="451.0558626479358" y2="49.5" style="stroke:#002eb8;"/><line x1="451.0558626479358" y1="49.5" x2="448.0558626479358" y2="53" style="stroke:#002eb8;"/><line x1="456.0558626479358" y1="46" x2="459.0558626479358" y2="49.5" style="stroke:#002eb8;"/><line x1="459.0558626479358" y1="49.5" x2="456.0558626479358" y2="53" style="stroke:#002eb8;"/><line x1="464.0558626479358" y1="46" x2="467.0558626479358" y2="49.5" style="stroke:#002eb8;"/><line x1="467.0558626479358" y1="49.5" x2="464.0558626479358" y2="53" style="stroke:#002eb8;"/><line x1="472.0558626479358" y1="46" x2="475.0558626479358" y2="49.5" style="stroke:#002eb8;"/><line x1="475.0558626479358" y1="49.5" x2="472.0558626479358" y2="53" style="stroke:#002eb8;"/><line x1="480.0558626479358" y1="46" x2="483.0558626479358" y2="49.5" style="stroke:#002eb8;"/><line x1="483.0558626479358" y1="49.5" x2="480.0558626479358" y2="53" style="stroke:#002eb8;"/><line x1="488.0558626479358" y1="46" x2="491.0558626479358" y2="49.5" style="stroke:#002eb8;"/><line x1="491.0558626479358" y1="49.5" x2="488.0558626479358" y2="53" style="stroke:#002eb8;"/><line x1="496.0558626479358" y1="46" x2="499.0558626479358" y2="49.5" style="stroke:#002eb8;"/><line x1="499.0558626479358" y1="49.5" x2="496.0558626479358" y2="53" style="stroke:#002eb8;"/><line x1="504.0558626479358" y1="46" x2="507.0558626479358" y2="49.5" style="stroke:#002eb8;"/><line x1="507.0558626479358" y1="49.5" x2="504.0558626479358" y2="53" style="stroke:#002eb8;"/><line x1="512.0558626479358" y1="46" x2="515.0558626479358" y2="49.5" style="stroke:#002eb8;"/><line x1="515.0558626479358" y1="49.5" x2="512.0558626479358" y2="53" style="stroke:#002eb8;"/><line x1="520.0558626479358" y1="46" x2="523.0558626479358" y2="49.5" style="stroke:#002eb8;"/><line x1="523.0558626479358" y1="49.5" x2="520.0558626479358" y2="53" style="stroke:#002eb8;"/><line x1="528.0558626479358" y1="46" x2="531.0558626479358" y2="49.5" style="stroke:#002eb8;"/><line x1="531.0558626479358" y1="49.5" x2="528.0558626479358" y2="53" style="stroke:#002eb8;"/><line x1="536.0558626479358" y1="46" x2="539.0558626479358" y2="49.5" style="stroke:#002eb8;"/><line x1="539.0558626479358" y1="49.5" x2="536.0558626479358" y2="53" style="stroke:#002eb8;"/><line x1="544.0558626479358" y1="46" x2="547.0558626479358" y2="49.5" style="stroke:#002eb8;"/><line x1="547.0558626479358" y1="49.5" x2="544.0558626479358" y2="53" style="stroke:#002eb8;"/><line x1="552.0558626479358" y1="46" x2="555.0558626479358" y2="49.5" style="stroke:#002eb8;"/><line x1="555.0558626479358" y1="49.5" x2="552.0558626479358" y2="53" style="stroke:#002eb8;"/><line x1="560.0558626479358" y1="46" x2="563.0558626479358" y2="49.5" style="stroke:#002eb8;"/><line x1="563.0558626479358" y1="49.5" x2="560.0558626479358" y2="53" style="stroke:#002eb8;"/><line x1="568.0558626479358" y1="46" x2="571.0558626479358" y2="49.5" style="stroke:#002eb8;"/><line x1="571.0558626479358" y1="49.5" x2="568.0558626479358" y2="53" style="stroke:#002eb8;"/><line x1="576.0558626479358" y1="46" x2="579.0558626479358" y2="49.5" style="stroke:#002eb8;"/><line x1="579.0558626479358" y1="49.5" x2="576.0558626479358" y2="53" style="stroke:#002eb8;"/><line x1="584.0558626479358" y1="46" x2="587.0558626479358" y2="49.5" style="stroke:#002eb8;"/><line x1="587.0558626479358" y1="49.5" x2="584.0558626479358" y2="53" style="stroke:#002eb8;"/><line x1="592.0558626479358" y1="46" x2="595.0558626479358" y2="49.5" style="stroke:#002eb8;"/><line x1="595.0558626479358" y1="49.5" x2="592.0558626479358" y2="53" style="stroke:#002eb8;"/><line x1="600.0558626479358" y1="46" x2="603.0558626479358" y2="49.5" style="stroke:#002eb8;"/><line x1="603.0558626479358" y1="49.5" x2="600.0558626479358" y2="53" style="stroke:#002eb8;"/><line x1="608.0558626479358" y1="46" x2="611.0558626479358" y2="49.5" style="stroke:#002eb8;"/><line x1="611.0558626479358" y1="49.5" x2="608.0558626479358" y2="53" style="stroke:#002eb8;"/><line x1="616.0558626479358" y1="46" x2="619.0558626479358" y2="49.5" style="stroke:#002eb8;"/><line x1="619.0558626479358" y1="49.5" x2="616.0558626479358" y2="53" style="stroke:#002eb8;"/><line x1="624.0558626479358" y1="46" x2="627.0558626479358" y2="49.5" style="stroke:#002eb8;"/><line x1="627.0558626479358" y1="49.5" x2="624.0558626479358" y2="53" style="stroke:#002eb8;"/><line x1="632.0558626479358" y1="46" x2="635.0558626479358" y2="49.5" style="stroke:#002eb8;"/><line x1="635.0558626479358" y1="49.5" x2="632.0558626479358" y2="53" style="stroke:#002eb8;"/><line x1="640.0558626479358" y1="46" x2="643.0558626479358" y2="49.5" style="stroke:#002eb8;"/><line x1="643.0558626479358" y1="49.5" x2="640.0558626479358" y2="53" style="stroke:#002eb8;"/><line x1="648.0558626479358" y1="46" x2="651.0558626479358" y2="49.5" style="stroke:#002eb8;"/><line x1="651.0558626479358" y1="49.5" x2="648.0558626479358" y2="53" style="stroke:#002eb8;"/><line x1="656.0558626479358" y1="46" x2="659.0558626479358" y2="49.5" style="stroke:#002eb8;"/><line x1="659.0558626479358" y1="49.5" x2="656.0558626479358" y2="53" style="stroke:#002eb8;"/><line x1="664.0558626479358" y1="46" x2="667.0558626479358" y2="49.5" style="stroke:#002eb8;"/><line x1="667.0558626479358" y1="49.5" x2="664.0558626479358" y2="53" style="stroke:#002eb8;"/><line x1="672.0558626479358" y1="46" x2="675.0558626479358" y2="49.5" style="stroke:#002eb8;"/><line x1="675.0558626479358" y1="49.5" x2="672.0558626479358" y2="53" style="stroke:#002eb8;"/><line x1="680.0558626479358" y1="46" x2="683.0558626479358" y2="49.5" style="stroke:#002eb8;"/><line x1="683.0558626479358" y1="49.5" x2="680.0558626479358" y2="53" style="stroke:#002eb8;"/><line x1="688.0558626479358" y1="46" x2="691.0558626479358" y2="49.5" style="stroke:#002eb8;"/><line x1="691.0558626479358" y1="49.5" x2="688.0558626479358" y2="53" style="stroke:#002eb8;"/><line x1="696.0558626479358" y1="46" x2="699.0558626479358" y2="49.5" style="stroke:#002eb8;"/><line x1="699.0558626479358" y1="49.5" x2="696.0558626479358" y2="53" style="stroke:#002eb8;"/><line x1="704.0558626479358" y1="46" x2="707.0558626479358" y2="49.5" style="stroke:#002eb8;"/><line x1="707.0558626479358" y1="49.5" x2="704.0558626479358" y2="53" style="stroke:#002eb8;"/><line x1="712.0558626479358" y1="46" x2="715.0558626479358" y2="49.5" style="stroke:#002eb8;"/><line x1="715.0558626479358" y1="49.5" x2="712.0558626479358" y2="53" style="stroke:#002eb8;"/><line x1="720.0558626479358" y1="46" x2="723.0558626479358" y2="49.5" style="stroke:#002eb8;"/><line x1="723.0558626479358" y1="49.5" x2="720.0558626479358" y2="53" style="stroke:#002eb8;"/><line x1="728.0558626479358" y1="46" x2="731.0558626479358" y2="49.5" style="stroke:#002eb8;"/><line x1="731.0558626479358" y1="49.5" x2="728.0558626479358" y2="53" style="stroke:#002eb8;"/><line x1="736.0558626479358" y1="46" x2="739.0558626479358" y2="49.5" style="stroke:#002eb8;"/><line x1="739.0558626479358" y1="49.5" x2="736.0558626479358" y2="53" style="stroke:#002eb8;"/><rect x="370.7119455301704" y="46" width="1" height="7" style="fill:#002EB8;"/><rect x="730.9389394955326" y="46" width="13.460840270168546" height="7" style="fill:#002EB8;"/><rect x="371.5729308060902" y="44" width="1" height="11" style="fill:#002EB8;"/><rect x="656.8537567937374" y="44" width="1" height="11" style="fill:#002EB8;"/><rect x="657.8880948097753" y="44" width="1" height="11" style="fill:#002EB8;"/><rect x="662.297032833445" y="44" width="1" height="11" style="fill:#002EB8;"/><rect x="673.2038093992073" y="44" width="1" height="11" style="fill:#002EB8;"/><rect x="704.0808216265721" y="44" width="1" height="11" style="fill:#002EB8;"/><rect x="714.1526158274321" y="44" width="1" height="11" style="fill:#002EB8;"/><rect x="721.7743579679568" y="44" width="1" height="11" style="fill:#002EB8;"/><rect x="730.5806771659552" y="44" width="1" height="11" style="fill:#002EB8;"/><text font-family="arial" x="332.98498630165477" y="54" style="font-size:8pt;fill:#002eb8;">SMAD3</text><line x1="543.6573067089689" y1="61" x2="744.3997797657012" y2="61" style="stroke:#002eb8;stroke-width:1;"/><line x1="546.528543237335" y1="58" x2="549.528543237335" y2="61.5" style="stroke:#002eb8;"/><line x1="549.528543237335" y1="61.5" x2="546.528543237335" y2="65" style="stroke:#002eb8;"/><line x1="554.528543237335" y1="58" x2="557.528543237335" y2="61.5" style="stroke:#002eb8;"/><line x1="557.528543237335" y1="61.5" x2="554.528543237335" y2="65" style="stroke:#002eb8;"/><line x1="562.528543237335" y1="58" x2="565.528543237335" y2="61.5" style="stroke:#002eb8;"/><line x1="565.528543237335" y1="61.5" x2="562.528543237335" y2="65" style="stroke:#002eb8;"/><line x1="570.528543237335" y1="58" x2="573.528543237335" y2="61.5" style="stroke:#002eb8;"/><line x1="573.528543237335" y1="61.5" x2="570.528543237335" y2="65" style="stroke:#002eb8;"/><line x1="578.528543237335" y1="58" x2="581.528543237335" y2="61.5" style="stroke:#002eb8;"/><line x1="581.528543237335" y1="61.5" x2="578.528543237335" y2="65" style="stroke:#002eb8;"/><line x1="586.528543237335" y1="58" x2="589.528543237335" y2="61.5" style="stroke:#002eb8;"/><line x1="589.528543237335" y1="61.5" x2="586.528543237335" y2="65" style="stroke:#002eb8;"/><line x1="594.528543237335" y1="58" x2="597.528543237335" y2="61.5" style="stroke:#002eb8;"/><line x1="597.528543237335" y1="61.5" x2="594.528543237335" y2="65" style="stroke:#002eb8;"/><line x1="602.528543237335" y1="58" x2="605.528543237335" y2="61.5" style="stroke:#002eb8;"/><line x1="605.528543237335" y1="61.5" x2="602.528543237335" y2="65" style="stroke:#002eb8;"/><line x1="610.528543237335" y1="58" x2="613.528543237335" y2="61.5" style="stroke:#002eb8;"/><line x1="613.528543237335" y1="61.5" x2="610.528543237335" y2="65" style="stroke:#002eb8;"/><line x1="618.528543237335" y1="58" x2="621.528543237335" y2="61.5" style="stroke:#002eb8;"/><line x1="621.528543237335" y1="61.5" x2="618.528543237335" y2="65" style="stroke:#002eb8;"/><line x1="626.528543237335" y1="58" x2="629.528543237335" y2="61.5" style="stroke:#002eb8;"/><line x1="629.528543237335" y1="61.5" x2="626.528543237335" y2="65" style="stroke:#002eb8;"/><line x1="634.528543237335" y1="58" x2="637.528543237335" y2="61.5" style="stroke:#002eb8;"/><line x1="637.528543237335" y1="61.5" x2="634.528543237335" y2="65" style="stroke:#002eb8;"/><line x1="642.528543237335" y1="58" x2="645.528543237335" y2="61.5" style="stroke:#002eb8;"/><line x1="645.528543237335" y1="61.5" x2="642.528543237335" y2="65" style="stroke:#002eb8;"/><line x1="650.528543237335" y1="58" x2="653.528543237335" y2="61.5" style="stroke:#002eb8;"/><line x1="653.528543237335" y1="61.5" x2="650.528543237335" y2="65" style="stroke:#002eb8;"/><line x1="658.528543237335" y1="58" x2="661.528543237335" y2="61.5" style="stroke:#002eb8;"/><line x1="661.528543237335" y1="61.5" x2="658.528543237335" y2="65" style="stroke:#002eb8;"/><line x1="666.528543237335" y1="58" x2="669.528543237335" y2="61.5" style="stroke:#002eb8;"/><line x1="669.528543237335" y1="61.5" x2="666.528543237335" y2="65" style="stroke:#002eb8;"/><line x1="674.528543237335" y1="58" x2="677.528543237335" y2="61.5" style="stroke:#002eb8;"/><line x1="677.528543237335" y1="61.5" x2="674.528543237335" y2="65" style="stroke:#002eb8;"/><line x1="682.528543237335" y1="58" x2="685.528543237335" y2="61.5" style="stroke:#002eb8;"/><line x1="685.528543237335" y1="61.5" x2="682.528543237335" y2="65" style="stroke:#002eb8;"/><line x1="690.528543237335" y1="58" x2="693.528543237335" y2="61.5" style="stroke:#002eb8;"/><line x1="693.528543237335" y1="61.5" x2="690.528543237335" y2="65" style="stroke:#002eb8;"/><line x1="698.528543237335" y1="58" x2="701.528543237335" y2="61.5" style="stroke:#002eb8;"/><line x1="701.528543237335" y1="61.5" x2="698.528543237335" y2="65" style="stroke:#002eb8;"/><line x1="706.528543237335" y1="58" x2="709.528543237335" y2="61.5" style="stroke:#002eb8;"/><line x1="709.528543237335" y1="61.5" x2="706.528543237335" y2="65" style="stroke:#002eb8;"/><line x1="714.528543237335" y1="58" x2="717.528543237335" y2="61.5" style="stroke:#002eb8;"/><line x1="717.528543237335" y1="61.5" x2="714.528543237335" y2="65" style="stroke:#002eb8;"/><line x1="722.528543237335" y1="58" x2="725.528543237335" y2="61.5" style="stroke:#002eb8;"/><line x1="725.528543237335" y1="61.5" x2="722.528543237335" y2="65" style="stroke:#002eb8;"/><line x1="730.528543237335" y1="58" x2="733.528543237335" y2="61.5" style="stroke:#002eb8;"/><line x1="733.528543237335" y1="61.5" x2="730.528543237335" y2="65" style="stroke:#002eb8;"/><line x1="738.528543237335" y1="58" x2="741.528543237335" y2="61.5" style="stroke:#002eb8;"/><line x1="741.528543237335" y1="61.5" x2="738.528543237335" y2="65" style="stroke:#002eb8;"/><rect x="543.6573067089689" y="58" width="1" height="7" style="fill:#002EB8;"/><rect x="656.8537567937374" y="58" width="1" height="7" style="fill:#002EB8;"/><rect x="730.9389394955326" y="58" width="13.460840270168546" height="7" style="fill:#002EB8;"/><rect x="657.1686809382852" y="56" width="1" height="11" style="fill:#002EB8;"/><rect x="657.8880948097753" y="56" width="1" height="11" style="fill:#002EB8;"/><rect x="662.297032833445" y="56" width="1" height="11" style="fill:#002EB8;"/><rect x="673.2038093992073" y="56" width="1" height="11" style="fill:#002EB8;"/><rect x="704.0808216265721" y="56" width="1" height="11" style="fill:#002EB8;"/><rect x="714.1526158274321" y="56" width="1" height="11" style="fill:#002EB8;"/><rect x="721.7743579679568" y="56" width="1" height="11" style="fill:#002EB8;"/><rect x="730.5806771659552" y="56" width="1" height="11" style="fill:#002EB8;"/><text font-family="arial" x="505.9303474804533" y="66" style="font-size:8pt;fill:#002eb8;">SMAD3</text><line x1="579.2090644948512" y1="73" x2="744.3997797657012" y2="73" style="stroke:#002eb8;stroke-width:1;"/><line x1="584.3044221302762" y1="70" x2="587.3044221302762" y2="73.5" style="stroke:#002eb8;"/><line x1="587.3044221302762" y1="73.5" x2="584.3044221302762" y2="77" style="stroke:#002eb8;"/><line x1="592.3044221302762" y1="70" x2="595.3044221302762" y2="73.5" style="stroke:#002eb8;"/><line x1="595.3044221302762" y1="73.5" x2="592.3044221302762" y2="77" style="stroke:#002eb8;"/><line x1="600.3044221302762" y1="70" x2="603.3044221302762" y2="73.5" style="stroke:#002eb8;"/><line x1="603.3044221302762" y1="73.5" x2="600.3044221302762" y2="77" style="stroke:#002eb8;"/><line x1="608.3044221302762" y1="70" x2="611.3044221302762" y2="73.5" style="stroke:#002eb8;"/><line x1="611.3044221302762" y1="73.5" x2="608.3044221302762" y2="77" style="stroke:#002eb8;"/><line x1="616.3044221302762" y1="70" x2="619.3044221302762" y2="73.5" style="stroke:#002eb8;"/><line x1="619.3044221302762" y1="73.5" x2="616.3044221302762" y2="77" style="stroke:#002eb8;"/><line x1="624.3044221302762" y1="70" x2="627.3044221302762" y2="73.5" style="stroke:#002eb8;"/><line x1="627.3044221302762" y1="73.5" x2="624.3044221302762" y2="77" style="stroke:#002eb8;"/><line x1="632.3044221302762" y1="70" x2="635.3044221302762" y2="73.5" style="stroke:#002eb8;"/><line x1="635.3044221302762" y1="73.5" x2="632.3044221302762" y2="77" style="stroke:#002eb8;"/><line x1="640.3044221302762" y1="70" x2="643.3044221302762" y2="73.5" style="stroke:#002eb8;"/><line x1="643.3044221302762" y1="73.5" x2="640.3044221302762" y2="77" style="stroke:#002eb8;"/><line x1="648.3044221302762" y1="70" x2="651.3044221302762" y2="73.5" style="stroke:#002eb8;"/><line x1="651.3044221302762" y1="73.5" x2="648.3044221302762" y2="77" style="stroke:#002eb8;"/><line x1="656.3044221302762" y1="70" x2="659.3044221302762" y2="73.5" style="stroke:#002eb8;"/><line x1="659.3044221302762" y1="73.5" x2="656.3044221302762" y2="77" style="stroke:#002eb8;"/><line x1="664.3044221302762" y1="70" x2="667.3044221302762" y2="73.5" style="stroke:#002eb8;"/><line x1="667.3044221302762" y1="73.5" x2="664.3044221302762" y2="77" style="stroke:#002eb8;"/><line x1="672.3044221302762" y1="70" x2="675.3044221302762" y2="73.5" style="stroke:#002eb8;"/><line x1="675.3044221302762" y1="73.5" x2="672.3044221302762" y2="77" style="stroke:#002eb8;"/><line x1="680.3044221302762" y1="70" x2="683.3044221302762" y2="73.5" style="stroke:#002eb8;"/><line x1="683.3044221302762" y1="73.5" x2="680.3044221302762" y2="77" style="stroke:#002eb8;"/><line x1="688.3044221302762" y1="70" x2="691.3044221302762" y2="73.5" style="stroke:#002eb8;"/><line x1="691.3044221302762" y1="73.5" x2="688.3044221302762" y2="77" style="stroke:#002eb8;"/><line x1="696.3044221302762" y1="70" x2="699.3044221302762" y2="73.5" style="stroke:#002eb8;"/><line x1="699.3044221302762" y1="73.5" x2="696.3044221302762" y2="77" style="stroke:#002eb8;"/><line x1="704.3044221302762" y1="70" x2="707.3044221302762" y2="73.5" style="stroke:#002eb8;"/><line x1="707.3044221302762" y1="73.5" x2="704.3044221302762" y2="77" style="stroke:#002eb8;"/><line x1="712.3044221302762" y1="70" x2="715.3044221302762" y2="73.5" style="stroke:#002eb8;"/><line x1="715.3044221302762" y1="73.5" x2="712.3044221302762" y2="77" style="stroke:#002eb8;"/><line x1="720.3044221302762" y1="70" x2="723.3044221302762" y2="73.5" style="stroke:#002eb8;"/><line x1="723.3044221302762" y1="73.5" x2="720.3044221302762" y2="77" style="stroke:#002eb8;"/><line x1="728.3044221302762" y1="70" x2="731.3044221302762" y2="73.5" style="stroke:#002eb8;"/><line x1="731.3044221302762" y1="73.5" x2="728.3044221302762" y2="77" style="stroke:#002eb8;"/><line x1="736.3044221302762" y1="70" x2="739.3044221302762" y2="73.5" style="stroke:#002eb8;"/><line x1="739.3044221302762" y1="73.5" x2="736.3044221302762" y2="77" style="stroke:#002eb8;"/><rect x="579.2090644948512" y="70" width="1" height="7" style="fill:#002EB8;"/><rect x="730.9389394955326" y="70" width="13.460840270168546" height="7" style="fill:#002EB8;"/><rect x="579.2263997688628" y="68" width="1" height="11" style="fill:#002EB8;"/><rect x="656.8537567937374" y="68" width="1" height="11" style="fill:#002EB8;"/><rect x="657.8880948097753" y="68" width="1" height="11" style="fill:#002EB8;"/><rect x="662.297032833445" y="68" width="1" height="11" style="fill:#002EB8;"/><rect x="673.2038093992073" y="68" width="1" height="11" style="fill:#002EB8;"/><rect x="704.0808216265721" y="68" width="1" height="11" style="fill:#002EB8;"/><rect x="714.1526158274321" y="68" width="1" height="11" style="fill:#002EB8;"/><rect x="721.7743579679568" y="68" width="1" height="11" style="fill:#002EB8;"/><rect x="730.5806771659552" y="68" width="1" height="11" style="fill:#002EB8;"/><text font-family="arial" x="541.4821052663356" y="78" style="font-size:8pt;fill:#002eb8;">SMAD3</text><line x1="660.494164336217" y1="85" x2="744.3997797657012" y2="85" style="stroke:#002eb8;stroke-width:1;"/><line x1="664.9469720509592" y1="82" x2="667.9469720509592" y2="85.5" style="stroke:#002eb8;"/><line x1="667.9469720509592" y1="85.5" x2="664.9469720509592" y2="89" style="stroke:#002eb8;"/><line x1="672.9469720509592" y1="82" x2="675.9469720509592" y2="85.5" style="stroke:#002eb8;"/><line x1="675.9469720509592" y1="85.5" x2="672.9469720509592" y2="89" style="stroke:#002eb8;"/><line x1="680.9469720509592" y1="82" x2="683.9469720509592" y2="85.5" style="stroke:#002eb8;"/><line x1="683.9469720509592" y1="85.5" x2="680.9469720509592" y2="89" style="stroke:#002eb8;"/><line x1="688.9469720509592" y1="82" x2="691.9469720509592" y2="85.5" style="stroke:#002eb8;"/><line x1="691.9469720509592" y1="85.5" x2="688.9469720509592" y2="89" style="stroke:#002eb8;"/><line x1="696.9469720509592" y1="82" x2="699.9469720509592" y2="85.5" style="stroke:#002eb8;"/><line x1="699.9469720509592" y1="85.5" x2="696.9469720509592" y2="89" style="stroke:#002eb8;"/><line x1="704.9469720509592" y1="82" x2="707.9469720509592" y2="85.5" style="stroke:#002eb8;"/><line x1="707.9469720509592" y1="85.5" x2="704.9469720509592" y2="89" style="stroke:#002eb8;"/><line x1="712.9469720509592" y1="82" x2="715.9469720509592" y2="85.5" style="stroke:#002eb8;"/><line x1="715.9469720509592" y1="85.5" x2="712.9469720509592" y2="89" style="stroke:#002eb8;"/><line x1="720.9469720509592" y1="82" x2="723.9469720509592" y2="85.5" style="stroke:#002eb8;"/><line x1="723.9469720509592" y1="85.5" x2="720.9469720509592" y2="89" style="stroke:#002eb8;"/><line x1="728.9469720509592" y1="82" x2="731.9469720509592" y2="85.5" style="stroke:#002eb8;"/><line x1="731.9469720509592" y1="85.5" x2="728.9469720509592" y2="89" style="stroke:#002eb8;"/><line x1="736.9469720509592" y1="82" x2="739.9469720509592" y2="85.5" style="stroke:#002eb8;"/><line x1="739.9469720509592" y1="85.5" x2="736.9469720509592" y2="89" style="stroke:#002eb8;"/><rect x="660.494164336217" y="82" width="1" height="7" style="fill:#002EB8;"/><rect x="662.297032833445" y="82" width="1" height="7" style="fill:#002EB8;"/><rect x="730.9389394955326" y="82" width="13.460840270168546" height="7" style="fill:#002EB8;"/><rect x="662.450161087216" y="80" width="1" height="11" style="fill:#002EB8;"/><rect x="673.2038093992073" y="80" width="1" height="11" style="fill:#002EB8;"/><rect x="704.0808216265721" y="80" width="1" height="11" style="fill:#002EB8;"/><rect x="714.1526158274321" y="80" width="1" height="11" style="fill:#002EB8;"/><rect x="721.7743579679568" y="80" width="1" height="11" style="fill:#002EB8;"/><rect x="730.5806771659552" y="80" width="1" height="11" style="fill:#002EB8;"/><text font-family="arial" x="622.7672051077013" y="90" style="font-size:8pt;fill:#002eb8;">SMAD3</text><line x1="760.2297741508169" y1="97" x2="917.7611875207831" y2="97" style="stroke:#002eb8;stroke-width:1;"/><line x1="768.4954808358" y1="94" x2="765.4954808358" y2="97.5" style="stroke:#002eb8;"/><line x1="765.4954808358" y1="97.5" x2="768.4954808358" y2="101" style="stroke:#002eb8;"/><line x1="776.4954808358" y1="94" x2="773.4954808358" y2="97.5" style="stroke:#002eb8;"/><line x1="773.4954808358" y1="97.5" x2="776.4954808358" y2="101" style="stroke:#002eb8;"/><line x1="784.4954808358" y1="94" x2="781.4954808358" y2="97.5" style="stroke:#002eb8;"/><line x1="781.4954808358" y1="97.5" x2="784.4954808358" y2="101" style="stroke:#002eb8;"/><line x1="792.4954808358" y1="94" x2="789.4954808358" y2="97.5" style="stroke:#002eb8;"/><line x1="789.4954808358" y1="97.5" x2="792.4954808358" y2="101" style="stroke:#002eb8;"/><line x1="800.4954808358" y1="94" x2="797.4954808358" y2="97.5" style="stroke:#002eb8;"/><line x1="797.4954808358" y1="97.5" x2="800.4954808358" y2="101" style="stroke:#002eb8;"/><line x1="808.4954808358" y1="94" x2="805.4954808358" y2="97.5" style="stroke:#002eb8;"/><line x1="805.4954808358" y1="97.5" x2="808.4954808358" y2="101" style="stroke:#002eb8;"/><line x1="816.4954808358" y1="94" x2="813.4954808358" y2="97.5" style="stroke:#002eb8;"/><line x1="813.4954808358" y1="97.5" x2="816.4954808358" y2="101" style="stroke:#002eb8;"/><line x1="824.4954808358" y1="94" x2="821.4954808358" y2="97.5" style="stroke:#002eb8;"/><line x1="821.4954808358" y1="97.5" x2="824.4954808358" y2="101" style="stroke:#002eb8;"/><line x1="832.4954808358" y1="94" x2="829.4954808358" y2="97.5" style="stroke:#002eb8;"/><line x1="829.4954808358" y1="97.5" x2="832.4954808358" y2="101" style="stroke:#002eb8;"/><line x1="840.4954808358" y1="94" x2="837.4954808358" y2="97.5" style="stroke:#002eb8;"/><line x1="837.4954808358" y1="97.5" x2="840.4954808358" y2="101" style="stroke:#002eb8;"/><line x1="848.4954808358" y1="94" x2="845.4954808358" y2="97.5" style="stroke:#002eb8;"/><line x1="845.4954808358" y1="97.5" x2="848.4954808358" y2="101" style="stroke:#002eb8;"/><line x1="856.4954808358" y1="94" x2="853.4954808358" y2="97.5" style="stroke:#002eb8;"/><line x1="853.4954808358" y1="97.5" x2="856.4954808358" y2="101" style="stroke:#002eb8;"/><line x1="864.4954808358" y1="94" x2="861.4954808358" y2="97.5" style="stroke:#002eb8;"/><line x1="861.4954808358" y1="97.5" x2="864.4954808358" y2="101" style="stroke:#002eb8;"/><line x1="872.4954808358" y1="94" x2="869.4954808358" y2="97.5" style="stroke:#002eb8;"/><line x1="869.4954808358" y1="97.5" x2="872.4954808358" y2="101" style="stroke:#002eb8;"/><line x1="880.4954808358" y1="94" x2="877.4954808358" y2="97.5" style="stroke:#002eb8;"/><line x1="877.4954808358" y1="97.5" x2="880.4954808358" y2="101" style="stroke:#002eb8;"/><line x1="888.4954808358" y1="94" x2="885.4954808358" y2="97.5" style="stroke:#002eb8;"/><line x1="885.4954808358" y1="97.5" x2="888.4954808358" y2="101" style="stroke:#002eb8;"/><line x1="896.4954808358" y1="94" x2="893.4954808358" y2="97.5" style="stroke:#002eb8;"/><line x1="893.4954808358" y1="97.5" x2="896.4954808358" y2="101" style="stroke:#002eb8;"/><line x1="904.4954808358" y1="94" x2="901.4954808358" y2="97.5" style="stroke:#002eb8;"/><line x1="901.4954808358" y1="97.5" x2="904.4954808358" y2="101" style="stroke:#002eb8;"/><line x1="912.4954808358" y1="94" x2="909.4954808358" y2="97.5" style="stroke:#002eb8;"/><line x1="909.4954808358" y1="97.5" x2="912.4954808358" y2="101" style="stroke:#002eb8;"/><rect x="760.2297741508169" y="94" width="6.2002496715565485" height="7" style="fill:#002EB8;"/><rect x="863.5682317475373" y="94" width="1" height="7" style="fill:#002EB8;"/><rect x="864.111403666574" y="94" width="1" height="7" style="fill:#002EB8;"/><rect x="917.5820563559944" y="94" width="1" height="7" style="fill:#002EB8;"/><rect x="766.4300238223734" y="92" width="1" height="11" style="fill:#002EB8;"/><rect x="768.5304811901374" y="92" width="1" height="11" style="fill:#002EB8;"/><rect x="769.9635305084469" y="92" width="1" height="11" style="fill:#002EB8;"/><rect x="783.0169918393378" y="92" width="1" height="11" style="fill:#002EB8;"/><rect x="785.6172829411091" y="92" width="1" height="11" style="fill:#002EB8;"/><rect x="850.196957059763" y="92" width="1" height="11" style="fill:#002EB8;"/><rect x="862.2305264362928" y="92" width="1" height="11" style="fill:#002EB8;"/><rect x="863.469998528137" y="92" width="1" height="11" style="fill:#002EB8;"/><text font-family="arial" x="722.4976116752309" y="102" style="font-size:8pt;fill:#002eb8;">AAGAB</text><line x1="760.2297741508169" y1="109" x2="916.4263714218739" y2="109" style="stroke:#002eb8;stroke-width:1;"/><line x1="767.8280727863453" y1="106" x2="764.8280727863453" y2="109.5" style="stroke:#002eb8;"/><line x1="764.8280727863453" y1="109.5" x2="767.8280727863453" y2="113" style="stroke:#002eb8;"/><line x1="775.8280727863453" y1="106" x2="772.8280727863453" y2="109.5" style="stroke:#002eb8;"/><line x1="772.8280727863453" y1="109.5" x2="775.8280727863453" y2="113" style="stroke:#002eb8;"/><line x1="783.8280727863453" y1="106" x2="780.8280727863453" y2="109.5" style="stroke:#002eb8;"/><line x1="780.8280727863453" y1="109.5" x2="783.8280727863453" y2="113" style="stroke:#002eb8;"/><line x1="791.8280727863453" y1="106" x2="788.8280727863453" y2="109.5" style="stroke:#002eb8;"/><line x1="788.8280727863453" y1="109.5" x2="791.8280727863453" y2="113" style="stroke:#002eb8;"/><line x1="799.8280727863453" y1="106" x2="796.8280727863453" y2="109.5" style="stroke:#002eb8;"/><line x1="796.8280727863453" y1="109.5" x2="799.8280727863453" y2="113" style="stroke:#002eb8;"/><line x1="807.8280727863453" y1="106" x2="804.8280727863453" y2="109.5" style="stroke:#002eb8;"/><line x1="804.8280727863453" y1="109.5" x2="807.8280727863453" y2="113" style="stroke:#002eb8;"/><line x1="815.8280727863453" y1="106" x2="812.8280727863453" y2="109.5" style="stroke:#002eb8;"/><line x1="812.8280727863453" y1="109.5" x2="815.8280727863453" y2="113" style="stroke:#002eb8;"/><line x1="823.8280727863453" y1="106" x2="820.8280727863453" y2="109.5" style="stroke:#002eb8;"/><line x1="820.8280727863453" y1="109.5" x2="823.8280727863453" y2="113" style="stroke:#002eb8;"/><line x1="831.8280727863453" y1="106" x2="828.8280727863453" y2="109.5" style="stroke:#002eb8;"/><line x1="828.8280727863453" y1="109.5" x2="831.8280727863453" y2="113" style="stroke:#002eb8;"/><line x1="839.8280727863453" y1="106" x2="836.8280727863453" y2="109.5" style="stroke:#002eb8;"/><line x1="836.8280727863453" y1="109.5" x2="839.8280727863453" y2="113" style="stroke:#002eb8;"/><line x1="847.8280727863453" y1="106" x2="844.8280727863453" y2="109.5" style="stroke:#002eb8;"/><line x1="844.8280727863453" y1="109.5" x2="847.8280727863453" y2="113" style="stroke:#002eb8;"/><line x1="855.8280727863453" y1="106" x2="852.8280727863453" y2="109.5" style="stroke:#002eb8;"/><line x1="852.8280727863453" y1="109.5" x2="855.8280727863453" y2="113" style="stroke:#002eb8;"/><line x1="863.8280727863453" y1="106" x2="860.8280727863453" y2="109.5" style="stroke:#002eb8;"/><line x1="860.8280727863453" y1="109.5" x2="863.8280727863453" y2="113" style="stroke:#002eb8;"/><line x1="871.8280727863453" y1="106" x2="868.8280727863453" y2="109.5" style="stroke:#002eb8;"/><line x1="868.8280727863453" y1="109.5" x2="871.8280727863453" y2="113" style="stroke:#002eb8;"/><line x1="879.8280727863453" y1="106" x2="876.8280727863453" y2="109.5" style="stroke:#002eb8;"/><line x1="876.8280727863453" y1="109.5" x2="879.8280727863453" y2="113" style="stroke:#002eb8;"/><line x1="887.8280727863453" y1="106" x2="884.8280727863453" y2="109.5" style="stroke:#002eb8;"/><line x1="884.8280727863453" y1="109.5" x2="887.8280727863453" y2="113" style="stroke:#002eb8;"/><line x1="895.8280727863453" y1="106" x2="892.8280727863453" y2="109.5" style="stroke:#002eb8;"/><line x1="892.8280727863453" y1="109.5" x2="895.8280727863453" y2="113" style="stroke:#002eb8;"/><line x1="903.8280727863453" y1="106" x2="900.8280727863453" y2="109.5" style="stroke:#002eb8;"/><line x1="900.8280727863453" y1="109.5" x2="903.8280727863453" y2="113" style="stroke:#002eb8;"/><line x1="911.8280727863453" y1="106" x2="908.8280727863453" y2="109.5" style="stroke:#002eb8;"/><line x1="908.8280727863453" y1="109.5" x2="911.8280727863453" y2="113" style="stroke:#002eb8;"/><rect x="760.2297741508169" y="106" width="6.2002496715565485" height="7" style="fill:#002EB8;"/><rect x="863.5682317475373" y="106" width="1" height="7" style="fill:#002EB8;"/><rect x="864.111403666574" y="106" width="1" height="7" style="fill:#002EB8;"/><rect x="915.4931558375717" y="106" width="1" height="7" style="fill:#002EB8;"/><rect x="766.4300238223734" y="104" width="1" height="11" style="fill:#002EB8;"/><rect x="768.5304811901374" y="104" width="1" height="11" style="fill:#002EB8;"/><rect x="769.9635305084469" y="104" width="1" height="11" style="fill:#002EB8;"/><rect x="783.0169918393378" y="104" width="1" height="11" style="fill:#002EB8;"/><rect x="785.6172829411091" y="104" width="1" height="11" style="fill:#002EB8;"/><rect x="850.196957059763" y="104" width="1" height="11" style="fill:#002EB8;"/><rect x="862.2305264362928" y="104" width="1" height="11" style="fill:#002EB8;"/><rect x="863.469998528137" y="104" width="1" height="11" style="fill:#002EB8;"/><text font-family="arial" x="722.4976116752309" y="114" style="font-size:8pt;fill:#002eb8;">AAGAB</text><line x1="760.2297741508169" y1="121" x2="916.4263714218739" y2="121" style="stroke:#002eb8;stroke-width:1;"/><line x1="767.8280727863453" y1="118" x2="764.8280727863453" y2="121.5" style="stroke:#002eb8;"/><line x1="764.8280727863453" y1="121.5" x2="767.8280727863453" y2="125" style="stroke:#002eb8;"/><line x1="775.8280727863453" y1="118" x2="772.8280727863453" y2="121.5" style="stroke:#002eb8;"/><line x1="772.8280727863453" y1="121.5" x2="775.8280727863453" y2="125" style="stroke:#002eb8;"/><line x1="783.8280727863453" y1="118" x2="780.8280727863453" y2="121.5" style="stroke:#002eb8;"/><line x1="780.8280727863453" y1="121.5" x2="783.8280727863453" y2="125" style="stroke:#002eb8;"/><line x1="791.8280727863453" y1="118" x2="788.8280727863453" y2="121.5" style="stroke:#002eb8;"/><line x1="788.8280727863453" y1="121.5" x2="791.8280727863453" y2="125" style="stroke:#002eb8;"/><line x1="799.8280727863453" y1="118" x2="796.8280727863453" y2="121.5" style="stroke:#002eb8;"/><line x1="796.8280727863453" y1="121.5" x2="799.8280727863453" y2="125" style="stroke:#002eb8;"/><line x1="807.8280727863453" y1="118" x2="804.8280727863453" y2="121.5" style="stroke:#002eb8;"/><line x1="804.8280727863453" y1="121.5" x2="807.8280727863453" y2="125" style="stroke:#002eb8;"/><line x1="815.8280727863453" y1="118" x2="812.8280727863453" y2="121.5" style="stroke:#002eb8;"/><line x1="812.8280727863453" y1="121.5" x2="815.8280727863453" y2="125" style="stroke:#002eb8;"/><line x1="823.8280727863453" y1="118" x2="820.8280727863453" y2="121.5" style="stroke:#002eb8;"/><line x1="820.8280727863453" y1="121.5" x2="823.8280727863453" y2="125" style="stroke:#002eb8;"/><line x1="831.8280727863453" y1="118" x2="828.8280727863453" y2="121.5" style="stroke:#002eb8;"/><line x1="828.8280727863453" y1="121.5" x2="831.8280727863453" y2="125" style="stroke:#002eb8;"/><line x1="839.8280727863453" y1="118" x2="836.8280727863453" y2="121.5" style="stroke:#002eb8;"/><line x1="836.8280727863453" y1="121.5" x2="839.8280727863453" y2="125" style="stroke:#002eb8;"/><line x1="847.8280727863453" y1="118" x2="844.8280727863453" y2="121.5" style="stroke:#002eb8;"/><line x1="844.8280727863453" y1="121.5" x2="847.8280727863453" y2="125" style="stroke:#002eb8;"/><line x1="855.8280727863453" y1="118" x2="852.8280727863453" y2="121.5" style="stroke:#002eb8;"/><line x1="852.8280727863453" y1="121.5" x2="855.8280727863453" y2="125" style="stroke:#002eb8;"/><line x1="863.8280727863453" y1="118" x2="860.8280727863453" y2="121.5" style="stroke:#002eb8;"/><line x1="860.8280727863453" y1="121.5" x2="863.8280727863453" y2="125" style="stroke:#002eb8;"/><line x1="871.8280727863453" y1="118" x2="868.8280727863453" y2="121.5" style="stroke:#002eb8;"/><line x1="868.8280727863453" y1="121.5" x2="871.8280727863453" y2="125" style="stroke:#002eb8;"/><line x1="879.8280727863453" y1="118" x2="876.8280727863453" y2="121.5" style="stroke:#002eb8;"/><line x1="876.8280727863453" y1="121.5" x2="879.8280727863453" y2="125" style="stroke:#002eb8;"/><line x1="887.8280727863453" y1="118" x2="884.8280727863453" y2="121.5" style="stroke:#002eb8;"/><line x1="884.8280727863453" y1="121.5" x2="887.8280727863453" y2="125" style="stroke:#002eb8;"/><line x1="895.8280727863453" y1="118" x2="892.8280727863453" y2="121.5" style="stroke:#002eb8;"/><line x1="892.8280727863453" y1="121.5" x2="895.8280727863453" y2="125" style="stroke:#002eb8;"/><line x1="903.8280727863453" y1="118" x2="900.8280727863453" y2="121.5" style="stroke:#002eb8;"/><line x1="900.8280727863453" y1="121.5" x2="903.8280727863453" y2="125" style="stroke:#002eb8;"/><line x1="911.8280727863453" y1="118" x2="908.8280727863453" y2="121.5" style="stroke:#002eb8;"/><line x1="908.8280727863453" y1="121.5" x2="911.8280727863453" y2="125" style="stroke:#002eb8;"/><rect x="760.2297741508169" y="118" width="6.2002496715565485" height="7" style="fill:#002EB8;"/><rect x="916.1230041266674" y="118" width="1" height="7" style="fill:#002EB8;"/><rect x="766.4300238223734" y="116" width="1" height="11" style="fill:#002EB8;"/><rect x="768.5304811901374" y="116" width="1" height="11" style="fill:#002EB8;"/><rect x="769.9635305084469" y="116" width="1" height="11" style="fill:#002EB8;"/><rect x="783.0169918393378" y="116" width="1" height="11" style="fill:#002EB8;"/><rect x="785.6172829411091" y="116" width="1" height="11" style="fill:#002EB8;"/><rect x="850.196957059763" y="116" width="1" height="11" style="fill:#002EB8;"/><rect x="862.2305264362928" y="116" width="1" height="11" style="fill:#002EB8;"/><rect x="863.469998528137" y="116" width="1" height="11" style="fill:#002EB8;"/><rect x="864.111403666574" y="116" width="1" height="11" style="fill:#002EB8;"/><rect x="915.9120916261904" y="116" width="1" height="11" style="fill:#002EB8;"/><text font-family="arial" x="722.4976116752309" y="126" style="font-size:8pt;fill:#002eb8;">AAGAB</text><line x1="916.6083917989979" y1="49" x2="1060" y2="49" style="stroke:#002eb8;stroke-width:1;"/><line x1="919.933338239543" y1="46" x2="922.933338239543" y2="49.5" style="stroke:#002eb8;"/><line x1="922.933338239543" y1="49.5" x2="919.933338239543" y2="53" style="stroke:#002eb8;"/><line x1="927.933338239543" y1="46" x2="930.933338239543" y2="49.5" style="stroke:#002eb8;"/><line x1="930.933338239543" y1="49.5" x2="927.933338239543" y2="53" style="stroke:#002eb8;"/><line x1="935.933338239543" y1="46" x2="938.933338239543" y2="49.5" style="stroke:#002eb8;"/><line x1="938.933338239543" y1="49.5" x2="935.933338239543" y2="53" style="stroke:#002eb8;"/><line x1="943.933338239543" y1="46" x2="946.933338239543" y2="49.5" style="stroke:#002eb8;"/><line x1="946.933338239543" y1="49.5" x2="943.933338239543" y2="53" style="stroke:#002eb8;"/><line x1="951.933338239543" y1="46" x2="954.933338239543" y2="49.5" style="stroke:#002eb8;"/><line x1="954.933338239543" y1="49.5" x2="951.933338239543" y2="53" style="stroke:#002eb8;"/><line x1="959.933338239543" y1="46" x2="962.933338239543" y2="49.5" style="stroke:#002eb8;"/><line x1="962.933338239543" y1="49.5" x2="959.933338239543" y2="53" style="stroke:#002eb8;"/><line x1="967.933338239543" y1="46" x2="970.933338239543" y2="49.5" style="stroke:#002eb8;"/><line x1="970.933338239543" y1="49.5" x2="967.933338239543" y2="53" style="stroke:#002eb8;"/><line x1="975.933338239543" y1="46" x2="978.933338239543" y2="49.5" style="stroke:#002eb8;"/><line x1="978.933338239543" y1="49.5" x2="975.933338239543" y2="53" style="stroke:#002eb8;"/><line x1="983.933338239543" y1="46" x2="986.933338239543" y2="49.5" style="stroke:#002eb8;"/><line x1="986.933338239543" y1="49.5" x2="983.933338239543" y2="53" style="stroke:#002eb8;"/><line x1="991.933338239543" y1="46" x2="994.933338239543" y2="49.5" style="stroke:#002eb8;"/><line x1="994.933338239543" y1="49.5" x2="991.933338239543" y2="53" style="stroke:#002eb8;"/><line x1="999.933338239543" y1="46" x2="1002.933338239543" y2="49.5" style="stroke:#002eb8;"/><line x1="1002.933338239543" y1="49.5" x2="999.933338239543" y2="53" style="stroke:#002eb8;"/><line x1="1007.933338239543" y1="46" x2="1010.933338239543" y2="49.5" style="stroke:#002eb8;"/><line x1="1010.933338239543" y1="49.5" x2="1007.933338239543" y2="53" style="stroke:#002eb8;"/><line x1="1015.933338239543" y1="46" x2="1018.933338239543" y2="49.5" style="stroke:#002eb8;"/><line x1="1018.933338239543" y1="49.5" x2="1015.933338239543" y2="53" style="stroke:#002eb8;"/><line x1="1023.933338239543" y1="46" x2="1026.933338239543" y2="49.5" style="stroke:#002eb8;"/><line x1="1026.933338239543" y1="49.5" x2="1023.933338239543" y2="53" style="stroke:#002eb8;"/><line x1="1031.933338239543" y1="46" x2="1034.933338239543" y2="49.5" style="stroke:#002eb8;"/><line x1="1034.933338239543" y1="49.5" x2="1031.933338239543" y2="53" style="stroke:#002eb8;"/><line x1="1039.933338239543" y1="46" x2="1042.933338239543" y2="49.5" style="stroke:#002eb8;"/><line x1="1042.933338239543" y1="49.5" x2="1039.933338239543" y2="53" style="stroke:#002eb8;"/><line x1="1047.933338239543" y1="46" x2="1050.933338239543" y2="49.5" style="stroke:#002eb8;"/><line x1="1050.933338239543" y1="49.5" x2="1047.933338239543" y2="53" style="stroke:#002eb8;"/><line x1="1055.933338239543" y1="46" x2="1058.933338239543" y2="49.5" style="stroke:#002eb8;"/><line x1="1058.933338239543" y1="49.5" x2="1055.933338239543" y2="53" style="stroke:#002eb8;"/><rect x="916.6083917989979" y="46" width="1" height="7" style="fill:#002EB8;"/><rect x="935.3073740330678" y="46" width="1" height="7" style="fill:#002EB8;"/><text font-family="arial" x="888.9584589376698" y="54" style="font-size:8pt;fill:#002eb8;">IQCH</text><line x1="916.6083917989979" y1="61" x2="1060" y2="61" style="stroke:#002eb8;stroke-width:1;"/><line x1="919.933338239543" y1="58" x2="922.933338239543" y2="61.5" style="stroke:#002eb8;"/><line x1="922.933338239543" y1="61.5" x2="919.933338239543" y2="65" style="stroke:#002eb8;"/><line x1="927.933338239543" y1="58" x2="930.933338239543" y2="61.5" style="stroke:#002eb8;"/><line x1="930.933338239543" y1="61.5" x2="927.933338239543" y2="65" style="stroke:#002eb8;"/><line x1="935.933338239543" y1="58" x2="938.933338239543" y2="61.5" style="stroke:#002eb8;"/><line x1="938.933338239543" y1="61.5" x2="935.933338239543" y2="65" style="stroke:#002eb8;"/><line x1="943.933338239543" y1="58" x2="946.933338239543" y2="61.5" style="stroke:#002eb8;"/><line x1="946.933338239543" y1="61.5" x2="943.933338239543" y2="65" style="stroke:#002eb8;"/><line x1="951.933338239543" y1="58" x2="954.933338239543" y2="61.5" style="stroke:#002eb8;"/><line x1="954.933338239543" y1="61.5" x2="951.933338239543" y2="65" style="stroke:#002eb8;"/><line x1="959.933338239543" y1="58" x2="962.933338239543" y2="61.5" style="stroke:#002eb8;"/><line x1="962.933338239543" y1="61.5" x2="959.933338239543" y2="65" style="stroke:#002eb8;"/><line x1="967.933338239543" y1="58" x2="970.933338239543" y2="61.5" style="stroke:#002eb8;"/><line x1="970.933338239543" y1="61.5" x2="967.933338239543" y2="65" style="stroke:#002eb8;"/><line x1="975.933338239543" y1="58" x2="978.933338239543" y2="61.5" style="stroke:#002eb8;"/><line x1="978.933338239543" y1="61.5" x2="975.933338239543" y2="65" style="stroke:#002eb8;"/><line x1="983.933338239543" y1="58" x2="986.933338239543" y2="61.5" style="stroke:#002eb8;"/><line x1="986.933338239543" y1="61.5" x2="983.933338239543" y2="65" style="stroke:#002eb8;"/><line x1="991.933338239543" y1="58" x2="994.933338239543" y2="61.5" style="stroke:#002eb8;"/><line x1="994.933338239543" y1="61.5" x2="991.933338239543" y2="65" style="stroke:#002eb8;"/><line x1="999.933338239543" y1="58" x2="1002.933338239543" y2="61.5" style="stroke:#002eb8;"/><line x1="1002.933338239543" y1="61.5" x2="999.933338239543" y2="65" style="stroke:#002eb8;"/><line x1="1007.933338239543" y1="58" x2="1010.933338239543" y2="61.5" style="stroke:#002eb8;"/><line x1="1010.933338239543" y1="61.5" x2="1007.933338239543" y2="65" style="stroke:#002eb8;"/><line x1="1015.933338239543" y1="58" x2="1018.933338239543" y2="61.5" style="stroke:#002eb8;"/><line x1="1018.933338239543" y1="61.5" x2="1015.933338239543" y2="65" style="stroke:#002eb8;"/><line x1="1023.933338239543" y1="58" x2="1026.933338239543" y2="61.5" style="stroke:#002eb8;"/><line x1="1026.933338239543" y1="61.5" x2="1023.933338239543" y2="65" style="stroke:#002eb8;"/><line x1="1031.933338239543" y1="58" x2="1034.933338239543" y2="61.5" style="stroke:#002eb8;"/><line x1="1034.933338239543" y1="61.5" x2="1031.933338239543" y2="65" style="stroke:#002eb8;"/><line x1="1039.933338239543" y1="58" x2="1042.933338239543" y2="61.5" style="stroke:#002eb8;"/><line x1="1042.933338239543" y1="61.5" x2="1039.933338239543" y2="65" style="stroke:#002eb8;"/><line x1="1047.933338239543" y1="58" x2="1050.933338239543" y2="61.5" style="stroke:#002eb8;"/><line x1="1050.933338239543" y1="61.5" x2="1047.933338239543" y2="65" style="stroke:#002eb8;"/><line x1="1055.933338239543" y1="58" x2="1058.933338239543" y2="61.5" style="stroke:#002eb8;"/><line x1="1058.933338239543" y1="61.5" x2="1055.933338239543" y2="65" style="stroke:#002eb8;"/><rect x="916.6083917989979" y="58" width="1" height="7" style="fill:#002EB8;"/><rect x="935.3073740330678" y="58" width="1" height="7" style="fill:#002EB8;"/><text font-family="arial" x="888.9584589376698" y="66" style="font-size:8pt;fill:#002eb8;">IQCH</text><line x1="916.6083917989979" y1="73" x2="1060" y2="73" style="stroke:#002eb8;stroke-width:1;"/><line x1="919.933338239543" y1="70" x2="922.933338239543" y2="73.5" style="stroke:#002eb8;"/><line x1="922.933338239543" y1="73.5" x2="919.933338239543" y2="77" style="stroke:#002eb8;"/><line x1="927.933338239543" y1="70" x2="930.933338239543" y2="73.5" style="stroke:#002eb8;"/><line x1="930.933338239543" y1="73.5" x2="927.933338239543" y2="77" style="stroke:#002eb8;"/><line x1="935.933338239543" y1="70" x2="938.933338239543" y2="73.5" style="stroke:#002eb8;"/><line x1="938.933338239543" y1="73.5" x2="935.933338239543" y2="77" style="stroke:#002eb8;"/><line x1="943.933338239543" y1="70" x2="946.933338239543" y2="73.5" style="stroke:#002eb8;"/><line x1="946.933338239543" y1="73.5" x2="943.933338239543" y2="77" style="stroke:#002eb8;"/><line x1="951.933338239543" y1="70" x2="954.933338239543" y2="73.5" style="stroke:#002eb8;"/><line x1="954.933338239543" y1="73.5" x2="951.933338239543" y2="77" style="stroke:#002eb8;"/><line x1="959.933338239543" y1="70" x2="962.933338239543" y2="73.5" style="stroke:#002eb8;"/><line x1="962.933338239543" y1="73.5" x2="959.933338239543" y2="77" style="stroke:#002eb8;"/><line x1="967.933338239543" y1="70" x2="970.933338239543" y2="73.5" style="stroke:#002eb8;"/><line x1="970.933338239543" y1="73.5" x2="967.933338239543" y2="77" style="stroke:#002eb8;"/><line x1="975.933338239543" y1="70" x2="978.933338239543" y2="73.5" style="stroke:#002eb8;"/><line x1="978.933338239543" y1="73.5" x2="975.933338239543" y2="77" style="stroke:#002eb8;"/><line x1="983.933338239543" y1="70" x2="986.933338239543" y2="73.5" style="stroke:#002eb8;"/><line x1="986.933338239543" y1="73.5" x2="983.933338239543" y2="77" style="stroke:#002eb8;"/><line x1="991.933338239543" y1="70" x2="994.933338239543" y2="73.5" style="stroke:#002eb8;"/><line x1="994.933338239543" y1="73.5" x2="991.933338239543" y2="77" style="stroke:#002eb8;"/><line x1="999.933338239543" y1="70" x2="1002.933338239543" y2="73.5" style="stroke:#002eb8;"/><line x1="1002.933338239543" y1="73.5" x2="999.933338239543" y2="77" style="stroke:#002eb8;"/><line x1="1007.933338239543" y1="70" x2="1010.933338239543" y2="73.5" style="stroke:#002eb8;"/><line x1="1010.933338239543" y1="73.5" x2="1007.933338239543" y2="77" style="stroke:#002eb8;"/><line x1="1015.933338239543" y1="70" x2="1018.933338239543" y2="73.5" style="stroke:#002eb8;"/><line x1="1018.933338239543" y1="73.5" x2="1015.933338239543" y2="77" style="stroke:#002eb8;"/><line x1="1023.933338239543" y1="70" x2="1026.933338239543" y2="73.5" style="stroke:#002eb8;"/><line x1="1026.933338239543" y1="73.5" x2="1023.933338239543" y2="77" style="stroke:#002eb8;"/><line x1="1031.933338239543" y1="70" x2="1034.933338239543" y2="73.5" style="stroke:#002eb8;"/><line x1="1034.933338239543" y1="73.5" x2="1031.933338239543" y2="77" style="stroke:#002eb8;"/><line x1="1039.933338239543" y1="70" x2="1042.933338239543" y2="73.5" style="stroke:#002eb8;"/><line x1="1042.933338239543" y1="73.5" x2="1039.933338239543" y2="77" style="stroke:#002eb8;"/><line x1="1047.933338239543" y1="70" x2="1050.933338239543" y2="73.5" style="stroke:#002eb8;"/><line x1="1050.933338239543" y1="73.5" x2="1047.933338239543" y2="77" style="stroke:#002eb8;"/><line x1="1055.933338239543" y1="70" x2="1058.933338239543" y2="73.5" style="stroke:#002eb8;"/><line x1="1058.933338239543" y1="73.5" x2="1055.933338239543" y2="77" style="stroke:#002eb8;"/><rect x="916.6083917989979" y="70" width="1" height="7" style="fill:#002EB8;"/><rect x="916.8886453955222" y="68" width="1" height="11" style="fill:#002EB8;"/><rect x="935.3073740330678" y="68" width="1" height="11" style="fill:#002EB8;"/><rect x="940.6524168533751" y="68" width="1" height="11" style="fill:#002EB8;"/><rect x="987.6685691857326" y="68" width="1" height="11" style="fill:#002EB8;"/><text font-family="arial" x="888.9584589376698" y="78" style="font-size:8pt;fill:#002eb8;">IQCH</text><line x1="916.6083917989979" y1="85" x2="1060" y2="85" style="stroke:#002eb8;stroke-width:1;"/><line x1="919.5466962129512" y1="82" x2="922.5466962129512" y2="85.5" style="stroke:#002eb8;"/><line x1="922.5466962129512" y1="85.5" x2="919.5466962129512" y2="89" style="stroke:#002eb8;"/><line x1="927.5466962129512" y1="82" x2="930.5466962129512" y2="85.5" style="stroke:#002eb8;"/><line x1="930.5466962129512" y1="85.5" x2="927.5466962129512" y2="89" style="stroke:#002eb8;"/><line x1="935.5466962129512" y1="82" x2="938.5466962129512" y2="85.5" style="stroke:#002eb8;"/><line x1="938.5466962129512" y1="85.5" x2="935.5466962129512" y2="89" style="stroke:#002eb8;"/><line x1="943.5466962129512" y1="82" x2="946.5466962129512" y2="85.5" style="stroke:#002eb8;"/><line x1="946.5466962129512" y1="85.5" x2="943.5466962129512" y2="89" style="stroke:#002eb8;"/><line x1="951.5466962129512" y1="82" x2="954.5466962129512" y2="85.5" style="stroke:#002eb8;"/><line x1="954.5466962129512" y1="85.5" x2="951.5466962129512" y2="89" style="stroke:#002eb8;"/><line x1="959.5466962129512" y1="82" x2="962.5466962129512" y2="85.5" style="stroke:#002eb8;"/><line x1="962.5466962129512" y1="85.5" x2="959.5466962129512" y2="89" style="stroke:#002eb8;"/><line x1="967.5466962129512" y1="82" x2="970.5466962129512" y2="85.5" style="stroke:#002eb8;"/><line x1="970.5466962129512" y1="85.5" x2="967.5466962129512" y2="89" style="stroke:#002eb8;"/><line x1="975.5466962129512" y1="82" x2="978.5466962129512" y2="85.5" style="stroke:#002eb8;"/><line x1="978.5466962129512" y1="85.5" x2="975.5466962129512" y2="89" style="stroke:#002eb8;"/><line x1="983.5466962129512" y1="82" x2="986.5466962129512" y2="85.5" style="stroke:#002eb8;"/><line x1="986.5466962129512" y1="85.5" x2="983.5466962129512" y2="89" style="stroke:#002eb8;"/><line x1="991.5466962129512" y1="82" x2="994.5466962129512" y2="85.5" style="stroke:#002eb8;"/><line x1="994.5466962129512" y1="85.5" x2="991.5466962129512" y2="89" style="stroke:#002eb8;"/><line x1="999.5466962129512" y1="82" x2="1002.5466962129512" y2="85.5" style="stroke:#002eb8;"/><line x1="1002.5466962129512" y1="85.5" x2="999.5466962129512" y2="89" style="stroke:#002eb8;"/><line x1="1007.5466962129512" y1="82" x2="1010.5466962129512" y2="85.5" style="stroke:#002eb8;"/><line x1="1010.5466962129512" y1="85.5" x2="1007.5466962129512" y2="89" style="stroke:#002eb8;"/><line x1="1015.5466962129512" y1="82" x2="1018.5466962129512" y2="85.5" style="stroke:#002eb8;"/><line x1="1018.5466962129512" y1="85.5" x2="1015.5466962129512" y2="89" style="stroke:#002eb8;"/><line x1="1023.5466962129512" y1="82" x2="1026.5466962129512" y2="85.5" style="stroke:#002eb8;"/><line x1="1026.5466962129512" y1="85.5" x2="1023.5466962129512" y2="89" style="stroke:#002eb8;"/><line x1="1031.5466962129512" y1="82" x2="1034.5466962129512" y2="85.5" style="stroke:#002eb8;"/><line x1="1034.5466962129512" y1="85.5" x2="1031.5466962129512" y2="89" style="stroke:#002eb8;"/><line x1="1039.5466962129512" y1="82" x2="1042.5466962129512" y2="85.5" style="stroke:#002eb8;"/><line x1="1042.5466962129512" y1="85.5" x2="1039.5466962129512" y2="89" style="stroke:#002eb8;"/><line x1="1047.5466962129512" y1="82" x2="1050.5466962129512" y2="85.5" style="stroke:#002eb8;"/><line x1="1050.5466962129512" y1="85.5" x2="1047.5466962129512" y2="89" style="stroke:#002eb8;"/><line x1="1055.5466962129512" y1="82" x2="1058.5466962129512" y2="85.5" style="stroke:#002eb8;"/><line x1="1058.5466962129512" y1="85.5" x2="1055.5466962129512" y2="89" style="stroke:#002eb8;"/><rect x="916.6083917989979" y="82" width="1" height="7" style="fill:#002EB8;"/><rect x="935.3073740330678" y="82" width="1" height="7" style="fill:#002EB8;"/><text font-family="arial" x="888.9584589376698" y="90" style="font-size:8pt;fill:#002eb8;">IQCH</text><line x1="916.6083917989979" y1="133" x2="1060" y2="133" style="stroke:#002eb8;stroke-width:1;"/><line x1="918.8404255319147" y1="130" x2="921.8404255319147" y2="133.5" style="stroke:#002eb8;"/><line x1="921.8404255319147" y1="133.5" x2="918.8404255319147" y2="137" style="stroke:#002eb8;"/><line x1="926.8404255319147" y1="130" x2="929.8404255319147" y2="133.5" style="stroke:#002eb8;"/><line x1="929.8404255319147" y1="133.5" x2="926.8404255319147" y2="137" style="stroke:#002eb8;"/><line x1="934.8404255319147" y1="130" x2="937.8404255319147" y2="133.5" style="stroke:#002eb8;"/><line x1="937.8404255319147" y1="133.5" x2="934.8404255319147" y2="137" style="stroke:#002eb8;"/><line x1="942.8404255319147" y1="130" x2="945.8404255319147" y2="133.5" style="stroke:#002eb8;"/><line x1="945.8404255319147" y1="133.5" x2="942.8404255319147" y2="137" style="stroke:#002eb8;"/><line x1="950.8404255319147" y1="130" x2="953.8404255319147" y2="133.5" style="stroke:#002eb8;"/><line x1="953.8404255319147" y1="133.5" x2="950.8404255319147" y2="137" style="stroke:#002eb8;"/><line x1="958.8404255319147" y1="130" x2="961.8404255319147" y2="133.5" style="stroke:#002eb8;"/><line x1="961.8404255319147" y1="133.5" x2="958.8404255319147" y2="137" style="stroke:#002eb8;"/><line x1="966.8404255319147" y1="130" x2="969.8404255319147" y2="133.5" style="stroke:#002eb8;"/><line x1="969.8404255319147" y1="133.5" x2="966.8404255319147" y2="137" style="stroke:#002eb8;"/><line x1="974.8404255319147" y1="130" x2="977.8404255319147" y2="133.5" style="stroke:#002eb8;"/><line x1="977.8404255319147" y1="133.5" x2="974.8404255319147" y2="137" style="stroke:#002eb8;"/><line x1="982.8404255319147" y1="130" x2="985.8404255319147" y2="133.5" style="stroke:#002eb8;"/><line x1="985.8404255319147" y1="133.5" x2="982.8404255319147" y2="137" style="stroke:#002eb8;"/><line x1="990.8404255319147" y1="130" x2="993.8404255319147" y2="133.5" style="stroke:#002eb8;"/><line x1="993.8404255319147" y1="133.5" x2="990.8404255319147" y2="137" style="stroke:#002eb8;"/><line x1="998.8404255319147" y1="130" x2="1001.8404255319147" y2="133.5" style="stroke:#002eb8;"/><line x1="1001.8404255319147" y1="133.5" x2="998.8404255319147" y2="137" style="stroke:#002eb8;"/><line x1="1006.8404255319147" y1="130" x2="1009.8404255319147" y2="133.5" style="stroke:#002eb8;"/><line x1="1009.8404255319147" y1="133.5" x2="1006.8404255319147" y2="137" style="stroke:#002eb8;"/><line x1="1014.8404255319147" y1="130" x2="1017.8404255319147" y2="133.5" style="stroke:#002eb8;"/><line x1="1017.8404255319147" y1="133.5" x2="1014.8404255319147" y2="137" style="stroke:#002eb8;"/><line x1="1022.8404255319147" y1="130" x2="1025.8404255319147" y2="133.5" style="stroke:#002eb8;"/><line x1="1025.8404255319147" y1="133.5" x2="1022.8404255319147" y2="137" style="stroke:#002eb8;"/><line x1="1030.8404255319147" y1="130" x2="1033.8404255319147" y2="133.5" style="stroke:#002eb8;"/><line x1="1033.8404255319147" y1="133.5" x2="1030.8404255319147" y2="137" style="stroke:#002eb8;"/><line x1="1038.8404255319147" y1="130" x2="1041.8404255319147" y2="133.5" style="stroke:#002eb8;"/><line x1="1041.8404255319147" y1="133.5" x2="1038.8404255319147" y2="137" style="stroke:#002eb8;"/><line x1="1046.8404255319147" y1="130" x2="1049.8404255319147" y2="133.5" style="stroke:#002eb8;"/><line x1="1049.8404255319147" y1="133.5" x2="1046.8404255319147" y2="137" style="stroke:#002eb8;"/><line x1="1054.8404255319147" y1="130" x2="1057.8404255319147" y2="133.5" style="stroke:#002eb8;"/><line x1="1057.8404255319147" y1="133.5" x2="1054.8404255319147" y2="137" style="stroke:#002eb8;"/><rect x="916.6083917989979" y="130" width="1" height="7" style="fill:#002EB8;"/><rect x="916.8886453955222" y="128" width="1" height="11" style="fill:#002EB8;"/><rect x="935.3073740330678" y="128" width="1" height="11" style="fill:#002EB8;"/><rect x="940.6524168533751" y="128" width="1" height="11" style="fill:#002EB8;"/><rect x="987.6685691857326" y="128" width="1" height="11" style="fill:#002EB8;"/><rect x="1059.7370816774874" y="128" width="0.2629183225126326" height="11" style="fill:#002EB8;"/><text font-family="arial" x="888.9584589376698" y="138" style="font-size:8pt;fill:#002eb8;">IQCH</text><line x1="0" y1="139" x2="1060" y2="139" style="stroke:#ccc;stroke-width:0.5;"/><rect x="0" y="139" width="1060" height="24" style="fill:white;"/><rect x="249.37947350919353" y="140" width="1.011224317355527" height="11" style="fill:#336666;"/><rect x="249.37947350919353" y="152" width="1.011224317355527" height="11" style="fill:#336666;"/><rect x="266.70607988399524" y="140" width="2.637850862130108" height="11" style="fill:#336666;"/><rect x="266.70607988399524" y="152" width="2.637850862130108" height="11" style="fill:#336666;"/><rect x="307.6057697025201" y="140" width="2.149573977464115" height="11" style="fill:#336666;"/><rect x="307.6057697025201" y="152" width="2.149573977464115" height="11" style="fill:#336666;"/><rect x="369.5504821713794" y="140" width="1.4995012020212926" height="11" style="fill:#336666;"/><rect x="369.5504821713794" y="152" width="1.4995012020212926" height="11" style="fill:#336666;"/><rect x="484.6798153084642" y="140" width="1" height="11" style="fill:#336666;"/><rect x="484.6798153084642" y="152" width="1" height="11" style="fill:#336666;"/><rect x="605.0126198614269" y="140" width="1.2279152425028315" height="11" style="fill:#336666;"/><rect x="605.0126198614269" y="152" width="1.2279152425028315" height="11" style="fill:#336666;"/><rect x="621.9462933586276" y="140" width="1.4359385306445347" height="11" style="fill:#336666;"/><rect x="658.9368788874897" y="140" width="2.952775006677939" height="11" style="fill:#336666;"/><rect x="914.3519169651277" y="140" width="3.461276377690865" height="11" style="fill:#336666;"/><line x1="0" y1="163" x2="1060" y2="163" style="stroke:#ccc;stroke-width:0.5;"/><rect x="0" y="163" width="1060" height="215" style="fill:white;"/><path d="M27.21060177386721 163 A 627.7311535045916 627.7311535045916 1 0 0 915.6636193653544 163" style="fill: none; stroke:rgb(184,0,138);stroke-opacity:0.36363636363636365; stroke-width:1;"/><path d="M27.21060177386721 163 A 242.63320134965366 242.63320134965366 1 0 0 371.05287258573594 163" style="fill: none; stroke:rgb(184,0,138);stroke-opacity:0.6363636363636364; stroke-width:1;"/><path d="M27.21060177386721 163 A 414.2007560399927 414.2007560399927 1 0 0 613.6860352920012 163" style="fill: none; stroke:rgb(184,0,138);stroke-opacity:0.18181818181818182; stroke-width:1;"/><path d="M27.21060177386721 163 A 445.97524940260536 445.97524940260536 1 0 0 658.6219547429419 163" style="fill: none; stroke:rgb(184,0,138);stroke-opacity:0.45454545454545453; stroke-width:1;"/><path d="M27.21060177386721 163 A 477.7844734530057 477.7844734530057 1 0 0 703.6069908035824 163" style="fill: none; stroke:rgb(184,0,138);stroke-opacity:0.5454545454545454; stroke-width:1;"/><path d="M27.21060177386721 163 A 599.0456483734629 599.0456483734629 1 0 0 875.0961889653893 163" style="fill: none; stroke:rgb(184,0,138);stroke-opacity:0.18181818181818182; stroke-width:1;"/><path d="M27.21060177386721 163 A 403.8836987853669 403.8836987853669 1 0 0 599.0955129987296 163" style="fill: none; stroke:rgb(184,0,138);stroke-opacity:0.18181818181818182; stroke-width:1;"/><path d="M27.21060177386721 163 A 728.7341225365599 728.7341225365599 1 0 0 1058.5033880103138 163" style="fill: none; stroke:rgb(184,0,138);stroke-opacity:1; stroke-width:1;"/><path d="M27.21060177386721 163 A 728.7341225365599 728.7341225365599 1 0 0 1058.5033880103138 163" style="fill: none; stroke:rgb(184,0,138);stroke-opacity:1; stroke-width:1;"/><path d="M27.21060177386721 163 A 728.7341225365599 728.7341225365599 1 0 0 1058.5033880103138 163" style="fill: none; stroke:rgb(184,0,138);stroke-opacity:1; stroke-width:1;"/><path d="M27.21060177386721 163 A 323.5883916014949 323.5883916014949 1 0 0 485.540800584384 163" style="fill: none; stroke:rgb(184,0,138);stroke-opacity:0.18181818181818182; stroke-width:1;"/><path d="M32.04425401082631 163 A 239.21529307500236 239.21529307500236 1 0 0 371.05287258573594 163" style="fill: none; stroke:rgb(184,0,138);stroke-opacity:0.18181818181818182; stroke-width:1;"/><path d="M32.04425401082631 163 A 239.21529307500236 239.21529307500236 1 0 0 371.05287258573594 163" style="fill: none; stroke:rgb(184,0,138);stroke-opacity:0.18181818181818182; stroke-width:1;"/><path d="M268.5205052305646 163 A 6.448180539204295 6.448180539204295 1 0 0 278.3467163829241 163" style="fill: none; stroke:rgb(184,0,138);stroke-opacity:0.18181818181818182; stroke-width:1;"/><path d="M268.5205052305646 163 A 6.448180539204295 6.448180539204295 1 0 0 278.3467163829241 163" style="fill: none; stroke:rgb(184,0,138);stroke-opacity:0.18181818181818182; stroke-width:1;"/><path d="M268.5205052305646 163 A 17.939952233713143 17.939952233713143 1 0 0 294.59853576899377 163" style="fill: none; stroke:rgb(184,0,138);stroke-opacity:0.18181818181818182; stroke-width:1;"/><path d="M268.5205052305646 163 A 17.939952233713143 17.939952233713143 1 0 0 294.59853576899377 163" style="fill: none; stroke:rgb(184,0,138);stroke-opacity:0.18181818181818182; stroke-width:1;"/><path d="M268.5205052305646 163 A 27.99550783911264 27.99550783911264 1 0 0 308.81923888334654 163" style="fill: none; stroke:rgb(184,0,138);stroke-opacity:0.2727272727272727; stroke-width:1;"/><path d="M268.5205052305646 163 A 27.99550783911264 27.99550783911264 1 0 0 308.81923888334654 163" style="fill: none; stroke:rgb(184,0,138);stroke-opacity:0.2727272727272727; stroke-width:1;"/><path d="M268.5205052305646 163 A 72.00133224795185 72.00133224795185 1 0 0 371.05287258573594 163" style="fill: none; stroke:rgb(184,0,138);stroke-opacity:0.6363636363636364; stroke-width:1;"/><path d="M268.5205052305646 163 A 72.00133224795185 72.00133224795185 1 0 0 371.05287258573594 163" style="fill: none; stroke:rgb(184,0,138);stroke-opacity:0.6363636363636364; stroke-width:1;"/><path d="M278.34382717058884 163 A 21.04937028154291 21.04937028154291 1 0 0 308.81923888334654 163" style="fill: none; stroke:rgb(184,0,138);stroke-opacity:0.18181818181818182; stroke-width:1;"/><path d="M278.34382717058884 163 A 21.04937028154291 21.04937028154291 1 0 0 308.81923888334654 163" style="fill: none; stroke:rgb(184,0,138);stroke-opacity:0.18181818181818182; stroke-width:1;"/><path d="M278.34382717058884 163 A 65.05519469038211 65.05519469038211 1 0 0 371.05287258573594 163" style="fill: none; stroke:rgb(184,0,138);stroke-opacity:0.36363636363636365; stroke-width:1;"/><path d="M278.34382717058884 163 A 65.05519469038211 65.05519469038211 1 0 0 371.05287258573594 163" style="fill: none; stroke:rgb(184,0,138);stroke-opacity:0.36363636363636365; stroke-width:1;"/><path d="M294.5956465566585 163 A 53.56342299587327 53.56342299587327 1 0 0 371.05287258573594 163" style="fill: none; stroke:rgb(184,0,138);stroke-opacity:0.2727272727272727; stroke-width:1;"/><path d="M294.5956465566585 163 A 53.56342299587327 53.56342299587327 1 0 0 371.05287258573594 163" style="fill: none; stroke:rgb(184,0,138);stroke-opacity:0.2727272727272727; stroke-width:1;"/><path d="M268.5205052305646 163 A 27.99550783911264 27.99550783911264 1 0 0 308.81923888334654 163" style="fill: none; stroke:rgb(184,0,138);stroke-opacity:0.2727272727272727; stroke-width:1;"/><path d="M268.5205052305646 163 A 27.99550783911264 27.99550783911264 1 0 0 308.81923888334654 163" style="fill: none; stroke:rgb(184,0,138);stroke-opacity:0.2727272727272727; stroke-width:1;"/><path d="M308.81634967101127 163 A 215.07542208081284 215.07542208081284 1 0 0 613.6860352920012 163" style="fill: none; stroke:rgb(184,0,138);stroke-opacity:0.18181818181818182; stroke-width:1;"/><path d="M371.04998337340066 163 A 52.66042511338916 52.66042511338916 1 0 0 446.2301775502749 163" style="fill: none; stroke:rgb(184,0,138);stroke-opacity:0.18181818181818182; stroke-width:1;"/><path d="M278.34382717058884 163 A 65.05519469038211 65.05519469038211 1 0 0 371.05287258573594 163" style="fill: none; stroke:rgb(184,0,138);stroke-opacity:0.36363636363636365; stroke-width:1;"/><path d="M278.34382717058884 163 A 65.05519469038211 65.05519469038211 1 0 0 371.05287258573594 163" style="fill: none; stroke:rgb(184,0,138);stroke-opacity:0.36363636363636365; stroke-width:1;"/><path d="M268.5205052305646 163 A 72.00133224795185 72.00133224795185 1 0 0 371.05287258573594 163" style="fill: none; stroke:rgb(184,0,138);stroke-opacity:0.6363636363636364; stroke-width:1;"/><path d="M268.5205052305646 163 A 72.00133224795185 72.00133224795185 1 0 0 371.05287258573594 163" style="fill: none; stroke:rgb(184,0,138);stroke-opacity:0.6363636363636364; stroke-width:1;"/><path d="M32.04425401082631 163 A 239.21529307500236 239.21529307500236 1 0 0 371.05287258573594 163" style="fill: none; stroke:rgb(184,0,138);stroke-opacity:0.18181818181818182; stroke-width:1;"/><path d="M32.04425401082631 163 A 239.21529307500236 239.21529307500236 1 0 0 371.05287258573594 163" style="fill: none; stroke:rgb(184,0,138);stroke-opacity:0.18181818181818182; stroke-width:1;"/><path d="M27.21060177386721 163 A 242.63320134965366 242.63320134965366 1 0 0 371.05287258573594 163" style="fill: none; stroke:rgb(184,0,138);stroke-opacity:0.6363636363636364; stroke-width:1;"/><path d="M371.04998337340066 163 A 485.6029641685408 485.6029641685408 1 0 0 1058.5033880103138 163" style="fill: none; stroke:rgb(184,0,138);stroke-opacity:0.18181818181818182; stroke-width:1;"/><path d="M371.04998337340066 163 A 234.6533150849866 234.6533150849866 1 0 0 703.6069908035824 163" style="fill: none; stroke:rgb(184,0,138);stroke-opacity:0.2727272727272727; stroke-width:1;"/><path d="M371.04998337340066 163 A 202.84409103458626 202.84409103458626 1 0 0 658.6219547429419 163" style="fill: none; stroke:rgb(184,0,138);stroke-opacity:0.45454545454545453; stroke-width:1;"/><path d="M371.04998337340066 163 A 171.06959767197364 171.06959767197364 1 0 0 613.6860352920012 163" style="fill: none; stroke:rgb(184,0,138);stroke-opacity:0.2727272727272727; stroke-width:1;"/><path d="M371.04998337340066 163 A 165.04484483159905 165.04484483159905 1 0 0 605.1657481151976 163" style="fill: none; stroke:rgb(184,0,138);stroke-opacity:0.2727272727272727; stroke-width:1;"/><path d="M371.04998337340066 163 A 165.04484483159905 165.04484483159905 1 0 0 605.1657481151976 163" style="fill: none; stroke:rgb(184,0,138);stroke-opacity:0.2727272727272727; stroke-width:1;"/><path d="M371.04998337340066 163 A 80.45723323347579 80.45723323347579 1 0 0 485.540800584384 163" style="fill: none; stroke:rgb(184,0,138);stroke-opacity:0.18181818181818182; stroke-width:1;"/><path d="M371.04998337340066 163 A 80.45723323347579 80.45723323347579 1 0 0 485.540800584384 163" style="fill: none; stroke:rgb(184,0,138);stroke-opacity:0.18181818181818182; stroke-width:1;"/><path d="M371.04998337340066 163 A 52.66042511338916 52.66042511338916 1 0 0 446.2301775502749 163" style="fill: none; stroke:rgb(184,0,138);stroke-opacity:0.18181818181818182; stroke-width:1;"/><path d="M27.21060177386721 163 A 323.5883916014949 323.5883916014949 1 0 0 485.540800584384 163" style="fill: none; stroke:rgb(184,0,138);stroke-opacity:0.18181818181818182; stroke-width:1;"/><path d="M599.0926237863944 163 A 9.81910023626036 9.81910023626036 1 0 0 613.6860352920012 163" style="fill: none; stroke:rgb(184,0,138);stroke-opacity:0.18181818181818182; stroke-width:1;"/><path d="M371.04998337340066 163 A 171.06959767197364 171.06959767197364 1 0 0 613.6860352920012 163" style="fill: none; stroke:rgb(184,0,138);stroke-opacity:0.2727272727272727; stroke-width:1;"/><path d="M308.81634967101127 163 A 215.07542208081284 215.07542208081284 1 0 0 613.6860352920012 163" style="fill: none; stroke:rgb(184,0,138);stroke-opacity:0.18181818181818182; stroke-width:1;"/><path d="M27.21060177386721 163 A 414.2007560399927 414.2007560399927 1 0 0 613.6860352920012 163" style="fill: none; stroke:rgb(184,0,138);stroke-opacity:0.18181818181818182; stroke-width:1;"/><path d="M613.6831460796659 163 A 31.27653634424719 31.27653634424719 1 0 0 658.6219547429419 163" style="fill: none; stroke:rgb(184,0,138);stroke-opacity:0.45454545454545453; stroke-width:1;"/><path d="M27.21060177386721 163 A 445.97524940260536 445.97524940260536 1 0 0 658.6219547429419 163" style="fill: none; stroke:rgb(184,0,138);stroke-opacity:0.45454545454545453; stroke-width:1;"/><path d="M371.04998337340066 163 A 202.84409103458626 202.84409103458626 1 0 0 658.6219547429419 163" style="fill: none; stroke:rgb(184,0,138);stroke-opacity:0.45454545454545453; stroke-width:1;"/><path d="M27.21060177386721 163 A 477.7844734530057 477.7844734530057 1 0 0 703.6069908035824 163" style="fill: none; stroke:rgb(184,0,138);stroke-opacity:0.5454545454545454; stroke-width:1;"/><path d="M875.093299753054 163 A 129.19051714473153 129.19051714473153 1 0 0 1058.5033880103138 163" style="fill: none; stroke:rgb(184,0,138);stroke-opacity:0.36363636363636365; stroke-width:1;"/><path d="M371.04998337340066 163 A 485.6029641685408 485.6029641685408 1 0 0 1058.5033880103138 163" style="fill: none; stroke:rgb(184,0,138);stroke-opacity:0.18181818181818182; stroke-width:1;"/><path d="M27.21060177386721 163 A 728.7341225365599 728.7341225365599 1 0 0 1058.5033880103138 163" style="fill: none; stroke:rgb(184,0,138);stroke-opacity:1; stroke-width:1;"/><path d="M27.21060177386721 163 A 728.7341225365599 728.7341225365599 1 0 0 1058.5033880103138 163" style="fill: none; stroke:rgb(184,0,138);stroke-opacity:1; stroke-width:1;"/><path d="M27.21060177386721 163 A 728.7341225365599 728.7341225365599 1 0 0 1058.5033880103138 163" style="fill: none; stroke:rgb(184,0,138);stroke-opacity:1; stroke-width:1;"/><rect x="0" y="20" width="202.5771228896483" height="14" style="fill:rgb(180,180,180);"/><text font-family="arial" x="41.5227484951904" y="30" style="font-size:8pt;fill:#000000;">q22.32</text><rect x="202.5771228896483" y="20" width="577.8424670602537" height="14" style="fill:rgb(255,255,255);"/><text font-family="arial" x="474.90459879038053" y="30" style="font-size:8pt;fill:#000000;">q22.33</text><rect x="780.419589949902" y="20" width="279.58041005009795" height="14" style="fill:rgb(180,180,180);"/><line x1="0" y1="20.5" x2="1060" y2="20.5" style="stroke:#000000;"/><line x1="0" y1="33.5" x2="1060" y2="33.5" style="stroke:#000000;"/><text font-family="arial" x="515.7771530151367" y="43" style="font-size:8pt;fill:#000000;">chr15</text><rect x="1060" y="0" width="0" height="20" style="fill:white;"/><rect x="1060" y="20" width="0" height="492" style="fill:white;"/></svg>