<svg xmlns="http://www.w3.org/2000/svg" version="1.1" width="1060" height="396"><line x1="0" y1="16.5" x2="1060" y2="16.5" style="stroke:#000000;"/><text font-family="arial" x="41.699083379530066" y="10" style="font-size:8pt;fill:#000000;">110100000</text><line x1="66.35728650453007" y1="12" x2="66.35728650453007" y2="17" style="stroke:#000000;"/><text font-family="arial" x="109.84893074958882" y="10" style="font-size:8pt;fill:#000000;">110200000</text><line x1="134.50713387458882" y1="12" x2="134.50713387458882" y2="17" style="stroke:#000000;"/><text font-family="arial" x="177.9987781196478" y="10" style="font-size:8pt;fill:#000000;">110300000</text><line x1="202.6569812446478" y1="12" x2="202.6569812446478" y2="17" style="stroke:#000000;"/><text font-family="arial" x="246.14862548970655" y="10" style="font-size:8pt;fill:#000000;">110400000</text><line x1="270.80682861470655" y1="12" x2="270.80682861470655" y2="17" style="stroke:#000000;"/><text font-family="arial" x="314.2984728597653" y="10" style="font-size:8pt;fill:#000000;">110500000</text><line x1="338.9566759847653" y1="12" x2="338.9566759847653" y2="17" style="stroke:#000000;"/><text font-family="arial" x="382.4483202298243" y="10" style="font-size:8pt;fill:#000000;">110600000</text><line x1="407.1065233548243" y1="12" x2="407.1065233548243" y2="17" style="stroke:#000000;"/><text font-family="arial" x="450.598167599883" y="10" style="font-size:8pt;fill:#000000;">110700000</text><line x1="475.256370724883" y1="12" x2="475.256370724883" y2="17" style="stroke:#000000;"/><text font-family="arial" x="518.7480149699418" y="10" style="font-size:8pt;fill:#000000;">110800000</text><line x1="543.4062180949418" y1="12" x2="543.4062180949418" y2="17" style="stroke:#000000;"/><text font-family="arial" x="586.8978623400005" y="10" style="font-size:8pt;fill:#000000;">110900000</text><line x1="611.5560654650005" y1="12" x2="611.5560654650005" y2="17" style="stroke:#000000;"/><text font-family="arial" x="655.4163620538095" y="10" style="font-size:8pt;fill:#000000;">111000000</text><line x1="679.7059128350595" y1="12" x2="679.7059128350595" y2="17" style="stroke:#000000;"/><text font-family="arial" x="723.9348617676183" y="10" style="font-size:8pt;fill:#000000;">111100000</text><line x1="747.8557602051183" y1="12" x2="747.8557602051183" y2="17" style="stroke:#000000;"/><text font-family="arial" x="791.716056793927" y="10" style="font-size:8pt;fill:#000000;">111200000</text><line x1="816.005607575177" y1="12" x2="816.005607575177" y2="17" style="stroke:#000000;"/><text font-family="arial" x="859.865904163986" y="10" style="font-size:8pt;fill:#000000;">111300000</text><line x1="884.155454945236" y1="12" x2="884.155454945236" y2="17" style="stroke:#000000;"/><text font-family="arial" x="928.0157515340447" y="10" style="font-size:8pt;fill:#000000;">111400000</text><line x1="952.3053023152947" y1="12" x2="952.3053023152947" y2="17" style="stroke:#000000;"/><text font-family="arial" x="996.1655989041037" y="10" style="font-size:8pt;fill:#000000;">111500000</text><line x1="1020.4551496853537" y1="12" x2="1020.4551496853537" y2="17" style="stroke:#000000;"/><line x1="0" y1="43" x2="1060" y2="43" style="stroke:#ccc;stroke-width:0.5;"/><rect x="0" y="43" width="1060" height="36" style="fill:white;"/><line x1="28.72584216495352" y1="49" x2="62.091325938860564" y2="49" style="stroke:#002eb8;stroke-width:1;"/><line x1="31.908584051906928" y1="46" x2="34.90858405190693" y2="49.5" style="stroke:#002eb8;"/><line x1="34.90858405190693" y1="49.5" x2="31.908584051906928" y2="53" style="stroke:#002eb8;"/><line x1="39.90858405190693" y1="46" x2="42.90858405190693" y2="49.5" style="stroke:#002eb8;"/><line x1="42.90858405190693" y1="49.5" x2="39.90858405190693" y2="53" style="stroke:#002eb8;"/><line x1="47.90858405190693" y1="46" x2="50.90858405190693" y2="49.5" style="stroke:#002eb8;"/><line x1="50.90858405190693" y1="49.5" x2="47.90858405190693" y2="53" style="stroke:#002eb8;"/><line x1="55.90858405190693" y1="46" x2="58.90858405190693" y2="49.5" style="stroke:#002eb8;"/><line x1="58.90858405190693" y1="49.5" x2="55.90858405190693" y2="53" style="stroke:#002eb8;"/><rect x="28.72584216495352" y="46" width="1" height="7" style="fill:#002EB8;"/><rect x="60.36168281260848" y="46" width="1.7296431262520855" height="7" style="fill:#002EB8;"/><rect x="28.99435256359152" y="44" width="1" height="11" style="fill:#002EB8;"/><rect x="40.24657386286208" y="44" width="1" height="11" style="fill:#002EB8;"/><rect x="41.53733197205088" y="44" width="1" height="11" style="fill:#002EB8;"/><rect x="44.497761341806154" y="44" width="1" height="11" style="fill:#002EB8;"/><rect x="48.111747747840354" y="44" width="1" height="11" style="fill:#002EB8;"/><rect x="52.929941956903576" y="44" width="1" height="11" style="fill:#002EB8;"/><rect x="55.13186352543016" y="44" width="1" height="11" style="fill:#002EB8;"/><rect x="56.43148111477717" y="44" width="1" height="11" style="fill:#002EB8;"/><rect x="57.074815673950525" y="44" width="1" height="11" style="fill:#002EB8;"/><rect x="60.28399198660668" y="44" width="1" height="11" style="fill:#002EB8;"/><text font-family="arial" x="63.091325938860564" y="54" style="font-size:8pt;fill:#002eb8;">RAD23B</text><line x1="29.282626417966867" y1="61" x2="62.091325938860564" y2="61" style="stroke:#002eb8;stroke-width:1;"/><line x1="32.186976178413715" y1="58" x2="35.186976178413715" y2="61.5" style="stroke:#002eb8;"/><line x1="35.186976178413715" y1="61.5" x2="32.186976178413715" y2="65" style="stroke:#002eb8;"/><line x1="40.186976178413715" y1="58" x2="43.186976178413715" y2="61.5" style="stroke:#002eb8;"/><line x1="43.186976178413715" y1="61.5" x2="40.186976178413715" y2="65" style="stroke:#002eb8;"/><line x1="48.186976178413715" y1="58" x2="51.186976178413715" y2="61.5" style="stroke:#002eb8;"/><line x1="51.186976178413715" y1="61.5" x2="48.186976178413715" y2="65" style="stroke:#002eb8;"/><line x1="56.186976178413715" y1="58" x2="59.186976178413715" y2="61.5" style="stroke:#002eb8;"/><line x1="59.186976178413715" y1="61.5" x2="56.186976178413715" y2="65" style="stroke:#002eb8;"/><rect x="29.282626417966867" y="58" width="1" height="7" style="fill:#002EB8;"/><rect x="40.24657386286208" y="58" width="1" height="7" style="fill:#002EB8;"/><rect x="41.53733197205088" y="58" width="1" height="7" style="fill:#002EB8;"/><rect x="60.36168281260848" y="58" width="1.7296431262520855" height="7" style="fill:#002EB8;"/><rect x="41.58367386826262" y="56" width="1" height="11" style="fill:#002EB8;"/><rect x="44.497761341806154" y="56" width="1" height="11" style="fill:#002EB8;"/><rect x="48.111747747840354" y="56" width="1" height="11" style="fill:#002EB8;"/><rect x="52.929941956903576" y="56" width="1" height="11" style="fill:#002EB8;"/><rect x="55.13186352543016" y="56" width="1" height="11" style="fill:#002EB8;"/><rect x="56.43148111477717" y="56" width="1" height="11" style="fill:#002EB8;"/><rect x="57.074815673950525" y="56" width="1" height="11" style="fill:#002EB8;"/><rect x="60.28399198660668" y="56" width="1" height="11" style="fill:#002EB8;"/><text font-family="arial" x="63.091325938860564" y="66" style="font-size:8pt;fill:#002eb8;">RAD23B</text><line x1="29.770579325136623" y1="73" x2="62.091325938860564" y2="73" style="stroke:#002eb8;stroke-width:1;"/><line x1="32.43095263199848" y1="70" x2="35.43095263199848" y2="73.5" style="stroke:#002eb8;"/><line x1="35.43095263199848" y1="73.5" x2="32.43095263199848" y2="77" style="stroke:#002eb8;"/><line x1="40.43095263199848" y1="70" x2="43.43095263199848" y2="73.5" style="stroke:#002eb8;"/><line x1="43.43095263199848" y1="73.5" x2="40.43095263199848" y2="77" style="stroke:#002eb8;"/><line x1="48.43095263199848" y1="70" x2="51.43095263199848" y2="73.5" style="stroke:#002eb8;"/><line x1="51.43095263199848" y1="73.5" x2="48.43095263199848" y2="77" style="stroke:#002eb8;"/><line x1="56.43095263199848" y1="70" x2="59.43095263199848" y2="73.5" style="stroke:#002eb8;"/><line x1="59.43095263199848" y1="73.5" x2="56.43095263199848" y2="77" style="stroke:#002eb8;"/><rect x="29.770579325136623" y="70" width="1" height="7" style="fill:#002EB8;"/><rect x="60.36168281260848" y="70" width="1.7296431262520855" height="7" style="fill:#002EB8;"/><rect x="29.867352108401974" y="68" width="1" height="11" style="fill:#002EB8;"/><rect x="40.24657386286208" y="68" width="1" height="11" style="fill:#002EB8;"/><rect x="41.53733197205088" y="68" width="1" height="11" style="fill:#002EB8;"/><rect x="44.497761341806154" y="68" width="1" height="11" style="fill:#002EB8;"/><rect x="48.111747747840354" y="68" width="1" height="11" style="fill:#002EB8;"/><rect x="52.929941956903576" y="68" width="1" height="11" style="fill:#002EB8;"/><rect x="55.13186352543016" y="68" width="1" height="11" style="fill:#002EB8;"/><rect x="56.43148111477717" y="68" width="1" height="11" style="fill:#002EB8;"/><rect x="57.074815673950525" y="68" width="1" height="11" style="fill:#002EB8;"/><rect x="60.28399198660668" y="68" width="1" height="11" style="fill:#002EB8;"/><text font-family="arial" x="63.091325938860564" y="78" style="font-size:8pt;fill:#002eb8;">RAD23B</text><line x1="166.1268384385712" y1="49" x2="169.47640343680973" y2="49" style="stroke:#002eb8;stroke-width:1;"/><rect x="166.1268384385712" y="46" width="1" height="7" style="fill:#002EB8;"/><rect x="169.07159334343146" y="46" width="1" height="7" style="fill:#002EB8;"/><rect x="166.73950556642808" y="44" width="1" height="11" style="fill:#002EB8;"/><rect x="167.6097791173438" y="44" width="1" height="11" style="fill:#002EB8;"/><rect x="167.7917392098218" y="44" width="1" height="11" style="fill:#002EB8;"/><rect x="168.9059892143223" y="44" width="1" height="11" style="fill:#002EB8;"/><rect x="169.06818585106316" y="44" width="1" height="11" style="fill:#002EB8;"/><text font-family="arial" x="139.64803289657902" y="54" style="font-size:8pt;fill:#002eb8;">KLF4</text><line x1="0" y1="79" x2="1060" y2="79" style="stroke:#ccc;stroke-width:0.5;"/><rect x="0" y="79" width="1060" height="12" style="fill:white;"/><rect x="5.468343752973624" y="80" width="1" height="11" style="fill:#336666;"/><rect x="28.278097667732254" y="80" width="1.2232897602925732" height="11" style="fill:#336666;"/><rect x="68.0782900303202" y="80" width="1" height="11" style="fill:#336666;"/><rect x="123.31783031459508" y="80" width="1" height="11" style="fill:#336666;"/><rect x="134.29540772896416" y="80" width="1" height="11" style="fill:#336666;"/><rect x="152.78650581588226" y="80" width="1" height="11" style="fill:#336666;"/><rect x="169.57181322312772" y="80" width="1" height="11" style="fill:#336666;"/><rect x="270.0730746382271" y="80" width="1" height="11" style="fill:#336666;"/><rect x="295.24081327198996" y="80" width="1" height="11" style="fill:#336666;"/><rect x="346.54469987064385" y="80" width="1" height="11" style="fill:#336666;"/><rect x="430.3001807899725" y="80" width="1" height="11" style="fill:#336666;"/><rect x="582.2143685595181" y="80" width="1" height="11" style="fill:#336666;"/><rect x="589.4191704234806" y="80" width="1" height="11" style="fill:#336666;"/><rect x="702.6051629295691" y="80" width="1" height="11" style="fill:#336666;"/><rect x="798.4960871700841" y="80" width="1" height="11" style="fill:#336666;"/><rect x="902.574534073638" y="80" width="1" height="11" style="fill:#336666;"/><line x1="0" y1="91" x2="1060" y2="91" style="stroke:#ccc;stroke-width:0.5;"/><rect x="0" y="91" width="1060" height="191" style="fill:white;"/><path d="M28.85260088106179 91 A 27.412641444280833 27.412641444280833 1 0 0 68.32703697322108 91" style="fill: none; stroke:rgb(184,0,138);stroke-opacity:0.3333333333333333; stroke-width:1;"/><path d="M68.32635547474729 91 A 40.02616957307323 40.02616957307323 1 0 0 125.63901411601933 91" style="fill: none; stroke:rgb(184,0,138);stroke-opacity:0.2222222222222222; stroke-width:1;"/><path d="M68.32635547474729 91 A 38.63735627537774 38.63735627537774 1 0 0 123.67493551481425 91" style="fill: none; stroke:rgb(184,0,138);stroke-opacity:0.2222222222222222; stroke-width:1;"/><path d="M123.67425401634068 91 A 644.95459429543 644.95459429543 1 0 0 1036.4848951649615 91" style="fill: none; stroke:rgb(184,0,138);stroke-opacity:0.2222222222222222; stroke-width:1;"/><path d="M123.67425401634068 91 A 7.160158285970692 7.160158285970692 1 0 0 134.50735375428508 91" style="fill: none; stroke:rgb(184,0,138);stroke-opacity:0.4444444444444444; stroke-width:1;"/><path d="M123.67425401634068 91 A 29.262625569836963 29.262625569836963 1 0 0 165.76496274903639 91" style="fill: none; stroke:rgb(184,0,138);stroke-opacity:0.3333333333333333; stroke-width:1;"/><path d="M123.67425401634068 91 A 550.4531259593513 550.4531259593513 1 0 0 902.8396369799075 91" style="fill: none; stroke:rgb(184,0,138);stroke-opacity:0.3333333333333333; stroke-width:1;"/><path d="M123.67425401634068 91 A 20.33990974050651 20.33990974050651 1 0 0 153.14633700999616 91" style="fill: none; stroke:rgb(184,0,138);stroke-opacity:1; stroke-width:1;"/><path d="M123.67425401634068 91 A 31.72316710281165 31.72316710281165 1 0 0 169.24469395575147 91" style="fill: none; stroke:rgb(184,0,138);stroke-opacity:0.8888888888888888; stroke-width:1;"/><path d="M125.63833261754576 91 A 18.951096442811014 18.951096442811014 1 0 0 153.14633700999616 91" style="fill: none; stroke:rgb(184,0,138);stroke-opacity:0.7777777777777778; stroke-width:1;"/><path d="M125.63833261754576 91 A 30.33435380511615 30.33435380511615 1 0 0 169.24469395575147 91" style="fill: none; stroke:rgb(184,0,138);stroke-opacity:0.2222222222222222; stroke-width:1;"/><path d="M123.67425401634068 91 A 20.33990974050651 20.33990974050651 1 0 0 153.14633700999616 91" style="fill: none; stroke:rgb(184,0,138);stroke-opacity:1; stroke-width:1;"/><path d="M153.1456555115226 91 A 8.423197721522481 8.423197721522481 1 0 0 165.76496274903639 91" style="fill: none; stroke:rgb(184,0,138);stroke-opacity:0.3333333333333333; stroke-width:1;"/><path d="M153.1456555115226 91 A 10.883739254497167 10.883739254497167 1 0 0 169.24469395575147 91" style="fill: none; stroke:rgb(184,0,138);stroke-opacity:0.4444444444444444; stroke-width:1;"/><path d="M153.1456555115226 91 A 82.40184137951057 82.40184137951057 1 0 0 270.3865639361295 91" style="fill: none; stroke:rgb(184,0,138);stroke-opacity:0.4444444444444444; stroke-width:1;"/><path d="M153.1456555115226 91 A 170.2435596204635 170.2435596204635 1 0 0 394.6135132146412 91" style="fill: none; stroke:rgb(184,0,138);stroke-opacity:0.2222222222222222; stroke-width:1;"/><path d="M153.1456555115226 91 A 388.13930645567734 388.13930645567734 1 0 0 702.764633572415 91" style="fill: none; stroke:rgb(184,0,138);stroke-opacity:0.3333333333333333; stroke-width:1;"/><path d="M153.1456555115226 91 A 504.09557896941004 504.09557896941004 1 0 0 866.7515668035664 91" style="fill: none; stroke:rgb(184,0,138);stroke-opacity:0.2222222222222222; stroke-width:1;"/><path d="M153.1456555115226 91 A 529.6136981110368 529.6136981110368 1 0 0 902.8396369799075 91" style="fill: none; stroke:rgb(184,0,138);stroke-opacity:0.4444444444444444; stroke-width:1;"/><path d="M153.1456555115226 91 A 580.4562157330571 580.4562157330571 1 0 0 974.7418149461616 91" style="fill: none; stroke:rgb(184,0,138);stroke-opacity:0.4444444444444444; stroke-width:1;"/><path d="M153.1456555115226 91 A 580.4562157330571 580.4562157330571 1 0 0 974.7418149461616 91" style="fill: none; stroke:rgb(184,0,138);stroke-opacity:0.4444444444444444; stroke-width:1;"/><path d="M153.1456555115226 91 A 621.6922125051262 621.6922125051262 1 0 0 1033.058320839195 91" style="fill: none; stroke:rgb(184,0,138);stroke-opacity:0.2222222222222222; stroke-width:1;"/><path d="M153.1456555115226 91 A 624.1151664471155 624.1151664471155 1 0 0 1036.4848951649615 91" style="fill: none; stroke:rgb(184,0,138);stroke-opacity:0.2222222222222222; stroke-width:1;"/><path d="M158.04358504200854 91 A 7.420380069716707 7.420380069716707 1 0 0 169.24469395575147 91" style="fill: none; stroke:rgb(184,0,138);stroke-opacity:0.2222222222222222; stroke-width:1;"/><path d="M165.7642812505626 91 A 379.21659062634706 379.21659062634706 1 0 0 702.764633572415 91" style="fill: none; stroke:rgb(184,0,138);stroke-opacity:0.2222222222222222; stroke-width:1;"/><path d="M165.7642812505626 91 A 473.7648025050614 473.7648025050614 1 0 0 836.4759971094179 91" style="fill: none; stroke:rgb(184,0,138);stroke-opacity:0.2222222222222222; stroke-width:1;"/><path d="M123.67425401634068 91 A 29.262625569836963 29.262625569836963 1 0 0 165.76496274903639 91" style="fill: none; stroke:rgb(184,0,138);stroke-opacity:0.3333333333333333; stroke-width:1;"/><path d="M123.67425401634068 91 A 31.72316710281165 31.72316710281165 1 0 0 169.24469395575147 91" style="fill: none; stroke:rgb(184,0,138);stroke-opacity:0.8888888888888888; stroke-width:1;"/><path d="M125.63833261754576 91 A 30.33435380511615 30.33435380511615 1 0 0 169.24469395575147 91" style="fill: none; stroke:rgb(184,0,138);stroke-opacity:0.2222222222222222; stroke-width:1;"/><path d="M153.1456555115226 91 A 10.883739254497167 10.883739254497167 1 0 0 169.24469395575147 91" style="fill: none; stroke:rgb(184,0,138);stroke-opacity:0.4444444444444444; stroke-width:1;"/><path d="M169.2440124572779 91 A 125.85695169630117 125.85695169630117 1 0 0 347.9397272463091 91" style="fill: none; stroke:rgb(184,0,138);stroke-opacity:0.2222222222222222; stroke-width:1;"/><path d="M169.2440124572779 91 A 178.7345000456525 178.7345000456525 1 0 0 422.7198732670008 91" style="fill: none; stroke:rgb(184,0,138);stroke-opacity:0.3333333333333333; stroke-width:1;"/><path d="M169.2440124572779 91 A 376.75604909337216 376.75604909337216 1 0 0 702.764633572415 91" style="fill: none; stroke:rgb(184,0,138);stroke-opacity:0.3333333333333333; stroke-width:1;"/><path d="M347.9390457478353 91 A 32.50383245404937 32.50383245404937 1 0 0 394.6135132146412 91" style="fill: none; stroke:rgb(184,0,138);stroke-opacity:0.2222222222222222; stroke-width:1;"/><path d="M394.6128317161674 91 A 217.39622872740603 217.39622872740603 1 0 0 702.764633572415 91" style="fill: none; stroke:rgb(184,0,138);stroke-opacity:0.4444444444444444; stroke-width:1;"/><path d="M153.1456555115226 91 A 170.2435596204635 170.2435596204635 1 0 0 394.6135132146412 91" style="fill: none; stroke:rgb(184,0,138);stroke-opacity:0.2222222222222222; stroke-width:1;"/><path d="M553.0755383195019 91 A 105.34617432301393 105.34617432301393 1 0 0 702.764633572415 91" style="fill: none; stroke:rgb(184,0,138);stroke-opacity:0.2222222222222222; stroke-width:1;"/><path d="M602.8699057989093 91 A 262.4531486908098 262.4531486908098 1 0 0 974.7418149461616 91" style="fill: none; stroke:rgb(184,0,138);stroke-opacity:0.2222222222222222; stroke-width:1;"/><path d="M153.1456555115226 91 A 388.13930645567734 388.13930645567734 1 0 0 702.764633572415 91" style="fill: none; stroke:rgb(184,0,138);stroke-opacity:0.3333333333333333; stroke-width:1;"/><path d="M165.7642812505626 91 A 379.21659062634706 379.21659062634706 1 0 0 702.764633572415 91" style="fill: none; stroke:rgb(184,0,138);stroke-opacity:0.2222222222222222; stroke-width:1;"/><path d="M169.2440124572779 91 A 376.75604909337216 376.75604909337216 1 0 0 702.764633572415 91" style="fill: none; stroke:rgb(184,0,138);stroke-opacity:0.3333333333333333; stroke-width:1;"/><path d="M394.6128317161674 91 A 217.39622872740603 217.39622872740603 1 0 0 702.764633572415 91" style="fill: none; stroke:rgb(184,0,138);stroke-opacity:0.4444444444444444; stroke-width:1;"/><path d="M702.7639520739415 91 A 4.715037303143811 4.715037303143811 1 0 0 710.1391285563291 91" style="fill: none; stroke:rgb(184,0,138);stroke-opacity:0.2222222222222222; stroke-width:1;"/><path d="M710.1384470578555 91 A 62.0751468236139 62.0751468236139 1 0 0 798.633068363298 91" style="fill: none; stroke:rgb(184,0,138);stroke-opacity:0.2222222222222222; stroke-width:1;"/><path d="M710.1384470578555 91 A 135.76031813659975 135.76031813659975 1 0 0 902.8396369799075 91" style="fill: none; stroke:rgb(184,0,138);stroke-opacity:0.2222222222222222; stroke-width:1;"/><path d="M710.1384470578555 91 A 230.26178647267835 230.26178647267835 1 0 0 1036.4848951649615 91" style="fill: none; stroke:rgb(184,0,138);stroke-opacity:0.2222222222222222; stroke-width:1;"/><path d="M798.6323868648242 91 A 26.259473428532917 26.259473428532917 1 0 0 836.4759971094179 91" style="fill: none; stroke:rgb(184,0,138);stroke-opacity:0.3333333333333333; stroke-width:1;"/><path d="M165.7642812505626 91 A 473.7648025050614 473.7648025050614 1 0 0 836.4759971094179 91" style="fill: none; stroke:rgb(184,0,138);stroke-opacity:0.2222222222222222; stroke-width:1;"/><path d="M836.4753156109441 91 A 97.26917929085758 97.26917929085758 1 0 0 974.7418149461616 91" style="fill: none; stroke:rgb(184,0,138);stroke-opacity:0.2222222222222222; stroke-width:1;"/><path d="M836.4753156109441 91 A 140.92813000491591 140.92813000491591 1 0 0 1036.4848951649615 91" style="fill: none; stroke:rgb(184,0,138);stroke-opacity:0.3333333333333333; stroke-width:1;"/><path d="M868.8901090140389 91 A 23.50594144274801 23.50594144274801 1 0 0 902.8396369799075 91" style="fill: none; stroke:rgb(184,0,138);stroke-opacity:0.3333333333333333; stroke-width:1;"/><path d="M868.8901090140389 91 A 74.34845906476828 74.34845906476828 1 0 0 974.7418149461616 91" style="fill: none; stroke:rgb(184,0,138);stroke-opacity:0.2222222222222222; stroke-width:1;"/><path d="M882.2904135024137 91 A 64.87301289107394 64.87301289107394 1 0 0 974.7418149461616 91" style="fill: none; stroke:rgb(184,0,138);stroke-opacity:0.2222222222222222; stroke-width:1;"/><path d="M153.1456555115226 91 A 529.6136981110368 529.6136981110368 1 0 0 902.8396369799075 91" style="fill: none; stroke:rgb(184,0,138);stroke-opacity:0.4444444444444444; stroke-width:1;"/><path d="M710.1384470578555 91 A 135.76031813659975 135.76031813659975 1 0 0 902.8396369799075 91" style="fill: none; stroke:rgb(184,0,138);stroke-opacity:0.2222222222222222; stroke-width:1;"/><path d="M902.8389554814337 91 A 50.342999514212465 50.342999514212465 1 0 0 974.7418149461616 91" style="fill: none; stroke:rgb(184,0,138);stroke-opacity:0.3333333333333333; stroke-width:1;"/><path d="M123.67425401634068 91 A 550.4531259593513 550.4531259593513 1 0 0 902.8396369799075 91" style="fill: none; stroke:rgb(184,0,138);stroke-opacity:0.3333333333333333; stroke-width:1;"/><path d="M153.1456555115226 91 A 580.4562157330571 580.4562157330571 1 0 0 974.7418149461616 91" style="fill: none; stroke:rgb(184,0,138);stroke-opacity:0.4444444444444444; stroke-width:1;"/><path d="M153.1456555115226 91 A 580.4562157330571 580.4562157330571 1 0 0 974.7418149461616 91" style="fill: none; stroke:rgb(184,0,138);stroke-opacity:0.4444444444444444; stroke-width:1;"/><path d="M602.8699057989093 91 A 262.4531486908098 262.4531486908098 1 0 0 974.7418149461616 91" style="fill: none; stroke:rgb(184,0,138);stroke-opacity:0.2222222222222222; stroke-width:1;"/><path d="M836.4753156109441 91 A 97.26917929085758 97.26917929085758 1 0 0 974.7418149461616 91" style="fill: none; stroke:rgb(184,0,138);stroke-opacity:0.2222222222222222; stroke-width:1;"/><path d="M868.8901090140389 91 A 74.34845906476828 74.34845906476828 1 0 0 974.7418149461616 91" style="fill: none; stroke:rgb(184,0,138);stroke-opacity:0.2222222222222222; stroke-width:1;"/><path d="M882.2904135024137 91 A 64.87301289107394 64.87301289107394 1 0 0 974.7418149461616 91" style="fill: none; stroke:rgb(184,0,138);stroke-opacity:0.2222222222222222; stroke-width:1;"/><path d="M974.7411334476881 91 A 43.15943260625037 43.15943260625037 1 0 0 1036.4848951649615 91" style="fill: none; stroke:rgb(184,0,138);stroke-opacity:0.2222222222222222; stroke-width:1;"/><path d="M1033.057639340721 91 A 1.9234358341815807 1.9234358341815807 1 0 0 1036.4848951649615 91" style="fill: none; stroke:rgb(184,0,138);stroke-opacity:0.3333333333333333; stroke-width:1;"/><path d="M974.7411334476881 91 A 43.15943260625037 43.15943260625037 1 0 0 1036.4848951649615 91" style="fill: none; stroke:rgb(184,0,138);stroke-opacity:0.2222222222222222; stroke-width:1;"/><path d="M123.67425401634068 91 A 644.95459429543 644.95459429543 1 0 0 1036.4848951649615 91" style="fill: none; stroke:rgb(184,0,138);stroke-opacity:0.2222222222222222; stroke-width:1;"/><path d="M153.1456555115226 91 A 624.1151664471155 624.1151664471155 1 0 0 1036.4848951649615 91" style="fill: none; stroke:rgb(184,0,138);stroke-opacity:0.2222222222222222; stroke-width:1;"/><path d="M710.1384470578555 91 A 230.26178647267835 230.26178647267835 1 0 0 1036.4848951649615 91" style="fill: none; stroke:rgb(184,0,138);stroke-opacity:0.2222222222222222; stroke-width:1;"/><path d="M836.4753156109441 91 A 140.92813000491591 140.92813000491591 1 0 0 1036.4848951649615 91" style="fill: none; stroke:rgb(184,0,138);stroke-opacity:0.3333333333333333; stroke-width:1;"/><rect x="0" y="20" width="883.6547734467622" height="14" style="fill:rgb(255,255,255);"/><rect x="883.6547734467622" y="20" width="176.3452265532378" height="14" style="fill:rgb(180,180,180);"/><line x1="0" y1="20.5" x2="1060" y2="20.5" style="stroke:#000000;"/><line x1="0" y1="33.5" x2="1060" y2="33.5" style="stroke:#000000;"/><text font-family="arial" x="518.7414398193359" y="43" style="font-size:8pt;fill:#000000;">chr9</text><rect x="1060" y="0" width="0" height="20" style="fill:white;"/><rect x="1060" y="20" width="0" height="396" style="fill:white;"/></svg>