<svg xmlns="http://www.w3.org/2000/svg" version="1.1" width="1060" height="390"><line x1="0" y1="16.5" x2="1060" y2="16.5" style="stroke:#000000;"/><text font-family="arial" x="27.482114521501444" y="10" style="font-size:8pt;fill:#000000;">70860000</text><line x1="49.728208271501444" y1="12" x2="49.728208271501444" y2="17" style="stroke:#000000;"/><text font-family="arial" x="95.87362365112267" y="10" style="font-size:8pt;fill:#000000;">70870000</text><line x1="118.11971740112267" y1="12" x2="118.11971740112267" y2="17" style="stroke:#000000;"/><text font-family="arial" x="164.26513278074412" y="10" style="font-size:8pt;fill:#000000;">70880000</text><line x1="186.51122653074412" y1="12" x2="186.51122653074412" y2="17" style="stroke:#000000;"/><text font-family="arial" x="232.65664191036535" y="10" style="font-size:8pt;fill:#000000;">70890000</text><line x1="254.90273566036535" y1="12" x2="254.90273566036535" y2="17" style="stroke:#000000;"/><text font-family="arial" x="301.0481510399866" y="10" style="font-size:8pt;fill:#000000;">70900000</text><line x1="323.2942447899866" y1="12" x2="323.2942447899866" y2="17" style="stroke:#000000;"/><text font-family="arial" x="369.4396601696078" y="10" style="font-size:8pt;fill:#000000;">70910000</text><line x1="391.6857539196078" y1="12" x2="391.6857539196078" y2="17" style="stroke:#000000;"/><text font-family="arial" x="437.83116929922903" y="10" style="font-size:8pt;fill:#000000;">70920000</text><line x1="460.07726304922903" y1="12" x2="460.07726304922903" y2="17" style="stroke:#000000;"/><text font-family="arial" x="506.22267842885026" y="10" style="font-size:8pt;fill:#000000;">70930000</text><line x1="528.4687721788503" y1="12" x2="528.4687721788503" y2="17" style="stroke:#000000;"/><text font-family="arial" x="574.6141875584717" y="10" style="font-size:8pt;fill:#000000;">70940000</text><line x1="596.8602813084717" y1="12" x2="596.8602813084717" y2="17" style="stroke:#000000;"/><text font-family="arial" x="643.0056966880929" y="10" style="font-size:8pt;fill:#000000;">70950000</text><line x1="665.2517904380929" y1="12" x2="665.2517904380929" y2="17" style="stroke:#000000;"/><text font-family="arial" x="711.3972058177142" y="10" style="font-size:8pt;fill:#000000;">70960000</text><line x1="733.6432995677142" y1="12" x2="733.6432995677142" y2="17" style="stroke:#000000;"/><text font-family="arial" x="779.7887149473354" y="10" style="font-size:8pt;fill:#000000;">70970000</text><line x1="802.0348086973354" y1="12" x2="802.0348086973354" y2="17" style="stroke:#000000;"/><text font-family="arial" x="848.1802240769566" y="10" style="font-size:8pt;fill:#000000;">70980000</text><line x1="870.4263178269566" y1="12" x2="870.4263178269566" y2="17" style="stroke:#000000;"/><text font-family="arial" x="916.5717332065781" y="10" style="font-size:8pt;fill:#000000;">70990000</text><line x1="938.8178269565781" y1="12" x2="938.8178269565781" y2="17" style="stroke:#000000;"/><text font-family="arial" x="984.9632423361991" y="10" style="font-size:8pt;fill:#000000;">71000000</text><line x1="1007.2093360861991" y1="12" x2="1007.2093360861991" y2="17" style="stroke:#000000;"/><text font-family="arial" x="1053.3547514658208" y="10" style="font-size:8pt;fill:#000000;">71010000</text><line x1="0" y1="43" x2="1060" y2="43" style="stroke:#ccc;stroke-width:0.5;"/><rect x="0" y="43" width="1060" height="12" style="fill:white;"/><line x1="759.7065617136591" y1="49" x2="894.2805342280149" y2="49" style="stroke:#002eb8;stroke-width:1;"/><line x1="768.493547970837" y1="46" x2="765.493547970837" y2="49.5" style="stroke:#002eb8;"/><line x1="765.493547970837" y1="49.5" x2="768.493547970837" y2="53" style="stroke:#002eb8;"/><line x1="776.493547970837" y1="46" x2="773.493547970837" y2="49.5" style="stroke:#002eb8;"/><line x1="773.493547970837" y1="49.5" x2="776.493547970837" y2="53" style="stroke:#002eb8;"/><line x1="784.493547970837" y1="46" x2="781.493547970837" y2="49.5" style="stroke:#002eb8;"/><line x1="781.493547970837" y1="49.5" x2="784.493547970837" y2="53" style="stroke:#002eb8;"/><line x1="792.493547970837" y1="46" x2="789.493547970837" y2="49.5" style="stroke:#002eb8;"/><line x1="789.493547970837" y1="49.5" x2="792.493547970837" y2="53" style="stroke:#002eb8;"/><line x1="800.493547970837" y1="46" x2="797.493547970837" y2="49.5" style="stroke:#002eb8;"/><line x1="797.493547970837" y1="49.5" x2="800.493547970837" y2="53" style="stroke:#002eb8;"/><line x1="808.493547970837" y1="46" x2="805.493547970837" y2="49.5" style="stroke:#002eb8;"/><line x1="805.493547970837" y1="49.5" x2="808.493547970837" y2="53" style="stroke:#002eb8;"/><line x1="816.493547970837" y1="46" x2="813.493547970837" y2="49.5" style="stroke:#002eb8;"/><line x1="813.493547970837" y1="49.5" x2="816.493547970837" y2="53" style="stroke:#002eb8;"/><line x1="824.493547970837" y1="46" x2="821.493547970837" y2="49.5" style="stroke:#002eb8;"/><line x1="821.493547970837" y1="49.5" x2="824.493547970837" y2="53" style="stroke:#002eb8;"/><line x1="832.493547970837" y1="46" x2="829.493547970837" y2="49.5" style="stroke:#002eb8;"/><line x1="829.493547970837" y1="49.5" x2="832.493547970837" y2="53" style="stroke:#002eb8;"/><line x1="840.493547970837" y1="46" x2="837.493547970837" y2="49.5" style="stroke:#002eb8;"/><line x1="837.493547970837" y1="49.5" x2="840.493547970837" y2="53" style="stroke:#002eb8;"/><line x1="848.493547970837" y1="46" x2="845.493547970837" y2="49.5" style="stroke:#002eb8;"/><line x1="845.493547970837" y1="49.5" x2="848.493547970837" y2="53" style="stroke:#002eb8;"/><line x1="856.493547970837" y1="46" x2="853.493547970837" y2="49.5" style="stroke:#002eb8;"/><line x1="853.493547970837" y1="49.5" x2="856.493547970837" y2="53" style="stroke:#002eb8;"/><line x1="864.493547970837" y1="46" x2="861.493547970837" y2="49.5" style="stroke:#002eb8;"/><line x1="861.493547970837" y1="49.5" x2="864.493547970837" y2="53" style="stroke:#002eb8;"/><line x1="872.493547970837" y1="46" x2="869.493547970837" y2="49.5" style="stroke:#002eb8;"/><line x1="869.493547970837" y1="49.5" x2="872.493547970837" y2="53" style="stroke:#002eb8;"/><line x1="880.493547970837" y1="46" x2="877.493547970837" y2="49.5" style="stroke:#002eb8;"/><line x1="877.493547970837" y1="49.5" x2="880.493547970837" y2="53" style="stroke:#002eb8;"/><line x1="888.493547970837" y1="46" x2="885.493547970837" y2="49.5" style="stroke:#002eb8;"/><line x1="885.493547970837" y1="49.5" x2="888.493547970837" y2="53" style="stroke:#002eb8;"/><rect x="759.7065617136591" y="46" width="2.9134782889218513" height="7" style="fill:#002EB8;"/><rect x="884.2474998386995" y="46" width="1" height="7" style="fill:#002EB8;"/><rect x="893.0631653655075" y="46" width="1.2173688625073282" height="7" style="fill:#002EB8;"/><rect x="762.6200400025809" y="44" width="1.559326408155357" height="11" style="fill:#002EB8;"/><rect x="784.6626233950578" y="44" width="1" height="11" style="fill:#002EB8;"/><rect x="807.5053874443513" y="44" width="1.3883476353314563" height="11" style="fill:#002EB8;"/><rect x="859.4487386282988" y="44" width="1.8534098974128028" height="11" style="fill:#002EB8;"/><rect x="873.0928446996581" y="44" width="1.0805858442481622" height="11" style="fill:#002EB8;"/><rect x="874.7957932769857" y="44" width="1" height="11" style="fill:#002EB8;"/><rect x="879.4600941996259" y="44" width="4.78740563907354" height="11" style="fill:#002EB8;"/><text font-family="arial" x="715.4628635935419" y="54" style="font-size:8pt;fill:#002eb8;">PRDM14</text><line x1="0" y1="55" x2="1060" y2="55" style="stroke:#ccc;stroke-width:0.5;"/><rect x="0" y="55" width="1060" height="12" style="fill:white;"/><rect x="629.7695335182916" y="56" width="4.322343376992194" height="11" style="fill:#336666;"/><rect x="642.0868443125364" y="56" width="7.119556100393538" height="11" style="fill:#336666;"/><rect x="821.1152977611459" y="56" width="9.048196657849076" height="11" style="fill:#336666;"/><rect x="891.558552164656" y="56" width="6.175753274404769" height="11" style="fill:#336666;"/><line x1="0" y1="67" x2="1060" y2="67" style="stroke:#ccc;stroke-width:0.5;"/><rect x="0" y="67" width="1060" height="209" style="fill:white;"/><path d="M40.733982837602525 67 A 160.42306836447105 160.42306836447105 1 0 0 268.31356861733025 67" style="fill: none; stroke:rgb(184,0,138);stroke-opacity:0.15384615384615385; stroke-width:1;"/><path d="M40.733982837602525 67 A 555.7910649427056 555.7910649427056 1 0 0 827.448351506549 67" style="fill: none; stroke:rgb(184,0,138);stroke-opacity:0.15384615384615385; stroke-width:1;"/><path d="M40.733982837602525 67 A 600.5531733926858 600.5531733926858 1 0 0 890.7515323569264 67" style="fill: none; stroke:rgb(184,0,138);stroke-opacity:0.23076923076923078; stroke-width:1;"/><path d="M40.733982837602525 67 A 620.4001583839045 620.4001583839045 1 0 0 918.8194077037231 67" style="fill: none; stroke:rgb(184,0,138);stroke-opacity:0.23076923076923078; stroke-width:1;"/><path d="M40.733982837602525 67 A 686.9871799102419 686.9871799102419 1 0 0 1012.9876766242987 67" style="fill: none; stroke:rgb(184,0,138);stroke-opacity:1; stroke-width:1;"/><path d="M40.733982837602525 67 A 686.9871799102419 686.9871799102419 1 0 0 1012.9876766242987 67" style="fill: none; stroke:rgb(184,0,138);stroke-opacity:1; stroke-width:1;"/><path d="M40.733982837602525 67 A 709.2521698955173 709.2521698955173 1 0 0 1044.4751274275764 67" style="fill: none; stroke:rgb(184,0,138);stroke-opacity:0.3076923076923077; stroke-width:1;"/><path d="M40.733982837602525 67 A 417.1233145435336 417.1233145435336 1 0 0 631.3425382282728 67" style="fill: none; stroke:rgb(184,0,138);stroke-opacity:0.15384615384615385; stroke-width:1;"/><path d="M252.3236337828248 67 A 267.50683753127237 267.50683753127237 1 0 0 631.3425382282728 67" style="fill: none; stroke:rgb(184,0,138);stroke-opacity:0.15384615384615385; stroke-width:1;"/><path d="M252.3236337828248 67 A 406.1745879304443 406.1745879304443 1 0 0 827.448351506549 67" style="fill: none; stroke:rgb(184,0,138);stroke-opacity:0.38461538461538464; stroke-width:1;"/><path d="M252.3236337828248 67 A 470.78368137164324 470.78368137164324 1 0 0 918.8194077037231 67" style="fill: none; stroke:rgb(184,0,138);stroke-opacity:0.15384615384615385; stroke-width:1;"/><path d="M268.3067294664172 67 A 526.068947555759 526.068947555759 1 0 0 1012.9876766242987 67" style="fill: none; stroke:rgb(184,0,138);stroke-opacity:0.15384615384615385; stroke-width:1;"/><path d="M40.733982837602525 67 A 417.1233145435336 417.1233145435336 1 0 0 631.3425382282728 67" style="fill: none; stroke:rgb(184,0,138);stroke-opacity:0.15384615384615385; stroke-width:1;"/><path d="M646.470740047745 67 A 172.23260475544475 172.23260475544475 1 0 0 890.7515323569264 67" style="fill: none; stroke:rgb(184,0,138);stroke-opacity:0.23076923076923078; stroke-width:1;"/><path d="M827.441512355636 67 A 152.96594096279995 152.96594096279995 1 0 0 1044.4751274275764 67" style="fill: none; stroke:rgb(184,0,138);stroke-opacity:0.15384615384615385; stroke-width:1;"/><path d="M40.733982837602525 67 A 555.7910649427056 555.7910649427056 1 0 0 827.448351506549 67" style="fill: none; stroke:rgb(184,0,138);stroke-opacity:0.15384615384615385; stroke-width:1;"/><path d="M827.441512355636 67 A 64.11392945118708 64.11392945118708 1 0 0 918.8194077037231 67" style="fill: none; stroke:rgb(184,0,138);stroke-opacity:0.15384615384615385; stroke-width:1;"/><path d="M890.7446932060134 67 A 19.3518210012068 19.3518210012068 1 0 0 918.8194077037231 67" style="fill: none; stroke:rgb(184,0,138);stroke-opacity:0.15384615384615385; stroke-width:1;"/><path d="M890.7446932060134 67 A 85.93884252754425 85.93884252754425 1 0 0 1012.9876766242987 67" style="fill: none; stroke:rgb(184,0,138);stroke-opacity:0.15384615384615385; stroke-width:1;"/><path d="M890.7446932060134 67 A 108.20383251281966 108.20383251281966 1 0 0 1044.4751274275764 67" style="fill: none; stroke:rgb(184,0,138);stroke-opacity:0.15384615384615385; stroke-width:1;"/><path d="M40.733982837602525 67 A 600.5531733926858 600.5531733926858 1 0 0 890.7515323569264 67" style="fill: none; stroke:rgb(184,0,138);stroke-opacity:0.23076923076923078; stroke-width:1;"/><path d="M252.3236337828248 67 A 470.78368137164324 470.78368137164324 1 0 0 918.8194077037231 67" style="fill: none; stroke:rgb(184,0,138);stroke-opacity:0.15384615384615385; stroke-width:1;"/><path d="M827.441512355636 67 A 64.11392945118708 64.11392945118708 1 0 0 918.8194077037231 67" style="fill: none; stroke:rgb(184,0,138);stroke-opacity:0.15384615384615385; stroke-width:1;"/><path d="M918.81256855281 67 A 66.09185753632562 66.09185753632562 1 0 0 1012.9876766242987 67" style="fill: none; stroke:rgb(184,0,138);stroke-opacity:0.15384615384615385; stroke-width:1;"/><path d="M40.733982837602525 67 A 620.4001583839045 620.4001583839045 1 0 0 918.8194077037231 67" style="fill: none; stroke:rgb(184,0,138);stroke-opacity:0.23076923076923078; stroke-width:1;"/><path d="M40.733982837602525 67 A 686.9871799102419 686.9871799102419 1 0 0 1012.9876766242987 67" style="fill: none; stroke:rgb(184,0,138);stroke-opacity:1; stroke-width:1;"/><path d="M40.733982837602525 67 A 686.9871799102419 686.9871799102419 1 0 0 1012.9876766242987 67" style="fill: none; stroke:rgb(184,0,138);stroke-opacity:1; stroke-width:1;"/><path d="M268.3067294664172 67 A 526.068947555759 526.068947555759 1 0 0 1012.9876766242987 67" style="fill: none; stroke:rgb(184,0,138);stroke-opacity:0.15384615384615385; stroke-width:1;"/><path d="M890.7446932060134 67 A 85.93884252754425 85.93884252754425 1 0 0 1012.9876766242987 67" style="fill: none; stroke:rgb(184,0,138);stroke-opacity:0.15384615384615385; stroke-width:1;"/><path d="M1012.9808374733857 67 A 21.769825995263577 21.769825995263577 1 0 0 1044.4751274275764 67" style="fill: none; stroke:rgb(184,0,138);stroke-opacity:0.15384615384615385; stroke-width:1;"/><path d="M890.7446932060134 67 A 108.20383251281966 108.20383251281966 1 0 0 1044.4751274275764 67" style="fill: none; stroke:rgb(184,0,138);stroke-opacity:0.15384615384615385; stroke-width:1;"/><path d="M40.733982837602525 67 A 709.2521698955173 709.2521698955173 1 0 0 1044.4751274275764 67" style="fill: none; stroke:rgb(184,0,138);stroke-opacity:0.3076923076923077; stroke-width:1;"/><path d="M827.441512355636 67 A 152.96594096279995 152.96594096279995 1 0 0 1044.4751274275764 67" style="fill: none; stroke:rgb(184,0,138);stroke-opacity:0.15384615384615385; stroke-width:1;"/><rect x="0" y="20" width="1060" height="14" style="fill:rgb(255,255,255);"/><text font-family="arial" x="516.3705291748049" y="30" style="font-size:8pt;fill:#000000;">q13.3</text><line x1="0" y1="20.5" x2="1060" y2="20.5" style="stroke:#000000;"/><line x1="0" y1="33.5" x2="1060" y2="33.5" style="stroke:#000000;"/><text font-family="arial" x="518.7414398193362" y="43" style="font-size:8pt;fill:#000000;">chr8</text><rect x="1060" y="0" width="0" height="20" style="fill:white;"/><rect x="1060" y="20" width="0" height="390" style="fill:white;"/></svg>