<svg xmlns="http://www.w3.org/2000/svg" version="1.1" width="1060" height="450"><line x1="0" y1="16.5" x2="1060" y2="16.5" style="stroke:#000000;"/><line x1="25.76397123285642" y1="15" x2="25.76397123285642" y2="17" style="stroke:#000000;"/><line x1="52.014980410803446" y1="15" x2="52.014980410803446" y2="17" style="stroke:#000000;"/><text font-family="arial" x="56.0198958387507" y="10" style="font-size:8pt;fill:#000000;">61940000</text><line x1="78.2659895887507" y1="12" x2="78.2659895887507" y2="17" style="stroke:#000000;"/><line x1="104.51699876669795" y1="15" x2="104.51699876669795" y2="17" style="stroke:#000000;"/><line x1="130.76800794464498" y1="15" x2="130.76800794464498" y2="17" style="stroke:#000000;"/><text font-family="arial" x="134.77292337259223" y="10" style="font-size:8pt;fill:#000000;">61970000</text><line x1="157.01901712259223" y1="12" x2="157.01901712259223" y2="17" style="stroke:#000000;"/><line x1="183.27002630053948" y1="15" x2="183.27002630053948" y2="17" style="stroke:#000000;"/><line x1="209.5210354784865" y1="15" x2="209.5210354784865" y2="17" style="stroke:#000000;"/><text font-family="arial" x="213.52595090643376" y="10" style="font-size:8pt;fill:#000000;">62000000</text><line x1="235.77204465643376" y1="12" x2="235.77204465643376" y2="17" style="stroke:#000000;"/><line x1="262.023053834381" y1="15" x2="262.023053834381" y2="17" style="stroke:#000000;"/><line x1="288.27406301232804" y1="15" x2="288.27406301232804" y2="17" style="stroke:#000000;"/><text font-family="arial" x="292.2789784402753" y="10" style="font-size:8pt;fill:#000000;">62030000</text><line x1="314.5250721902753" y1="12" x2="314.5250721902753" y2="17" style="stroke:#000000;"/><line x1="340.77608136822255" y1="15" x2="340.77608136822255" y2="17" style="stroke:#000000;"/><line x1="367.0270905461696" y1="15" x2="367.0270905461696" y2="17" style="stroke:#000000;"/><text font-family="arial" x="371.0320059741168" y="10" style="font-size:8pt;fill:#000000;">62060000</text><line x1="393.2780997241168" y1="12" x2="393.2780997241168" y2="17" style="stroke:#000000;"/><line x1="419.52910890206385" y1="15" x2="419.52910890206385" y2="17" style="stroke:#000000;"/><line x1="445.7801180800111" y1="15" x2="445.7801180800111" y2="17" style="stroke:#000000;"/><text font-family="arial" x="449.78503350795836" y="10" style="font-size:8pt;fill:#000000;">62090000</text><line x1="472.03112725795836" y1="12" x2="472.03112725795836" y2="17" style="stroke:#000000;"/><line x1="498.2821364359054" y1="15" x2="498.2821364359054" y2="17" style="stroke:#000000;"/><line x1="524.5331456138526" y1="15" x2="524.5331456138526" y2="17" style="stroke:#000000;"/><text font-family="arial" x="528.5380610417999" y="10" style="font-size:8pt;fill:#000000;">62120000</text><line x1="550.7841547917999" y1="12" x2="550.7841547917999" y2="17" style="stroke:#000000;"/><line x1="577.0351639697469" y1="15" x2="577.0351639697469" y2="17" style="stroke:#000000;"/><line x1="603.2861731476942" y1="15" x2="603.2861731476942" y2="17" style="stroke:#000000;"/><text font-family="arial" x="607.2910885756414" y="10" style="font-size:8pt;fill:#000000;">62150000</text><line x1="629.5371823256414" y1="12" x2="629.5371823256414" y2="17" style="stroke:#000000;"/><line x1="655.7881915035885" y1="15" x2="655.7881915035885" y2="17" style="stroke:#000000;"/><line x1="682.0392006815357" y1="15" x2="682.0392006815357" y2="17" style="stroke:#000000;"/><text font-family="arial" x="686.044116109483" y="10" style="font-size:8pt;fill:#000000;">62180000</text><line x1="708.290209859483" y1="12" x2="708.290209859483" y2="17" style="stroke:#000000;"/><line x1="734.54121903743" y1="15" x2="734.54121903743" y2="17" style="stroke:#000000;"/><line x1="760.7922282153772" y1="15" x2="760.7922282153772" y2="17" style="stroke:#000000;"/><text font-family="arial" x="764.7971436433243" y="10" style="font-size:8pt;fill:#000000;">62210000</text><line x1="787.0432373933243" y1="12" x2="787.0432373933243" y2="17" style="stroke:#000000;"/><line x1="813.2942465712715" y1="15" x2="813.2942465712715" y2="17" style="stroke:#000000;"/><line x1="839.5452557492188" y1="15" x2="839.5452557492188" y2="17" style="stroke:#000000;"/><text font-family="arial" x="843.5501711771658" y="10" style="font-size:8pt;fill:#000000;">62240000</text><line x1="865.7962649271658" y1="12" x2="865.7962649271658" y2="17" style="stroke:#000000;"/><line x1="892.047274105113" y1="15" x2="892.047274105113" y2="17" style="stroke:#000000;"/><line x1="918.2982832830603" y1="15" x2="918.2982832830603" y2="17" style="stroke:#000000;"/><text font-family="arial" x="922.3031987110073" y="10" style="font-size:8pt;fill:#000000;">62270000</text><line x1="944.5492924610073" y1="12" x2="944.5492924610073" y2="17" style="stroke:#000000;"/><line x1="970.8003016389546" y1="15" x2="970.8003016389546" y2="17" style="stroke:#000000;"/><line x1="997.0513108169016" y1="15" x2="997.0513108169016" y2="17" style="stroke:#000000;"/><text font-family="arial" x="1001.0562262448489" y="10" style="font-size:8pt;fill:#000000;">62300000</text><line x1="1023.3023199948489" y1="12" x2="1023.3023199948489" y2="17" style="stroke:#000000;"/><line x1="1049.553329172796" y1="15" x2="1049.553329172796" y2="17" style="stroke:#000000;"/><line x1="0" y1="43" x2="1060" y2="43" style="stroke:#ccc;stroke-width:0.5;"/><rect x="0" y="43" width="1060" height="60" style="fill:white;"/><line x1="0" y1="49" x2="281.72845559864686" y2="49" style="stroke:#002eb8;stroke-width:1;"/><line x1="3.4128912267146916" y1="46" x2="6.412891226714692" y2="49.5" style="stroke:#002eb8;"/><line x1="6.412891226714692" y1="49.5" x2="3.4128912267146916" y2="53" style="stroke:#002eb8;"/><line x1="11.412891226714692" y1="46" x2="14.412891226714692" y2="49.5" style="stroke:#002eb8;"/><line x1="14.412891226714692" y1="49.5" x2="11.412891226714692" y2="53" style="stroke:#002eb8;"/><line x1="19.41289122671469" y1="46" x2="22.41289122671469" y2="49.5" style="stroke:#002eb8;"/><line x1="22.41289122671469" y1="49.5" x2="19.41289122671469" y2="53" style="stroke:#002eb8;"/><line x1="27.41289122671469" y1="46" x2="30.41289122671469" y2="49.5" style="stroke:#002eb8;"/><line x1="30.41289122671469" y1="49.5" x2="27.41289122671469" y2="53" style="stroke:#002eb8;"/><line x1="35.41289122671469" y1="46" x2="38.41289122671469" y2="49.5" style="stroke:#002eb8;"/><line x1="38.41289122671469" y1="49.5" x2="35.41289122671469" y2="53" style="stroke:#002eb8;"/><line x1="43.41289122671469" y1="46" x2="46.41289122671469" y2="49.5" style="stroke:#002eb8;"/><line x1="46.41289122671469" y1="49.5" x2="43.41289122671469" y2="53" style="stroke:#002eb8;"/><line x1="51.41289122671469" y1="46" x2="54.41289122671469" y2="49.5" style="stroke:#002eb8;"/><line x1="54.41289122671469" y1="49.5" x2="51.41289122671469" y2="53" style="stroke:#002eb8;"/><line x1="59.41289122671469" y1="46" x2="62.41289122671469" y2="49.5" style="stroke:#002eb8;"/><line x1="62.41289122671469" y1="49.5" x2="59.41289122671469" y2="53" style="stroke:#002eb8;"/><line x1="67.41289122671469" y1="46" x2="70.41289122671469" y2="49.5" style="stroke:#002eb8;"/><line x1="70.41289122671469" y1="49.5" x2="67.41289122671469" y2="53" style="stroke:#002eb8;"/><line x1="75.41289122671469" y1="46" x2="78.41289122671469" y2="49.5" style="stroke:#002eb8;"/><line x1="78.41289122671469" y1="49.5" x2="75.41289122671469" y2="53" style="stroke:#002eb8;"/><line x1="83.41289122671469" y1="46" x2="86.41289122671469" y2="49.5" style="stroke:#002eb8;"/><line x1="86.41289122671469" y1="49.5" x2="83.41289122671469" y2="53" style="stroke:#002eb8;"/><line x1="91.41289122671469" y1="46" x2="94.41289122671469" y2="49.5" style="stroke:#002eb8;"/><line x1="94.41289122671469" y1="49.5" x2="91.41289122671469" y2="53" style="stroke:#002eb8;"/><line x1="99.41289122671469" y1="46" x2="102.41289122671469" y2="49.5" style="stroke:#002eb8;"/><line x1="102.41289122671469" y1="49.5" x2="99.41289122671469" y2="53" style="stroke:#002eb8;"/><line x1="107.41289122671469" y1="46" x2="110.41289122671469" y2="49.5" style="stroke:#002eb8;"/><line x1="110.41289122671469" y1="49.5" x2="107.41289122671469" y2="53" style="stroke:#002eb8;"/><line x1="115.41289122671469" y1="46" x2="118.41289122671469" y2="49.5" style="stroke:#002eb8;"/><line x1="118.41289122671469" y1="49.5" x2="115.41289122671469" y2="53" style="stroke:#002eb8;"/><line x1="123.41289122671469" y1="46" x2="126.41289122671469" y2="49.5" style="stroke:#002eb8;"/><line x1="126.41289122671469" y1="49.5" x2="123.41289122671469" y2="53" style="stroke:#002eb8;"/><line x1="131.4128912267147" y1="46" x2="134.4128912267147" y2="49.5" style="stroke:#002eb8;"/><line x1="134.4128912267147" y1="49.5" x2="131.4128912267147" y2="53" style="stroke:#002eb8;"/><line x1="139.4128912267147" y1="46" x2="142.4128912267147" y2="49.5" style="stroke:#002eb8;"/><line x1="142.4128912267147" y1="49.5" x2="139.4128912267147" y2="53" style="stroke:#002eb8;"/><line x1="147.4128912267147" y1="46" x2="150.4128912267147" y2="49.5" style="stroke:#002eb8;"/><line x1="150.4128912267147" y1="49.5" x2="147.4128912267147" y2="53" style="stroke:#002eb8;"/><line x1="155.4128912267147" y1="46" x2="158.4128912267147" y2="49.5" style="stroke:#002eb8;"/><line x1="158.4128912267147" y1="49.5" x2="155.4128912267147" y2="53" style="stroke:#002eb8;"/><line x1="163.4128912267147" y1="46" x2="166.4128912267147" y2="49.5" style="stroke:#002eb8;"/><line x1="166.4128912267147" y1="49.5" x2="163.4128912267147" y2="53" style="stroke:#002eb8;"/><line x1="171.4128912267147" y1="46" x2="174.4128912267147" y2="49.5" style="stroke:#002eb8;"/><line x1="174.4128912267147" y1="49.5" x2="171.4128912267147" y2="53" style="stroke:#002eb8;"/><line x1="179.4128912267147" y1="46" x2="182.4128912267147" y2="49.5" style="stroke:#002eb8;"/><line x1="182.4128912267147" y1="49.5" x2="179.4128912267147" y2="53" style="stroke:#002eb8;"/><line x1="187.4128912267147" y1="46" x2="190.4128912267147" y2="49.5" style="stroke:#002eb8;"/><line x1="190.4128912267147" y1="49.5" x2="187.4128912267147" y2="53" style="stroke:#002eb8;"/><line x1="195.4128912267147" y1="46" x2="198.4128912267147" y2="49.5" style="stroke:#002eb8;"/><line x1="198.4128912267147" y1="49.5" x2="195.4128912267147" y2="53" style="stroke:#002eb8;"/><line x1="203.4128912267147" y1="46" x2="206.4128912267147" y2="49.5" style="stroke:#002eb8;"/><line x1="206.4128912267147" y1="49.5" x2="203.4128912267147" y2="53" style="stroke:#002eb8;"/><line x1="211.4128912267147" y1="46" x2="214.4128912267147" y2="49.5" style="stroke:#002eb8;"/><line x1="214.4128912267147" y1="49.5" x2="211.4128912267147" y2="53" style="stroke:#002eb8;"/><line x1="219.4128912267147" y1="46" x2="222.4128912267147" y2="49.5" style="stroke:#002eb8;"/><line x1="222.4128912267147" y1="49.5" x2="219.4128912267147" y2="53" style="stroke:#002eb8;"/><line x1="227.4128912267147" y1="46" x2="230.4128912267147" y2="49.5" style="stroke:#002eb8;"/><line x1="230.4128912267147" y1="49.5" x2="227.4128912267147" y2="53" style="stroke:#002eb8;"/><line x1="235.4128912267147" y1="46" x2="238.4128912267147" y2="49.5" style="stroke:#002eb8;"/><line x1="238.4128912267147" y1="49.5" x2="235.4128912267147" y2="53" style="stroke:#002eb8;"/><line x1="243.4128912267147" y1="46" x2="246.4128912267147" y2="49.5" style="stroke:#002eb8;"/><line x1="246.4128912267147" y1="49.5" x2="243.4128912267147" y2="53" style="stroke:#002eb8;"/><line x1="251.4128912267147" y1="46" x2="254.4128912267147" y2="49.5" style="stroke:#002eb8;"/><line x1="254.4128912267147" y1="49.5" x2="251.4128912267147" y2="53" style="stroke:#002eb8;"/><line x1="259.4128912267147" y1="46" x2="262.4128912267147" y2="49.5" style="stroke:#002eb8;"/><line x1="262.4128912267147" y1="49.5" x2="259.4128912267147" y2="53" style="stroke:#002eb8;"/><line x1="267.4128912267147" y1="46" x2="270.4128912267147" y2="49.5" style="stroke:#002eb8;"/><line x1="270.4128912267147" y1="49.5" x2="267.4128912267147" y2="53" style="stroke:#002eb8;"/><line x1="275.4128912267147" y1="46" x2="278.4128912267147" y2="49.5" style="stroke:#002eb8;"/><line x1="278.4128912267147" y1="49.5" x2="275.4128912267147" y2="53" style="stroke:#002eb8;"/><rect x="278.71221464410064" y="46" width="3.0162409545462197" height="7" style="fill:#002EB8;"/><rect x="5.334205064958951" y="44" width="1" height="11" style="fill:#002EB8;"/><rect x="14.448555451542234" y="44" width="1" height="11" style="fill:#002EB8;"/><rect x="18.853474791601684" y="44" width="1" height="11" style="fill:#002EB8;"/><rect x="25.11171537962423" y="44" width="1" height="11" style="fill:#002EB8;"/><rect x="35.48086400491343" y="44" width="1" height="11" style="fill:#002EB8;"/><rect x="36.34714730778569" y="44" width="1" height="11" style="fill:#002EB8;"/><rect x="109.83947260236664" y="44" width="1" height="11" style="fill:#002EB8;"/><rect x="224.22299489343573" y="44" width="1" height="11" style="fill:#002EB8;"/><rect x="227.7196293159384" y="44" width="1" height="11" style="fill:#002EB8;"/><rect x="273.22837882682757" y="44" width="1" height="11" style="fill:#002EB8;"/><rect x="278.3263248091848" y="44" width="1" height="11" style="fill:#002EB8;"/><text font-family="arial" x="282.72845559864686" y="54" style="font-size:8pt;fill:#002eb8;">PRKCH</text><line x1="333.0728044497937" y1="61" x2="554.0380491042463" y2="61" style="stroke:#002eb8;stroke-width:1;"/><line x1="338.0554267770199" y1="58" x2="341.0554267770199" y2="61.5" style="stroke:#002eb8;"/><line x1="341.0554267770199" y1="61.5" x2="338.0554267770199" y2="65" style="stroke:#002eb8;"/><line x1="346.0554267770199" y1="58" x2="349.0554267770199" y2="61.5" style="stroke:#002eb8;"/><line x1="349.0554267770199" y1="61.5" x2="346.0554267770199" y2="65" style="stroke:#002eb8;"/><line x1="354.0554267770199" y1="58" x2="357.0554267770199" y2="61.5" style="stroke:#002eb8;"/><line x1="357.0554267770199" y1="61.5" x2="354.0554267770199" y2="65" style="stroke:#002eb8;"/><line x1="362.0554267770199" y1="58" x2="365.0554267770199" y2="61.5" style="stroke:#002eb8;"/><line x1="365.0554267770199" y1="61.5" x2="362.0554267770199" y2="65" style="stroke:#002eb8;"/><line x1="370.0554267770199" y1="58" x2="373.0554267770199" y2="61.5" style="stroke:#002eb8;"/><line x1="373.0554267770199" y1="61.5" x2="370.0554267770199" y2="65" style="stroke:#002eb8;"/><line x1="378.0554267770199" y1="58" x2="381.0554267770199" y2="61.5" style="stroke:#002eb8;"/><line x1="381.0554267770199" y1="61.5" x2="378.0554267770199" y2="65" style="stroke:#002eb8;"/><line x1="386.0554267770199" y1="58" x2="389.0554267770199" y2="61.5" style="stroke:#002eb8;"/><line x1="389.0554267770199" y1="61.5" x2="386.0554267770199" y2="65" style="stroke:#002eb8;"/><line x1="394.0554267770199" y1="58" x2="397.0554267770199" y2="61.5" style="stroke:#002eb8;"/><line x1="397.0554267770199" y1="61.5" x2="394.0554267770199" y2="65" style="stroke:#002eb8;"/><line x1="402.0554267770199" y1="58" x2="405.0554267770199" y2="61.5" style="stroke:#002eb8;"/><line x1="405.0554267770199" y1="61.5" x2="402.0554267770199" y2="65" style="stroke:#002eb8;"/><line x1="410.0554267770199" y1="58" x2="413.0554267770199" y2="61.5" style="stroke:#002eb8;"/><line x1="413.0554267770199" y1="61.5" x2="410.0554267770199" y2="65" style="stroke:#002eb8;"/><line x1="418.0554267770199" y1="58" x2="421.0554267770199" y2="61.5" style="stroke:#002eb8;"/><line x1="421.0554267770199" y1="61.5" x2="418.0554267770199" y2="65" style="stroke:#002eb8;"/><line x1="426.0554267770199" y1="58" x2="429.0554267770199" y2="61.5" style="stroke:#002eb8;"/><line x1="429.0554267770199" y1="61.5" x2="426.0554267770199" y2="65" style="stroke:#002eb8;"/><line x1="434.0554267770199" y1="58" x2="437.0554267770199" y2="61.5" style="stroke:#002eb8;"/><line x1="437.0554267770199" y1="61.5" x2="434.0554267770199" y2="65" style="stroke:#002eb8;"/><line x1="442.0554267770199" y1="58" x2="445.0554267770199" y2="61.5" style="stroke:#002eb8;"/><line x1="445.0554267770199" y1="61.5" x2="442.0554267770199" y2="65" style="stroke:#002eb8;"/><line x1="450.0554267770199" y1="58" x2="453.0554267770199" y2="61.5" style="stroke:#002eb8;"/><line x1="453.0554267770199" y1="61.5" x2="450.0554267770199" y2="65" style="stroke:#002eb8;"/><line x1="458.0554267770199" y1="58" x2="461.0554267770199" y2="61.5" style="stroke:#002eb8;"/><line x1="461.0554267770199" y1="61.5" x2="458.0554267770199" y2="65" style="stroke:#002eb8;"/><line x1="466.0554267770199" y1="58" x2="469.0554267770199" y2="61.5" style="stroke:#002eb8;"/><line x1="469.0554267770199" y1="61.5" x2="466.0554267770199" y2="65" style="stroke:#002eb8;"/><line x1="474.0554267770199" y1="58" x2="477.0554267770199" y2="61.5" style="stroke:#002eb8;"/><line x1="477.0554267770199" y1="61.5" x2="474.0554267770199" y2="65" style="stroke:#002eb8;"/><line x1="482.0554267770199" y1="58" x2="485.0554267770199" y2="61.5" style="stroke:#002eb8;"/><line x1="485.0554267770199" y1="61.5" x2="482.0554267770199" y2="65" style="stroke:#002eb8;"/><line x1="490.0554267770199" y1="58" x2="493.0554267770199" y2="61.5" style="stroke:#002eb8;"/><line x1="493.0554267770199" y1="61.5" x2="490.0554267770199" y2="65" style="stroke:#002eb8;"/><line x1="498.0554267770199" y1="58" x2="501.0554267770199" y2="61.5" style="stroke:#002eb8;"/><line x1="501.0554267770199" y1="61.5" x2="498.0554267770199" y2="65" style="stroke:#002eb8;"/><line x1="506.0554267770199" y1="58" x2="509.0554267770199" y2="61.5" style="stroke:#002eb8;"/><line x1="509.0554267770199" y1="61.5" x2="506.0554267770199" y2="65" style="stroke:#002eb8;"/><line x1="514.0554267770199" y1="58" x2="517.0554267770199" y2="61.5" style="stroke:#002eb8;"/><line x1="517.0554267770199" y1="61.5" x2="514.0554267770199" y2="65" style="stroke:#002eb8;"/><line x1="522.0554267770199" y1="58" x2="525.0554267770199" y2="61.5" style="stroke:#002eb8;"/><line x1="525.0554267770199" y1="61.5" x2="522.0554267770199" y2="65" style="stroke:#002eb8;"/><line x1="530.0554267770199" y1="58" x2="533.0554267770199" y2="61.5" style="stroke:#002eb8;"/><line x1="533.0554267770199" y1="61.5" x2="530.0554267770199" y2="65" style="stroke:#002eb8;"/><line x1="538.0554267770199" y1="58" x2="541.0554267770199" y2="61.5" style="stroke:#002eb8;"/><line x1="541.0554267770199" y1="61.5" x2="538.0554267770199" y2="65" style="stroke:#002eb8;"/><line x1="546.0554267770199" y1="58" x2="549.0554267770199" y2="61.5" style="stroke:#002eb8;"/><line x1="549.0554267770199" y1="61.5" x2="546.0554267770199" y2="65" style="stroke:#002eb8;"/><rect x="333.0728044497937" y="58" width="1" height="7" style="fill:#002EB8;"/><rect x="544.1886704606804" y="58" width="1" height="7" style="fill:#002EB8;"/><rect x="551.1740640029323" y="58" width="2.8639851013140287" height="7" style="fill:#002EB8;"/><text font-family="arial" x="284.6598405826062" y="66" style="font-size:8pt;fill:#002eb8;">FLJ22447</text><line x1="623.1490809670279" y1="49" x2="661.9559478347871" y2="49" style="stroke:#002eb8;stroke-width:1;"/><line x1="632.0525144009075" y1="46" x2="629.0525144009075" y2="49.5" style="stroke:#002eb8;"/><line x1="629.0525144009075" y1="49.5" x2="632.0525144009075" y2="53" style="stroke:#002eb8;"/><line x1="640.0525144009075" y1="46" x2="637.0525144009075" y2="49.5" style="stroke:#002eb8;"/><line x1="637.0525144009075" y1="49.5" x2="640.0525144009075" y2="53" style="stroke:#002eb8;"/><line x1="648.0525144009075" y1="46" x2="645.0525144009075" y2="49.5" style="stroke:#002eb8;"/><line x1="645.0525144009075" y1="49.5" x2="648.0525144009075" y2="53" style="stroke:#002eb8;"/><line x1="656.0525144009075" y1="46" x2="653.0525144009075" y2="49.5" style="stroke:#002eb8;"/><line x1="653.0525144009075" y1="49.5" x2="656.0525144009075" y2="53" style="stroke:#002eb8;"/><rect x="623.1490809670279" y="46" width="1.4044289910200405" height="7" style="fill:#002EB8;"/><rect x="661.6488110274051" y="46" width="1" height="7" style="fill:#002EB8;"/><text font-family="arial" x="568.2402064553091" y="54" style="font-size:8pt;fill:#002eb8;">HIF1A-AS1</text><line x1="660.8455301465599" y1="61" x2="799.6057395602709" y2="61" style="stroke:#002eb8;stroke-width:1;"/><line x1="664.7256348534154" y1="58" x2="667.7256348534154" y2="61.5" style="stroke:#002eb8;"/><line x1="667.7256348534154" y1="61.5" x2="664.7256348534154" y2="65" style="stroke:#002eb8;"/><line x1="672.7256348534154" y1="58" x2="675.7256348534154" y2="61.5" style="stroke:#002eb8;"/><line x1="675.7256348534154" y1="61.5" x2="672.7256348534154" y2="65" style="stroke:#002eb8;"/><line x1="680.7256348534154" y1="58" x2="683.7256348534154" y2="61.5" style="stroke:#002eb8;"/><line x1="683.7256348534154" y1="61.5" x2="680.7256348534154" y2="65" style="stroke:#002eb8;"/><line x1="688.7256348534154" y1="58" x2="691.7256348534154" y2="61.5" style="stroke:#002eb8;"/><line x1="691.7256348534154" y1="61.5" x2="688.7256348534154" y2="65" style="stroke:#002eb8;"/><line x1="696.7256348534154" y1="58" x2="699.7256348534154" y2="61.5" style="stroke:#002eb8;"/><line x1="699.7256348534154" y1="61.5" x2="696.7256348534154" y2="65" style="stroke:#002eb8;"/><line x1="704.7256348534154" y1="58" x2="707.7256348534154" y2="61.5" style="stroke:#002eb8;"/><line x1="707.7256348534154" y1="61.5" x2="704.7256348534154" y2="65" style="stroke:#002eb8;"/><line x1="712.7256348534154" y1="58" x2="715.7256348534154" y2="61.5" style="stroke:#002eb8;"/><line x1="715.7256348534154" y1="61.5" x2="712.7256348534154" y2="65" style="stroke:#002eb8;"/><line x1="720.7256348534154" y1="58" x2="723.7256348534154" y2="61.5" style="stroke:#002eb8;"/><line x1="723.7256348534154" y1="61.5" x2="720.7256348534154" y2="65" style="stroke:#002eb8;"/><line x1="728.7256348534154" y1="58" x2="731.7256348534154" y2="61.5" style="stroke:#002eb8;"/><line x1="731.7256348534154" y1="61.5" x2="728.7256348534154" y2="65" style="stroke:#002eb8;"/><line x1="736.7256348534154" y1="58" x2="739.7256348534154" y2="61.5" style="stroke:#002eb8;"/><line x1="739.7256348534154" y1="61.5" x2="736.7256348534154" y2="65" style="stroke:#002eb8;"/><line x1="744.7256348534154" y1="58" x2="747.7256348534154" y2="61.5" style="stroke:#002eb8;"/><line x1="747.7256348534154" y1="61.5" x2="744.7256348534154" y2="65" style="stroke:#002eb8;"/><line x1="752.7256348534154" y1="58" x2="755.7256348534154" y2="61.5" style="stroke:#002eb8;"/><line x1="755.7256348534154" y1="61.5" x2="752.7256348534154" y2="65" style="stroke:#002eb8;"/><line x1="760.7256348534154" y1="58" x2="763.7256348534154" y2="61.5" style="stroke:#002eb8;"/><line x1="763.7256348534154" y1="61.5" x2="760.7256348534154" y2="65" style="stroke:#002eb8;"/><line x1="768.7256348534154" y1="58" x2="771.7256348534154" y2="61.5" style="stroke:#002eb8;"/><line x1="771.7256348534154" y1="61.5" x2="768.7256348534154" y2="65" style="stroke:#002eb8;"/><line x1="776.7256348534154" y1="58" x2="779.7256348534154" y2="61.5" style="stroke:#002eb8;"/><line x1="779.7256348534154" y1="61.5" x2="776.7256348534154" y2="65" style="stroke:#002eb8;"/><line x1="784.7256348534154" y1="58" x2="787.7256348534154" y2="61.5" style="stroke:#002eb8;"/><line x1="787.7256348534154" y1="61.5" x2="784.7256348534154" y2="65" style="stroke:#002eb8;"/><line x1="792.7256348534154" y1="58" x2="795.7256348534154" y2="61.5" style="stroke:#002eb8;"/><line x1="795.7256348534154" y1="61.5" x2="792.7256348534154" y2="65" style="stroke:#002eb8;"/><rect x="660.8455301465599" y="58" width="1.0605407707892027" height="7" style="fill:#002EB8;"/><rect x="796.5238710827798" y="58" width="3.0818684774910707" height="7" style="fill:#002EB8;"/><rect x="661.9060709173491" y="56" width="1" height="11" style="fill:#002EB8;"/><rect x="726.4231761739898" y="56" width="1" height="11" style="fill:#002EB8;"/><rect x="729.3816649083444" y="56" width="1" height="11" style="fill:#002EB8;"/><rect x="729.9854381194373" y="56" width="1" height="11" style="fill:#002EB8;"/><rect x="743.0243143781236" y="56" width="1" height="11" style="fill:#002EB8;"/><rect x="744.9852647637163" y="56" width="1" height="11" style="fill:#002EB8;"/><rect x="758.0188908205669" y="56" width="1" height="11" style="fill:#002EB8;"/><rect x="762.534064399174" y="56" width="1" height="11" style="fill:#002EB8;"/><rect x="769.7557170240273" y="56" width="1" height="11" style="fill:#002EB8;"/><rect x="772.9005879235451" y="56" width="1" height="11" style="fill:#002EB8;"/><rect x="779.2480819427728" y="56" width="1" height="11" style="fill:#002EB8;"/><rect x="779.9043571722216" y="56" width="1.1392937983227966" height="11" style="fill:#002EB8;"/><rect x="790.2735057975106" y="56" width="1" height="11" style="fill:#002EB8;"/><rect x="792.8618553024562" y="56" width="1" height="11" style="fill:#002EB8;"/><rect x="796.124855743275" y="56" width="1" height="11" style="fill:#002EB8;"/><text font-family="arial" x="629.6353250684349" y="66" style="font-size:8pt;fill:#002eb8;">HIF1A</text><line x1="660.8455301465599" y1="73" x2="799.6057395602709" y2="73" style="stroke:#002eb8;stroke-width:1;"/><line x1="664.7256348534154" y1="70" x2="667.7256348534154" y2="73.5" style="stroke:#002eb8;"/><line x1="667.7256348534154" y1="73.5" x2="664.7256348534154" y2="77" style="stroke:#002eb8;"/><line x1="672.7256348534154" y1="70" x2="675.7256348534154" y2="73.5" style="stroke:#002eb8;"/><line x1="675.7256348534154" y1="73.5" x2="672.7256348534154" y2="77" style="stroke:#002eb8;"/><line x1="680.7256348534154" y1="70" x2="683.7256348534154" y2="73.5" style="stroke:#002eb8;"/><line x1="683.7256348534154" y1="73.5" x2="680.7256348534154" y2="77" style="stroke:#002eb8;"/><line x1="688.7256348534154" y1="70" x2="691.7256348534154" y2="73.5" style="stroke:#002eb8;"/><line x1="691.7256348534154" y1="73.5" x2="688.7256348534154" y2="77" style="stroke:#002eb8;"/><line x1="696.7256348534154" y1="70" x2="699.7256348534154" y2="73.5" style="stroke:#002eb8;"/><line x1="699.7256348534154" y1="73.5" x2="696.7256348534154" y2="77" style="stroke:#002eb8;"/><line x1="704.7256348534154" y1="70" x2="707.7256348534154" y2="73.5" style="stroke:#002eb8;"/><line x1="707.7256348534154" y1="73.5" x2="704.7256348534154" y2="77" style="stroke:#002eb8;"/><line x1="712.7256348534154" y1="70" x2="715.7256348534154" y2="73.5" style="stroke:#002eb8;"/><line x1="715.7256348534154" y1="73.5" x2="712.7256348534154" y2="77" style="stroke:#002eb8;"/><line x1="720.7256348534154" y1="70" x2="723.7256348534154" y2="73.5" style="stroke:#002eb8;"/><line x1="723.7256348534154" y1="73.5" x2="720.7256348534154" y2="77" style="stroke:#002eb8;"/><line x1="728.7256348534154" y1="70" x2="731.7256348534154" y2="73.5" style="stroke:#002eb8;"/><line x1="731.7256348534154" y1="73.5" x2="728.7256348534154" y2="77" style="stroke:#002eb8;"/><line x1="736.7256348534154" y1="70" x2="739.7256348534154" y2="73.5" style="stroke:#002eb8;"/><line x1="739.7256348534154" y1="73.5" x2="736.7256348534154" y2="77" style="stroke:#002eb8;"/><line x1="744.7256348534154" y1="70" x2="747.7256348534154" y2="73.5" style="stroke:#002eb8;"/><line x1="747.7256348534154" y1="73.5" x2="744.7256348534154" y2="77" style="stroke:#002eb8;"/><line x1="752.7256348534154" y1="70" x2="755.7256348534154" y2="73.5" style="stroke:#002eb8;"/><line x1="755.7256348534154" y1="73.5" x2="752.7256348534154" y2="77" style="stroke:#002eb8;"/><line x1="760.7256348534154" y1="70" x2="763.7256348534154" y2="73.5" style="stroke:#002eb8;"/><line x1="763.7256348534154" y1="73.5" x2="760.7256348534154" y2="77" style="stroke:#002eb8;"/><line x1="768.7256348534154" y1="70" x2="771.7256348534154" y2="73.5" style="stroke:#002eb8;"/><line x1="771.7256348534154" y1="73.5" x2="768.7256348534154" y2="77" style="stroke:#002eb8;"/><line x1="776.7256348534154" y1="70" x2="779.7256348534154" y2="73.5" style="stroke:#002eb8;"/><line x1="779.7256348534154" y1="73.5" x2="776.7256348534154" y2="77" style="stroke:#002eb8;"/><line x1="784.7256348534154" y1="70" x2="787.7256348534154" y2="73.5" style="stroke:#002eb8;"/><line x1="787.7256348534154" y1="73.5" x2="784.7256348534154" y2="77" style="stroke:#002eb8;"/><line x1="792.7256348534154" y1="70" x2="795.7256348534154" y2="73.5" style="stroke:#002eb8;"/><line x1="795.7256348534154" y1="73.5" x2="792.7256348534154" y2="77" style="stroke:#002eb8;"/><rect x="660.8455301465599" y="70" width="1.0605407707892027" height="7" style="fill:#002EB8;"/><rect x="796.1406063487818" y="70" width="3.4651332114890465" height="7" style="fill:#002EB8;"/><rect x="661.9060709173491" y="68" width="1" height="11" style="fill:#002EB8;"/><rect x="726.4231761739898" y="68" width="1" height="11" style="fill:#002EB8;"/><rect x="729.3816649083444" y="68" width="1" height="11" style="fill:#002EB8;"/><rect x="729.9854381194373" y="68" width="1" height="11" style="fill:#002EB8;"/><rect x="743.0243143781236" y="68" width="1" height="11" style="fill:#002EB8;"/><rect x="744.9852647637163" y="68" width="1" height="11" style="fill:#002EB8;"/><rect x="758.0188908205669" y="68" width="1" height="11" style="fill:#002EB8;"/><rect x="762.534064399174" y="68" width="1" height="11" style="fill:#002EB8;"/><rect x="769.7557170240273" y="68" width="1" height="11" style="fill:#002EB8;"/><rect x="772.9005879235451" y="68" width="1" height="11" style="fill:#002EB8;"/><rect x="779.2480819427728" y="68" width="1" height="11" style="fill:#002EB8;"/><rect x="779.9043571722216" y="68" width="1.1392937983227966" height="11" style="fill:#002EB8;"/><rect x="790.2735057975106" y="68" width="1" height="11" style="fill:#002EB8;"/><rect x="796.124855743275" y="68" width="1" height="11" style="fill:#002EB8;"/><text font-family="arial" x="629.6353250684349" y="78" style="font-size:8pt;fill:#002eb8;">HIF1A</text><line x1="666.6758792849821" y1="85" x2="799.6057395602709" y2="85" style="stroke:#002eb8;stroke-width:1;"/><line x1="671.6408094226265" y1="82" x2="674.6408094226265" y2="85.5" style="stroke:#002eb8;"/><line x1="674.6408094226265" y1="85.5" x2="671.6408094226265" y2="89" style="stroke:#002eb8;"/><line x1="679.6408094226265" y1="82" x2="682.6408094226265" y2="85.5" style="stroke:#002eb8;"/><line x1="682.6408094226265" y1="85.5" x2="679.6408094226265" y2="89" style="stroke:#002eb8;"/><line x1="687.6408094226265" y1="82" x2="690.6408094226265" y2="85.5" style="stroke:#002eb8;"/><line x1="690.6408094226265" y1="85.5" x2="687.6408094226265" y2="89" style="stroke:#002eb8;"/><line x1="695.6408094226265" y1="82" x2="698.6408094226265" y2="85.5" style="stroke:#002eb8;"/><line x1="698.6408094226265" y1="85.5" x2="695.6408094226265" y2="89" style="stroke:#002eb8;"/><line x1="703.6408094226265" y1="82" x2="706.6408094226265" y2="85.5" style="stroke:#002eb8;"/><line x1="706.6408094226265" y1="85.5" x2="703.6408094226265" y2="89" style="stroke:#002eb8;"/><line x1="711.6408094226265" y1="82" x2="714.6408094226265" y2="85.5" style="stroke:#002eb8;"/><line x1="714.6408094226265" y1="85.5" x2="711.6408094226265" y2="89" style="stroke:#002eb8;"/><line x1="719.6408094226265" y1="82" x2="722.6408094226265" y2="85.5" style="stroke:#002eb8;"/><line x1="722.6408094226265" y1="85.5" x2="719.6408094226265" y2="89" style="stroke:#002eb8;"/><line x1="727.6408094226265" y1="82" x2="730.6408094226265" y2="85.5" style="stroke:#002eb8;"/><line x1="730.6408094226265" y1="85.5" x2="727.6408094226265" y2="89" style="stroke:#002eb8;"/><line x1="735.6408094226265" y1="82" x2="738.6408094226265" y2="85.5" style="stroke:#002eb8;"/><line x1="738.6408094226265" y1="85.5" x2="735.6408094226265" y2="89" style="stroke:#002eb8;"/><line x1="743.6408094226265" y1="82" x2="746.6408094226265" y2="85.5" style="stroke:#002eb8;"/><line x1="746.6408094226265" y1="85.5" x2="743.6408094226265" y2="89" style="stroke:#002eb8;"/><line x1="751.6408094226265" y1="82" x2="754.6408094226265" y2="85.5" style="stroke:#002eb8;"/><line x1="754.6408094226265" y1="85.5" x2="751.6408094226265" y2="89" style="stroke:#002eb8;"/><line x1="759.6408094226265" y1="82" x2="762.6408094226265" y2="85.5" style="stroke:#002eb8;"/><line x1="762.6408094226265" y1="85.5" x2="759.6408094226265" y2="89" style="stroke:#002eb8;"/><line x1="767.6408094226265" y1="82" x2="770.6408094226265" y2="85.5" style="stroke:#002eb8;"/><line x1="770.6408094226265" y1="85.5" x2="767.6408094226265" y2="89" style="stroke:#002eb8;"/><line x1="775.6408094226265" y1="82" x2="778.6408094226265" y2="85.5" style="stroke:#002eb8;"/><line x1="778.6408094226265" y1="85.5" x2="775.6408094226265" y2="89" style="stroke:#002eb8;"/><line x1="783.6408094226265" y1="82" x2="786.6408094226265" y2="85.5" style="stroke:#002eb8;"/><line x1="786.6408094226265" y1="85.5" x2="783.6408094226265" y2="89" style="stroke:#002eb8;"/><line x1="791.6408094226265" y1="82" x2="794.6408094226265" y2="85.5" style="stroke:#002eb8;"/><line x1="794.6408094226265" y1="85.5" x2="791.6408094226265" y2="89" style="stroke:#002eb8;"/><rect x="666.6758792849821" y="82" width="1" height="7" style="fill:#002EB8;"/><rect x="796.5238710827798" y="82" width="3.0818684774910707" height="7" style="fill:#002EB8;"/><rect x="667.2770273951569" y="80" width="1" height="11" style="fill:#002EB8;"/><rect x="726.4153008712365" y="80" width="1" height="11" style="fill:#002EB8;"/><rect x="729.3816649083444" y="80" width="1" height="11" style="fill:#002EB8;"/><rect x="729.9854381194373" y="80" width="1" height="11" style="fill:#002EB8;"/><rect x="743.0243143781236" y="80" width="1" height="11" style="fill:#002EB8;"/><rect x="744.9852647637163" y="80" width="1" height="11" style="fill:#002EB8;"/><rect x="758.0188908205669" y="80" width="1" height="11" style="fill:#002EB8;"/><rect x="762.534064399174" y="80" width="1" height="11" style="fill:#002EB8;"/><rect x="769.7557170240273" y="80" width="1" height="11" style="fill:#002EB8;"/><rect x="772.9005879235451" y="80" width="1" height="11" style="fill:#002EB8;"/><rect x="779.2480819427728" y="80" width="1" height="11" style="fill:#002EB8;"/><rect x="779.9043571722216" y="80" width="1.1392937983227966" height="11" style="fill:#002EB8;"/><rect x="790.2735057975106" y="80" width="1" height="11" style="fill:#002EB8;"/><rect x="792.8618553024562" y="80" width="1" height="11" style="fill:#002EB8;"/><rect x="796.124855743275" y="80" width="1" height="11" style="fill:#002EB8;"/><text font-family="arial" x="635.4656742068571" y="90" style="font-size:8pt;fill:#002eb8;">HIF1A</text><line x1="796.4004913396436" y1="49" x2="801.7845733220404" y2="49" style="stroke:#002eb8;stroke-width:1;"/><rect x="796.4004913396436" y="46" width="5.384081982396765" height="7" style="fill:#002EB8;"/><text font-family="arial" x="741.4916168279249" y="54" style="font-size:8pt;fill:#002eb8;">HIF1A-AS2</text><line x1="836.6117871984229" y1="97" x2="926.0542256695246" y2="97" style="stroke:#002eb8;stroke-width:1;"/><line x1="839.8330064339739" y1="94" x2="842.8330064339739" y2="97.5" style="stroke:#002eb8;"/><line x1="842.8330064339739" y1="97.5" x2="839.8330064339739" y2="101" style="stroke:#002eb8;"/><line x1="847.8330064339739" y1="94" x2="850.8330064339739" y2="97.5" style="stroke:#002eb8;"/><line x1="850.8330064339739" y1="97.5" x2="847.8330064339739" y2="101" style="stroke:#002eb8;"/><line x1="855.8330064339739" y1="94" x2="858.8330064339739" y2="97.5" style="stroke:#002eb8;"/><line x1="858.8330064339739" y1="97.5" x2="855.8330064339739" y2="101" style="stroke:#002eb8;"/><line x1="863.8330064339739" y1="94" x2="866.8330064339739" y2="97.5" style="stroke:#002eb8;"/><line x1="866.8330064339739" y1="97.5" x2="863.8330064339739" y2="101" style="stroke:#002eb8;"/><line x1="871.8330064339739" y1="94" x2="874.8330064339739" y2="97.5" style="stroke:#002eb8;"/><line x1="874.8330064339739" y1="97.5" x2="871.8330064339739" y2="101" style="stroke:#002eb8;"/><line x1="879.8330064339739" y1="94" x2="882.8330064339739" y2="97.5" style="stroke:#002eb8;"/><line x1="882.8330064339739" y1="97.5" x2="879.8330064339739" y2="101" style="stroke:#002eb8;"/><line x1="887.8330064339739" y1="94" x2="890.8330064339739" y2="97.5" style="stroke:#002eb8;"/><line x1="890.8330064339739" y1="97.5" x2="887.8330064339739" y2="101" style="stroke:#002eb8;"/><line x1="895.8330064339739" y1="94" x2="898.8330064339739" y2="97.5" style="stroke:#002eb8;"/><line x1="898.8330064339739" y1="97.5" x2="895.8330064339739" y2="101" style="stroke:#002eb8;"/><line x1="903.8330064339739" y1="94" x2="906.8330064339739" y2="97.5" style="stroke:#002eb8;"/><line x1="906.8330064339739" y1="97.5" x2="903.8330064339739" y2="101" style="stroke:#002eb8;"/><line x1="911.8330064339739" y1="94" x2="914.8330064339739" y2="97.5" style="stroke:#002eb8;"/><line x1="914.8330064339739" y1="97.5" x2="911.8330064339739" y2="101" style="stroke:#002eb8;"/><line x1="919.8330064339739" y1="94" x2="922.8330064339739" y2="97.5" style="stroke:#002eb8;"/><line x1="922.8330064339739" y1="97.5" x2="919.8330064339739" y2="101" style="stroke:#002eb8;"/><rect x="836.6117871984229" y="94" width="1" height="7" style="fill:#002EB8;"/><rect x="922.2609548433113" y="94" width="3.793270826213302" height="7" style="fill:#002EB8;"/><rect x="836.8847976938737" y="92" width="1" height="11" style="fill:#002EB8;"/><rect x="848.4746182459373" y="92" width="1" height="11" style="fill:#002EB8;"/><rect x="849.3566521543164" y="92" width="1" height="11" style="fill:#002EB8;"/><rect x="853.094795861256" y="92" width="1" height="11" style="fill:#002EB8;"/><rect x="872.6754236070869" y="92" width="1" height="11" style="fill:#002EB8;"/><rect x="877.865248121567" y="92" width="1" height="11" style="fill:#002EB8;"/><rect x="879.9023264337757" y="92" width="1" height="11" style="fill:#002EB8;"/><rect x="888.8250444533599" y="92" width="1" height="11" style="fill:#002EB8;"/><rect x="916.5461101452722" y="92" width="1" height="11" style="fill:#002EB8;"/><rect x="922.1690763111885" y="92" width="1" height="11" style="fill:#002EB8;"/><text font-family="arial" x="792.9562696202979" y="102" style="font-size:8pt;fill:#002eb8;">SNAPC1</text><line x1="0" y1="103" x2="1060" y2="103" style="stroke:#ccc;stroke-width:0.5;"/><rect x="0" y="103" width="1060" height="24" style="fill:white;"/><rect x="59.26690342105144" y="104" width="1.5803107525123323" height="11" style="fill:#336666;"/><rect x="59.26690342105144" y="116" width="1.5803107525123323" height="11" style="fill:#336666;"/><rect x="69.60192573440918" y="104" width="1.5698103488412016" height="11" style="fill:#336666;"/><rect x="69.60192573440918" y="116" width="1.5698103488412016" height="11" style="fill:#336666;"/><rect x="153.44764904877252" y="104" width="2.359965725097254" height="11" style="fill:#336666;"/><rect x="153.44764904877252" y="116" width="2.359965725097254" height="11" style="fill:#336666;"/><rect x="326.0270335864327" y="104" width="1.0421650643645535" height="11" style="fill:#336666;"/><rect x="327.31333303615224" y="116" width="2.504346275576154" height="11" style="fill:#336666;"/><rect x="435.0002228859271" y="104" width="2.1053309360713683" height="11" style="fill:#336666;"/><rect x="616.5338266541851" y="104" width="1.1077925873094046" height="11" style="fill:#336666;"/><rect x="617.8490022140002" y="116" width="1" height="11" style="fill:#336666;"/><rect x="659.3045959078145" y="104" width="3.8562732482403135" height="11" style="fill:#336666;"/><rect x="806.4966294694821" y="104" width="1.8506961470452552" height="11" style="fill:#336666;"/><rect x="806.4966294694821" y="116" width="1.8506961470452552" height="11" style="fill:#336666;"/><rect x="835.1522310881292" y="104" width="2.895486312327648" height="11" style="fill:#336666;"/><rect x="835.1522310881292" y="116" width="2.895486312327648" height="11" style="fill:#336666;"/><rect x="1034.287136510201" y="104" width="1" height="11" style="fill:#336666;"/><rect x="1034.287136510201" y="116" width="1" height="11" style="fill:#336666;"/><line x1="0" y1="127" x2="1060" y2="127" style="stroke:#ccc;stroke-width:0.5;"/><rect x="0" y="127" width="1060" height="209" style="fill:white;"/><path d="M34.464949949726815 127 A 9.73894625805853 9.73894625805853 1 0 0 48.94500661228244 127" style="fill: none; stroke:rgb(184,0,138);stroke-opacity:0.1111111111111111; stroke-width:1;"/><path d="M34.464949949726815 127 A 9.73894625805853 9.73894625805853 1 0 0 48.94500661228244 127" style="fill: none; stroke:rgb(184,0,138);stroke-opacity:0.1111111111111111; stroke-width:1;"/><path d="M34.464949949726815 127 A 17.741139390489785 17.741139390489785 1 0 0 60.26181666889556 127" style="fill: none; stroke:rgb(184,0,138);stroke-opacity:0.16666666666666666; stroke-width:1;"/><path d="M34.464949949726815 127 A 659.9305959113794 659.9305959113794 1 0 0 968.4548556937448 127" style="fill: none; stroke:rgb(184,0,138);stroke-opacity:0.1111111111111111; stroke-width:1;"/><path d="M34.464949949726815 127 A 659.9305959113794 659.9305959113794 1 0 0 968.4548556937448 127" style="fill: none; stroke:rgb(184,0,138);stroke-opacity:0.1111111111111111; stroke-width:1;"/><path d="M34.464949949726815 127 A 706.6462522704365 706.6462522704365 1 0 0 1034.5207704918844 127" style="fill: none; stroke:rgb(184,0,138);stroke-opacity:0.3333333333333333; stroke-width:1;"/><path d="M34.464949949726815 127 A 706.6462522704365 706.6462522704365 1 0 0 1034.5207704918844 127" style="fill: none; stroke:rgb(184,0,138);stroke-opacity:0.3333333333333333; stroke-width:1;"/><path d="M34.464949949726815 127 A 17.741139390489785 17.741139390489785 1 0 0 60.26181666889556 127" style="fill: none; stroke:rgb(184,0,138);stroke-opacity:0.16666666666666666; stroke-width:1;"/><path d="M48.94238151136483 127 A 14.61154124127171 14.61154124127171 1 0 0 70.31332808313164 127" style="fill: none; stroke:rgb(184,0,138);stroke-opacity:0.1111111111111111; stroke-width:1;"/><path d="M48.94238151136483 127 A 14.61154124127171 14.61154124127171 1 0 0 70.31332808313164 127" style="fill: none; stroke:rgb(184,0,138);stroke-opacity:0.1111111111111111; stroke-width:1;"/><path d="M48.94238151136483 127 A 23.97620474234215 23.97620474234215 1 0 0 83.55696221340577 127" style="fill: none; stroke:rgb(184,0,138);stroke-opacity:0.16666666666666666; stroke-width:1;"/><path d="M48.94238151136483 127 A 23.97620474234215 23.97620474234215 1 0 0 83.55696221340577 127" style="fill: none; stroke:rgb(184,0,138);stroke-opacity:0.16666666666666666; stroke-width:1;"/><path d="M48.94238151136483 127 A 196.55887848110112 196.55887848110112 1 0 0 327.6257200453697 127" style="fill: none; stroke:rgb(184,0,138);stroke-opacity:0.1111111111111111; stroke-width:1;"/><path d="M48.94238151136483 127 A 432.7173153341648 432.7173153341648 1 0 0 661.6041843118026 127" style="fill: none; stroke:rgb(184,0,138);stroke-opacity:0.2777777777777778; stroke-width:1;"/><path d="M48.94238151136483 127 A 498.0490688690866 498.0490688690866 1 0 0 753.9972362145054 127" style="fill: none; stroke:rgb(184,0,138);stroke-opacity:0.3888888888888889; stroke-width:1;"/><path d="M48.94238151136483 127 A 498.0490688690866 498.0490688690866 1 0 0 753.9972362145054 127" style="fill: none; stroke:rgb(184,0,138);stroke-opacity:0.3888888888888889; stroke-width:1;"/><path d="M48.94238151136483 127 A 534.9248677020438 534.9248677020438 1 0 0 806.1474910474153 127" style="fill: none; stroke:rgb(184,0,138);stroke-opacity:0.1111111111111111; stroke-width:1;"/><path d="M48.94238151136483 127 A 534.9248677020438 534.9248677020438 1 0 0 806.1474910474153 127" style="fill: none; stroke:rgb(184,0,138);stroke-opacity:0.1111111111111111; stroke-width:1;"/><path d="M48.94238151136483 127 A 696.4091622390382 696.4091622390382 1 0 0 1034.5207704918844 127" style="fill: none; stroke:rgb(184,0,138);stroke-opacity:1; stroke-width:1;"/><path d="M48.94238151136483 127 A 696.4091622390382 696.4091622390382 1 0 0 1034.5207704918844 127" style="fill: none; stroke:rgb(184,0,138);stroke-opacity:1; stroke-width:1;"/><path d="M60.25919156797772 127 A 6.609348108840615 6.609348108840615 1 0 0 70.31332808313164 127" style="fill: none; stroke:rgb(184,0,138);stroke-opacity:0.1111111111111111; stroke-width:1;"/><path d="M60.25919156797772 127 A 6.609348108840615 6.609348108840615 1 0 0 70.31332808313164 127" style="fill: none; stroke:rgb(184,0,138);stroke-opacity:0.1111111111111111; stroke-width:1;"/><path d="M60.25919156797772 127 A 688.4069691066071 688.4069691066071 1 0 0 1034.5207704918844 127" style="fill: none; stroke:rgb(184,0,138);stroke-opacity:0.1111111111111111; stroke-width:1;"/><path d="M60.25919156797772 127 A 688.4069691066071 688.4069691066071 1 0 0 1034.5207704918844 127" style="fill: none; stroke:rgb(184,0,138);stroke-opacity:0.1111111111111111; stroke-width:1;"/><path d="M48.94238151136483 127 A 14.61154124127171 14.61154124127171 1 0 0 70.31332808313164 127" style="fill: none; stroke:rgb(184,0,138);stroke-opacity:0.1111111111111111; stroke-width:1;"/><path d="M70.3107029822138 127 A 681.2994772244268 681.2994772244268 1 0 0 1034.5207704918844 127" style="fill: none; stroke:rgb(184,0,138);stroke-opacity:0.16666666666666666; stroke-width:1;"/><path d="M70.3107029822138 127 A 482.93938385447524 482.93938385447524 1 0 0 753.9972362145054 127" style="fill: none; stroke:rgb(184,0,138);stroke-opacity:0.1111111111111111; stroke-width:1;"/><path d="M70.3107029822138 127 A 482.93938385447524 482.93938385447524 1 0 0 753.9972362145054 127" style="fill: none; stroke:rgb(184,0,138);stroke-opacity:0.1111111111111111; stroke-width:1;"/><path d="M70.3107029822138 127 A 681.2994772244268 681.2994772244268 1 0 0 1034.5207704918844 127" style="fill: none; stroke:rgb(184,0,138);stroke-opacity:0.16666666666666666; stroke-width:1;"/><path d="M48.94238151136483 127 A 14.61154124127171 14.61154124127171 1 0 0 70.31332808313164 127" style="fill: none; stroke:rgb(184,0,138);stroke-opacity:0.1111111111111111; stroke-width:1;"/><path d="M83.55433711248816 127 A 510.45051918636176 510.45051918636176 1 0 0 806.1474910474153 127" style="fill: none; stroke:rgb(184,0,138);stroke-opacity:0.16666666666666666; stroke-width:1;"/><path d="M83.55433711248816 127 A 671.9348137233562 671.9348137233562 1 0 0 1034.5207704918844 127" style="fill: none; stroke:rgb(184,0,138);stroke-opacity:0.1111111111111111; stroke-width:1;"/><path d="M83.55433711248816 127 A 671.9348137233562 671.9348137233562 1 0 0 1034.5207704918844 127" style="fill: none; stroke:rgb(184,0,138);stroke-opacity:0.1111111111111111; stroke-width:1;"/><path d="M83.55433711248816 127 A 510.45051918636176 510.45051918636176 1 0 0 806.1474910474153 127" style="fill: none; stroke:rgb(184,0,138);stroke-opacity:0.16666666666666666; stroke-width:1;"/><path d="M83.55433711248816 127 A 408.2429668184828 408.2429668184828 1 0 0 661.6041843118026 127" style="fill: none; stroke:rgb(184,0,138);stroke-opacity:0.1111111111111111; stroke-width:1;"/><path d="M247.26350564892005 127 A 56.32466675089673 56.32466675089673 1 0 0 327.6257200453697 127" style="fill: none; stroke:rgb(184,0,138);stroke-opacity:0.1111111111111111; stroke-width:1;"/><path d="M317.34319975036783 127 A 242.92927668134783 242.92927668134783 1 0 0 661.6041843118026 127" style="fill: none; stroke:rgb(184,0,138);stroke-opacity:0.1111111111111111; stroke-width:1;"/><path d="M327.62309494445185 127 A 235.660293079724 235.660293079724 1 0 0 661.6041843118026 127" style="fill: none; stroke:rgb(184,0,138);stroke-opacity:0.1111111111111111; stroke-width:1;"/><path d="M48.94238151136483 127 A 196.55887848110112 196.55887848110112 1 0 0 327.6257200453697 127" style="fill: none; stroke:rgb(184,0,138);stroke-opacity:0.1111111111111111; stroke-width:1;"/><path d="M433.4251623352502 127 A 160.8469337641344 160.8469337641344 1 0 0 661.6041843118026 127" style="fill: none; stroke:rgb(184,0,138);stroke-opacity:0.3333333333333333; stroke-width:1;"/><path d="M83.55433711248816 127 A 408.2429668184828 408.2429668184828 1 0 0 661.6041843118026 127" style="fill: none; stroke:rgb(184,0,138);stroke-opacity:0.1111111111111111; stroke-width:1;"/><path d="M317.34319975036783 127 A 242.92927668134783 242.92927668134783 1 0 0 661.6041843118026 127" style="fill: none; stroke:rgb(184,0,138);stroke-opacity:0.1111111111111111; stroke-width:1;"/><path d="M327.62309494445185 127 A 235.660293079724 235.660293079724 1 0 0 661.6041843118026 127" style="fill: none; stroke:rgb(184,0,138);stroke-opacity:0.1111111111111111; stroke-width:1;"/><path d="M661.6015592108847 127 A 64.83360976158212 64.83360976158212 1 0 0 753.9972362145054 127" style="fill: none; stroke:rgb(184,0,138);stroke-opacity:0.1111111111111111; stroke-width:1;"/><path d="M48.94238151136483 127 A 432.7173153341648 432.7173153341648 1 0 0 661.6041843118026 127" style="fill: none; stroke:rgb(184,0,138);stroke-opacity:0.2777777777777778; stroke-width:1;"/><path d="M48.94238151136483 127 A 498.0490688690866 498.0490688690866 1 0 0 753.9972362145054 127" style="fill: none; stroke:rgb(184,0,138);stroke-opacity:0.3888888888888889; stroke-width:1;"/><path d="M48.94238151136483 127 A 498.0490688690866 498.0490688690866 1 0 0 753.9972362145054 127" style="fill: none; stroke:rgb(184,0,138);stroke-opacity:0.3888888888888889; stroke-width:1;"/><path d="M70.3107029822138 127 A 482.93938385447524 482.93938385447524 1 0 0 753.9972362145054 127" style="fill: none; stroke:rgb(184,0,138);stroke-opacity:0.1111111111111111; stroke-width:1;"/><path d="M70.3107029822138 127 A 482.93938385447524 482.93938385447524 1 0 0 753.9972362145054 127" style="fill: none; stroke:rgb(184,0,138);stroke-opacity:0.1111111111111111; stroke-width:1;"/><path d="M48.94238151136483 127 A 534.9248677020438 534.9248677020438 1 0 0 806.1474910474153 127" style="fill: none; stroke:rgb(184,0,138);stroke-opacity:0.1111111111111111; stroke-width:1;"/><path d="M48.94238151136483 127 A 534.9248677020438 534.9248677020438 1 0 0 806.1474910474153 127" style="fill: none; stroke:rgb(184,0,138);stroke-opacity:0.1111111111111111; stroke-width:1;"/><path d="M818.2675819848735 127 A 12.486161715260707 12.486161715260707 1 0 0 836.6327880057654 127" style="fill: none; stroke:rgb(184,0,138);stroke-opacity:0.1111111111111111; stroke-width:1;"/><path d="M818.2675819848735 127 A 12.486161715260707 12.486161715260707 1 0 0 836.6327880057654 127" style="fill: none; stroke:rgb(184,0,138);stroke-opacity:0.1111111111111111; stroke-width:1;"/><path d="M836.6301629048476 127 A 139.42979055791977 139.42979055791977 1 0 0 1034.5207704918844 127" style="fill: none; stroke:rgb(184,0,138);stroke-opacity:0.16666666666666666; stroke-width:1;"/><path d="M836.6301629048476 127 A 139.42979055791977 139.42979055791977 1 0 0 1034.5207704918844 127" style="fill: none; stroke:rgb(184,0,138);stroke-opacity:0.16666666666666666; stroke-width:1;"/><path d="M34.464949949726815 127 A 706.6462522704365 706.6462522704365 1 0 0 1034.5207704918844 127" style="fill: none; stroke:rgb(184,0,138);stroke-opacity:0.3333333333333333; stroke-width:1;"/><path d="M34.464949949726815 127 A 706.6462522704365 706.6462522704365 1 0 0 1034.5207704918844 127" style="fill: none; stroke:rgb(184,0,138);stroke-opacity:0.3333333333333333; stroke-width:1;"/><path d="M48.94238151136483 127 A 696.4091622390382 696.4091622390382 1 0 0 1034.5207704918844 127" style="fill: none; stroke:rgb(184,0,138);stroke-opacity:1; stroke-width:1;"/><path d="M48.94238151136483 127 A 696.4091622390382 696.4091622390382 1 0 0 1034.5207704918844 127" style="fill: none; stroke:rgb(184,0,138);stroke-opacity:1; stroke-width:1;"/><path d="M60.25919156797772 127 A 688.4069691066071 688.4069691066071 1 0 0 1034.5207704918844 127" style="fill: none; stroke:rgb(184,0,138);stroke-opacity:0.1111111111111111; stroke-width:1;"/><path d="M60.25919156797772 127 A 688.4069691066071 688.4069691066071 1 0 0 1034.5207704918844 127" style="fill: none; stroke:rgb(184,0,138);stroke-opacity:0.1111111111111111; stroke-width:1;"/><path d="M70.3107029822138 127 A 681.2994772244268 681.2994772244268 1 0 0 1034.5207704918844 127" style="fill: none; stroke:rgb(184,0,138);stroke-opacity:0.16666666666666666; stroke-width:1;"/><path d="M70.3107029822138 127 A 681.2994772244268 681.2994772244268 1 0 0 1034.5207704918844 127" style="fill: none; stroke:rgb(184,0,138);stroke-opacity:0.16666666666666666; stroke-width:1;"/><path d="M83.55433711248816 127 A 671.9348137233562 671.9348137233562 1 0 0 1034.5207704918844 127" style="fill: none; stroke:rgb(184,0,138);stroke-opacity:0.1111111111111111; stroke-width:1;"/><path d="M83.55433711248816 127 A 671.9348137233562 671.9348137233562 1 0 0 1034.5207704918844 127" style="fill: none; stroke:rgb(184,0,138);stroke-opacity:0.1111111111111111; stroke-width:1;"/><rect x="0" y="20" width="497.7795113349878" height="14" style="fill:rgb(60,60,60);"/><rect x="497.7795113349878" y="20" width="562.2204886650122" height="14" style="fill:rgb(255,255,255);"/><line x1="0" y1="20.5" x2="1060" y2="20.5" style="stroke:#000000;"/><line x1="0" y1="33.5" x2="1060" y2="33.5" style="stroke:#000000;"/><text font-family="arial" x="515.7771530151367" y="43" style="font-size:8pt;fill:#000000;">chr14</text><rect x="1060" y="0" width="0" height="20" style="fill:white;"/><rect x="1060" y="20" width="0" height="450" style="fill:white;"/></svg>