<svg xmlns="http://www.w3.org/2000/svg" version="1.1" width="1060" height="459"><line x1="0" y1="16.5" x2="1060" y2="16.5" style="stroke:#000000;"/><text font-family="arial" x="3.6346678809443347" y="10" style="font-size:8pt;fill:#000000;">149940000</text><line x1="28.661523349694335" y1="12" x2="28.661523349694335" y2="17" style="stroke:#000000;"/><line x1="61.301211979381605" y1="15" x2="61.301211979381605" y2="17" style="stroke:#000000;"/><text font-family="arial" x="68.91404514031888" y="10" style="font-size:8pt;fill:#000000;">149960000</text><line x1="93.94090060906888" y1="12" x2="93.94090060906888" y2="17" style="stroke:#000000;"/><line x1="126.58058923875637" y1="15" x2="126.58058923875637" y2="17" style="stroke:#000000;"/><text font-family="arial" x="134.19342239969365" y="10" style="font-size:8pt;fill:#000000;">149980000</text><line x1="159.22027786844365" y1="12" x2="159.22027786844365" y2="17" style="stroke:#000000;"/><line x1="191.85996649813092" y1="15" x2="191.85996649813092" y2="17" style="stroke:#000000;"/><text font-family="arial" x="199.47279965906841" y="10" style="font-size:8pt;fill:#000000;">150000000</text><line x1="224.49965512781841" y1="12" x2="224.49965512781841" y2="17" style="stroke:#000000;"/><line x1="257.1393437575057" y1="15" x2="257.1393437575057" y2="17" style="stroke:#000000;"/><text font-family="arial" x="264.75217691844296" y="10" style="font-size:8pt;fill:#000000;">150020000</text><line x1="289.77903238719296" y1="12" x2="289.77903238719296" y2="17" style="stroke:#000000;"/><line x1="322.41872101688045" y1="15" x2="322.41872101688045" y2="17" style="stroke:#000000;"/><text font-family="arial" x="330.0315541778177" y="10" style="font-size:8pt;fill:#000000;">150040000</text><line x1="355.0584096465677" y1="12" x2="355.0584096465677" y2="17" style="stroke:#000000;"/><line x1="387.698098276255" y1="15" x2="387.698098276255" y2="17" style="stroke:#000000;"/><text font-family="arial" x="395.31093143719227" y="10" style="font-size:8pt;fill:#000000;">150060000</text><line x1="420.33778690594227" y1="12" x2="420.33778690594227" y2="17" style="stroke:#000000;"/><line x1="452.97747553562976" y1="15" x2="452.97747553562976" y2="17" style="stroke:#000000;"/><text font-family="arial" x="460.59030869656704" y="10" style="font-size:8pt;fill:#000000;">150080000</text><line x1="485.61716416531704" y1="12" x2="485.61716416531704" y2="17" style="stroke:#000000;"/><line x1="518.2568527950043" y1="15" x2="518.2568527950043" y2="17" style="stroke:#000000;"/><text font-family="arial" x="525.8696859559418" y="10" style="font-size:8pt;fill:#000000;">150100000</text><line x1="550.8965414246918" y1="12" x2="550.8965414246918" y2="17" style="stroke:#000000;"/><line x1="583.5362300543791" y1="15" x2="583.5362300543791" y2="17" style="stroke:#000000;"/><text font-family="arial" x="591.1490632153163" y="10" style="font-size:8pt;fill:#000000;">150120000</text><line x1="616.1759186840663" y1="12" x2="616.1759186840663" y2="17" style="stroke:#000000;"/><line x1="648.8156073137538" y1="15" x2="648.8156073137538" y2="17" style="stroke:#000000;"/><text font-family="arial" x="656.4284404746911" y="10" style="font-size:8pt;fill:#000000;">150140000</text><line x1="681.4552959434411" y1="12" x2="681.4552959434411" y2="17" style="stroke:#000000;"/><line x1="714.0949845731284" y1="15" x2="714.0949845731284" y2="17" style="stroke:#000000;"/><text font-family="arial" x="721.7078177340657" y="10" style="font-size:8pt;fill:#000000;">150160000</text><line x1="746.7346732028157" y1="12" x2="746.7346732028157" y2="17" style="stroke:#000000;"/><line x1="779.3743618325032" y1="15" x2="779.3743618325032" y2="17" style="stroke:#000000;"/><text font-family="arial" x="786.9871949934404" y="10" style="font-size:8pt;fill:#000000;">150180000</text><line x1="812.0140504621904" y1="12" x2="812.0140504621904" y2="17" style="stroke:#000000;"/><line x1="844.6537390918777" y1="15" x2="844.6537390918777" y2="17" style="stroke:#000000;"/><text font-family="arial" x="852.2665722528152" y="10" style="font-size:8pt;fill:#000000;">150200000</text><line x1="877.2934277215652" y1="12" x2="877.2934277215652" y2="17" style="stroke:#000000;"/><line x1="909.9331163512525" y1="15" x2="909.9331163512525" y2="17" style="stroke:#000000;"/><text font-family="arial" x="917.5459495121897" y="10" style="font-size:8pt;fill:#000000;">150220000</text><line x1="942.5728049809397" y1="12" x2="942.5728049809397" y2="17" style="stroke:#000000;"/><line x1="975.2124936106272" y1="15" x2="975.2124936106272" y2="17" style="stroke:#000000;"/><text font-family="arial" x="982.8253267715645" y="10" style="font-size:8pt;fill:#000000;">150240000</text><line x1="1007.8521822403145" y1="12" x2="1007.8521822403145" y2="17" style="stroke:#000000;"/><line x1="1040.491870870002" y1="15" x2="1040.491870870002" y2="17" style="stroke:#000000;"/><text font-family="arial" x="1048.104704030939" y="10" style="font-size:8pt;fill:#000000;">150260000</text><line x1="0" y1="43" x2="1060" y2="43" style="stroke:#ccc;stroke-width:0.5;"/><rect x="0" y="43" width="1060" height="72" style="fill:white;"/><line x1="0" y1="49" x2="7.187259436257136" y2="49" style="stroke:#002eb8;stroke-width:1;"/><line x1="0.6625518078076311" y1="46" x2="3.662551807807631" y2="49.5" style="stroke:#002eb8;"/><line x1="3.662551807807631" y1="49.5" x2="0.6625518078076311" y2="53" style="stroke:#002eb8;"/><rect x="0" y="46" width="0.44186132443246606" height="7" style="fill:#002EB8;"/><rect x="5.258253838242808" y="46" width="1.929005598014328" height="7" style="fill:#002EB8;"/><text font-family="arial" x="8.187259436257136" y="54" style="font-size:8pt;fill:#002eb8;">MTMR1</text><line x1="11.211733044297716" y1="61" x2="443.6255919792584" y2="61" style="stroke:#002eb8;stroke-width:1;"/><line x1="16.918662511778166" y1="58" x2="13.918662511778166" y2="61.5" style="stroke:#002eb8;"/><line x1="13.918662511778166" y1="61.5" x2="16.918662511778166" y2="65" style="stroke:#002eb8;"/><line x1="24.918662511778166" y1="58" x2="21.918662511778166" y2="61.5" style="stroke:#002eb8;"/><line x1="21.918662511778166" y1="61.5" x2="24.918662511778166" y2="65" style="stroke:#002eb8;"/><line x1="32.918662511778166" y1="58" x2="29.918662511778166" y2="61.5" style="stroke:#002eb8;"/><line x1="29.918662511778166" y1="61.5" x2="32.918662511778166" y2="65" style="stroke:#002eb8;"/><line x1="40.918662511778166" y1="58" x2="37.918662511778166" y2="61.5" style="stroke:#002eb8;"/><line x1="37.918662511778166" y1="61.5" x2="40.918662511778166" y2="65" style="stroke:#002eb8;"/><line x1="48.918662511778166" y1="58" x2="45.918662511778166" y2="61.5" style="stroke:#002eb8;"/><line x1="45.918662511778166" y1="61.5" x2="48.918662511778166" y2="65" style="stroke:#002eb8;"/><line x1="56.918662511778166" y1="58" x2="53.918662511778166" y2="61.5" style="stroke:#002eb8;"/><line x1="53.918662511778166" y1="61.5" x2="56.918662511778166" y2="65" style="stroke:#002eb8;"/><line x1="64.91866251177817" y1="58" x2="61.918662511778166" y2="61.5" style="stroke:#002eb8;"/><line x1="61.918662511778166" y1="61.5" x2="64.91866251177817" y2="65" style="stroke:#002eb8;"/><line x1="72.91866251177817" y1="58" x2="69.91866251177817" y2="61.5" style="stroke:#002eb8;"/><line x1="69.91866251177817" y1="61.5" x2="72.91866251177817" y2="65" style="stroke:#002eb8;"/><line x1="80.91866251177817" y1="58" x2="77.91866251177817" y2="61.5" style="stroke:#002eb8;"/><line x1="77.91866251177817" y1="61.5" x2="80.91866251177817" y2="65" style="stroke:#002eb8;"/><line x1="88.91866251177817" y1="58" x2="85.91866251177817" y2="61.5" style="stroke:#002eb8;"/><line x1="85.91866251177817" y1="61.5" x2="88.91866251177817" y2="65" style="stroke:#002eb8;"/><line x1="96.91866251177817" y1="58" x2="93.91866251177817" y2="61.5" style="stroke:#002eb8;"/><line x1="93.91866251177817" y1="61.5" x2="96.91866251177817" y2="65" style="stroke:#002eb8;"/><line x1="104.91866251177817" y1="58" x2="101.91866251177817" y2="61.5" style="stroke:#002eb8;"/><line x1="101.91866251177817" y1="61.5" x2="104.91866251177817" y2="65" style="stroke:#002eb8;"/><line x1="112.91866251177817" y1="58" x2="109.91866251177817" y2="61.5" style="stroke:#002eb8;"/><line x1="109.91866251177817" y1="61.5" x2="112.91866251177817" y2="65" style="stroke:#002eb8;"/><line x1="120.91866251177817" y1="58" x2="117.91866251177817" y2="61.5" style="stroke:#002eb8;"/><line x1="117.91866251177817" y1="61.5" x2="120.91866251177817" y2="65" style="stroke:#002eb8;"/><line x1="128.91866251177817" y1="58" x2="125.91866251177817" y2="61.5" style="stroke:#002eb8;"/><line x1="125.91866251177817" y1="61.5" x2="128.91866251177817" y2="65" style="stroke:#002eb8;"/><line x1="136.91866251177817" y1="58" x2="133.91866251177817" y2="61.5" style="stroke:#002eb8;"/><line x1="133.91866251177817" y1="61.5" x2="136.91866251177817" y2="65" style="stroke:#002eb8;"/><line x1="144.91866251177817" y1="58" x2="141.91866251177817" y2="61.5" style="stroke:#002eb8;"/><line x1="141.91866251177817" y1="61.5" x2="144.91866251177817" y2="65" style="stroke:#002eb8;"/><line x1="152.91866251177817" y1="58" x2="149.91866251177817" y2="61.5" style="stroke:#002eb8;"/><line x1="149.91866251177817" y1="61.5" x2="152.91866251177817" y2="65" style="stroke:#002eb8;"/><line x1="160.91866251177817" y1="58" x2="157.91866251177817" y2="61.5" style="stroke:#002eb8;"/><line x1="157.91866251177817" y1="61.5" x2="160.91866251177817" y2="65" style="stroke:#002eb8;"/><line x1="168.91866251177817" y1="58" x2="165.91866251177817" y2="61.5" style="stroke:#002eb8;"/><line x1="165.91866251177817" y1="61.5" x2="168.91866251177817" y2="65" style="stroke:#002eb8;"/><line x1="176.91866251177817" y1="58" x2="173.91866251177817" y2="61.5" style="stroke:#002eb8;"/><line x1="173.91866251177817" y1="61.5" x2="176.91866251177817" y2="65" style="stroke:#002eb8;"/><line x1="184.91866251177817" y1="58" x2="181.91866251177817" y2="61.5" style="stroke:#002eb8;"/><line x1="181.91866251177817" y1="61.5" x2="184.91866251177817" y2="65" style="stroke:#002eb8;"/><line x1="192.91866251177817" y1="58" x2="189.91866251177817" y2="61.5" style="stroke:#002eb8;"/><line x1="189.91866251177817" y1="61.5" x2="192.91866251177817" y2="65" style="stroke:#002eb8;"/><line x1="200.91866251177817" y1="58" x2="197.91866251177817" y2="61.5" style="stroke:#002eb8;"/><line x1="197.91866251177817" y1="61.5" x2="200.91866251177817" y2="65" style="stroke:#002eb8;"/><line x1="208.91866251177817" y1="58" x2="205.91866251177817" y2="61.5" style="stroke:#002eb8;"/><line x1="205.91866251177817" y1="61.5" x2="208.91866251177817" y2="65" style="stroke:#002eb8;"/><line x1="216.91866251177817" y1="58" x2="213.91866251177817" y2="61.5" style="stroke:#002eb8;"/><line x1="213.91866251177817" y1="61.5" x2="216.91866251177817" y2="65" style="stroke:#002eb8;"/><line x1="224.91866251177817" y1="58" x2="221.91866251177817" y2="61.5" style="stroke:#002eb8;"/><line x1="221.91866251177817" y1="61.5" x2="224.91866251177817" y2="65" style="stroke:#002eb8;"/><line x1="232.91866251177817" y1="58" x2="229.91866251177817" y2="61.5" style="stroke:#002eb8;"/><line x1="229.91866251177817" y1="61.5" x2="232.91866251177817" y2="65" style="stroke:#002eb8;"/><line x1="240.91866251177817" y1="58" x2="237.91866251177817" y2="61.5" style="stroke:#002eb8;"/><line x1="237.91866251177817" y1="61.5" x2="240.91866251177817" y2="65" style="stroke:#002eb8;"/><line x1="248.91866251177817" y1="58" x2="245.91866251177817" y2="61.5" style="stroke:#002eb8;"/><line x1="245.91866251177817" y1="61.5" x2="248.91866251177817" y2="65" style="stroke:#002eb8;"/><line x1="256.91866251177817" y1="58" x2="253.91866251177817" y2="61.5" style="stroke:#002eb8;"/><line x1="253.91866251177817" y1="61.5" x2="256.91866251177817" y2="65" style="stroke:#002eb8;"/><line x1="264.91866251177817" y1="58" x2="261.91866251177817" y2="61.5" style="stroke:#002eb8;"/><line x1="261.91866251177817" y1="61.5" x2="264.91866251177817" y2="65" style="stroke:#002eb8;"/><line x1="272.91866251177817" y1="58" x2="269.91866251177817" y2="61.5" style="stroke:#002eb8;"/><line x1="269.91866251177817" y1="61.5" x2="272.91866251177817" y2="65" style="stroke:#002eb8;"/><line x1="280.91866251177817" y1="58" x2="277.91866251177817" y2="61.5" style="stroke:#002eb8;"/><line x1="277.91866251177817" y1="61.5" x2="280.91866251177817" y2="65" style="stroke:#002eb8;"/><line x1="288.91866251177817" y1="58" x2="285.91866251177817" y2="61.5" style="stroke:#002eb8;"/><line x1="285.91866251177817" y1="61.5" x2="288.91866251177817" y2="65" style="stroke:#002eb8;"/><line x1="296.91866251177817" y1="58" x2="293.91866251177817" y2="61.5" style="stroke:#002eb8;"/><line x1="293.91866251177817" y1="61.5" x2="296.91866251177817" y2="65" style="stroke:#002eb8;"/><line x1="304.91866251177817" y1="58" x2="301.91866251177817" y2="61.5" style="stroke:#002eb8;"/><line x1="301.91866251177817" y1="61.5" x2="304.91866251177817" y2="65" style="stroke:#002eb8;"/><line x1="312.91866251177817" y1="58" x2="309.91866251177817" y2="61.5" style="stroke:#002eb8;"/><line x1="309.91866251177817" y1="61.5" x2="312.91866251177817" y2="65" style="stroke:#002eb8;"/><line x1="320.91866251177817" y1="58" x2="317.91866251177817" y2="61.5" style="stroke:#002eb8;"/><line x1="317.91866251177817" y1="61.5" x2="320.91866251177817" y2="65" style="stroke:#002eb8;"/><line x1="328.91866251177817" y1="58" x2="325.91866251177817" y2="61.5" style="stroke:#002eb8;"/><line x1="325.91866251177817" y1="61.5" x2="328.91866251177817" y2="65" style="stroke:#002eb8;"/><line x1="336.91866251177817" y1="58" x2="333.91866251177817" y2="61.5" style="stroke:#002eb8;"/><line x1="333.91866251177817" y1="61.5" x2="336.91866251177817" y2="65" style="stroke:#002eb8;"/><line x1="344.91866251177817" y1="58" x2="341.91866251177817" y2="61.5" style="stroke:#002eb8;"/><line x1="341.91866251177817" y1="61.5" x2="344.91866251177817" y2="65" style="stroke:#002eb8;"/><line x1="352.91866251177817" y1="58" x2="349.91866251177817" y2="61.5" style="stroke:#002eb8;"/><line x1="349.91866251177817" y1="61.5" x2="352.91866251177817" y2="65" style="stroke:#002eb8;"/><line x1="360.91866251177817" y1="58" x2="357.91866251177817" y2="61.5" style="stroke:#002eb8;"/><line x1="357.91866251177817" y1="61.5" x2="360.91866251177817" y2="65" style="stroke:#002eb8;"/><line x1="368.91866251177817" y1="58" x2="365.91866251177817" y2="61.5" style="stroke:#002eb8;"/><line x1="365.91866251177817" y1="61.5" x2="368.91866251177817" y2="65" style="stroke:#002eb8;"/><line x1="376.91866251177817" y1="58" x2="373.91866251177817" y2="61.5" style="stroke:#002eb8;"/><line x1="373.91866251177817" y1="61.5" x2="376.91866251177817" y2="65" style="stroke:#002eb8;"/><line x1="384.91866251177817" y1="58" x2="381.91866251177817" y2="61.5" style="stroke:#002eb8;"/><line x1="381.91866251177817" y1="61.5" x2="384.91866251177817" y2="65" style="stroke:#002eb8;"/><line x1="392.91866251177817" y1="58" x2="389.91866251177817" y2="61.5" style="stroke:#002eb8;"/><line x1="389.91866251177817" y1="61.5" x2="392.91866251177817" y2="65" style="stroke:#002eb8;"/><line x1="400.91866251177817" y1="58" x2="397.91866251177817" y2="61.5" style="stroke:#002eb8;"/><line x1="397.91866251177817" y1="61.5" x2="400.91866251177817" y2="65" style="stroke:#002eb8;"/><line x1="408.91866251177817" y1="58" x2="405.91866251177817" y2="61.5" style="stroke:#002eb8;"/><line x1="405.91866251177817" y1="61.5" x2="408.91866251177817" y2="65" style="stroke:#002eb8;"/><line x1="416.91866251177817" y1="58" x2="413.91866251177817" y2="61.5" style="stroke:#002eb8;"/><line x1="413.91866251177817" y1="61.5" x2="416.91866251177817" y2="65" style="stroke:#002eb8;"/><line x1="424.91866251177817" y1="58" x2="421.91866251177817" y2="61.5" style="stroke:#002eb8;"/><line x1="421.91866251177817" y1="61.5" x2="424.91866251177817" y2="65" style="stroke:#002eb8;"/><line x1="432.91866251177817" y1="58" x2="429.91866251177817" y2="61.5" style="stroke:#002eb8;"/><line x1="429.91866251177817" y1="61.5" x2="432.91866251177817" y2="65" style="stroke:#002eb8;"/><line x1="440.91866251177817" y1="58" x2="437.91866251177817" y2="61.5" style="stroke:#002eb8;"/><line x1="437.91866251177817" y1="61.5" x2="440.91866251177817" y2="65" style="stroke:#002eb8;"/><rect x="11.211733044297716" y="58" width="8.806187992289551" height="7" style="fill:#002EB8;"/><rect x="442.8814070785015" y="58" width="1" height="7" style="fill:#002EB8;"/><rect x="20.017921036587268" y="56" width="1" height="11" style="fill:#002EB8;"/><rect x="24.163161492557492" y="56" width="1" height="11" style="fill:#002EB8;"/><rect x="43.32265871818413" y="56" width="1" height="11" style="fill:#002EB8;"/><rect x="47.467899174154354" y="56" width="1" height="11" style="fill:#002EB8;"/><rect x="169.59908608871842" y="56" width="1" height="11" style="fill:#002EB8;"/><rect x="173.33633043681766" y="56" width="1" height="11" style="fill:#002EB8;"/><rect x="223.02699240665356" y="56" width="1" height="11" style="fill:#002EB8;"/><rect x="442.6627211646828" y="56" width="1" height="11" style="fill:#002EB8;"/><text font-family="arial" x="444.6255919792584" y="66" style="font-size:8pt;fill:#002eb8;">CD99L2</text><line x1="11.211733044297716" y1="73" x2="443.6255919792584" y2="73" style="stroke:#002eb8;stroke-width:1;"/><line x1="16.918662511778166" y1="70" x2="13.918662511778166" y2="73.5" style="stroke:#002eb8;"/><line x1="13.918662511778166" y1="73.5" x2="16.918662511778166" y2="77" style="stroke:#002eb8;"/><line x1="24.918662511778166" y1="70" x2="21.918662511778166" y2="73.5" style="stroke:#002eb8;"/><line x1="21.918662511778166" y1="73.5" x2="24.918662511778166" y2="77" style="stroke:#002eb8;"/><line x1="32.918662511778166" y1="70" x2="29.918662511778166" y2="73.5" style="stroke:#002eb8;"/><line x1="29.918662511778166" y1="73.5" x2="32.918662511778166" y2="77" style="stroke:#002eb8;"/><line x1="40.918662511778166" y1="70" x2="37.918662511778166" y2="73.5" style="stroke:#002eb8;"/><line x1="37.918662511778166" y1="73.5" x2="40.918662511778166" y2="77" style="stroke:#002eb8;"/><line x1="48.918662511778166" y1="70" x2="45.918662511778166" y2="73.5" style="stroke:#002eb8;"/><line x1="45.918662511778166" y1="73.5" x2="48.918662511778166" y2="77" style="stroke:#002eb8;"/><line x1="56.918662511778166" y1="70" x2="53.918662511778166" y2="73.5" style="stroke:#002eb8;"/><line x1="53.918662511778166" y1="73.5" x2="56.918662511778166" y2="77" style="stroke:#002eb8;"/><line x1="64.91866251177817" y1="70" x2="61.918662511778166" y2="73.5" style="stroke:#002eb8;"/><line x1="61.918662511778166" y1="73.5" x2="64.91866251177817" y2="77" style="stroke:#002eb8;"/><line x1="72.91866251177817" y1="70" x2="69.91866251177817" y2="73.5" style="stroke:#002eb8;"/><line x1="69.91866251177817" y1="73.5" x2="72.91866251177817" y2="77" style="stroke:#002eb8;"/><line x1="80.91866251177817" y1="70" x2="77.91866251177817" y2="73.5" style="stroke:#002eb8;"/><line x1="77.91866251177817" y1="73.5" x2="80.91866251177817" y2="77" style="stroke:#002eb8;"/><line x1="88.91866251177817" y1="70" x2="85.91866251177817" y2="73.5" style="stroke:#002eb8;"/><line x1="85.91866251177817" y1="73.5" x2="88.91866251177817" y2="77" style="stroke:#002eb8;"/><line x1="96.91866251177817" y1="70" x2="93.91866251177817" y2="73.5" style="stroke:#002eb8;"/><line x1="93.91866251177817" y1="73.5" x2="96.91866251177817" y2="77" style="stroke:#002eb8;"/><line x1="104.91866251177817" y1="70" x2="101.91866251177817" y2="73.5" style="stroke:#002eb8;"/><line x1="101.91866251177817" y1="73.5" x2="104.91866251177817" y2="77" style="stroke:#002eb8;"/><line x1="112.91866251177817" y1="70" x2="109.91866251177817" y2="73.5" style="stroke:#002eb8;"/><line x1="109.91866251177817" y1="73.5" x2="112.91866251177817" y2="77" style="stroke:#002eb8;"/><line x1="120.91866251177817" y1="70" x2="117.91866251177817" y2="73.5" style="stroke:#002eb8;"/><line x1="117.91866251177817" y1="73.5" x2="120.91866251177817" y2="77" style="stroke:#002eb8;"/><line x1="128.91866251177817" y1="70" x2="125.91866251177817" y2="73.5" style="stroke:#002eb8;"/><line x1="125.91866251177817" y1="73.5" x2="128.91866251177817" y2="77" style="stroke:#002eb8;"/><line x1="136.91866251177817" y1="70" x2="133.91866251177817" y2="73.5" style="stroke:#002eb8;"/><line x1="133.91866251177817" y1="73.5" x2="136.91866251177817" y2="77" style="stroke:#002eb8;"/><line x1="144.91866251177817" y1="70" x2="141.91866251177817" y2="73.5" style="stroke:#002eb8;"/><line x1="141.91866251177817" y1="73.5" x2="144.91866251177817" y2="77" style="stroke:#002eb8;"/><line x1="152.91866251177817" y1="70" x2="149.91866251177817" y2="73.5" style="stroke:#002eb8;"/><line x1="149.91866251177817" y1="73.5" x2="152.91866251177817" y2="77" style="stroke:#002eb8;"/><line x1="160.91866251177817" y1="70" x2="157.91866251177817" y2="73.5" style="stroke:#002eb8;"/><line x1="157.91866251177817" y1="73.5" x2="160.91866251177817" y2="77" style="stroke:#002eb8;"/><line x1="168.91866251177817" y1="70" x2="165.91866251177817" y2="73.5" style="stroke:#002eb8;"/><line x1="165.91866251177817" y1="73.5" x2="168.91866251177817" y2="77" style="stroke:#002eb8;"/><line x1="176.91866251177817" y1="70" x2="173.91866251177817" y2="73.5" style="stroke:#002eb8;"/><line x1="173.91866251177817" y1="73.5" x2="176.91866251177817" y2="77" style="stroke:#002eb8;"/><line x1="184.91866251177817" y1="70" x2="181.91866251177817" y2="73.5" style="stroke:#002eb8;"/><line x1="181.91866251177817" y1="73.5" x2="184.91866251177817" y2="77" style="stroke:#002eb8;"/><line x1="192.91866251177817" y1="70" x2="189.91866251177817" y2="73.5" style="stroke:#002eb8;"/><line x1="189.91866251177817" y1="73.5" x2="192.91866251177817" y2="77" style="stroke:#002eb8;"/><line x1="200.91866251177817" y1="70" x2="197.91866251177817" y2="73.5" style="stroke:#002eb8;"/><line x1="197.91866251177817" y1="73.5" x2="200.91866251177817" y2="77" style="stroke:#002eb8;"/><line x1="208.91866251177817" y1="70" x2="205.91866251177817" y2="73.5" style="stroke:#002eb8;"/><line x1="205.91866251177817" y1="73.5" x2="208.91866251177817" y2="77" style="stroke:#002eb8;"/><line x1="216.91866251177817" y1="70" x2="213.91866251177817" y2="73.5" style="stroke:#002eb8;"/><line x1="213.91866251177817" y1="73.5" x2="216.91866251177817" y2="77" style="stroke:#002eb8;"/><line x1="224.91866251177817" y1="70" x2="221.91866251177817" y2="73.5" style="stroke:#002eb8;"/><line x1="221.91866251177817" y1="73.5" x2="224.91866251177817" y2="77" style="stroke:#002eb8;"/><line x1="232.91866251177817" y1="70" x2="229.91866251177817" y2="73.5" style="stroke:#002eb8;"/><line x1="229.91866251177817" y1="73.5" x2="232.91866251177817" y2="77" style="stroke:#002eb8;"/><line x1="240.91866251177817" y1="70" x2="237.91866251177817" y2="73.5" style="stroke:#002eb8;"/><line x1="237.91866251177817" y1="73.5" x2="240.91866251177817" y2="77" style="stroke:#002eb8;"/><line x1="248.91866251177817" y1="70" x2="245.91866251177817" y2="73.5" style="stroke:#002eb8;"/><line x1="245.91866251177817" y1="73.5" x2="248.91866251177817" y2="77" style="stroke:#002eb8;"/><line x1="256.91866251177817" y1="70" x2="253.91866251177817" y2="73.5" style="stroke:#002eb8;"/><line x1="253.91866251177817" y1="73.5" x2="256.91866251177817" y2="77" style="stroke:#002eb8;"/><line x1="264.91866251177817" y1="70" x2="261.91866251177817" y2="73.5" style="stroke:#002eb8;"/><line x1="261.91866251177817" y1="73.5" x2="264.91866251177817" y2="77" style="stroke:#002eb8;"/><line x1="272.91866251177817" y1="70" x2="269.91866251177817" y2="73.5" style="stroke:#002eb8;"/><line x1="269.91866251177817" y1="73.5" x2="272.91866251177817" y2="77" style="stroke:#002eb8;"/><line x1="280.91866251177817" y1="70" x2="277.91866251177817" y2="73.5" style="stroke:#002eb8;"/><line x1="277.91866251177817" y1="73.5" x2="280.91866251177817" y2="77" style="stroke:#002eb8;"/><line x1="288.91866251177817" y1="70" x2="285.91866251177817" y2="73.5" style="stroke:#002eb8;"/><line x1="285.91866251177817" y1="73.5" x2="288.91866251177817" y2="77" style="stroke:#002eb8;"/><line x1="296.91866251177817" y1="70" x2="293.91866251177817" y2="73.5" style="stroke:#002eb8;"/><line x1="293.91866251177817" y1="73.5" x2="296.91866251177817" y2="77" style="stroke:#002eb8;"/><line x1="304.91866251177817" y1="70" x2="301.91866251177817" y2="73.5" style="stroke:#002eb8;"/><line x1="301.91866251177817" y1="73.5" x2="304.91866251177817" y2="77" style="stroke:#002eb8;"/><line x1="312.91866251177817" y1="70" x2="309.91866251177817" y2="73.5" style="stroke:#002eb8;"/><line x1="309.91866251177817" y1="73.5" x2="312.91866251177817" y2="77" style="stroke:#002eb8;"/><line x1="320.91866251177817" y1="70" x2="317.91866251177817" y2="73.5" style="stroke:#002eb8;"/><line x1="317.91866251177817" y1="73.5" x2="320.91866251177817" y2="77" style="stroke:#002eb8;"/><line x1="328.91866251177817" y1="70" x2="325.91866251177817" y2="73.5" style="stroke:#002eb8;"/><line x1="325.91866251177817" y1="73.5" x2="328.91866251177817" y2="77" style="stroke:#002eb8;"/><line x1="336.91866251177817" y1="70" x2="333.91866251177817" y2="73.5" style="stroke:#002eb8;"/><line x1="333.91866251177817" y1="73.5" x2="336.91866251177817" y2="77" style="stroke:#002eb8;"/><line x1="344.91866251177817" y1="70" x2="341.91866251177817" y2="73.5" style="stroke:#002eb8;"/><line x1="341.91866251177817" y1="73.5" x2="344.91866251177817" y2="77" style="stroke:#002eb8;"/><line x1="352.91866251177817" y1="70" x2="349.91866251177817" y2="73.5" style="stroke:#002eb8;"/><line x1="349.91866251177817" y1="73.5" x2="352.91866251177817" y2="77" style="stroke:#002eb8;"/><line x1="360.91866251177817" y1="70" x2="357.91866251177817" y2="73.5" style="stroke:#002eb8;"/><line x1="357.91866251177817" y1="73.5" x2="360.91866251177817" y2="77" style="stroke:#002eb8;"/><line x1="368.91866251177817" y1="70" x2="365.91866251177817" y2="73.5" style="stroke:#002eb8;"/><line x1="365.91866251177817" y1="73.5" x2="368.91866251177817" y2="77" style="stroke:#002eb8;"/><line x1="376.91866251177817" y1="70" x2="373.91866251177817" y2="73.5" style="stroke:#002eb8;"/><line x1="373.91866251177817" y1="73.5" x2="376.91866251177817" y2="77" style="stroke:#002eb8;"/><line x1="384.91866251177817" y1="70" x2="381.91866251177817" y2="73.5" style="stroke:#002eb8;"/><line x1="381.91866251177817" y1="73.5" x2="384.91866251177817" y2="77" style="stroke:#002eb8;"/><line x1="392.91866251177817" y1="70" x2="389.91866251177817" y2="73.5" style="stroke:#002eb8;"/><line x1="389.91866251177817" y1="73.5" x2="392.91866251177817" y2="77" style="stroke:#002eb8;"/><line x1="400.91866251177817" y1="70" x2="397.91866251177817" y2="73.5" style="stroke:#002eb8;"/><line x1="397.91866251177817" y1="73.5" x2="400.91866251177817" y2="77" style="stroke:#002eb8;"/><line x1="408.91866251177817" y1="70" x2="405.91866251177817" y2="73.5" style="stroke:#002eb8;"/><line x1="405.91866251177817" y1="73.5" x2="408.91866251177817" y2="77" style="stroke:#002eb8;"/><line x1="416.91866251177817" y1="70" x2="413.91866251177817" y2="73.5" style="stroke:#002eb8;"/><line x1="413.91866251177817" y1="73.5" x2="416.91866251177817" y2="77" style="stroke:#002eb8;"/><line x1="424.91866251177817" y1="70" x2="421.91866251177817" y2="73.5" style="stroke:#002eb8;"/><line x1="421.91866251177817" y1="73.5" x2="424.91866251177817" y2="77" style="stroke:#002eb8;"/><line x1="432.91866251177817" y1="70" x2="429.91866251177817" y2="73.5" style="stroke:#002eb8;"/><line x1="429.91866251177817" y1="73.5" x2="432.91866251177817" y2="77" style="stroke:#002eb8;"/><line x1="440.91866251177817" y1="70" x2="437.91866251177817" y2="73.5" style="stroke:#002eb8;"/><line x1="437.91866251177817" y1="73.5" x2="440.91866251177817" y2="77" style="stroke:#002eb8;"/><rect x="11.211733044297716" y="70" width="8.806187992289551" height="7" style="fill:#002EB8;"/><rect x="442.8814070785015" y="70" width="1" height="7" style="fill:#002EB8;"/><rect x="20.017921036587268" y="68" width="1" height="11" style="fill:#002EB8;"/><rect x="24.163161492557492" y="68" width="1" height="11" style="fill:#002EB8;"/><rect x="29.062378755873624" y="68" width="1" height="11" style="fill:#002EB8;"/><rect x="43.32265871818413" y="68" width="1" height="11" style="fill:#002EB8;"/><rect x="47.467899174154354" y="68" width="1" height="11" style="fill:#002EB8;"/><rect x="100.49760129080732" y="68" width="1" height="11" style="fill:#002EB8;"/><rect x="105.44251411820505" y="68" width="1" height="11" style="fill:#002EB8;"/><rect x="106.13447551715444" y="68" width="1" height="11" style="fill:#002EB8;"/><rect x="169.59908608871842" y="68" width="1" height="11" style="fill:#002EB8;"/><rect x="173.33633043681766" y="68" width="1" height="11" style="fill:#002EB8;"/><rect x="223.02699240665356" y="68" width="1" height="11" style="fill:#002EB8;"/><rect x="442.6627211646828" y="68" width="1" height="11" style="fill:#002EB8;"/><text font-family="arial" x="444.6255919792584" y="78" style="font-size:8pt;fill:#002eb8;">CD99L2</text><line x1="11.211733044297716" y1="85" x2="443.6255919792584" y2="85" style="stroke:#002eb8;stroke-width:1;"/><line x1="16.918662511778166" y1="82" x2="13.918662511778166" y2="85.5" style="stroke:#002eb8;"/><line x1="13.918662511778166" y1="85.5" x2="16.918662511778166" y2="89" style="stroke:#002eb8;"/><line x1="24.918662511778166" y1="82" x2="21.918662511778166" y2="85.5" style="stroke:#002eb8;"/><line x1="21.918662511778166" y1="85.5" x2="24.918662511778166" y2="89" style="stroke:#002eb8;"/><line x1="32.918662511778166" y1="82" x2="29.918662511778166" y2="85.5" style="stroke:#002eb8;"/><line x1="29.918662511778166" y1="85.5" x2="32.918662511778166" y2="89" style="stroke:#002eb8;"/><line x1="40.918662511778166" y1="82" x2="37.918662511778166" y2="85.5" style="stroke:#002eb8;"/><line x1="37.918662511778166" y1="85.5" x2="40.918662511778166" y2="89" style="stroke:#002eb8;"/><line x1="48.918662511778166" y1="82" x2="45.918662511778166" y2="85.5" style="stroke:#002eb8;"/><line x1="45.918662511778166" y1="85.5" x2="48.918662511778166" y2="89" style="stroke:#002eb8;"/><line x1="56.918662511778166" y1="82" x2="53.918662511778166" y2="85.5" style="stroke:#002eb8;"/><line x1="53.918662511778166" y1="85.5" x2="56.918662511778166" y2="89" style="stroke:#002eb8;"/><line x1="64.91866251177817" y1="82" x2="61.918662511778166" y2="85.5" style="stroke:#002eb8;"/><line x1="61.918662511778166" y1="85.5" x2="64.91866251177817" y2="89" style="stroke:#002eb8;"/><line x1="72.91866251177817" y1="82" x2="69.91866251177817" y2="85.5" style="stroke:#002eb8;"/><line x1="69.91866251177817" y1="85.5" x2="72.91866251177817" y2="89" style="stroke:#002eb8;"/><line x1="80.91866251177817" y1="82" x2="77.91866251177817" y2="85.5" style="stroke:#002eb8;"/><line x1="77.91866251177817" y1="85.5" x2="80.91866251177817" y2="89" style="stroke:#002eb8;"/><line x1="88.91866251177817" y1="82" x2="85.91866251177817" y2="85.5" style="stroke:#002eb8;"/><line x1="85.91866251177817" y1="85.5" x2="88.91866251177817" y2="89" style="stroke:#002eb8;"/><line x1="96.91866251177817" y1="82" x2="93.91866251177817" y2="85.5" style="stroke:#002eb8;"/><line x1="93.91866251177817" y1="85.5" x2="96.91866251177817" y2="89" style="stroke:#002eb8;"/><line x1="104.91866251177817" y1="82" x2="101.91866251177817" y2="85.5" style="stroke:#002eb8;"/><line x1="101.91866251177817" y1="85.5" x2="104.91866251177817" y2="89" style="stroke:#002eb8;"/><line x1="112.91866251177817" y1="82" x2="109.91866251177817" y2="85.5" style="stroke:#002eb8;"/><line x1="109.91866251177817" y1="85.5" x2="112.91866251177817" y2="89" style="stroke:#002eb8;"/><line x1="120.91866251177817" y1="82" x2="117.91866251177817" y2="85.5" style="stroke:#002eb8;"/><line x1="117.91866251177817" y1="85.5" x2="120.91866251177817" y2="89" style="stroke:#002eb8;"/><line x1="128.91866251177817" y1="82" x2="125.91866251177817" y2="85.5" style="stroke:#002eb8;"/><line x1="125.91866251177817" y1="85.5" x2="128.91866251177817" y2="89" style="stroke:#002eb8;"/><line x1="136.91866251177817" y1="82" x2="133.91866251177817" y2="85.5" style="stroke:#002eb8;"/><line x1="133.91866251177817" y1="85.5" x2="136.91866251177817" y2="89" style="stroke:#002eb8;"/><line x1="144.91866251177817" y1="82" x2="141.91866251177817" y2="85.5" style="stroke:#002eb8;"/><line x1="141.91866251177817" y1="85.5" x2="144.91866251177817" y2="89" style="stroke:#002eb8;"/><line x1="152.91866251177817" y1="82" x2="149.91866251177817" y2="85.5" style="stroke:#002eb8;"/><line x1="149.91866251177817" y1="85.5" x2="152.91866251177817" y2="89" style="stroke:#002eb8;"/><line x1="160.91866251177817" y1="82" x2="157.91866251177817" y2="85.5" style="stroke:#002eb8;"/><line x1="157.91866251177817" y1="85.5" x2="160.91866251177817" y2="89" style="stroke:#002eb8;"/><line x1="168.91866251177817" y1="82" x2="165.91866251177817" y2="85.5" style="stroke:#002eb8;"/><line x1="165.91866251177817" y1="85.5" x2="168.91866251177817" y2="89" style="stroke:#002eb8;"/><line x1="176.91866251177817" y1="82" x2="173.91866251177817" y2="85.5" style="stroke:#002eb8;"/><line x1="173.91866251177817" y1="85.5" x2="176.91866251177817" y2="89" style="stroke:#002eb8;"/><line x1="184.91866251177817" y1="82" x2="181.91866251177817" y2="85.5" style="stroke:#002eb8;"/><line x1="181.91866251177817" y1="85.5" x2="184.91866251177817" y2="89" style="stroke:#002eb8;"/><line x1="192.91866251177817" y1="82" x2="189.91866251177817" y2="85.5" style="stroke:#002eb8;"/><line x1="189.91866251177817" y1="85.5" x2="192.91866251177817" y2="89" style="stroke:#002eb8;"/><line x1="200.91866251177817" y1="82" x2="197.91866251177817" y2="85.5" style="stroke:#002eb8;"/><line x1="197.91866251177817" y1="85.5" x2="200.91866251177817" y2="89" style="stroke:#002eb8;"/><line x1="208.91866251177817" y1="82" x2="205.91866251177817" y2="85.5" style="stroke:#002eb8;"/><line x1="205.91866251177817" y1="85.5" x2="208.91866251177817" y2="89" style="stroke:#002eb8;"/><line x1="216.91866251177817" y1="82" x2="213.91866251177817" y2="85.5" style="stroke:#002eb8;"/><line x1="213.91866251177817" y1="85.5" x2="216.91866251177817" y2="89" style="stroke:#002eb8;"/><line x1="224.91866251177817" y1="82" x2="221.91866251177817" y2="85.5" style="stroke:#002eb8;"/><line x1="221.91866251177817" y1="85.5" x2="224.91866251177817" y2="89" style="stroke:#002eb8;"/><line x1="232.91866251177817" y1="82" x2="229.91866251177817" y2="85.5" style="stroke:#002eb8;"/><line x1="229.91866251177817" y1="85.5" x2="232.91866251177817" y2="89" style="stroke:#002eb8;"/><line x1="240.91866251177817" y1="82" x2="237.91866251177817" y2="85.5" style="stroke:#002eb8;"/><line x1="237.91866251177817" y1="85.5" x2="240.91866251177817" y2="89" style="stroke:#002eb8;"/><line x1="248.91866251177817" y1="82" x2="245.91866251177817" y2="85.5" style="stroke:#002eb8;"/><line x1="245.91866251177817" y1="85.5" x2="248.91866251177817" y2="89" style="stroke:#002eb8;"/><line x1="256.91866251177817" y1="82" x2="253.91866251177817" y2="85.5" style="stroke:#002eb8;"/><line x1="253.91866251177817" y1="85.5" x2="256.91866251177817" y2="89" style="stroke:#002eb8;"/><line x1="264.91866251177817" y1="82" x2="261.91866251177817" y2="85.5" style="stroke:#002eb8;"/><line x1="261.91866251177817" y1="85.5" x2="264.91866251177817" y2="89" style="stroke:#002eb8;"/><line x1="272.91866251177817" y1="82" x2="269.91866251177817" y2="85.5" style="stroke:#002eb8;"/><line x1="269.91866251177817" y1="85.5" x2="272.91866251177817" y2="89" style="stroke:#002eb8;"/><line x1="280.91866251177817" y1="82" x2="277.91866251177817" y2="85.5" style="stroke:#002eb8;"/><line x1="277.91866251177817" y1="85.5" x2="280.91866251177817" y2="89" style="stroke:#002eb8;"/><line x1="288.91866251177817" y1="82" x2="285.91866251177817" y2="85.5" style="stroke:#002eb8;"/><line x1="285.91866251177817" y1="85.5" x2="288.91866251177817" y2="89" style="stroke:#002eb8;"/><line x1="296.91866251177817" y1="82" x2="293.91866251177817" y2="85.5" style="stroke:#002eb8;"/><line x1="293.91866251177817" y1="85.5" x2="296.91866251177817" y2="89" style="stroke:#002eb8;"/><line x1="304.91866251177817" y1="82" x2="301.91866251177817" y2="85.5" style="stroke:#002eb8;"/><line x1="301.91866251177817" y1="85.5" x2="304.91866251177817" y2="89" style="stroke:#002eb8;"/><line x1="312.91866251177817" y1="82" x2="309.91866251177817" y2="85.5" style="stroke:#002eb8;"/><line x1="309.91866251177817" y1="85.5" x2="312.91866251177817" y2="89" style="stroke:#002eb8;"/><line x1="320.91866251177817" y1="82" x2="317.91866251177817" y2="85.5" style="stroke:#002eb8;"/><line x1="317.91866251177817" y1="85.5" x2="320.91866251177817" y2="89" style="stroke:#002eb8;"/><line x1="328.91866251177817" y1="82" x2="325.91866251177817" y2="85.5" style="stroke:#002eb8;"/><line x1="325.91866251177817" y1="85.5" x2="328.91866251177817" y2="89" style="stroke:#002eb8;"/><line x1="336.91866251177817" y1="82" x2="333.91866251177817" y2="85.5" style="stroke:#002eb8;"/><line x1="333.91866251177817" y1="85.5" x2="336.91866251177817" y2="89" style="stroke:#002eb8;"/><line x1="344.91866251177817" y1="82" x2="341.91866251177817" y2="85.5" style="stroke:#002eb8;"/><line x1="341.91866251177817" y1="85.5" x2="344.91866251177817" y2="89" style="stroke:#002eb8;"/><line x1="352.91866251177817" y1="82" x2="349.91866251177817" y2="85.5" style="stroke:#002eb8;"/><line x1="349.91866251177817" y1="85.5" x2="352.91866251177817" y2="89" style="stroke:#002eb8;"/><line x1="360.91866251177817" y1="82" x2="357.91866251177817" y2="85.5" style="stroke:#002eb8;"/><line x1="357.91866251177817" y1="85.5" x2="360.91866251177817" y2="89" style="stroke:#002eb8;"/><line x1="368.91866251177817" y1="82" x2="365.91866251177817" y2="85.5" style="stroke:#002eb8;"/><line x1="365.91866251177817" y1="85.5" x2="368.91866251177817" y2="89" style="stroke:#002eb8;"/><line x1="376.91866251177817" y1="82" x2="373.91866251177817" y2="85.5" style="stroke:#002eb8;"/><line x1="373.91866251177817" y1="85.5" x2="376.91866251177817" y2="89" style="stroke:#002eb8;"/><line x1="384.91866251177817" y1="82" x2="381.91866251177817" y2="85.5" style="stroke:#002eb8;"/><line x1="381.91866251177817" y1="85.5" x2="384.91866251177817" y2="89" style="stroke:#002eb8;"/><line x1="392.91866251177817" y1="82" x2="389.91866251177817" y2="85.5" style="stroke:#002eb8;"/><line x1="389.91866251177817" y1="85.5" x2="392.91866251177817" y2="89" style="stroke:#002eb8;"/><line x1="400.91866251177817" y1="82" x2="397.91866251177817" y2="85.5" style="stroke:#002eb8;"/><line x1="397.91866251177817" y1="85.5" x2="400.91866251177817" y2="89" style="stroke:#002eb8;"/><line x1="408.91866251177817" y1="82" x2="405.91866251177817" y2="85.5" style="stroke:#002eb8;"/><line x1="405.91866251177817" y1="85.5" x2="408.91866251177817" y2="89" style="stroke:#002eb8;"/><line x1="416.91866251177817" y1="82" x2="413.91866251177817" y2="85.5" style="stroke:#002eb8;"/><line x1="413.91866251177817" y1="85.5" x2="416.91866251177817" y2="89" style="stroke:#002eb8;"/><line x1="424.91866251177817" y1="82" x2="421.91866251177817" y2="85.5" style="stroke:#002eb8;"/><line x1="421.91866251177817" y1="85.5" x2="424.91866251177817" y2="89" style="stroke:#002eb8;"/><line x1="432.91866251177817" y1="82" x2="429.91866251177817" y2="85.5" style="stroke:#002eb8;"/><line x1="429.91866251177817" y1="85.5" x2="432.91866251177817" y2="89" style="stroke:#002eb8;"/><line x1="440.91866251177817" y1="82" x2="437.91866251177817" y2="85.5" style="stroke:#002eb8;"/><line x1="437.91866251177817" y1="85.5" x2="440.91866251177817" y2="89" style="stroke:#002eb8;"/><rect x="11.211733044297716" y="82" width="8.806187992289551" height="7" style="fill:#002EB8;"/><rect x="442.8814070785015" y="82" width="1" height="7" style="fill:#002EB8;"/><rect x="20.017921036587268" y="80" width="1" height="11" style="fill:#002EB8;"/><rect x="24.163161492557492" y="80" width="1" height="11" style="fill:#002EB8;"/><rect x="43.32265871818413" y="80" width="1" height="11" style="fill:#002EB8;"/><rect x="47.467899174154354" y="80" width="1" height="11" style="fill:#002EB8;"/><rect x="100.49760129080732" y="80" width="1" height="11" style="fill:#002EB8;"/><rect x="105.44251411820505" y="80" width="1" height="11" style="fill:#002EB8;"/><rect x="106.13447551715444" y="80" width="1" height="11" style="fill:#002EB8;"/><rect x="169.59908608871842" y="80" width="1" height="11" style="fill:#002EB8;"/><rect x="173.33633043681766" y="80" width="1" height="11" style="fill:#002EB8;"/><rect x="223.02699240665356" y="80" width="1" height="11" style="fill:#002EB8;"/><rect x="442.6627211646828" y="80" width="1" height="11" style="fill:#002EB8;"/><text font-family="arial" x="444.6255919792584" y="90" style="font-size:8pt;fill:#002eb8;">CD99L2</text><line x1="11.211733044297716" y1="97" x2="443.6255919792584" y2="97" style="stroke:#002eb8;stroke-width:1;"/><line x1="16.918662511778166" y1="94" x2="13.918662511778166" y2="97.5" style="stroke:#002eb8;"/><line x1="13.918662511778166" y1="97.5" x2="16.918662511778166" y2="101" style="stroke:#002eb8;"/><line x1="24.918662511778166" y1="94" x2="21.918662511778166" y2="97.5" style="stroke:#002eb8;"/><line x1="21.918662511778166" y1="97.5" x2="24.918662511778166" y2="101" style="stroke:#002eb8;"/><line x1="32.918662511778166" y1="94" x2="29.918662511778166" y2="97.5" style="stroke:#002eb8;"/><line x1="29.918662511778166" y1="97.5" x2="32.918662511778166" y2="101" style="stroke:#002eb8;"/><line x1="40.918662511778166" y1="94" x2="37.918662511778166" y2="97.5" style="stroke:#002eb8;"/><line x1="37.918662511778166" y1="97.5" x2="40.918662511778166" y2="101" style="stroke:#002eb8;"/><line x1="48.918662511778166" y1="94" x2="45.918662511778166" y2="97.5" style="stroke:#002eb8;"/><line x1="45.918662511778166" y1="97.5" x2="48.918662511778166" y2="101" style="stroke:#002eb8;"/><line x1="56.918662511778166" y1="94" x2="53.918662511778166" y2="97.5" style="stroke:#002eb8;"/><line x1="53.918662511778166" y1="97.5" x2="56.918662511778166" y2="101" style="stroke:#002eb8;"/><line x1="64.91866251177817" y1="94" x2="61.918662511778166" y2="97.5" style="stroke:#002eb8;"/><line x1="61.918662511778166" y1="97.5" x2="64.91866251177817" y2="101" style="stroke:#002eb8;"/><line x1="72.91866251177817" y1="94" x2="69.91866251177817" y2="97.5" style="stroke:#002eb8;"/><line x1="69.91866251177817" y1="97.5" x2="72.91866251177817" y2="101" style="stroke:#002eb8;"/><line x1="80.91866251177817" y1="94" x2="77.91866251177817" y2="97.5" style="stroke:#002eb8;"/><line x1="77.91866251177817" y1="97.5" x2="80.91866251177817" y2="101" style="stroke:#002eb8;"/><line x1="88.91866251177817" y1="94" x2="85.91866251177817" y2="97.5" style="stroke:#002eb8;"/><line x1="85.91866251177817" y1="97.5" x2="88.91866251177817" y2="101" style="stroke:#002eb8;"/><line x1="96.91866251177817" y1="94" x2="93.91866251177817" y2="97.5" style="stroke:#002eb8;"/><line x1="93.91866251177817" y1="97.5" x2="96.91866251177817" y2="101" style="stroke:#002eb8;"/><line x1="104.91866251177817" y1="94" x2="101.91866251177817" y2="97.5" style="stroke:#002eb8;"/><line x1="101.91866251177817" y1="97.5" x2="104.91866251177817" y2="101" style="stroke:#002eb8;"/><line x1="112.91866251177817" y1="94" x2="109.91866251177817" y2="97.5" style="stroke:#002eb8;"/><line x1="109.91866251177817" y1="97.5" x2="112.91866251177817" y2="101" style="stroke:#002eb8;"/><line x1="120.91866251177817" y1="94" x2="117.91866251177817" y2="97.5" style="stroke:#002eb8;"/><line x1="117.91866251177817" y1="97.5" x2="120.91866251177817" y2="101" style="stroke:#002eb8;"/><line x1="128.91866251177817" y1="94" x2="125.91866251177817" y2="97.5" style="stroke:#002eb8;"/><line x1="125.91866251177817" y1="97.5" x2="128.91866251177817" y2="101" style="stroke:#002eb8;"/><line x1="136.91866251177817" y1="94" x2="133.91866251177817" y2="97.5" style="stroke:#002eb8;"/><line x1="133.91866251177817" y1="97.5" x2="136.91866251177817" y2="101" style="stroke:#002eb8;"/><line x1="144.91866251177817" y1="94" x2="141.91866251177817" y2="97.5" style="stroke:#002eb8;"/><line x1="141.91866251177817" y1="97.5" x2="144.91866251177817" y2="101" style="stroke:#002eb8;"/><line x1="152.91866251177817" y1="94" x2="149.91866251177817" y2="97.5" style="stroke:#002eb8;"/><line x1="149.91866251177817" y1="97.5" x2="152.91866251177817" y2="101" style="stroke:#002eb8;"/><line x1="160.91866251177817" y1="94" x2="157.91866251177817" y2="97.5" style="stroke:#002eb8;"/><line x1="157.91866251177817" y1="97.5" x2="160.91866251177817" y2="101" style="stroke:#002eb8;"/><line x1="168.91866251177817" y1="94" x2="165.91866251177817" y2="97.5" style="stroke:#002eb8;"/><line x1="165.91866251177817" y1="97.5" x2="168.91866251177817" y2="101" style="stroke:#002eb8;"/><line x1="176.91866251177817" y1="94" x2="173.91866251177817" y2="97.5" style="stroke:#002eb8;"/><line x1="173.91866251177817" y1="97.5" x2="176.91866251177817" y2="101" style="stroke:#002eb8;"/><line x1="184.91866251177817" y1="94" x2="181.91866251177817" y2="97.5" style="stroke:#002eb8;"/><line x1="181.91866251177817" y1="97.5" x2="184.91866251177817" y2="101" style="stroke:#002eb8;"/><line x1="192.91866251177817" y1="94" x2="189.91866251177817" y2="97.5" style="stroke:#002eb8;"/><line x1="189.91866251177817" y1="97.5" x2="192.91866251177817" y2="101" style="stroke:#002eb8;"/><line x1="200.91866251177817" y1="94" x2="197.91866251177817" y2="97.5" style="stroke:#002eb8;"/><line x1="197.91866251177817" y1="97.5" x2="200.91866251177817" y2="101" style="stroke:#002eb8;"/><line x1="208.91866251177817" y1="94" x2="205.91866251177817" y2="97.5" style="stroke:#002eb8;"/><line x1="205.91866251177817" y1="97.5" x2="208.91866251177817" y2="101" style="stroke:#002eb8;"/><line x1="216.91866251177817" y1="94" x2="213.91866251177817" y2="97.5" style="stroke:#002eb8;"/><line x1="213.91866251177817" y1="97.5" x2="216.91866251177817" y2="101" style="stroke:#002eb8;"/><line x1="224.91866251177817" y1="94" x2="221.91866251177817" y2="97.5" style="stroke:#002eb8;"/><line x1="221.91866251177817" y1="97.5" x2="224.91866251177817" y2="101" style="stroke:#002eb8;"/><line x1="232.91866251177817" y1="94" x2="229.91866251177817" y2="97.5" style="stroke:#002eb8;"/><line x1="229.91866251177817" y1="97.5" x2="232.91866251177817" y2="101" style="stroke:#002eb8;"/><line x1="240.91866251177817" y1="94" x2="237.91866251177817" y2="97.5" style="stroke:#002eb8;"/><line x1="237.91866251177817" y1="97.5" x2="240.91866251177817" y2="101" style="stroke:#002eb8;"/><line x1="248.91866251177817" y1="94" x2="245.91866251177817" y2="97.5" style="stroke:#002eb8;"/><line x1="245.91866251177817" y1="97.5" x2="248.91866251177817" y2="101" style="stroke:#002eb8;"/><line x1="256.91866251177817" y1="94" x2="253.91866251177817" y2="97.5" style="stroke:#002eb8;"/><line x1="253.91866251177817" y1="97.5" x2="256.91866251177817" y2="101" style="stroke:#002eb8;"/><line x1="264.91866251177817" y1="94" x2="261.91866251177817" y2="97.5" style="stroke:#002eb8;"/><line x1="261.91866251177817" y1="97.5" x2="264.91866251177817" y2="101" style="stroke:#002eb8;"/><line x1="272.91866251177817" y1="94" x2="269.91866251177817" y2="97.5" style="stroke:#002eb8;"/><line x1="269.91866251177817" y1="97.5" x2="272.91866251177817" y2="101" style="stroke:#002eb8;"/><line x1="280.91866251177817" y1="94" x2="277.91866251177817" y2="97.5" style="stroke:#002eb8;"/><line x1="277.91866251177817" y1="97.5" x2="280.91866251177817" y2="101" style="stroke:#002eb8;"/><line x1="288.91866251177817" y1="94" x2="285.91866251177817" y2="97.5" style="stroke:#002eb8;"/><line x1="285.91866251177817" y1="97.5" x2="288.91866251177817" y2="101" style="stroke:#002eb8;"/><line x1="296.91866251177817" y1="94" x2="293.91866251177817" y2="97.5" style="stroke:#002eb8;"/><line x1="293.91866251177817" y1="97.5" x2="296.91866251177817" y2="101" style="stroke:#002eb8;"/><line x1="304.91866251177817" y1="94" x2="301.91866251177817" y2="97.5" style="stroke:#002eb8;"/><line x1="301.91866251177817" y1="97.5" x2="304.91866251177817" y2="101" style="stroke:#002eb8;"/><line x1="312.91866251177817" y1="94" x2="309.91866251177817" y2="97.5" style="stroke:#002eb8;"/><line x1="309.91866251177817" y1="97.5" x2="312.91866251177817" y2="101" style="stroke:#002eb8;"/><line x1="320.91866251177817" y1="94" x2="317.91866251177817" y2="97.5" style="stroke:#002eb8;"/><line x1="317.91866251177817" y1="97.5" x2="320.91866251177817" y2="101" style="stroke:#002eb8;"/><line x1="328.91866251177817" y1="94" x2="325.91866251177817" y2="97.5" style="stroke:#002eb8;"/><line x1="325.91866251177817" y1="97.5" x2="328.91866251177817" y2="101" style="stroke:#002eb8;"/><line x1="336.91866251177817" y1="94" x2="333.91866251177817" y2="97.5" style="stroke:#002eb8;"/><line x1="333.91866251177817" y1="97.5" x2="336.91866251177817" y2="101" style="stroke:#002eb8;"/><line x1="344.91866251177817" y1="94" x2="341.91866251177817" y2="97.5" style="stroke:#002eb8;"/><line x1="341.91866251177817" y1="97.5" x2="344.91866251177817" y2="101" style="stroke:#002eb8;"/><line x1="352.91866251177817" y1="94" x2="349.91866251177817" y2="97.5" style="stroke:#002eb8;"/><line x1="349.91866251177817" y1="97.5" x2="352.91866251177817" y2="101" style="stroke:#002eb8;"/><line x1="360.91866251177817" y1="94" x2="357.91866251177817" y2="97.5" style="stroke:#002eb8;"/><line x1="357.91866251177817" y1="97.5" x2="360.91866251177817" y2="101" style="stroke:#002eb8;"/><line x1="368.91866251177817" y1="94" x2="365.91866251177817" y2="97.5" style="stroke:#002eb8;"/><line x1="365.91866251177817" y1="97.5" x2="368.91866251177817" y2="101" style="stroke:#002eb8;"/><line x1="376.91866251177817" y1="94" x2="373.91866251177817" y2="97.5" style="stroke:#002eb8;"/><line x1="373.91866251177817" y1="97.5" x2="376.91866251177817" y2="101" style="stroke:#002eb8;"/><line x1="384.91866251177817" y1="94" x2="381.91866251177817" y2="97.5" style="stroke:#002eb8;"/><line x1="381.91866251177817" y1="97.5" x2="384.91866251177817" y2="101" style="stroke:#002eb8;"/><line x1="392.91866251177817" y1="94" x2="389.91866251177817" y2="97.5" style="stroke:#002eb8;"/><line x1="389.91866251177817" y1="97.5" x2="392.91866251177817" y2="101" style="stroke:#002eb8;"/><line x1="400.91866251177817" y1="94" x2="397.91866251177817" y2="97.5" style="stroke:#002eb8;"/><line x1="397.91866251177817" y1="97.5" x2="400.91866251177817" y2="101" style="stroke:#002eb8;"/><line x1="408.91866251177817" y1="94" x2="405.91866251177817" y2="97.5" style="stroke:#002eb8;"/><line x1="405.91866251177817" y1="97.5" x2="408.91866251177817" y2="101" style="stroke:#002eb8;"/><line x1="416.91866251177817" y1="94" x2="413.91866251177817" y2="97.5" style="stroke:#002eb8;"/><line x1="413.91866251177817" y1="97.5" x2="416.91866251177817" y2="101" style="stroke:#002eb8;"/><line x1="424.91866251177817" y1="94" x2="421.91866251177817" y2="97.5" style="stroke:#002eb8;"/><line x1="421.91866251177817" y1="97.5" x2="424.91866251177817" y2="101" style="stroke:#002eb8;"/><line x1="432.91866251177817" y1="94" x2="429.91866251177817" y2="97.5" style="stroke:#002eb8;"/><line x1="429.91866251177817" y1="97.5" x2="432.91866251177817" y2="101" style="stroke:#002eb8;"/><line x1="440.91866251177817" y1="94" x2="437.91866251177817" y2="97.5" style="stroke:#002eb8;"/><line x1="437.91866251177817" y1="97.5" x2="440.91866251177817" y2="101" style="stroke:#002eb8;"/><rect x="11.211733044297716" y="94" width="8.806187992289551" height="7" style="fill:#002EB8;"/><rect x="442.8814070785015" y="94" width="1" height="7" style="fill:#002EB8;"/><rect x="20.017921036587268" y="92" width="1" height="11" style="fill:#002EB8;"/><rect x="24.163161492557492" y="92" width="1" height="11" style="fill:#002EB8;"/><rect x="43.32265871818413" y="92" width="1" height="11" style="fill:#002EB8;"/><rect x="47.467899174154354" y="92" width="1" height="11" style="fill:#002EB8;"/><rect x="100.49760129080732" y="92" width="1" height="11" style="fill:#002EB8;"/><rect x="105.44251411820505" y="92" width="1" height="11" style="fill:#002EB8;"/><rect x="223.02699240665356" y="92" width="1" height="11" style="fill:#002EB8;"/><rect x="442.6627211646828" y="92" width="1" height="11" style="fill:#002EB8;"/><text font-family="arial" x="444.6255919792584" y="102" style="font-size:8pt;fill:#002eb8;">CD99L2</text><line x1="11.211733044297716" y1="109" x2="443.6255919792584" y2="109" style="stroke:#002eb8;stroke-width:1;"/><line x1="16.918662511778166" y1="106" x2="13.918662511778166" y2="109.5" style="stroke:#002eb8;"/><line x1="13.918662511778166" y1="109.5" x2="16.918662511778166" y2="113" style="stroke:#002eb8;"/><line x1="24.918662511778166" y1="106" x2="21.918662511778166" y2="109.5" style="stroke:#002eb8;"/><line x1="21.918662511778166" y1="109.5" x2="24.918662511778166" y2="113" style="stroke:#002eb8;"/><line x1="32.918662511778166" y1="106" x2="29.918662511778166" y2="109.5" style="stroke:#002eb8;"/><line x1="29.918662511778166" y1="109.5" x2="32.918662511778166" y2="113" style="stroke:#002eb8;"/><line x1="40.918662511778166" y1="106" x2="37.918662511778166" y2="109.5" style="stroke:#002eb8;"/><line x1="37.918662511778166" y1="109.5" x2="40.918662511778166" y2="113" style="stroke:#002eb8;"/><line x1="48.918662511778166" y1="106" x2="45.918662511778166" y2="109.5" style="stroke:#002eb8;"/><line x1="45.918662511778166" y1="109.5" x2="48.918662511778166" y2="113" style="stroke:#002eb8;"/><line x1="56.918662511778166" y1="106" x2="53.918662511778166" y2="109.5" style="stroke:#002eb8;"/><line x1="53.918662511778166" y1="109.5" x2="56.918662511778166" y2="113" style="stroke:#002eb8;"/><line x1="64.91866251177817" y1="106" x2="61.918662511778166" y2="109.5" style="stroke:#002eb8;"/><line x1="61.918662511778166" y1="109.5" x2="64.91866251177817" y2="113" style="stroke:#002eb8;"/><line x1="72.91866251177817" y1="106" x2="69.91866251177817" y2="109.5" style="stroke:#002eb8;"/><line x1="69.91866251177817" y1="109.5" x2="72.91866251177817" y2="113" style="stroke:#002eb8;"/><line x1="80.91866251177817" y1="106" x2="77.91866251177817" y2="109.5" style="stroke:#002eb8;"/><line x1="77.91866251177817" y1="109.5" x2="80.91866251177817" y2="113" style="stroke:#002eb8;"/><line x1="88.91866251177817" y1="106" x2="85.91866251177817" y2="109.5" style="stroke:#002eb8;"/><line x1="85.91866251177817" y1="109.5" x2="88.91866251177817" y2="113" style="stroke:#002eb8;"/><line x1="96.91866251177817" y1="106" x2="93.91866251177817" y2="109.5" style="stroke:#002eb8;"/><line x1="93.91866251177817" y1="109.5" x2="96.91866251177817" y2="113" style="stroke:#002eb8;"/><line x1="104.91866251177817" y1="106" x2="101.91866251177817" y2="109.5" style="stroke:#002eb8;"/><line x1="101.91866251177817" y1="109.5" x2="104.91866251177817" y2="113" style="stroke:#002eb8;"/><line x1="112.91866251177817" y1="106" x2="109.91866251177817" y2="109.5" style="stroke:#002eb8;"/><line x1="109.91866251177817" y1="109.5" x2="112.91866251177817" y2="113" style="stroke:#002eb8;"/><line x1="120.91866251177817" y1="106" x2="117.91866251177817" y2="109.5" style="stroke:#002eb8;"/><line x1="117.91866251177817" y1="109.5" x2="120.91866251177817" y2="113" style="stroke:#002eb8;"/><line x1="128.91866251177817" y1="106" x2="125.91866251177817" y2="109.5" style="stroke:#002eb8;"/><line x1="125.91866251177817" y1="109.5" x2="128.91866251177817" y2="113" style="stroke:#002eb8;"/><line x1="136.91866251177817" y1="106" x2="133.91866251177817" y2="109.5" style="stroke:#002eb8;"/><line x1="133.91866251177817" y1="109.5" x2="136.91866251177817" y2="113" style="stroke:#002eb8;"/><line x1="144.91866251177817" y1="106" x2="141.91866251177817" y2="109.5" style="stroke:#002eb8;"/><line x1="141.91866251177817" y1="109.5" x2="144.91866251177817" y2="113" style="stroke:#002eb8;"/><line x1="152.91866251177817" y1="106" x2="149.91866251177817" y2="109.5" style="stroke:#002eb8;"/><line x1="149.91866251177817" y1="109.5" x2="152.91866251177817" y2="113" style="stroke:#002eb8;"/><line x1="160.91866251177817" y1="106" x2="157.91866251177817" y2="109.5" style="stroke:#002eb8;"/><line x1="157.91866251177817" y1="109.5" x2="160.91866251177817" y2="113" style="stroke:#002eb8;"/><line x1="168.91866251177817" y1="106" x2="165.91866251177817" y2="109.5" style="stroke:#002eb8;"/><line x1="165.91866251177817" y1="109.5" x2="168.91866251177817" y2="113" style="stroke:#002eb8;"/><line x1="176.91866251177817" y1="106" x2="173.91866251177817" y2="109.5" style="stroke:#002eb8;"/><line x1="173.91866251177817" y1="109.5" x2="176.91866251177817" y2="113" style="stroke:#002eb8;"/><line x1="184.91866251177817" y1="106" x2="181.91866251177817" y2="109.5" style="stroke:#002eb8;"/><line x1="181.91866251177817" y1="109.5" x2="184.91866251177817" y2="113" style="stroke:#002eb8;"/><line x1="192.91866251177817" y1="106" x2="189.91866251177817" y2="109.5" style="stroke:#002eb8;"/><line x1="189.91866251177817" y1="109.5" x2="192.91866251177817" y2="113" style="stroke:#002eb8;"/><line x1="200.91866251177817" y1="106" x2="197.91866251177817" y2="109.5" style="stroke:#002eb8;"/><line x1="197.91866251177817" y1="109.5" x2="200.91866251177817" y2="113" style="stroke:#002eb8;"/><line x1="208.91866251177817" y1="106" x2="205.91866251177817" y2="109.5" style="stroke:#002eb8;"/><line x1="205.91866251177817" y1="109.5" x2="208.91866251177817" y2="113" style="stroke:#002eb8;"/><line x1="216.91866251177817" y1="106" x2="213.91866251177817" y2="109.5" style="stroke:#002eb8;"/><line x1="213.91866251177817" y1="109.5" x2="216.91866251177817" y2="113" style="stroke:#002eb8;"/><line x1="224.91866251177817" y1="106" x2="221.91866251177817" y2="109.5" style="stroke:#002eb8;"/><line x1="221.91866251177817" y1="109.5" x2="224.91866251177817" y2="113" style="stroke:#002eb8;"/><line x1="232.91866251177817" y1="106" x2="229.91866251177817" y2="109.5" style="stroke:#002eb8;"/><line x1="229.91866251177817" y1="109.5" x2="232.91866251177817" y2="113" style="stroke:#002eb8;"/><line x1="240.91866251177817" y1="106" x2="237.91866251177817" y2="109.5" style="stroke:#002eb8;"/><line x1="237.91866251177817" y1="109.5" x2="240.91866251177817" y2="113" style="stroke:#002eb8;"/><line x1="248.91866251177817" y1="106" x2="245.91866251177817" y2="109.5" style="stroke:#002eb8;"/><line x1="245.91866251177817" y1="109.5" x2="248.91866251177817" y2="113" style="stroke:#002eb8;"/><line x1="256.91866251177817" y1="106" x2="253.91866251177817" y2="109.5" style="stroke:#002eb8;"/><line x1="253.91866251177817" y1="109.5" x2="256.91866251177817" y2="113" style="stroke:#002eb8;"/><line x1="264.91866251177817" y1="106" x2="261.91866251177817" y2="109.5" style="stroke:#002eb8;"/><line x1="261.91866251177817" y1="109.5" x2="264.91866251177817" y2="113" style="stroke:#002eb8;"/><line x1="272.91866251177817" y1="106" x2="269.91866251177817" y2="109.5" style="stroke:#002eb8;"/><line x1="269.91866251177817" y1="109.5" x2="272.91866251177817" y2="113" style="stroke:#002eb8;"/><line x1="280.91866251177817" y1="106" x2="277.91866251177817" y2="109.5" style="stroke:#002eb8;"/><line x1="277.91866251177817" y1="109.5" x2="280.91866251177817" y2="113" style="stroke:#002eb8;"/><line x1="288.91866251177817" y1="106" x2="285.91866251177817" y2="109.5" style="stroke:#002eb8;"/><line x1="285.91866251177817" y1="109.5" x2="288.91866251177817" y2="113" style="stroke:#002eb8;"/><line x1="296.91866251177817" y1="106" x2="293.91866251177817" y2="109.5" style="stroke:#002eb8;"/><line x1="293.91866251177817" y1="109.5" x2="296.91866251177817" y2="113" style="stroke:#002eb8;"/><line x1="304.91866251177817" y1="106" x2="301.91866251177817" y2="109.5" style="stroke:#002eb8;"/><line x1="301.91866251177817" y1="109.5" x2="304.91866251177817" y2="113" style="stroke:#002eb8;"/><line x1="312.91866251177817" y1="106" x2="309.91866251177817" y2="109.5" style="stroke:#002eb8;"/><line x1="309.91866251177817" y1="109.5" x2="312.91866251177817" y2="113" style="stroke:#002eb8;"/><line x1="320.91866251177817" y1="106" x2="317.91866251177817" y2="109.5" style="stroke:#002eb8;"/><line x1="317.91866251177817" y1="109.5" x2="320.91866251177817" y2="113" style="stroke:#002eb8;"/><line x1="328.91866251177817" y1="106" x2="325.91866251177817" y2="109.5" style="stroke:#002eb8;"/><line x1="325.91866251177817" y1="109.5" x2="328.91866251177817" y2="113" style="stroke:#002eb8;"/><line x1="336.91866251177817" y1="106" x2="333.91866251177817" y2="109.5" style="stroke:#002eb8;"/><line x1="333.91866251177817" y1="109.5" x2="336.91866251177817" y2="113" style="stroke:#002eb8;"/><line x1="344.91866251177817" y1="106" x2="341.91866251177817" y2="109.5" style="stroke:#002eb8;"/><line x1="341.91866251177817" y1="109.5" x2="344.91866251177817" y2="113" style="stroke:#002eb8;"/><line x1="352.91866251177817" y1="106" x2="349.91866251177817" y2="109.5" style="stroke:#002eb8;"/><line x1="349.91866251177817" y1="109.5" x2="352.91866251177817" y2="113" style="stroke:#002eb8;"/><line x1="360.91866251177817" y1="106" x2="357.91866251177817" y2="109.5" style="stroke:#002eb8;"/><line x1="357.91866251177817" y1="109.5" x2="360.91866251177817" y2="113" style="stroke:#002eb8;"/><line x1="368.91866251177817" y1="106" x2="365.91866251177817" y2="109.5" style="stroke:#002eb8;"/><line x1="365.91866251177817" y1="109.5" x2="368.91866251177817" y2="113" style="stroke:#002eb8;"/><line x1="376.91866251177817" y1="106" x2="373.91866251177817" y2="109.5" style="stroke:#002eb8;"/><line x1="373.91866251177817" y1="109.5" x2="376.91866251177817" y2="113" style="stroke:#002eb8;"/><line x1="384.91866251177817" y1="106" x2="381.91866251177817" y2="109.5" style="stroke:#002eb8;"/><line x1="381.91866251177817" y1="109.5" x2="384.91866251177817" y2="113" style="stroke:#002eb8;"/><line x1="392.91866251177817" y1="106" x2="389.91866251177817" y2="109.5" style="stroke:#002eb8;"/><line x1="389.91866251177817" y1="109.5" x2="392.91866251177817" y2="113" style="stroke:#002eb8;"/><line x1="400.91866251177817" y1="106" x2="397.91866251177817" y2="109.5" style="stroke:#002eb8;"/><line x1="397.91866251177817" y1="109.5" x2="400.91866251177817" y2="113" style="stroke:#002eb8;"/><line x1="408.91866251177817" y1="106" x2="405.91866251177817" y2="109.5" style="stroke:#002eb8;"/><line x1="405.91866251177817" y1="109.5" x2="408.91866251177817" y2="113" style="stroke:#002eb8;"/><line x1="416.91866251177817" y1="106" x2="413.91866251177817" y2="109.5" style="stroke:#002eb8;"/><line x1="413.91866251177817" y1="109.5" x2="416.91866251177817" y2="113" style="stroke:#002eb8;"/><line x1="424.91866251177817" y1="106" x2="421.91866251177817" y2="109.5" style="stroke:#002eb8;"/><line x1="421.91866251177817" y1="109.5" x2="424.91866251177817" y2="113" style="stroke:#002eb8;"/><line x1="432.91866251177817" y1="106" x2="429.91866251177817" y2="109.5" style="stroke:#002eb8;"/><line x1="429.91866251177817" y1="109.5" x2="432.91866251177817" y2="113" style="stroke:#002eb8;"/><line x1="440.91866251177817" y1="106" x2="437.91866251177817" y2="109.5" style="stroke:#002eb8;"/><line x1="437.91866251177817" y1="109.5" x2="440.91866251177817" y2="113" style="stroke:#002eb8;"/><rect x="11.211733044297716" y="106" width="8.806187992289551" height="7" style="fill:#002EB8;"/><rect x="442.8814070785015" y="106" width="1" height="7" style="fill:#002EB8;"/><rect x="20.017921036587268" y="104" width="1" height="11" style="fill:#002EB8;"/><rect x="24.163161492557492" y="104" width="1" height="11" style="fill:#002EB8;"/><rect x="43.32265871818413" y="104" width="1" height="11" style="fill:#002EB8;"/><rect x="47.467899174154354" y="104" width="1" height="11" style="fill:#002EB8;"/><rect x="100.49760129080732" y="104" width="1" height="11" style="fill:#002EB8;"/><rect x="105.44251411820505" y="104" width="1" height="11" style="fill:#002EB8;"/><rect x="106.13447551715444" y="104" width="1" height="11" style="fill:#002EB8;"/><rect x="223.02699240665356" y="104" width="1" height="11" style="fill:#002EB8;"/><rect x="442.6627211646828" y="104" width="1" height="11" style="fill:#002EB8;"/><text font-family="arial" x="444.6255919792584" y="114" style="font-size:8pt;fill:#002eb8;">CD99L2</text><line x1="719.3428337408163" y1="49" x2="743.7769046490002" y2="49" style="stroke:#002eb8;stroke-width:1;"/><line x1="722.0598691949083" y1="46" x2="725.0598691949083" y2="49.5" style="stroke:#002eb8;"/><line x1="725.0598691949083" y1="49.5" x2="722.0598691949083" y2="53" style="stroke:#002eb8;"/><line x1="730.0598691949083" y1="46" x2="733.0598691949083" y2="49.5" style="stroke:#002eb8;"/><line x1="733.0598691949083" y1="49.5" x2="730.0598691949083" y2="53" style="stroke:#002eb8;"/><line x1="738.0598691949083" y1="46" x2="741.0598691949083" y2="49.5" style="stroke:#002eb8;"/><line x1="741.0598691949083" y1="49.5" x2="738.0598691949083" y2="53" style="stroke:#002eb8;"/><rect x="719.3428337408163" y="46" width="1" height="7" style="fill:#002EB8;"/><rect x="726.8662819699593" y="46" width="1" height="7" style="fill:#002EB8;"/><rect x="734.4386897320467" y="46" width="9.338214916953575" height="7" style="fill:#002EB8;"/><rect x="726.882601814274" y="44" width="1" height="11" style="fill:#002EB8;"/><rect x="728.3546517714731" y="44" width="1" height="11" style="fill:#002EB8;"/><rect x="731.8699462368904" y="44" width="1" height="11" style="fill:#002EB8;"/><rect x="733.988262028957" y="44" width="1" height="11" style="fill:#002EB8;"/><text font-family="arial" x="680.4343254400351" y="54" style="font-size:8pt;fill:#002eb8;">HMGB3</text><line x1="0" y1="115" x2="1060" y2="115" style="stroke:#ccc;stroke-width:0.5;"/><rect x="0" y="115" width="1060" height="12" style="fill:white;"/><rect x="29.63683727575608" y="116" width="1.9159497225628002" height="11" style="fill:#336666;"/><rect x="441.3930372769878" y="116" width="3.547934154047198" height="11" style="fill:#336666;"/><rect x="671.7770155007729" y="116" width="3.2835526761466554" height="11" style="fill:#336666;"/><rect x="717.619458181169" y="116" width="2.392489176555955" height="11" style="fill:#336666;"/><rect x="1041.2680826954224" y="116" width="3.2019534545725037" height="11" style="fill:#336666;"/><line x1="0" y1="127" x2="1060" y2="127" style="stroke:#ccc;stroke-width:0.5;"/><rect x="0" y="127" width="1060" height="218" style="fill:white;"/><path d="M30.854297661643614 127 A 291.07103662946076 291.07103662946076 1 0 0 443.19801205820954 127" style="fill: none; stroke:rgb(184,0,138);stroke-opacity:0.15384615384615385; stroke-width:1;"/><path d="M30.854297661643614 127 A 453.8201676411052 453.8201676411052 1 0 0 673.3600403993128 127" style="fill: none; stroke:rgb(184,0,138);stroke-opacity:0.07692307692307693; stroke-width:1;"/><path d="M30.854297661643614 127 A 485.5432773715927 485.5432773715927 1 0 0 718.2232924208181 127" style="fill: none; stroke:rgb(184,0,138);stroke-opacity:0.15384615384615385; stroke-width:1;"/><path d="M30.854297661643614 127 A 534.8554608929891 534.8554608929891 1 0 0 787.9612511470079 127" style="fill: none; stroke:rgb(184,0,138);stroke-opacity:0.23076923076923078; stroke-width:1;"/><path d="M30.854297661643614 127 A 714.2173924750263 714.2173924750263 1 0 0 1041.61732736376 127" style="fill: none; stroke:rgb(184,0,138);stroke-opacity:1; stroke-width:1;"/><path d="M30.854297661643614 127 A 714.2173924750263 714.2173924750263 1 0 0 1041.61732736376 127" style="fill: none; stroke:rgb(184,0,138);stroke-opacity:1; stroke-width:1;"/><path d="M443.1947480893466 127 A 422.64866382008205 422.64866382008205 1 0 0 1041.61732736376 127" style="fill: none; stroke:rgb(184,0,138);stroke-opacity:0.07692307692307693; stroke-width:1;"/><path d="M443.1947480893466 127 A 162.251438986161 162.251438986161 1 0 0 673.3600403993128 127" style="fill: none; stroke:rgb(184,0,138);stroke-opacity:0.07692307692307693; stroke-width:1;"/><path d="M443.1947480893466 127 A 193.97454871664848 193.97454871664848 1 0 0 718.2232924208181 127" style="fill: none; stroke:rgb(184,0,138);stroke-opacity:0.19230769230769232; stroke-width:1;"/><path d="M443.1947480893466 127 A 198.9343859527938 198.9343859527938 1 0 0 725.2375615073379 127" style="fill: none; stroke:rgb(184,0,138);stroke-opacity:0.07692307692307693; stroke-width:1;"/><path d="M673.3567764304498 127 A 259.89953280843764 259.89953280843764 1 0 0 1041.61732736376 127" style="fill: none; stroke:rgb(184,0,138);stroke-opacity:0.07692307692307693; stroke-width:1;"/><path d="M30.854297661643614 127 A 453.8201676411052 453.8201676411052 1 0 0 673.3600403993128 127" style="fill: none; stroke:rgb(184,0,138);stroke-opacity:0.07692307692307693; stroke-width:1;"/><path d="M30.854297661643614 127 A 485.5432773715927 485.5432773715927 1 0 0 718.2232924208181 127" style="fill: none; stroke:rgb(184,0,138);stroke-opacity:0.15384615384615385; stroke-width:1;"/><path d="M443.1947480893466 127 A 422.64866382008205 422.64866382008205 1 0 0 1041.61732736376 127" style="fill: none; stroke:rgb(184,0,138);stroke-opacity:0.07692307692307693; stroke-width:1;"/><path d="M30.854297661643614 127 A 714.2173924750263 714.2173924750263 1 0 0 1041.61732736376 127" style="fill: none; stroke:rgb(184,0,138);stroke-opacity:1; stroke-width:1;"/><path d="M30.854297661643614 127 A 714.2173924750263 714.2173924750263 1 0 0 1041.61732736376 127" style="fill: none; stroke:rgb(184,0,138);stroke-opacity:1; stroke-width:1;"/><rect x="0" y="20" width="1060" height="14" style="fill:rgb(255,255,255);"/><text font-family="arial" x="520.8156585693359" y="30" style="font-size:8pt;fill:#000000;">q28</text><line x1="0" y1="20.5" x2="1060" y2="20.5" style="stroke:#000000;"/><line x1="0" y1="33.5" x2="1060" y2="33.5" style="stroke:#000000;"/><text font-family="arial" x="518.1506652832031" y="43" style="font-size:8pt;fill:#000000;">chrX</text><rect x="1060" y="0" width="0" height="20" style="fill:white;"/><rect x="1060" y="20" width="0" height="459" style="fill:white;"/></svg>