<svg xmlns="http://www.w3.org/2000/svg" version="1.1" width="1060" height="490"><line x1="0" y1="16.5" x2="1060" y2="16.5" style="stroke:#000000;"/><line x1="3.608815603325638" y1="15" x2="3.608815603325638" y2="17" style="stroke:#000000;"/><line x1="21.00565725595993" y1="12" x2="21.00565725595993" y2="17" style="stroke:#000000;"/><line x1="38.402498908594225" y1="15" x2="38.402498908594225" y2="17" style="stroke:#000000;"/><line x1="55.79934056122852" y1="15" x2="55.79934056122852" y2="17" style="stroke:#000000;"/><line x1="73.19618221386281" y1="15" x2="73.19618221386281" y2="17" style="stroke:#000000;"/><text font-family="arial" x="65.5661683977471" y="10" style="font-size:8pt;fill:#000000;">222930000</text><line x1="90.5930238664971" y1="12" x2="90.5930238664971" y2="17" style="stroke:#000000;"/><line x1="107.98986551913163" y1="15" x2="107.98986551913163" y2="17" style="stroke:#000000;"/><line x1="125.38670717176592" y1="15" x2="125.38670717176592" y2="17" style="stroke:#000000;"/><line x1="142.7835488244002" y1="15" x2="142.7835488244002" y2="17" style="stroke:#000000;"/><text font-family="arial" x="135.1535350082845" y="10" style="font-size:8pt;fill:#000000;">222970000</text><line x1="160.1803904770345" y1="12" x2="160.1803904770345" y2="17" style="stroke:#000000;"/><line x1="177.5772321296688" y1="15" x2="177.5772321296688" y2="17" style="stroke:#000000;"/><line x1="194.9740737823031" y1="15" x2="194.9740737823031" y2="17" style="stroke:#000000;"/><line x1="212.3709154349374" y1="15" x2="212.3709154349374" y2="17" style="stroke:#000000;"/><text font-family="arial" x="204.74090161882168" y="10" style="font-size:8pt;fill:#000000;">223010000</text><line x1="229.76775708757168" y1="12" x2="229.76775708757168" y2="17" style="stroke:#000000;"/><line x1="247.16459874020597" y1="15" x2="247.16459874020597" y2="17" style="stroke:#000000;"/><line x1="264.56144039284027" y1="15" x2="264.56144039284027" y2="17" style="stroke:#000000;"/><line x1="281.95828204547456" y1="15" x2="281.95828204547456" y2="17" style="stroke:#000000;"/><text font-family="arial" x="274.32826822935886" y="10" style="font-size:8pt;fill:#000000;">223050000</text><line x1="299.35512369810886" y1="12" x2="299.35512369810886" y2="17" style="stroke:#000000;"/><line x1="316.75196535074315" y1="15" x2="316.75196535074315" y2="17" style="stroke:#000000;"/><line x1="334.14880700337744" y1="15" x2="334.14880700337744" y2="17" style="stroke:#000000;"/><line x1="351.54564865601174" y1="15" x2="351.54564865601174" y2="17" style="stroke:#000000;"/><text font-family="arial" x="343.91563483989603" y="10" style="font-size:8pt;fill:#000000;">223090000</text><line x1="368.94249030864603" y1="12" x2="368.94249030864603" y2="17" style="stroke:#000000;"/><line x1="386.33933196128055" y1="15" x2="386.33933196128055" y2="17" style="stroke:#000000;"/><line x1="403.73617361391484" y1="15" x2="403.73617361391484" y2="17" style="stroke:#000000;"/><line x1="421.13301526654914" y1="15" x2="421.13301526654914" y2="17" style="stroke:#000000;"/><text font-family="arial" x="413.50300145043343" y="10" style="font-size:8pt;fill:#000000;">223130000</text><line x1="438.52985691918343" y1="12" x2="438.52985691918343" y2="17" style="stroke:#000000;"/><line x1="455.9266985718177" y1="15" x2="455.9266985718177" y2="17" style="stroke:#000000;"/><line x1="473.323540224452" y1="15" x2="473.323540224452" y2="17" style="stroke:#000000;"/><line x1="490.7203818770863" y1="15" x2="490.7203818770863" y2="17" style="stroke:#000000;"/><text font-family="arial" x="483.0903680609706" y="10" style="font-size:8pt;fill:#000000;">223170000</text><line x1="508.1172235297206" y1="12" x2="508.1172235297206" y2="17" style="stroke:#000000;"/><line x1="525.5140651823549" y1="15" x2="525.5140651823549" y2="17" style="stroke:#000000;"/><line x1="542.9109068349892" y1="15" x2="542.9109068349892" y2="17" style="stroke:#000000;"/><line x1="560.3077484876235" y1="15" x2="560.3077484876235" y2="17" style="stroke:#000000;"/><text font-family="arial" x="552.6777346715078" y="10" style="font-size:8pt;fill:#000000;">223210000</text><line x1="577.7045901402578" y1="12" x2="577.7045901402578" y2="17" style="stroke:#000000;"/><line x1="595.1014317928921" y1="15" x2="595.1014317928921" y2="17" style="stroke:#000000;"/><line x1="612.4982734455264" y1="15" x2="612.4982734455264" y2="17" style="stroke:#000000;"/><line x1="629.8951150981607" y1="15" x2="629.8951150981607" y2="17" style="stroke:#000000;"/><text font-family="arial" x="622.265101282045" y="10" style="font-size:8pt;fill:#000000;">223250000</text><line x1="647.291956750795" y1="12" x2="647.291956750795" y2="17" style="stroke:#000000;"/><line x1="664.6887984034292" y1="15" x2="664.6887984034292" y2="17" style="stroke:#000000;"/><line x1="682.0856400560638" y1="15" x2="682.0856400560638" y2="17" style="stroke:#000000;"/><line x1="699.4824817086981" y1="15" x2="699.4824817086981" y2="17" style="stroke:#000000;"/><text font-family="arial" x="691.8524678925824" y="10" style="font-size:8pt;fill:#000000;">223290000</text><line x1="716.8793233613324" y1="12" x2="716.8793233613324" y2="17" style="stroke:#000000;"/><line x1="734.2761650139666" y1="15" x2="734.2761650139666" y2="17" style="stroke:#000000;"/><line x1="751.6730066666009" y1="15" x2="751.6730066666009" y2="17" style="stroke:#000000;"/><line x1="769.0698483192352" y1="15" x2="769.0698483192352" y2="17" style="stroke:#000000;"/><text font-family="arial" x="761.4398345031195" y="10" style="font-size:8pt;fill:#000000;">223330000</text><line x1="786.4666899718695" y1="12" x2="786.4666899718695" y2="17" style="stroke:#000000;"/><line x1="803.8635316245038" y1="15" x2="803.8635316245038" y2="17" style="stroke:#000000;"/><line x1="821.2603732771381" y1="15" x2="821.2603732771381" y2="17" style="stroke:#000000;"/><line x1="838.6572149297724" y1="15" x2="838.6572149297724" y2="17" style="stroke:#000000;"/><text font-family="arial" x="831.0272011136567" y="10" style="font-size:8pt;fill:#000000;">223370000</text><line x1="856.0540565824067" y1="12" x2="856.0540565824067" y2="17" style="stroke:#000000;"/><line x1="873.450898235041" y1="15" x2="873.450898235041" y2="17" style="stroke:#000000;"/><line x1="890.8477398876753" y1="15" x2="890.8477398876753" y2="17" style="stroke:#000000;"/><line x1="908.2445815403096" y1="15" x2="908.2445815403096" y2="17" style="stroke:#000000;"/><text font-family="arial" x="900.6145677241939" y="10" style="font-size:8pt;fill:#000000;">223410000</text><line x1="925.6414231929439" y1="12" x2="925.6414231929439" y2="17" style="stroke:#000000;"/><line x1="943.0382648455782" y1="15" x2="943.0382648455782" y2="17" style="stroke:#000000;"/><line x1="960.4351064982127" y1="15" x2="960.4351064982127" y2="17" style="stroke:#000000;"/><line x1="977.831948150847" y1="15" x2="977.831948150847" y2="17" style="stroke:#000000;"/><text font-family="arial" x="970.201934334731" y="10" style="font-size:8pt;fill:#000000;">223450000</text><line x1="995.228789803481" y1="12" x2="995.228789803481" y2="17" style="stroke:#000000;"/><line x1="1012.6256314561156" y1="15" x2="1012.6256314561156" y2="17" style="stroke:#000000;"/><line x1="1030.0224731087496" y1="15" x2="1030.0224731087496" y2="17" style="stroke:#000000;"/><line x1="1047.4193147613842" y1="15" x2="1047.4193147613842" y2="17" style="stroke:#000000;"/><text font-family="arial" x="1039.7893009452682" y="10" style="font-size:8pt;fill:#000000;">223490000</text><line x1="0" y1="43" x2="1060" y2="43" style="stroke:#ccc;stroke-width:0.5;"/><rect x="0" y="43" width="1060" height="108" style="fill:white;"/><line x1="324.2614712476161" y1="49" x2="496.6815688668746" y2="49" style="stroke:#002eb8;stroke-width:1;"/><line x1="331.97152005724547" y1="46" x2="328.97152005724547" y2="49.5" style="stroke:#002eb8;"/><line x1="328.97152005724547" y1="49.5" x2="331.97152005724547" y2="53" style="stroke:#002eb8;"/><line x1="339.97152005724547" y1="46" x2="336.97152005724547" y2="49.5" style="stroke:#002eb8;"/><line x1="336.97152005724547" y1="49.5" x2="339.97152005724547" y2="53" style="stroke:#002eb8;"/><line x1="347.97152005724547" y1="46" x2="344.97152005724547" y2="49.5" style="stroke:#002eb8;"/><line x1="344.97152005724547" y1="49.5" x2="347.97152005724547" y2="53" style="stroke:#002eb8;"/><line x1="355.97152005724547" y1="46" x2="352.97152005724547" y2="49.5" style="stroke:#002eb8;"/><line x1="352.97152005724547" y1="49.5" x2="355.97152005724547" y2="53" style="stroke:#002eb8;"/><line x1="363.97152005724547" y1="46" x2="360.97152005724547" y2="49.5" style="stroke:#002eb8;"/><line x1="360.97152005724547" y1="49.5" x2="363.97152005724547" y2="53" style="stroke:#002eb8;"/><line x1="371.97152005724547" y1="46" x2="368.97152005724547" y2="49.5" style="stroke:#002eb8;"/><line x1="368.97152005724547" y1="49.5" x2="371.97152005724547" y2="53" style="stroke:#002eb8;"/><line x1="379.97152005724547" y1="46" x2="376.97152005724547" y2="49.5" style="stroke:#002eb8;"/><line x1="376.97152005724547" y1="49.5" x2="379.97152005724547" y2="53" style="stroke:#002eb8;"/><line x1="387.97152005724547" y1="46" x2="384.97152005724547" y2="49.5" style="stroke:#002eb8;"/><line x1="384.97152005724547" y1="49.5" x2="387.97152005724547" y2="53" style="stroke:#002eb8;"/><line x1="395.97152005724547" y1="46" x2="392.97152005724547" y2="49.5" style="stroke:#002eb8;"/><line x1="392.97152005724547" y1="49.5" x2="395.97152005724547" y2="53" style="stroke:#002eb8;"/><line x1="403.97152005724547" y1="46" x2="400.97152005724547" y2="49.5" style="stroke:#002eb8;"/><line x1="400.97152005724547" y1="49.5" x2="403.97152005724547" y2="53" style="stroke:#002eb8;"/><line x1="411.97152005724547" y1="46" x2="408.97152005724547" y2="49.5" style="stroke:#002eb8;"/><line x1="408.97152005724547" y1="49.5" x2="411.97152005724547" y2="53" style="stroke:#002eb8;"/><line x1="419.97152005724547" y1="46" x2="416.97152005724547" y2="49.5" style="stroke:#002eb8;"/><line x1="416.97152005724547" y1="49.5" x2="419.97152005724547" y2="53" style="stroke:#002eb8;"/><line x1="427.97152005724547" y1="46" x2="424.97152005724547" y2="49.5" style="stroke:#002eb8;"/><line x1="424.97152005724547" y1="49.5" x2="427.97152005724547" y2="53" style="stroke:#002eb8;"/><line x1="435.97152005724547" y1="46" x2="432.97152005724547" y2="49.5" style="stroke:#002eb8;"/><line x1="432.97152005724547" y1="49.5" x2="435.97152005724547" y2="53" style="stroke:#002eb8;"/><line x1="443.97152005724547" y1="46" x2="440.97152005724547" y2="49.5" style="stroke:#002eb8;"/><line x1="440.97152005724547" y1="49.5" x2="443.97152005724547" y2="53" style="stroke:#002eb8;"/><line x1="451.97152005724547" y1="46" x2="448.97152005724547" y2="49.5" style="stroke:#002eb8;"/><line x1="448.97152005724547" y1="49.5" x2="451.97152005724547" y2="53" style="stroke:#002eb8;"/><line x1="459.97152005724547" y1="46" x2="456.97152005724547" y2="49.5" style="stroke:#002eb8;"/><line x1="456.97152005724547" y1="49.5" x2="459.97152005724547" y2="53" style="stroke:#002eb8;"/><line x1="467.97152005724547" y1="46" x2="464.97152005724547" y2="49.5" style="stroke:#002eb8;"/><line x1="464.97152005724547" y1="49.5" x2="467.97152005724547" y2="53" style="stroke:#002eb8;"/><line x1="475.97152005724547" y1="46" x2="472.97152005724547" y2="49.5" style="stroke:#002eb8;"/><line x1="472.97152005724547" y1="49.5" x2="475.97152005724547" y2="53" style="stroke:#002eb8;"/><line x1="483.97152005724547" y1="46" x2="480.97152005724547" y2="49.5" style="stroke:#002eb8;"/><line x1="480.97152005724547" y1="49.5" x2="483.97152005724547" y2="53" style="stroke:#002eb8;"/><line x1="491.97152005724547" y1="46" x2="488.97152005724547" y2="49.5" style="stroke:#002eb8;"/><line x1="488.97152005724547" y1="49.5" x2="491.97152005724547" y2="53" style="stroke:#002eb8;"/><rect x="324.2614712476161" y="46" width="2.6460596153656297" height="7" style="fill:#002EB8;"/><rect x="496.0187491999093" y="46" width="1" height="7" style="fill:#002EB8;"/><rect x="326.90753086298173" y="44" width="1" height="11" style="fill:#002EB8;"/><rect x="327.84000157556284" y="44" width="1" height="11" style="fill:#002EB8;"/><rect x="359.49529464669627" y="44" width="1" height="11" style="fill:#002EB8;"/><rect x="361.37763291351143" y="44" width="1" height="11" style="fill:#002EB8;"/><rect x="380.2636442116111" y="44" width="1" height="11" style="fill:#002EB8;"/><rect x="488.27889434865233" y="44" width="1" height="11" style="fill:#002EB8;"/><rect x="490.64660449757594" y="44" width="1" height="11" style="fill:#002EB8;"/><rect x="493.1691465372078" y="44" width="1" height="11" style="fill:#002EB8;"/><rect x="495.8708760458619" y="44" width="1" height="11" style="fill:#002EB8;"/><text font-family="arial" x="296.7884945630458" y="54" style="font-size:8pt;fill:#002eb8;">PAX3</text><line x1="324.2614712476161" y1="61" x2="496.6815688668746" y2="61" style="stroke:#002eb8;stroke-width:1;"/><line x1="331.97152005724547" y1="58" x2="328.97152005724547" y2="61.5" style="stroke:#002eb8;"/><line x1="328.97152005724547" y1="61.5" x2="331.97152005724547" y2="65" style="stroke:#002eb8;"/><line x1="339.97152005724547" y1="58" x2="336.97152005724547" y2="61.5" style="stroke:#002eb8;"/><line x1="336.97152005724547" y1="61.5" x2="339.97152005724547" y2="65" style="stroke:#002eb8;"/><line x1="347.97152005724547" y1="58" x2="344.97152005724547" y2="61.5" style="stroke:#002eb8;"/><line x1="344.97152005724547" y1="61.5" x2="347.97152005724547" y2="65" style="stroke:#002eb8;"/><line x1="355.97152005724547" y1="58" x2="352.97152005724547" y2="61.5" style="stroke:#002eb8;"/><line x1="352.97152005724547" y1="61.5" x2="355.97152005724547" y2="65" style="stroke:#002eb8;"/><line x1="363.97152005724547" y1="58" x2="360.97152005724547" y2="61.5" style="stroke:#002eb8;"/><line x1="360.97152005724547" y1="61.5" x2="363.97152005724547" y2="65" style="stroke:#002eb8;"/><line x1="371.97152005724547" y1="58" x2="368.97152005724547" y2="61.5" style="stroke:#002eb8;"/><line x1="368.97152005724547" y1="61.5" x2="371.97152005724547" y2="65" style="stroke:#002eb8;"/><line x1="379.97152005724547" y1="58" x2="376.97152005724547" y2="61.5" style="stroke:#002eb8;"/><line x1="376.97152005724547" y1="61.5" x2="379.97152005724547" y2="65" style="stroke:#002eb8;"/><line x1="387.97152005724547" y1="58" x2="384.97152005724547" y2="61.5" style="stroke:#002eb8;"/><line x1="384.97152005724547" y1="61.5" x2="387.97152005724547" y2="65" style="stroke:#002eb8;"/><line x1="395.97152005724547" y1="58" x2="392.97152005724547" y2="61.5" style="stroke:#002eb8;"/><line x1="392.97152005724547" y1="61.5" x2="395.97152005724547" y2="65" style="stroke:#002eb8;"/><line x1="403.97152005724547" y1="58" x2="400.97152005724547" y2="61.5" style="stroke:#002eb8;"/><line x1="400.97152005724547" y1="61.5" x2="403.97152005724547" y2="65" style="stroke:#002eb8;"/><line x1="411.97152005724547" y1="58" x2="408.97152005724547" y2="61.5" style="stroke:#002eb8;"/><line x1="408.97152005724547" y1="61.5" x2="411.97152005724547" y2="65" style="stroke:#002eb8;"/><line x1="419.97152005724547" y1="58" x2="416.97152005724547" y2="61.5" style="stroke:#002eb8;"/><line x1="416.97152005724547" y1="61.5" x2="419.97152005724547" y2="65" style="stroke:#002eb8;"/><line x1="427.97152005724547" y1="58" x2="424.97152005724547" y2="61.5" style="stroke:#002eb8;"/><line x1="424.97152005724547" y1="61.5" x2="427.97152005724547" y2="65" style="stroke:#002eb8;"/><line x1="435.97152005724547" y1="58" x2="432.97152005724547" y2="61.5" style="stroke:#002eb8;"/><line x1="432.97152005724547" y1="61.5" x2="435.97152005724547" y2="65" style="stroke:#002eb8;"/><line x1="443.97152005724547" y1="58" x2="440.97152005724547" y2="61.5" style="stroke:#002eb8;"/><line x1="440.97152005724547" y1="61.5" x2="443.97152005724547" y2="65" style="stroke:#002eb8;"/><line x1="451.97152005724547" y1="58" x2="448.97152005724547" y2="61.5" style="stroke:#002eb8;"/><line x1="448.97152005724547" y1="61.5" x2="451.97152005724547" y2="65" style="stroke:#002eb8;"/><line x1="459.97152005724547" y1="58" x2="456.97152005724547" y2="61.5" style="stroke:#002eb8;"/><line x1="456.97152005724547" y1="61.5" x2="459.97152005724547" y2="65" style="stroke:#002eb8;"/><line x1="467.97152005724547" y1="58" x2="464.97152005724547" y2="61.5" style="stroke:#002eb8;"/><line x1="464.97152005724547" y1="61.5" x2="467.97152005724547" y2="65" style="stroke:#002eb8;"/><line x1="475.97152005724547" y1="58" x2="472.97152005724547" y2="61.5" style="stroke:#002eb8;"/><line x1="472.97152005724547" y1="61.5" x2="475.97152005724547" y2="65" style="stroke:#002eb8;"/><line x1="483.97152005724547" y1="58" x2="480.97152005724547" y2="61.5" style="stroke:#002eb8;"/><line x1="480.97152005724547" y1="61.5" x2="483.97152005724547" y2="65" style="stroke:#002eb8;"/><line x1="491.97152005724547" y1="58" x2="488.97152005724547" y2="61.5" style="stroke:#002eb8;"/><line x1="488.97152005724547" y1="61.5" x2="491.97152005724547" y2="65" style="stroke:#002eb8;"/><rect x="324.2614712476161" y="58" width="2.2389735206938894" height="7" style="fill:#002EB8;"/><rect x="496.0187491999093" y="58" width="1" height="7" style="fill:#002EB8;"/><rect x="326.50044476831" y="56" width="1" height="11" style="fill:#002EB8;"/><rect x="326.9144895996428" y="56" width="1" height="11" style="fill:#002EB8;"/><rect x="327.84000157556284" y="56" width="1" height="11" style="fill:#002EB8;"/><rect x="359.49529464669627" y="56" width="1" height="11" style="fill:#002EB8;"/><rect x="361.37763291351143" y="56" width="1" height="11" style="fill:#002EB8;"/><rect x="380.2636442116111" y="56" width="1" height="11" style="fill:#002EB8;"/><rect x="488.27889434865233" y="56" width="1" height="11" style="fill:#002EB8;"/><rect x="490.64660449757594" y="56" width="1" height="11" style="fill:#002EB8;"/><rect x="493.1691465372078" y="56" width="1" height="11" style="fill:#002EB8;"/><rect x="495.8708760458619" y="56" width="1" height="11" style="fill:#002EB8;"/><text font-family="arial" x="296.7884945630458" y="66" style="font-size:8pt;fill:#002eb8;">PAX3</text><line x1="324.2614712476161" y1="73" x2="496.6815688668746" y2="73" style="stroke:#002eb8;stroke-width:1;"/><line x1="331.97152005724547" y1="70" x2="328.97152005724547" y2="73.5" style="stroke:#002eb8;"/><line x1="328.97152005724547" y1="73.5" x2="331.97152005724547" y2="77" style="stroke:#002eb8;"/><line x1="339.97152005724547" y1="70" x2="336.97152005724547" y2="73.5" style="stroke:#002eb8;"/><line x1="336.97152005724547" y1="73.5" x2="339.97152005724547" y2="77" style="stroke:#002eb8;"/><line x1="347.97152005724547" y1="70" x2="344.97152005724547" y2="73.5" style="stroke:#002eb8;"/><line x1="344.97152005724547" y1="73.5" x2="347.97152005724547" y2="77" style="stroke:#002eb8;"/><line x1="355.97152005724547" y1="70" x2="352.97152005724547" y2="73.5" style="stroke:#002eb8;"/><line x1="352.97152005724547" y1="73.5" x2="355.97152005724547" y2="77" style="stroke:#002eb8;"/><line x1="363.97152005724547" y1="70" x2="360.97152005724547" y2="73.5" style="stroke:#002eb8;"/><line x1="360.97152005724547" y1="73.5" x2="363.97152005724547" y2="77" style="stroke:#002eb8;"/><line x1="371.97152005724547" y1="70" x2="368.97152005724547" y2="73.5" style="stroke:#002eb8;"/><line x1="368.97152005724547" y1="73.5" x2="371.97152005724547" y2="77" style="stroke:#002eb8;"/><line x1="379.97152005724547" y1="70" x2="376.97152005724547" y2="73.5" style="stroke:#002eb8;"/><line x1="376.97152005724547" y1="73.5" x2="379.97152005724547" y2="77" style="stroke:#002eb8;"/><line x1="387.97152005724547" y1="70" x2="384.97152005724547" y2="73.5" style="stroke:#002eb8;"/><line x1="384.97152005724547" y1="73.5" x2="387.97152005724547" y2="77" style="stroke:#002eb8;"/><line x1="395.97152005724547" y1="70" x2="392.97152005724547" y2="73.5" style="stroke:#002eb8;"/><line x1="392.97152005724547" y1="73.5" x2="395.97152005724547" y2="77" style="stroke:#002eb8;"/><line x1="403.97152005724547" y1="70" x2="400.97152005724547" y2="73.5" style="stroke:#002eb8;"/><line x1="400.97152005724547" y1="73.5" x2="403.97152005724547" y2="77" style="stroke:#002eb8;"/><line x1="411.97152005724547" y1="70" x2="408.97152005724547" y2="73.5" style="stroke:#002eb8;"/><line x1="408.97152005724547" y1="73.5" x2="411.97152005724547" y2="77" style="stroke:#002eb8;"/><line x1="419.97152005724547" y1="70" x2="416.97152005724547" y2="73.5" style="stroke:#002eb8;"/><line x1="416.97152005724547" y1="73.5" x2="419.97152005724547" y2="77" style="stroke:#002eb8;"/><line x1="427.97152005724547" y1="70" x2="424.97152005724547" y2="73.5" style="stroke:#002eb8;"/><line x1="424.97152005724547" y1="73.5" x2="427.97152005724547" y2="77" style="stroke:#002eb8;"/><line x1="435.97152005724547" y1="70" x2="432.97152005724547" y2="73.5" style="stroke:#002eb8;"/><line x1="432.97152005724547" y1="73.5" x2="435.97152005724547" y2="77" style="stroke:#002eb8;"/><line x1="443.97152005724547" y1="70" x2="440.97152005724547" y2="73.5" style="stroke:#002eb8;"/><line x1="440.97152005724547" y1="73.5" x2="443.97152005724547" y2="77" style="stroke:#002eb8;"/><line x1="451.97152005724547" y1="70" x2="448.97152005724547" y2="73.5" style="stroke:#002eb8;"/><line x1="448.97152005724547" y1="73.5" x2="451.97152005724547" y2="77" style="stroke:#002eb8;"/><line x1="459.97152005724547" y1="70" x2="456.97152005724547" y2="73.5" style="stroke:#002eb8;"/><line x1="456.97152005724547" y1="73.5" x2="459.97152005724547" y2="77" style="stroke:#002eb8;"/><line x1="467.97152005724547" y1="70" x2="464.97152005724547" y2="73.5" style="stroke:#002eb8;"/><line x1="464.97152005724547" y1="73.5" x2="467.97152005724547" y2="77" style="stroke:#002eb8;"/><line x1="475.97152005724547" y1="70" x2="472.97152005724547" y2="73.5" style="stroke:#002eb8;"/><line x1="472.97152005724547" y1="73.5" x2="475.97152005724547" y2="77" style="stroke:#002eb8;"/><line x1="483.97152005724547" y1="70" x2="480.97152005724547" y2="73.5" style="stroke:#002eb8;"/><line x1="480.97152005724547" y1="73.5" x2="483.97152005724547" y2="77" style="stroke:#002eb8;"/><line x1="491.97152005724547" y1="70" x2="488.97152005724547" y2="73.5" style="stroke:#002eb8;"/><line x1="488.97152005724547" y1="73.5" x2="491.97152005724547" y2="77" style="stroke:#002eb8;"/><rect x="324.2614712476161" y="70" width="2.3207386764613602" height="7" style="fill:#002EB8;"/><rect x="496.0187491999093" y="70" width="1" height="7" style="fill:#002EB8;"/><rect x="326.58220992407746" y="68" width="1" height="11" style="fill:#002EB8;"/><rect x="326.9144895996428" y="68" width="1" height="11" style="fill:#002EB8;"/><rect x="359.49529464669627" y="68" width="1" height="11" style="fill:#002EB8;"/><rect x="361.37763291351143" y="68" width="1" height="11" style="fill:#002EB8;"/><rect x="380.2636442116111" y="68" width="1" height="11" style="fill:#002EB8;"/><rect x="488.27889434865233" y="68" width="1" height="11" style="fill:#002EB8;"/><rect x="490.64660449757594" y="68" width="1" height="11" style="fill:#002EB8;"/><rect x="493.1691465372078" y="68" width="1" height="11" style="fill:#002EB8;"/><rect x="495.8708760458619" y="68" width="1" height="11" style="fill:#002EB8;"/><text font-family="arial" x="296.7884945630458" y="78" style="font-size:8pt;fill:#002eb8;">PAX3</text><line x1="324.2614712476161" y1="85" x2="496.6815688668746" y2="85" style="stroke:#002eb8;stroke-width:1;"/><line x1="331.97152005724547" y1="82" x2="328.97152005724547" y2="85.5" style="stroke:#002eb8;"/><line x1="328.97152005724547" y1="85.5" x2="331.97152005724547" y2="89" style="stroke:#002eb8;"/><line x1="339.97152005724547" y1="82" x2="336.97152005724547" y2="85.5" style="stroke:#002eb8;"/><line x1="336.97152005724547" y1="85.5" x2="339.97152005724547" y2="89" style="stroke:#002eb8;"/><line x1="347.97152005724547" y1="82" x2="344.97152005724547" y2="85.5" style="stroke:#002eb8;"/><line x1="344.97152005724547" y1="85.5" x2="347.97152005724547" y2="89" style="stroke:#002eb8;"/><line x1="355.97152005724547" y1="82" x2="352.97152005724547" y2="85.5" style="stroke:#002eb8;"/><line x1="352.97152005724547" y1="85.5" x2="355.97152005724547" y2="89" style="stroke:#002eb8;"/><line x1="363.97152005724547" y1="82" x2="360.97152005724547" y2="85.5" style="stroke:#002eb8;"/><line x1="360.97152005724547" y1="85.5" x2="363.97152005724547" y2="89" style="stroke:#002eb8;"/><line x1="371.97152005724547" y1="82" x2="368.97152005724547" y2="85.5" style="stroke:#002eb8;"/><line x1="368.97152005724547" y1="85.5" x2="371.97152005724547" y2="89" style="stroke:#002eb8;"/><line x1="379.97152005724547" y1="82" x2="376.97152005724547" y2="85.5" style="stroke:#002eb8;"/><line x1="376.97152005724547" y1="85.5" x2="379.97152005724547" y2="89" style="stroke:#002eb8;"/><line x1="387.97152005724547" y1="82" x2="384.97152005724547" y2="85.5" style="stroke:#002eb8;"/><line x1="384.97152005724547" y1="85.5" x2="387.97152005724547" y2="89" style="stroke:#002eb8;"/><line x1="395.97152005724547" y1="82" x2="392.97152005724547" y2="85.5" style="stroke:#002eb8;"/><line x1="392.97152005724547" y1="85.5" x2="395.97152005724547" y2="89" style="stroke:#002eb8;"/><line x1="403.97152005724547" y1="82" x2="400.97152005724547" y2="85.5" style="stroke:#002eb8;"/><line x1="400.97152005724547" y1="85.5" x2="403.97152005724547" y2="89" style="stroke:#002eb8;"/><line x1="411.97152005724547" y1="82" x2="408.97152005724547" y2="85.5" style="stroke:#002eb8;"/><line x1="408.97152005724547" y1="85.5" x2="411.97152005724547" y2="89" style="stroke:#002eb8;"/><line x1="419.97152005724547" y1="82" x2="416.97152005724547" y2="85.5" style="stroke:#002eb8;"/><line x1="416.97152005724547" y1="85.5" x2="419.97152005724547" y2="89" style="stroke:#002eb8;"/><line x1="427.97152005724547" y1="82" x2="424.97152005724547" y2="85.5" style="stroke:#002eb8;"/><line x1="424.97152005724547" y1="85.5" x2="427.97152005724547" y2="89" style="stroke:#002eb8;"/><line x1="435.97152005724547" y1="82" x2="432.97152005724547" y2="85.5" style="stroke:#002eb8;"/><line x1="432.97152005724547" y1="85.5" x2="435.97152005724547" y2="89" style="stroke:#002eb8;"/><line x1="443.97152005724547" y1="82" x2="440.97152005724547" y2="85.5" style="stroke:#002eb8;"/><line x1="440.97152005724547" y1="85.5" x2="443.97152005724547" y2="89" style="stroke:#002eb8;"/><line x1="451.97152005724547" y1="82" x2="448.97152005724547" y2="85.5" style="stroke:#002eb8;"/><line x1="448.97152005724547" y1="85.5" x2="451.97152005724547" y2="89" style="stroke:#002eb8;"/><line x1="459.97152005724547" y1="82" x2="456.97152005724547" y2="85.5" style="stroke:#002eb8;"/><line x1="456.97152005724547" y1="85.5" x2="459.97152005724547" y2="89" style="stroke:#002eb8;"/><line x1="467.97152005724547" y1="82" x2="464.97152005724547" y2="85.5" style="stroke:#002eb8;"/><line x1="464.97152005724547" y1="85.5" x2="467.97152005724547" y2="89" style="stroke:#002eb8;"/><line x1="475.97152005724547" y1="82" x2="472.97152005724547" y2="85.5" style="stroke:#002eb8;"/><line x1="472.97152005724547" y1="85.5" x2="475.97152005724547" y2="89" style="stroke:#002eb8;"/><line x1="483.97152005724547" y1="82" x2="480.97152005724547" y2="85.5" style="stroke:#002eb8;"/><line x1="480.97152005724547" y1="85.5" x2="483.97152005724547" y2="89" style="stroke:#002eb8;"/><line x1="491.97152005724547" y1="82" x2="488.97152005724547" y2="85.5" style="stroke:#002eb8;"/><line x1="488.97152005724547" y1="85.5" x2="491.97152005724547" y2="89" style="stroke:#002eb8;"/><rect x="324.2614712476161" y="82" width="2.6391008787045394" height="7" style="fill:#002EB8;"/><rect x="496.0187491999093" y="82" width="1" height="7" style="fill:#002EB8;"/><rect x="326.90057212632064" y="80" width="1" height="11" style="fill:#002EB8;"/><rect x="359.49529464669627" y="80" width="1" height="11" style="fill:#002EB8;"/><rect x="361.37763291351143" y="80" width="1" height="11" style="fill:#002EB8;"/><rect x="380.2636442116111" y="80" width="1" height="11" style="fill:#002EB8;"/><rect x="488.27889434865233" y="80" width="1" height="11" style="fill:#002EB8;"/><rect x="490.64660449757594" y="80" width="1" height="11" style="fill:#002EB8;"/><rect x="493.1691465372078" y="80" width="1" height="11" style="fill:#002EB8;"/><rect x="495.8708760458619" y="80" width="1" height="11" style="fill:#002EB8;"/><text font-family="arial" x="296.7884945630458" y="90" style="font-size:8pt;fill:#002eb8;">PAX3</text><line x1="324.2614712476161" y1="97" x2="496.6815688668746" y2="97" style="stroke:#002eb8;stroke-width:1;"/><line x1="331.97152005724547" y1="94" x2="328.97152005724547" y2="97.5" style="stroke:#002eb8;"/><line x1="328.97152005724547" y1="97.5" x2="331.97152005724547" y2="101" style="stroke:#002eb8;"/><line x1="339.97152005724547" y1="94" x2="336.97152005724547" y2="97.5" style="stroke:#002eb8;"/><line x1="336.97152005724547" y1="97.5" x2="339.97152005724547" y2="101" style="stroke:#002eb8;"/><line x1="347.97152005724547" y1="94" x2="344.97152005724547" y2="97.5" style="stroke:#002eb8;"/><line x1="344.97152005724547" y1="97.5" x2="347.97152005724547" y2="101" style="stroke:#002eb8;"/><line x1="355.97152005724547" y1="94" x2="352.97152005724547" y2="97.5" style="stroke:#002eb8;"/><line x1="352.97152005724547" y1="97.5" x2="355.97152005724547" y2="101" style="stroke:#002eb8;"/><line x1="363.97152005724547" y1="94" x2="360.97152005724547" y2="97.5" style="stroke:#002eb8;"/><line x1="360.97152005724547" y1="97.5" x2="363.97152005724547" y2="101" style="stroke:#002eb8;"/><line x1="371.97152005724547" y1="94" x2="368.97152005724547" y2="97.5" style="stroke:#002eb8;"/><line x1="368.97152005724547" y1="97.5" x2="371.97152005724547" y2="101" style="stroke:#002eb8;"/><line x1="379.97152005724547" y1="94" x2="376.97152005724547" y2="97.5" style="stroke:#002eb8;"/><line x1="376.97152005724547" y1="97.5" x2="379.97152005724547" y2="101" style="stroke:#002eb8;"/><line x1="387.97152005724547" y1="94" x2="384.97152005724547" y2="97.5" style="stroke:#002eb8;"/><line x1="384.97152005724547" y1="97.5" x2="387.97152005724547" y2="101" style="stroke:#002eb8;"/><line x1="395.97152005724547" y1="94" x2="392.97152005724547" y2="97.5" style="stroke:#002eb8;"/><line x1="392.97152005724547" y1="97.5" x2="395.97152005724547" y2="101" style="stroke:#002eb8;"/><line x1="403.97152005724547" y1="94" x2="400.97152005724547" y2="97.5" style="stroke:#002eb8;"/><line x1="400.97152005724547" y1="97.5" x2="403.97152005724547" y2="101" style="stroke:#002eb8;"/><line x1="411.97152005724547" y1="94" x2="408.97152005724547" y2="97.5" style="stroke:#002eb8;"/><line x1="408.97152005724547" y1="97.5" x2="411.97152005724547" y2="101" style="stroke:#002eb8;"/><line x1="419.97152005724547" y1="94" x2="416.97152005724547" y2="97.5" style="stroke:#002eb8;"/><line x1="416.97152005724547" y1="97.5" x2="419.97152005724547" y2="101" style="stroke:#002eb8;"/><line x1="427.97152005724547" y1="94" x2="424.97152005724547" y2="97.5" style="stroke:#002eb8;"/><line x1="424.97152005724547" y1="97.5" x2="427.97152005724547" y2="101" style="stroke:#002eb8;"/><line x1="435.97152005724547" y1="94" x2="432.97152005724547" y2="97.5" style="stroke:#002eb8;"/><line x1="432.97152005724547" y1="97.5" x2="435.97152005724547" y2="101" style="stroke:#002eb8;"/><line x1="443.97152005724547" y1="94" x2="440.97152005724547" y2="97.5" style="stroke:#002eb8;"/><line x1="440.97152005724547" y1="97.5" x2="443.97152005724547" y2="101" style="stroke:#002eb8;"/><line x1="451.97152005724547" y1="94" x2="448.97152005724547" y2="97.5" style="stroke:#002eb8;"/><line x1="448.97152005724547" y1="97.5" x2="451.97152005724547" y2="101" style="stroke:#002eb8;"/><line x1="459.97152005724547" y1="94" x2="456.97152005724547" y2="97.5" style="stroke:#002eb8;"/><line x1="456.97152005724547" y1="97.5" x2="459.97152005724547" y2="101" style="stroke:#002eb8;"/><line x1="467.97152005724547" y1="94" x2="464.97152005724547" y2="97.5" style="stroke:#002eb8;"/><line x1="464.97152005724547" y1="97.5" x2="467.97152005724547" y2="101" style="stroke:#002eb8;"/><line x1="475.97152005724547" y1="94" x2="472.97152005724547" y2="97.5" style="stroke:#002eb8;"/><line x1="472.97152005724547" y1="97.5" x2="475.97152005724547" y2="101" style="stroke:#002eb8;"/><line x1="483.97152005724547" y1="94" x2="480.97152005724547" y2="97.5" style="stroke:#002eb8;"/><line x1="480.97152005724547" y1="97.5" x2="483.97152005724547" y2="101" style="stroke:#002eb8;"/><line x1="491.97152005724547" y1="94" x2="488.97152005724547" y2="97.5" style="stroke:#002eb8;"/><line x1="488.97152005724547" y1="97.5" x2="491.97152005724547" y2="101" style="stroke:#002eb8;"/><rect x="324.2614712476161" y="94" width="2.6460596153656297" height="7" style="fill:#002EB8;"/><rect x="496.0187491999093" y="94" width="1" height="7" style="fill:#002EB8;"/><rect x="326.90753086298173" y="92" width="1" height="11" style="fill:#002EB8;"/><rect x="327.84000157556284" y="92" width="1" height="11" style="fill:#002EB8;"/><rect x="359.49529464669627" y="92" width="1" height="11" style="fill:#002EB8;"/><rect x="361.37763291351143" y="92" width="1" height="11" style="fill:#002EB8;"/><rect x="380.2636442116111" y="92" width="1" height="11" style="fill:#002EB8;"/><rect x="488.27889434865233" y="92" width="1" height="11" style="fill:#002EB8;"/><rect x="490.64660449757594" y="92" width="1" height="11" style="fill:#002EB8;"/><rect x="493.1691465372078" y="92" width="1" height="11" style="fill:#002EB8;"/><rect x="495.8708760458619" y="92" width="1" height="11" style="fill:#002EB8;"/><text font-family="arial" x="296.7884945630458" y="102" style="font-size:8pt;fill:#002eb8;">PAX3</text><line x1="327.43813453338703" y1="109" x2="496.6815688668746" y2="109" style="stroke:#002eb8;stroke-width:1;"/><line x1="333.5598517001308" y1="106" x2="330.5598517001308" y2="109.5" style="stroke:#002eb8;"/><line x1="330.5598517001308" y1="109.5" x2="333.5598517001308" y2="113" style="stroke:#002eb8;"/><line x1="341.5598517001308" y1="106" x2="338.5598517001308" y2="109.5" style="stroke:#002eb8;"/><line x1="338.5598517001308" y1="109.5" x2="341.5598517001308" y2="113" style="stroke:#002eb8;"/><line x1="349.5598517001308" y1="106" x2="346.5598517001308" y2="109.5" style="stroke:#002eb8;"/><line x1="346.5598517001308" y1="109.5" x2="349.5598517001308" y2="113" style="stroke:#002eb8;"/><line x1="357.5598517001308" y1="106" x2="354.5598517001308" y2="109.5" style="stroke:#002eb8;"/><line x1="354.5598517001308" y1="109.5" x2="357.5598517001308" y2="113" style="stroke:#002eb8;"/><line x1="365.5598517001308" y1="106" x2="362.5598517001308" y2="109.5" style="stroke:#002eb8;"/><line x1="362.5598517001308" y1="109.5" x2="365.5598517001308" y2="113" style="stroke:#002eb8;"/><line x1="373.5598517001308" y1="106" x2="370.5598517001308" y2="109.5" style="stroke:#002eb8;"/><line x1="370.5598517001308" y1="109.5" x2="373.5598517001308" y2="113" style="stroke:#002eb8;"/><line x1="381.5598517001308" y1="106" x2="378.5598517001308" y2="109.5" style="stroke:#002eb8;"/><line x1="378.5598517001308" y1="109.5" x2="381.5598517001308" y2="113" style="stroke:#002eb8;"/><line x1="389.5598517001308" y1="106" x2="386.5598517001308" y2="109.5" style="stroke:#002eb8;"/><line x1="386.5598517001308" y1="109.5" x2="389.5598517001308" y2="113" style="stroke:#002eb8;"/><line x1="397.5598517001308" y1="106" x2="394.5598517001308" y2="109.5" style="stroke:#002eb8;"/><line x1="394.5598517001308" y1="109.5" x2="397.5598517001308" y2="113" style="stroke:#002eb8;"/><line x1="405.5598517001308" y1="106" x2="402.5598517001308" y2="109.5" style="stroke:#002eb8;"/><line x1="402.5598517001308" y1="109.5" x2="405.5598517001308" y2="113" style="stroke:#002eb8;"/><line x1="413.5598517001308" y1="106" x2="410.5598517001308" y2="109.5" style="stroke:#002eb8;"/><line x1="410.5598517001308" y1="109.5" x2="413.5598517001308" y2="113" style="stroke:#002eb8;"/><line x1="421.5598517001308" y1="106" x2="418.5598517001308" y2="109.5" style="stroke:#002eb8;"/><line x1="418.5598517001308" y1="109.5" x2="421.5598517001308" y2="113" style="stroke:#002eb8;"/><line x1="429.5598517001308" y1="106" x2="426.5598517001308" y2="109.5" style="stroke:#002eb8;"/><line x1="426.5598517001308" y1="109.5" x2="429.5598517001308" y2="113" style="stroke:#002eb8;"/><line x1="437.5598517001308" y1="106" x2="434.5598517001308" y2="109.5" style="stroke:#002eb8;"/><line x1="434.5598517001308" y1="109.5" x2="437.5598517001308" y2="113" style="stroke:#002eb8;"/><line x1="445.5598517001308" y1="106" x2="442.5598517001308" y2="109.5" style="stroke:#002eb8;"/><line x1="442.5598517001308" y1="109.5" x2="445.5598517001308" y2="113" style="stroke:#002eb8;"/><line x1="453.5598517001308" y1="106" x2="450.5598517001308" y2="109.5" style="stroke:#002eb8;"/><line x1="450.5598517001308" y1="109.5" x2="453.5598517001308" y2="113" style="stroke:#002eb8;"/><line x1="461.5598517001308" y1="106" x2="458.5598517001308" y2="109.5" style="stroke:#002eb8;"/><line x1="458.5598517001308" y1="109.5" x2="461.5598517001308" y2="113" style="stroke:#002eb8;"/><line x1="469.5598517001308" y1="106" x2="466.5598517001308" y2="109.5" style="stroke:#002eb8;"/><line x1="466.5598517001308" y1="109.5" x2="469.5598517001308" y2="113" style="stroke:#002eb8;"/><line x1="477.5598517001308" y1="106" x2="474.5598517001308" y2="109.5" style="stroke:#002eb8;"/><line x1="474.5598517001308" y1="109.5" x2="477.5598517001308" y2="113" style="stroke:#002eb8;"/><line x1="485.5598517001308" y1="106" x2="482.5598517001308" y2="109.5" style="stroke:#002eb8;"/><line x1="482.5598517001308" y1="109.5" x2="485.5598517001308" y2="113" style="stroke:#002eb8;"/><line x1="493.5598517001308" y1="106" x2="490.5598517001308" y2="109.5" style="stroke:#002eb8;"/><line x1="490.5598517001308" y1="109.5" x2="493.5598517001308" y2="113" style="stroke:#002eb8;"/><rect x="327.43813453338703" y="106" width="1" height="7" style="fill:#002EB8;"/><rect x="496.0187491999093" y="106" width="1" height="7" style="fill:#002EB8;"/><rect x="327.8052078922576" y="104" width="1" height="11" style="fill:#002EB8;"/><rect x="359.49529464669627" y="104" width="1" height="11" style="fill:#002EB8;"/><rect x="361.37763291351143" y="104" width="1" height="11" style="fill:#002EB8;"/><rect x="380.2636442116111" y="104" width="1" height="11" style="fill:#002EB8;"/><rect x="488.27889434865233" y="104" width="1" height="11" style="fill:#002EB8;"/><rect x="490.64660449757594" y="104" width="1" height="11" style="fill:#002EB8;"/><rect x="493.1691465372078" y="104" width="1" height="11" style="fill:#002EB8;"/><rect x="495.8708760458619" y="104" width="1" height="11" style="fill:#002EB8;"/><text font-family="arial" x="299.9651578488167" y="114" style="font-size:8pt;fill:#002eb8;">PAX3</text><line x1="487.34468395190584" y1="121" x2="496.6815688668746" y2="121" style="stroke:#002eb8;stroke-width:1;"/><line x1="493.5131264093902" y1="118" x2="490.5131264093902" y2="121.5" style="stroke:#002eb8;"/><line x1="490.5131264093902" y1="121.5" x2="493.5131264093902" y2="125" style="stroke:#002eb8;"/><rect x="487.34468395190584" y="118" width="1" height="7" style="fill:#002EB8;"/><rect x="496.0187491999093" y="118" width="1" height="7" style="fill:#002EB8;"/><rect x="488.1710339304059" y="116" width="1" height="11" style="fill:#002EB8;"/><rect x="490.64660449757594" y="116" width="1" height="11" style="fill:#002EB8;"/><rect x="493.1691465372078" y="116" width="1" height="11" style="fill:#002EB8;"/><rect x="495.8708760458619" y="116" width="1" height="11" style="fill:#002EB8;"/><text font-family="arial" x="459.8717072673355" y="126" style="font-size:8pt;fill:#002eb8;">PAX3</text><line x1="487.34468395190584" y1="133" x2="496.6815688668746" y2="133" style="stroke:#002eb8;stroke-width:1;"/><line x1="493.5131264093902" y1="130" x2="490.5131264093902" y2="133.5" style="stroke:#002eb8;"/><line x1="490.5131264093902" y1="133.5" x2="493.5131264093902" y2="137" style="stroke:#002eb8;"/><rect x="487.34468395190584" y="130" width="1" height="7" style="fill:#002EB8;"/><rect x="496.0187491999093" y="130" width="1" height="7" style="fill:#002EB8;"/><rect x="487.5064745792754" y="128" width="1" height="11" style="fill:#002EB8;"/><rect x="488.27889434865233" y="128" width="1" height="11" style="fill:#002EB8;"/><rect x="490.64660449757594" y="128" width="1" height="11" style="fill:#002EB8;"/><rect x="493.1691465372078" y="128" width="1" height="11" style="fill:#002EB8;"/><rect x="495.8708760458619" y="128" width="1" height="11" style="fill:#002EB8;"/><text font-family="arial" x="459.8717072673355" y="138" style="font-size:8pt;fill:#002eb8;">PAX3</text><line x1="495.20283732640064" y1="145" x2="507.50414405897845" y2="145" style="stroke:#002eb8;stroke-width:1;"/><line x1="499.85349069268955" y1="142" x2="502.85349069268955" y2="145.5" style="stroke:#002eb8;"/><line x1="502.85349069268955" y1="145.5" x2="499.85349069268955" y2="149" style="stroke:#002eb8;"/><rect x="495.20283732640064" y="142" width="1" height="7" style="fill:#002EB8;"/><rect x="504.9433289677106" y="142" width="1" height="7" style="fill:#002EB8;"/><rect x="506.0723839909667" y="142" width="1.4317600680117266" height="7" style="fill:#002EB8;"/><rect x="505.21645938165716" y="140" width="1" height="11" style="fill:#002EB8;"/><text font-family="arial" x="445.6239646457366" y="150" style="font-size:8pt;fill:#002eb8;">CCDC140</text><line x1="715.1963381289531" y1="49" x2="948.8289627871709" y2="49" style="stroke:#002eb8;stroke-width:1;"/><line x1="718.5126504580621" y1="46" x2="721.5126504580621" y2="49.5" style="stroke:#002eb8;"/><line x1="721.5126504580621" y1="49.5" x2="718.5126504580621" y2="53" style="stroke:#002eb8;"/><line x1="726.5126504580621" y1="46" x2="729.5126504580621" y2="49.5" style="stroke:#002eb8;"/><line x1="729.5126504580621" y1="49.5" x2="726.5126504580621" y2="53" style="stroke:#002eb8;"/><line x1="734.5126504580621" y1="46" x2="737.5126504580621" y2="49.5" style="stroke:#002eb8;"/><line x1="737.5126504580621" y1="49.5" x2="734.5126504580621" y2="53" style="stroke:#002eb8;"/><line x1="742.5126504580621" y1="46" x2="745.5126504580621" y2="49.5" style="stroke:#002eb8;"/><line x1="745.5126504580621" y1="49.5" x2="742.5126504580621" y2="53" style="stroke:#002eb8;"/><line x1="750.5126504580621" y1="46" x2="753.5126504580621" y2="49.5" style="stroke:#002eb8;"/><line x1="753.5126504580621" y1="49.5" x2="750.5126504580621" y2="53" style="stroke:#002eb8;"/><line x1="758.5126504580621" y1="46" x2="761.5126504580621" y2="49.5" style="stroke:#002eb8;"/><line x1="761.5126504580621" y1="49.5" x2="758.5126504580621" y2="53" style="stroke:#002eb8;"/><line x1="766.5126504580621" y1="46" x2="769.5126504580621" y2="49.5" style="stroke:#002eb8;"/><line x1="769.5126504580621" y1="49.5" x2="766.5126504580621" y2="53" style="stroke:#002eb8;"/><line x1="774.5126504580621" y1="46" x2="777.5126504580621" y2="49.5" style="stroke:#002eb8;"/><line x1="777.5126504580621" y1="49.5" x2="774.5126504580621" y2="53" style="stroke:#002eb8;"/><line x1="782.5126504580621" y1="46" x2="785.5126504580621" y2="49.5" style="stroke:#002eb8;"/><line x1="785.5126504580621" y1="49.5" x2="782.5126504580621" y2="53" style="stroke:#002eb8;"/><line x1="790.5126504580621" y1="46" x2="793.5126504580621" y2="49.5" style="stroke:#002eb8;"/><line x1="793.5126504580621" y1="49.5" x2="790.5126504580621" y2="53" style="stroke:#002eb8;"/><line x1="798.5126504580621" y1="46" x2="801.5126504580621" y2="49.5" style="stroke:#002eb8;"/><line x1="801.5126504580621" y1="49.5" x2="798.5126504580621" y2="53" style="stroke:#002eb8;"/><line x1="806.5126504580621" y1="46" x2="809.5126504580621" y2="49.5" style="stroke:#002eb8;"/><line x1="809.5126504580621" y1="49.5" x2="806.5126504580621" y2="53" style="stroke:#002eb8;"/><line x1="814.5126504580621" y1="46" x2="817.5126504580621" y2="49.5" style="stroke:#002eb8;"/><line x1="817.5126504580621" y1="49.5" x2="814.5126504580621" y2="53" style="stroke:#002eb8;"/><line x1="822.5126504580621" y1="46" x2="825.5126504580621" y2="49.5" style="stroke:#002eb8;"/><line x1="825.5126504580621" y1="49.5" x2="822.5126504580621" y2="53" style="stroke:#002eb8;"/><line x1="830.5126504580621" y1="46" x2="833.5126504580621" y2="49.5" style="stroke:#002eb8;"/><line x1="833.5126504580621" y1="49.5" x2="830.5126504580621" y2="53" style="stroke:#002eb8;"/><line x1="838.5126504580621" y1="46" x2="841.5126504580621" y2="49.5" style="stroke:#002eb8;"/><line x1="841.5126504580621" y1="49.5" x2="838.5126504580621" y2="53" style="stroke:#002eb8;"/><line x1="846.5126504580621" y1="46" x2="849.5126504580621" y2="49.5" style="stroke:#002eb8;"/><line x1="849.5126504580621" y1="49.5" x2="846.5126504580621" y2="53" style="stroke:#002eb8;"/><line x1="854.5126504580621" y1="46" x2="857.5126504580621" y2="49.5" style="stroke:#002eb8;"/><line x1="857.5126504580621" y1="49.5" x2="854.5126504580621" y2="53" style="stroke:#002eb8;"/><line x1="862.5126504580621" y1="46" x2="865.5126504580621" y2="49.5" style="stroke:#002eb8;"/><line x1="865.5126504580621" y1="49.5" x2="862.5126504580621" y2="53" style="stroke:#002eb8;"/><line x1="870.5126504580621" y1="46" x2="873.5126504580621" y2="49.5" style="stroke:#002eb8;"/><line x1="873.5126504580621" y1="49.5" x2="870.5126504580621" y2="53" style="stroke:#002eb8;"/><line x1="878.5126504580621" y1="46" x2="881.5126504580621" y2="49.5" style="stroke:#002eb8;"/><line x1="881.5126504580621" y1="49.5" x2="878.5126504580621" y2="53" style="stroke:#002eb8;"/><line x1="886.5126504580621" y1="46" x2="889.5126504580621" y2="49.5" style="stroke:#002eb8;"/><line x1="889.5126504580621" y1="49.5" x2="886.5126504580621" y2="53" style="stroke:#002eb8;"/><line x1="894.5126504580621" y1="46" x2="897.5126504580621" y2="49.5" style="stroke:#002eb8;"/><line x1="897.5126504580621" y1="49.5" x2="894.5126504580621" y2="53" style="stroke:#002eb8;"/><line x1="902.5126504580621" y1="46" x2="905.5126504580621" y2="49.5" style="stroke:#002eb8;"/><line x1="905.5126504580621" y1="49.5" x2="902.5126504580621" y2="53" style="stroke:#002eb8;"/><line x1="910.5126504580621" y1="46" x2="913.5126504580621" y2="49.5" style="stroke:#002eb8;"/><line x1="913.5126504580621" y1="49.5" x2="910.5126504580621" y2="53" style="stroke:#002eb8;"/><line x1="918.5126504580621" y1="46" x2="921.5126504580621" y2="49.5" style="stroke:#002eb8;"/><line x1="921.5126504580621" y1="49.5" x2="918.5126504580621" y2="53" style="stroke:#002eb8;"/><line x1="926.5126504580621" y1="46" x2="929.5126504580621" y2="49.5" style="stroke:#002eb8;"/><line x1="929.5126504580621" y1="49.5" x2="926.5126504580621" y2="53" style="stroke:#002eb8;"/><line x1="934.5126504580621" y1="46" x2="937.5126504580621" y2="49.5" style="stroke:#002eb8;"/><line x1="937.5126504580621" y1="49.5" x2="934.5126504580621" y2="53" style="stroke:#002eb8;"/><line x1="942.5126504580621" y1="46" x2="945.5126504580621" y2="49.5" style="stroke:#002eb8;"/><line x1="945.5126504580621" y1="49.5" x2="942.5126504580621" y2="53" style="stroke:#002eb8;"/><rect x="715.1963381289531" y="44" width="1" height="11" style="fill:#002EB8;"/><rect x="802.1196574463404" y="44" width="1" height="11" style="fill:#002EB8;"/><rect x="884.2310103626091" y="44" width="1" height="11" style="fill:#002EB8;"/><rect x="889.757986955651" y="44" width="1" height="11" style="fill:#002EB8;"/><rect x="947.8686571279454" y="44" width="1" height="11" style="fill:#002EB8;"/><text font-family="arial" x="678.6457247256328" y="54" style="font-size:8pt;fill:#002eb8;">SGPP2</text><line x1="970.6515609562352" y1="61" x2="1060" y2="61" style="stroke:#002eb8;stroke-width:1;"/><line x1="977.7976107243321" y1="58" x2="974.7976107243321" y2="61.5" style="stroke:#002eb8;"/><line x1="974.7976107243321" y1="61.5" x2="977.7976107243321" y2="65" style="stroke:#002eb8;"/><line x1="985.7976107243321" y1="58" x2="982.7976107243321" y2="61.5" style="stroke:#002eb8;"/><line x1="982.7976107243321" y1="61.5" x2="985.7976107243321" y2="65" style="stroke:#002eb8;"/><line x1="993.7976107243321" y1="58" x2="990.7976107243321" y2="61.5" style="stroke:#002eb8;"/><line x1="990.7976107243321" y1="61.5" x2="993.7976107243321" y2="65" style="stroke:#002eb8;"/><line x1="1001.7976107243321" y1="58" x2="998.7976107243321" y2="61.5" style="stroke:#002eb8;"/><line x1="998.7976107243321" y1="61.5" x2="1001.7976107243321" y2="65" style="stroke:#002eb8;"/><line x1="1009.7976107243321" y1="58" x2="1006.7976107243321" y2="61.5" style="stroke:#002eb8;"/><line x1="1006.7976107243321" y1="61.5" x2="1009.7976107243321" y2="65" style="stroke:#002eb8;"/><line x1="1017.7976107243321" y1="58" x2="1014.7976107243321" y2="61.5" style="stroke:#002eb8;"/><line x1="1014.7976107243321" y1="61.5" x2="1017.7976107243321" y2="65" style="stroke:#002eb8;"/><line x1="1025.7976107243321" y1="58" x2="1022.7976107243321" y2="61.5" style="stroke:#002eb8;"/><line x1="1022.7976107243321" y1="61.5" x2="1025.7976107243321" y2="65" style="stroke:#002eb8;"/><line x1="1033.7976107243321" y1="58" x2="1030.7976107243321" y2="61.5" style="stroke:#002eb8;"/><line x1="1030.7976107243321" y1="61.5" x2="1033.7976107243321" y2="65" style="stroke:#002eb8;"/><line x1="1041.7976107243321" y1="58" x2="1038.7976107243321" y2="61.5" style="stroke:#002eb8;"/><line x1="1038.7976107243321" y1="61.5" x2="1041.7976107243321" y2="65" style="stroke:#002eb8;"/><line x1="1049.7976107243321" y1="58" x2="1046.7976107243321" y2="61.5" style="stroke:#002eb8;"/><line x1="1046.7976107243321" y1="61.5" x2="1049.7976107243321" y2="65" style="stroke:#002eb8;"/><line x1="1057.7976107243321" y1="58" x2="1054.7976107243321" y2="61.5" style="stroke:#002eb8;"/><line x1="1054.7976107243321" y1="61.5" x2="1057.7976107243321" y2="65" style="stroke:#002eb8;"/><rect x="970.6515609562352" y="58" width="1" height="7" style="fill:#002EB8;"/><rect x="971.396145778968" y="56" width="1" height="11" style="fill:#002EB8;"/><rect x="1020.2064644037641" y="56" width="1" height="11" style="fill:#002EB8;"/><rect x="1044.3584996701165" y="56" width="1" height="11" style="fill:#002EB8;"/><rect x="1054.5078170902634" y="56" width="1" height="11" style="fill:#002EB8;"/><text font-family="arial" x="934.6943313419774" y="66" style="font-size:8pt;fill:#002eb8;">FARSB</text><line x1="0" y1="151" x2="1060" y2="151" style="stroke:#ccc;stroke-width:0.5;"/><rect x="0" y="151" width="1060" height="12" style="fill:white;"/><rect x="20.904044929805423" y="152" width="1.5674554329023067" height="11" style="fill:#336666;"/><rect x="68.62880063547709" y="152" width="1" height="11" style="fill:#336666;"/><rect x="393.8175235431786" y="152" width="1.0246739733399863" height="11" style="fill:#336666;"/><rect x="482.49966355164725" y="152" width="1.325639333930667" height="11" style="fill:#336666;"/><rect x="529.9321523175547" y="152" width="1" height="11" style="fill:#336666;"/><rect x="616.6536682717713" y="152" width="1.4056648055329788" height="11" style="fill:#336666;"/><rect x="714.4430548853941" y="152" width="2.7487009811161442" height="11" style="fill:#336666;"/><rect x="730.0497615319723" y="152" width="1" height="11" style="fill:#336666;"/><rect x="808.0189264507487" y="152" width="1" height="11" style="fill:#336666;"/><rect x="953.8914437080873" y="152" width="1" height="11" style="fill:#336666;"/><line x1="0" y1="163" x2="1060" y2="163" style="stroke:#ccc;stroke-width:0.5;"/><rect x="0" y="163" width="1060" height="213" style="fill:white;"/><path d="M21.119765766298087 163 A 33.364592067108326 33.364592067108326 1 0 0 69.01153115183502 163" style="fill: none; stroke:rgb(184,0,138);stroke-opacity:0.6666666666666666; stroke-width:1;"/><path d="M21.119765766298087 163 A 39.05892156250027 39.05892156250027 1 0 0 77.06452915283944 163" style="fill: none; stroke:rgb(184,0,138);stroke-opacity:0.2222222222222222; stroke-width:1;"/><path d="M21.119765766298087 163 A 345.0876146314415 345.0876146314415 1 0 0 509.85445736624933 163" style="fill: none; stroke:rgb(184,0,138);stroke-opacity:0.2222222222222222; stroke-width:1;"/><path d="M21.119765766298087 163 A 351.5803065901104 351.5803065901104 1 0 0 519.0365103905096 163" style="fill: none; stroke:rgb(184,0,138);stroke-opacity:0.3333333333333333; stroke-width:1;"/><path d="M21.119765766298087 163 A 360.8789535237176 360.8789535237176 1 0 0 532.1867829957359 163" style="fill: none; stroke:rgb(184,0,138);stroke-opacity:0.2222222222222222; stroke-width:1;"/><path d="M21.119765766298087 163 A 556.4187101880116 556.4187101880116 1 0 0 808.7217588535152 163" style="fill: none; stroke:rgb(184,0,138);stroke-opacity:0.3333333333333333; stroke-width:1;"/><path d="M21.119765766298087 163 A 659.1503681744388 659.1503681744388 1 0 0 954.0062628629948 163" style="fill: none; stroke:rgb(184,0,138);stroke-opacity:0.5555555555555556; stroke-width:1;"/><path d="M21.119765766298087 163 A 723.1755933303394 723.1755933303394 1 0 0 1044.5516046124608 163" style="fill: none; stroke:rgb(184,0,138);stroke-opacity:0.4444444444444444; stroke-width:1;"/><path d="M21.119765766298087 163 A 337.6600143952832 337.6600143952832 1 0 0 499.3502443763887 163" style="fill: none; stroke:rgb(184,0,138);stroke-opacity:0.3333333333333333; stroke-width:1;"/><path d="M43.64867570645947 163 A 23.12857657107114 23.12857657107114 1 0 0 77.06452915283944 163" style="fill: none; stroke:rgb(184,0,138);stroke-opacity:0.2222222222222222; stroke-width:1;"/><path d="M43.64867570645947 163 A 707.2452483389103 707.2452483389103 1 0 0 1044.5516046124608 163" style="fill: none; stroke:rgb(184,0,138);stroke-opacity:0.2222222222222222; stroke-width:1;"/><path d="M43.64867570645947 163 A 329.1572696400124 329.1572696400124 1 0 0 509.85445736624933 163" style="fill: none; stroke:rgb(184,0,138);stroke-opacity:0.2222222222222222; stroke-width:1;"/><path d="M43.64867570645947 163 A 17.4342470756792 17.4342470756792 1 0 0 69.01153115183502 163" style="fill: none; stroke:rgb(184,0,138);stroke-opacity:0.2222222222222222; stroke-width:1;"/><path d="M43.64867570645947 163 A 321.7296694038541 321.7296694038541 1 0 0 499.3502443763887 163" style="fill: none; stroke:rgb(184,0,138);stroke-opacity:0.3333333333333333; stroke-width:1;"/><path d="M69.00979146766963 163 A 327.01559159907976 327.01559159907976 1 0 0 532.1867829957359 163" style="fill: none; stroke:rgb(184,0,138);stroke-opacity:0.4444444444444444; stroke-width:1;"/><path d="M69.00979146766963 163 A 303.7966524706453 303.7966524706453 1 0 0 499.3502443763887 163" style="fill: none; stroke:rgb(184,0,138);stroke-opacity:0.2222222222222222; stroke-width:1;"/><path d="M21.119765766298087 163 A 33.364592067108326 33.364592067108326 1 0 0 69.01153115183502 163" style="fill: none; stroke:rgb(184,0,138);stroke-opacity:0.6666666666666666; stroke-width:1;"/><path d="M69.00979146766963 163 A 317.71694466547257 317.71694466547257 1 0 0 519.0365103905096 163" style="fill: none; stroke:rgb(184,0,138);stroke-opacity:0.2222222222222222; stroke-width:1;"/><path d="M69.00979146766963 163 A 5.1955596378624085 5.1955596378624085 1 0 0 77.06452915283944 163" style="fill: none; stroke:rgb(184,0,138);stroke-opacity:0.3333333333333333; stroke-width:1;"/><path d="M69.00979146766963 163 A 625.2870062498008 625.2870062498008 1 0 0 954.0062628629948 163" style="fill: none; stroke:rgb(184,0,138);stroke-opacity:0.3333333333333333; stroke-width:1;"/><path d="M69.00979146766963 163 A 311.2242527068036 311.2242527068036 1 0 0 509.85445736624933 163" style="fill: none; stroke:rgb(184,0,138);stroke-opacity:0.3333333333333333; stroke-width:1;"/><path d="M73.31377009253151 163 A 289.6057289323344 289.6057289323344 1 0 0 483.58522647077166 163" style="fill: none; stroke:rgb(184,0,138);stroke-opacity:0.5555555555555556; stroke-width:1;"/><path d="M73.31377009253151 163 A 308.1808802350818 308.1808802350818 1 0 0 509.85445736624933 163" style="fill: none; stroke:rgb(184,0,138);stroke-opacity:0.2222222222222222; stroke-width:1;"/><path d="M73.31377009253151 163 A 323.97221912735796 323.97221912735796 1 0 0 532.1867829957359 163" style="fill: none; stroke:rgb(184,0,138);stroke-opacity:0.2222222222222222; stroke-width:1;"/><path d="M21.119765766298087 163 A 39.05892156250027 39.05892156250027 1 0 0 77.06452915283944 163" style="fill: none; stroke:rgb(184,0,138);stroke-opacity:0.2222222222222222; stroke-width:1;"/><path d="M43.64867570645947 163 A 23.12857657107114 23.12857657107114 1 0 0 77.06452915283944 163" style="fill: none; stroke:rgb(184,0,138);stroke-opacity:0.2222222222222222; stroke-width:1;"/><path d="M77.06278946867405 163 A 223.18664652907304 223.18664652907304 1 0 0 393.40347871184576 163" style="fill: none; stroke:rgb(184,0,138);stroke-opacity:0.2222222222222222; stroke-width:1;"/><path d="M77.06278946867405 163 A 286.95477190866427 286.95477190866427 1 0 0 483.58522647077166 163" style="fill: none; stroke:rgb(184,0,138);stroke-opacity:0.4444444444444444; stroke-width:1;"/><path d="M77.06278946867405 163 A 290.4385353847821 290.4385353847821 1 0 0 488.5120120267975 163" style="fill: none; stroke:rgb(184,0,138);stroke-opacity:0.3333333333333333; stroke-width:1;"/><path d="M77.06278946867405 163 A 298.1023229752534 298.1023229752534 1 0 0 499.3502443763887 163" style="fill: none; stroke:rgb(184,0,138);stroke-opacity:1; stroke-width:1;"/><path d="M77.06278946867405 163 A 305.5299232114117 305.5299232114117 1 0 0 509.85445736624933 163" style="fill: none; stroke:rgb(184,0,138);stroke-opacity:0.4444444444444444; stroke-width:1;"/><path d="M77.06278946867405 163 A 312.0226151700806 312.0226151700806 1 0 0 519.0365103905096 163" style="fill: none; stroke:rgb(184,0,138);stroke-opacity:0.3333333333333333; stroke-width:1;"/><path d="M77.06278946867405 163 A 316.6208877243635 316.6208877243635 1 0 0 525.5394498002645 163" style="fill: none; stroke:rgb(184,0,138);stroke-opacity:0.4444444444444444; stroke-width:1;"/><path d="M77.06278946867405 163 A 321.3212621036878 321.3212621036878 1 0 0 532.1867829957359 163" style="fill: none; stroke:rgb(184,0,138);stroke-opacity:0.7777777777777778; stroke-width:1;"/><path d="M77.06278946867405 163 A 523.4287494173439 523.4287494173439 1 0 0 818.0099326118566 163" style="fill: none; stroke:rgb(184,0,138);stroke-opacity:0.3333333333333333; stroke-width:1;"/><path d="M77.06278946867405 163 A 619.5926767544089 619.5926767544089 1 0 0 954.0062628629948 163" style="fill: none; stroke:rgb(184,0,138);stroke-opacity:0.6666666666666666; stroke-width:1;"/><path d="M77.06278946867405 163 A 619.5926767544089 619.5926767544089 1 0 0 954.0062628629948 163" style="fill: none; stroke:rgb(184,0,138);stroke-opacity:0.6666666666666666; stroke-width:1;"/><path d="M77.06278946867405 163 A 683.6179019103097 683.6179019103097 1 0 0 1044.5516046124608 163" style="fill: none; stroke:rgb(184,0,138);stroke-opacity:0.3333333333333333; stroke-width:1;"/><path d="M393.4017390276806 163 A 97.63584571708508 97.63584571708508 1 0 0 532.1867829957359 163" style="fill: none; stroke:rgb(184,0,138);stroke-opacity:0.2222222222222222; stroke-width:1;"/><path d="M393.4017390276806 163 A 395.9072603678062 395.9072603678062 1 0 0 954.0062628629948 163" style="fill: none; stroke:rgb(184,0,138);stroke-opacity:0.2222222222222222; stroke-width:1;"/><path d="M393.4017390276806 163 A 63.26935552206154 63.26935552206154 1 0 0 483.58522647077166 163" style="fill: none; stroke:rgb(184,0,138);stroke-opacity:0.2222222222222222; stroke-width:1;"/><path d="M444.99729200106344 163 A 26.7857901355128 26.7857901355128 1 0 0 483.58522647077166 163" style="fill: none; stroke:rgb(184,0,138);stroke-opacity:0.3333333333333333; stroke-width:1;"/><path d="M444.99729200106344 163 A 37.933341202101936 37.933341202101936 1 0 0 499.3502443763887 163" style="fill: none; stroke:rgb(184,0,138);stroke-opacity:0.4444444444444444; stroke-width:1;"/><path d="M444.99729200106344 163 A 51.85363339692914 51.85363339692914 1 0 0 519.0365103905096 163" style="fill: none; stroke:rgb(184,0,138);stroke-opacity:0.2222222222222222; stroke-width:1;"/><path d="M73.31377009253151 163 A 289.6057289323344 289.6057289323344 1 0 0 483.58522647077166 163" style="fill: none; stroke:rgb(184,0,138);stroke-opacity:0.5555555555555556; stroke-width:1;"/><path d="M77.06278946867405 163 A 286.95477190866427 286.95477190866427 1 0 0 483.58522647077166 163" style="fill: none; stroke:rgb(184,0,138);stroke-opacity:0.4444444444444444; stroke-width:1;"/><path d="M393.4017390276806 163 A 63.26935552206154 63.26935552206154 1 0 0 483.58522647077166 163" style="fill: none; stroke:rgb(184,0,138);stroke-opacity:0.2222222222222222; stroke-width:1;"/><path d="M483.5834867866063 163 A 10.648781209059601 10.648781209059601 1 0 0 499.3502443763887 163" style="fill: none; stroke:rgb(184,0,138);stroke-opacity:0.3333333333333333; stroke-width:1;"/><path d="M483.5834867866063 163 A 18.076381445217894 18.076381445217894 1 0 0 509.85445736624933 163" style="fill: none; stroke:rgb(184,0,138);stroke-opacity:0.4444444444444444; stroke-width:1;"/><path d="M483.5834867866063 163 A 24.569073403886808 24.569073403886808 1 0 0 519.0365103905096 163" style="fill: none; stroke:rgb(184,0,138);stroke-opacity:0.3333333333333333; stroke-width:1;"/><path d="M483.5834867866063 163 A 33.867720337494006 33.867720337494006 1 0 0 532.1867829957359 163" style="fill: none; stroke:rgb(184,0,138);stroke-opacity:0.3333333333333333; stroke-width:1;"/><path d="M483.5834867866063 163 A 229.40747700178792 229.40747700178792 1 0 0 808.7217588535152 163" style="fill: none; stroke:rgb(184,0,138);stroke-opacity:0.2222222222222222; stroke-width:1;"/><path d="M483.5834867866063 163 A 332.1391349882151 332.1391349882151 1 0 0 954.0062628629948 163" style="fill: none; stroke:rgb(184,0,138);stroke-opacity:0.2222222222222222; stroke-width:1;"/><path d="M488.51027234263233 163 A 14.59261796909993 14.59261796909993 1 0 0 509.85445736624933 163" style="fill: none; stroke:rgb(184,0,138);stroke-opacity:0.2222222222222222; stroke-width:1;"/><path d="M21.119765766298087 163 A 337.6600143952832 337.6600143952832 1 0 0 499.3502443763887 163" style="fill: none; stroke:rgb(184,0,138);stroke-opacity:0.3333333333333333; stroke-width:1;"/><path d="M43.64867570645947 163 A 321.7296694038541 321.7296694038541 1 0 0 499.3502443763887 163" style="fill: none; stroke:rgb(184,0,138);stroke-opacity:0.3333333333333333; stroke-width:1;"/><path d="M69.00979146766963 163 A 303.7966524706453 303.7966524706453 1 0 0 499.3502443763887 163" style="fill: none; stroke:rgb(184,0,138);stroke-opacity:0.2222222222222222; stroke-width:1;"/><path d="M499.3485046922235 163 A 385.0168090775266 385.0168090775266 1 0 0 1044.5516046124608 163" style="fill: none; stroke:rgb(184,0,138);stroke-opacity:0.3333333333333333; stroke-width:1;"/><path d="M499.3485046922235 163 A 320.9915839216258 320.9915839216258 1 0 0 954.0062628629948 163" style="fill: none; stroke:rgb(184,0,138);stroke-opacity:0.2222222222222222; stroke-width:1;"/><path d="M77.06278946867405 163 A 298.1023229752534 298.1023229752534 1 0 0 499.3502443763887 163" style="fill: none; stroke:rgb(184,0,138);stroke-opacity:1; stroke-width:1;"/><path d="M499.3485046922235 163 A 18.019794891580407 18.019794891580407 1 0 0 525.5394498002645 163" style="fill: none; stroke:rgb(184,0,138);stroke-opacity:0.2222222222222222; stroke-width:1;"/><path d="M499.3485046922235 163 A 13.421522337297512 13.421522337297512 1 0 0 519.0365103905096 163" style="fill: none; stroke:rgb(184,0,138);stroke-opacity:0.8888888888888888; stroke-width:1;"/><path d="M499.3485046922235 163 A 6.928830378628599 6.928830378628599 1 0 0 509.85445736624933 163" style="fill: none; stroke:rgb(184,0,138);stroke-opacity:0.7777777777777778; stroke-width:1;"/><path d="M444.99729200106344 163 A 37.933341202101936 37.933341202101936 1 0 0 499.3502443763887 163" style="fill: none; stroke:rgb(184,0,138);stroke-opacity:0.4444444444444444; stroke-width:1;"/><path d="M499.3485046922235 163 A 22.72016927090471 22.72016927090471 1 0 0 532.1867829957359 163" style="fill: none; stroke:rgb(184,0,138);stroke-opacity:0.7777777777777778; stroke-width:1;"/><path d="M43.64867570645947 163 A 329.1572696400124 329.1572696400124 1 0 0 509.85445736624933 163" style="fill: none; stroke:rgb(184,0,138);stroke-opacity:0.2222222222222222; stroke-width:1;"/><path d="M21.119765766298087 163 A 345.0876146314415 345.0876146314415 1 0 0 509.85445736624933 163" style="fill: none; stroke:rgb(184,0,138);stroke-opacity:0.2222222222222222; stroke-width:1;"/><path d="M509.8527176820842 163 A 313.5639836854675 313.5639836854675 1 0 0 954.0062628629948 163" style="fill: none; stroke:rgb(184,0,138);stroke-opacity:0.3333333333333333; stroke-width:1;"/><path d="M509.8527176820842 163 A 297.9042700375221 297.9042700375221 1 0 0 931.8600834391914 163" style="fill: none; stroke:rgb(184,0,138);stroke-opacity:0.2222222222222222; stroke-width:1;"/><path d="M509.8527176820842 163 A 5.99392210113922 5.99392210113922 1 0 0 519.0365103905096 163" style="fill: none; stroke:rgb(184,0,138);stroke-opacity:0.7777777777777778; stroke-width:1;"/><path d="M488.51027234263233 163 A 14.59261796909993 14.59261796909993 1 0 0 509.85445736624933 163" style="fill: none; stroke:rgb(184,0,138);stroke-opacity:0.2222222222222222; stroke-width:1;"/><path d="M483.5834867866063 163 A 18.076381445217894 18.076381445217894 1 0 0 509.85445736624933 163" style="fill: none; stroke:rgb(184,0,138);stroke-opacity:0.4444444444444444; stroke-width:1;"/><path d="M77.06278946867405 163 A 305.5299232114117 305.5299232114117 1 0 0 509.85445736624933 163" style="fill: none; stroke:rgb(184,0,138);stroke-opacity:0.4444444444444444; stroke-width:1;"/><path d="M73.31377009253151 163 A 308.1808802350818 308.1808802350818 1 0 0 509.85445736624933 163" style="fill: none; stroke:rgb(184,0,138);stroke-opacity:0.2222222222222222; stroke-width:1;"/><path d="M69.00979146766963 163 A 311.2242527068036 311.2242527068036 1 0 0 509.85445736624933 163" style="fill: none; stroke:rgb(184,0,138);stroke-opacity:0.3333333333333333; stroke-width:1;"/><path d="M519.0347707063445 163 A 307.0712917267986 307.0712917267986 1 0 0 954.0062628629948 163" style="fill: none; stroke:rgb(184,0,138);stroke-opacity:0.2222222222222222; stroke-width:1;"/><path d="M21.119765766298087 163 A 351.5803065901104 351.5803065901104 1 0 0 519.0365103905096 163" style="fill: none; stroke:rgb(184,0,138);stroke-opacity:0.3333333333333333; stroke-width:1;"/><path d="M483.5834867866063 163 A 24.569073403886808 24.569073403886808 1 0 0 519.0365103905096 163" style="fill: none; stroke:rgb(184,0,138);stroke-opacity:0.3333333333333333; stroke-width:1;"/><path d="M499.3485046922235 163 A 13.421522337297512 13.421522337297512 1 0 0 519.0365103905096 163" style="fill: none; stroke:rgb(184,0,138);stroke-opacity:0.8888888888888888; stroke-width:1;"/><path d="M519.0347707063445 163 A 8.799877076077504 8.799877076077504 1 0 0 532.1867829957359 163" style="fill: none; stroke:rgb(184,0,138);stroke-opacity:0.8888888888888888; stroke-width:1;"/><path d="M444.99729200106344 163 A 51.85363339692914 51.85363339692914 1 0 0 519.0365103905096 163" style="fill: none; stroke:rgb(184,0,138);stroke-opacity:0.2222222222222222; stroke-width:1;"/><path d="M519.0347707063445 163 A 371.0965168826994 371.0965168826994 1 0 0 1044.5516046124608 163" style="fill: none; stroke:rgb(184,0,138);stroke-opacity:0.2222222222222222; stroke-width:1;"/><path d="M77.06278946867405 163 A 312.0226151700806 312.0226151700806 1 0 0 519.0365103905096 163" style="fill: none; stroke:rgb(184,0,138);stroke-opacity:0.3333333333333333; stroke-width:1;"/><path d="M69.00979146766963 163 A 317.71694466547257 317.71694466547257 1 0 0 519.0365103905096 163" style="fill: none; stroke:rgb(184,0,138);stroke-opacity:0.2222222222222222; stroke-width:1;"/><path d="M525.5377101160991 163 A 302.4730191725159 302.4730191725159 1 0 0 954.0062628629948 163" style="fill: none; stroke:rgb(184,0,138);stroke-opacity:0.2222222222222222; stroke-width:1;"/><path d="M77.06278946867405 163 A 316.6208877243635 316.6208877243635 1 0 0 525.5394498002645 163" style="fill: none; stroke:rgb(184,0,138);stroke-opacity:0.4444444444444444; stroke-width:1;"/><path d="M69.00979146766963 163 A 327.01559159907976 327.01559159907976 1 0 0 532.1867829957359 163" style="fill: none; stroke:rgb(184,0,138);stroke-opacity:0.4444444444444444; stroke-width:1;"/><path d="M73.31377009253151 163 A 323.97221912735796 323.97221912735796 1 0 0 532.1867829957359 163" style="fill: none; stroke:rgb(184,0,138);stroke-opacity:0.2222222222222222; stroke-width:1;"/><path d="M77.06278946867405 163 A 321.3212621036878 321.3212621036878 1 0 0 532.1867829957359 163" style="fill: none; stroke:rgb(184,0,138);stroke-opacity:0.7777777777777778; stroke-width:1;"/><path d="M393.4017390276806 163 A 97.63584571708508 97.63584571708508 1 0 0 532.1867829957359 163" style="fill: none; stroke:rgb(184,0,138);stroke-opacity:0.2222222222222222; stroke-width:1;"/><path d="M483.5834867866063 163 A 33.867720337494006 33.867720337494006 1 0 0 532.1867829957359 163" style="fill: none; stroke:rgb(184,0,138);stroke-opacity:0.3333333333333333; stroke-width:1;"/><path d="M499.3485046922235 163 A 22.72016927090471 22.72016927090471 1 0 0 532.1867829957359 163" style="fill: none; stroke:rgb(184,0,138);stroke-opacity:0.7777777777777778; stroke-width:1;"/><path d="M532.1850433115708 163 A 129.20130150705202 129.20130150705202 1 0 0 715.6103829602857 163" style="fill: none; stroke:rgb(184,0,138);stroke-opacity:0.5555555555555556; stroke-width:1;"/><path d="M532.1850433115708 163 A 186.11384289921202 186.11384289921202 1 0 0 796.0968708661985 163" style="fill: none; stroke:rgb(184,0,138);stroke-opacity:0.4444444444444444; stroke-width:1;"/><path d="M532.1850433115708 163 A 195.04098680676424 195.04098680676424 1 0 0 808.7217588535152 163" style="fill: none; stroke:rgb(184,0,138);stroke-opacity:0.4444444444444444; stroke-width:1;"/><path d="M532.1850433115708 163 A 201.60871745612636 201.60871745612636 1 0 0 818.0099326118566 163" style="fill: none; stroke:rgb(184,0,138);stroke-opacity:0.4444444444444444; stroke-width:1;"/><path d="M532.1850433115708 163 A 282.112931145246 282.112931145246 1 0 0 931.8600834391914 163" style="fill: none; stroke:rgb(184,0,138);stroke-opacity:0.2222222222222222; stroke-width:1;"/><path d="M532.1850433115708 163 A 297.77264479319143 297.77264479319143 1 0 0 954.0062628629948 163" style="fill: none; stroke:rgb(184,0,138);stroke-opacity:0.8888888888888888; stroke-width:1;"/><path d="M532.1850433115708 163 A 361.79786994909216 361.79786994909216 1 0 0 1044.5516046124608 163" style="fill: none; stroke:rgb(184,0,138);stroke-opacity:0.5555555555555556; stroke-width:1;"/><path d="M21.119765766298087 163 A 360.8789535237176 360.8789535237176 1 0 0 532.1867829957359 163" style="fill: none; stroke:rgb(184,0,138);stroke-opacity:0.2222222222222222; stroke-width:1;"/><path d="M715.6086432761206 163 A 10.155494078437023 10.155494078437023 1 0 0 730.6777875156324 163" style="fill: none; stroke:rgb(184,0,138);stroke-opacity:0.2222222222222222; stroke-width:1;"/><path d="M715.6086432761206 163 A 65.34091544218249 65.34091544218249 1 0 0 808.7217588535152 163" style="fill: none; stroke:rgb(184,0,138);stroke-opacity:0.2222222222222222; stroke-width:1;"/><path d="M796.0951311820331 163 A 111.16003203644988 111.16003203644988 1 0 0 954.0062628629948 163" style="fill: none; stroke:rgb(184,0,138);stroke-opacity:0.3333333333333333; stroke-width:1;"/><path d="M483.5834867866063 163 A 229.40747700178792 229.40747700178792 1 0 0 808.7217588535152 163" style="fill: none; stroke:rgb(184,0,138);stroke-opacity:0.2222222222222222; stroke-width:1;"/><path d="M532.1850433115708 163 A 195.04098680676424 195.04098680676424 1 0 0 808.7217588535152 163" style="fill: none; stroke:rgb(184,0,138);stroke-opacity:0.4444444444444444; stroke-width:1;"/><path d="M21.119765766298087 163 A 556.4187101880116 556.4187101880116 1 0 0 808.7217588535152 163" style="fill: none; stroke:rgb(184,0,138);stroke-opacity:0.3333333333333333; stroke-width:1;"/><path d="M818.0081929276914 163 A 95.66515747953538 95.66515747953538 1 0 0 954.0062628629948 163" style="fill: none; stroke:rgb(184,0,138);stroke-opacity:0.4444444444444444; stroke-width:1;"/><path d="M77.06278946867405 163 A 523.4287494173439 523.4287494173439 1 0 0 818.0099326118566 163" style="fill: none; stroke:rgb(184,0,138);stroke-opacity:0.3333333333333333; stroke-width:1;"/><path d="M509.8527176820842 163 A 297.9042700375221 297.9042700375221 1 0 0 931.8600834391914 163" style="fill: none; stroke:rgb(184,0,138);stroke-opacity:0.2222222222222222; stroke-width:1;"/><path d="M69.00979146766963 163 A 625.2870062498008 625.2870062498008 1 0 0 954.0062628629948 163" style="fill: none; stroke:rgb(184,0,138);stroke-opacity:0.3333333333333333; stroke-width:1;"/><path d="M77.06278946867405 163 A 619.5926767544089 619.5926767544089 1 0 0 954.0062628629948 163" style="fill: none; stroke:rgb(184,0,138);stroke-opacity:0.6666666666666666; stroke-width:1;"/><path d="M77.06278946867405 163 A 619.5926767544089 619.5926767544089 1 0 0 954.0062628629948 163" style="fill: none; stroke:rgb(184,0,138);stroke-opacity:0.6666666666666666; stroke-width:1;"/><path d="M393.4017390276806 163 A 395.9072603678062 395.9072603678062 1 0 0 954.0062628629948 163" style="fill: none; stroke:rgb(184,0,138);stroke-opacity:0.2222222222222222; stroke-width:1;"/><path d="M483.5834867866063 163 A 332.1391349882151 332.1391349882151 1 0 0 954.0062628629948 163" style="fill: none; stroke:rgb(184,0,138);stroke-opacity:0.2222222222222222; stroke-width:1;"/><path d="M499.3485046922235 163 A 320.9915839216258 320.9915839216258 1 0 0 954.0062628629948 163" style="fill: none; stroke:rgb(184,0,138);stroke-opacity:0.2222222222222222; stroke-width:1;"/><path d="M509.8527176820842 163 A 313.5639836854675 313.5639836854675 1 0 0 954.0062628629948 163" style="fill: none; stroke:rgb(184,0,138);stroke-opacity:0.3333333333333333; stroke-width:1;"/><path d="M519.0347707063445 163 A 307.0712917267986 307.0712917267986 1 0 0 954.0062628629948 163" style="fill: none; stroke:rgb(184,0,138);stroke-opacity:0.2222222222222222; stroke-width:1;"/><path d="M525.5377101160991 163 A 302.4730191725159 302.4730191725159 1 0 0 954.0062628629948 163" style="fill: none; stroke:rgb(184,0,138);stroke-opacity:0.2222222222222222; stroke-width:1;"/><path d="M532.1850433115708 163 A 297.77264479319143 297.77264479319143 1 0 0 954.0062628629948 163" style="fill: none; stroke:rgb(184,0,138);stroke-opacity:0.8888888888888888; stroke-width:1;"/><path d="M796.0951311820331 163 A 111.16003203644988 111.16003203644988 1 0 0 954.0062628629948 163" style="fill: none; stroke:rgb(184,0,138);stroke-opacity:0.3333333333333333; stroke-width:1;"/><path d="M21.119765766298087 163 A 659.1503681744388 659.1503681744388 1 0 0 954.0062628629948 163" style="fill: none; stroke:rgb(184,0,138);stroke-opacity:0.5555555555555556; stroke-width:1;"/><path d="M519.0347707063445 163 A 371.0965168826994 371.0965168826994 1 0 0 1044.5516046124608 163" style="fill: none; stroke:rgb(184,0,138);stroke-opacity:0.2222222222222222; stroke-width:1;"/><path d="M21.119765766298087 163 A 723.1755933303394 723.1755933303394 1 0 0 1044.5516046124608 163" style="fill: none; stroke:rgb(184,0,138);stroke-opacity:0.4444444444444444; stroke-width:1;"/><path d="M43.64867570645947 163 A 707.2452483389103 707.2452483389103 1 0 0 1044.5516046124608 163" style="fill: none; stroke:rgb(184,0,138);stroke-opacity:0.2222222222222222; stroke-width:1;"/><path d="M77.06278946867405 163 A 683.6179019103097 683.6179019103097 1 0 0 1044.5516046124608 163" style="fill: none; stroke:rgb(184,0,138);stroke-opacity:0.3333333333333333; stroke-width:1;"/><path d="M499.3485046922235 163 A 385.0168090775266 385.0168090775266 1 0 0 1044.5516046124608 163" style="fill: none; stroke:rgb(184,0,138);stroke-opacity:0.3333333333333333; stroke-width:1;"/><rect x="0" y="20" width="1060" height="14" style="fill:rgb(60,60,60);"/><text font-family="arial" x="516.3705291748047" y="30" style="font-size:8pt;fill:#ffffff;">q36.1</text><line x1="0" y1="20.5" x2="1060" y2="20.5" style="stroke:#000000;"/><line x1="0" y1="33.5" x2="1060" y2="33.5" style="stroke:#000000;"/><text font-family="arial" x="518.7414398193359" y="43" style="font-size:8pt;fill:#000000;">chr2</text><rect x="1060" y="0" width="0" height="20" style="fill:white;"/><rect x="1060" y="20" width="0" height="490" style="fill:white;"/></svg>