<svg xmlns="http://www.w3.org/2000/svg" version="1.1" width="1060" height="384"><line x1="0" y1="16.5" x2="1060" y2="16.5" style="stroke:#000000;"/><text font-family="arial" x="29.463745016623534" y="10" style="font-size:8pt;fill:#000000;">55356000</text><line x1="51.709838766623534" y1="12" x2="51.709838766623534" y2="17" style="stroke:#000000;"/><text font-family="arial" x="91.83870088339995" y="10" style="font-size:8pt;fill:#000000;">55357000</text><line x1="114.08479463339995" y1="12" x2="114.08479463339995" y2="17" style="stroke:#000000;"/><text font-family="arial" x="154.21365675017637" y="10" style="font-size:8pt;fill:#000000;">55358000</text><line x1="176.45975050017637" y1="12" x2="176.45975050017637" y2="17" style="stroke:#000000;"/><text font-family="arial" x="216.58861261695301" y="10" style="font-size:8pt;fill:#000000;">55359000</text><line x1="238.83470636695301" y1="12" x2="238.83470636695301" y2="17" style="stroke:#000000;"/><text font-family="arial" x="278.96356848372943" y="10" style="font-size:8pt;fill:#000000;">55360000</text><line x1="301.20966223372943" y1="12" x2="301.20966223372943" y2="17" style="stroke:#000000;"/><text font-family="arial" x="341.3385243505061" y="10" style="font-size:8pt;fill:#000000;">55361000</text><line x1="363.5846181005061" y1="12" x2="363.5846181005061" y2="17" style="stroke:#000000;"/><text font-family="arial" x="403.7134802172825" y="10" style="font-size:8pt;fill:#000000;">55362000</text><line x1="425.9595739672825" y1="12" x2="425.9595739672825" y2="17" style="stroke:#000000;"/><text font-family="arial" x="466.0884360840589" y="10" style="font-size:8pt;fill:#000000;">55363000</text><line x1="488.3345298340589" y1="12" x2="488.3345298340589" y2="17" style="stroke:#000000;"/><text font-family="arial" x="528.4633919508356" y="10" style="font-size:8pt;fill:#000000;">55364000</text><line x1="550.7094857008356" y1="12" x2="550.7094857008356" y2="17" style="stroke:#000000;"/><text font-family="arial" x="590.838347817612" y="10" style="font-size:8pt;fill:#000000;">55365000</text><line x1="613.084441567612" y1="12" x2="613.084441567612" y2="17" style="stroke:#000000;"/><text font-family="arial" x="653.2133036843884" y="10" style="font-size:8pt;fill:#000000;">55366000</text><line x1="675.4593974343884" y1="12" x2="675.4593974343884" y2="17" style="stroke:#000000;"/><text font-family="arial" x="715.588259551165" y="10" style="font-size:8pt;fill:#000000;">55367000</text><line x1="737.834353301165" y1="12" x2="737.834353301165" y2="17" style="stroke:#000000;"/><text font-family="arial" x="777.9632154179415" y="10" style="font-size:8pt;fill:#000000;">55368000</text><line x1="800.2093091679415" y1="12" x2="800.2093091679415" y2="17" style="stroke:#000000;"/><text font-family="arial" x="840.3381712847181" y="10" style="font-size:8pt;fill:#000000;">55369000</text><line x1="862.5842650347181" y1="12" x2="862.5842650347181" y2="17" style="stroke:#000000;"/><text font-family="arial" x="902.7131271514945" y="10" style="font-size:8pt;fill:#000000;">55370000</text><line x1="924.9592209014945" y1="12" x2="924.9592209014945" y2="17" style="stroke:#000000;"/><text font-family="arial" x="965.0880830182709" y="10" style="font-size:8pt;fill:#000000;">55371000</text><line x1="987.3341767682709" y1="12" x2="987.3341767682709" y2="17" style="stroke:#000000;"/><text font-family="arial" x="1027.4630388850474" y="10" style="font-size:8pt;fill:#000000;">55372000</text><line x1="1049.7091326350474" y1="12" x2="1049.7091326350474" y2="17" style="stroke:#000000;"/><line x1="0" y1="43" x2="1060" y2="43" style="stroke:#ccc;stroke-width:0.5;"/><rect x="0" y="43" width="1060" height="12" style="fill:white;"/><line x1="955.2100741438153" y1="49" x2="1060" y2="49" style="stroke:#002eb8;stroke-width:1;"/><line x1="958.0873837825113" y1="46" x2="961.0873837825113" y2="49.5" style="stroke:#002eb8;"/><line x1="961.0873837825113" y1="49.5" x2="958.0873837825113" y2="53" style="stroke:#002eb8;"/><line x1="966.0873837825113" y1="46" x2="969.0873837825113" y2="49.5" style="stroke:#002eb8;"/><line x1="969.0873837825113" y1="49.5" x2="966.0873837825113" y2="53" style="stroke:#002eb8;"/><line x1="974.0873837825113" y1="46" x2="977.0873837825113" y2="49.5" style="stroke:#002eb8;"/><line x1="977.0873837825113" y1="49.5" x2="974.0873837825113" y2="53" style="stroke:#002eb8;"/><line x1="982.0873837825113" y1="46" x2="985.0873837825113" y2="49.5" style="stroke:#002eb8;"/><line x1="985.0873837825113" y1="49.5" x2="982.0873837825113" y2="53" style="stroke:#002eb8;"/><line x1="990.0873837825111" y1="46" x2="993.0873837825111" y2="49.5" style="stroke:#002eb8;"/><line x1="993.0873837825111" y1="49.5" x2="990.0873837825111" y2="53" style="stroke:#002eb8;"/><line x1="998.0873837825111" y1="46" x2="1001.0873837825111" y2="49.5" style="stroke:#002eb8;"/><line x1="1001.0873837825111" y1="49.5" x2="998.0873837825111" y2="53" style="stroke:#002eb8;"/><line x1="1006.0873837825111" y1="46" x2="1009.0873837825111" y2="49.5" style="stroke:#002eb8;"/><line x1="1009.0873837825111" y1="49.5" x2="1006.0873837825111" y2="53" style="stroke:#002eb8;"/><line x1="1014.0873837825111" y1="46" x2="1017.0873837825111" y2="49.5" style="stroke:#002eb8;"/><line x1="1017.0873837825111" y1="49.5" x2="1014.0873837825111" y2="53" style="stroke:#002eb8;"/><line x1="1022.0873837825111" y1="46" x2="1025.087383782511" y2="49.5" style="stroke:#002eb8;"/><line x1="1025.087383782511" y1="49.5" x2="1022.0873837825111" y2="53" style="stroke:#002eb8;"/><line x1="1030.087383782511" y1="46" x2="1033.087383782511" y2="49.5" style="stroke:#002eb8;"/><line x1="1033.087383782511" y1="49.5" x2="1030.087383782511" y2="53" style="stroke:#002eb8;"/><line x1="1038.087383782511" y1="46" x2="1041.087383782511" y2="49.5" style="stroke:#002eb8;"/><line x1="1041.087383782511" y1="49.5" x2="1038.087383782511" y2="53" style="stroke:#002eb8;"/><line x1="1046.087383782511" y1="46" x2="1049.087383782511" y2="49.5" style="stroke:#002eb8;"/><line x1="1049.087383782511" y1="49.5" x2="1046.087383782511" y2="53" style="stroke:#002eb8;"/><line x1="1054.087383782511" y1="46" x2="1057.087383782511" y2="49.5" style="stroke:#002eb8;"/><line x1="1057.087383782511" y1="49.5" x2="1054.087383782511" y2="53" style="stroke:#002eb8;"/><rect x="955.2100741438153" y="46" width="12.724490996822396" height="7" style="fill:#002EB8;"/><rect x="967.9345651406377" y="44" width="19.149111451100453" height="11" style="fill:#002EB8;"/><line x1="972.0091208661879" y1="46" x2="975.0091208661879" y2="49.5" style="stroke:#ffffff;"/><line x1="975.0091208661879" y1="49.5" x2="972.0091208661879" y2="53" style="stroke:#ffffff;"/><line x1="980.0091208661879" y1="46" x2="983.0091208661879" y2="49.5" style="stroke:#ffffff;"/><line x1="983.0091208661879" y1="49.5" x2="980.0091208661879" y2="53" style="stroke:#ffffff;"/><rect x="1025.2571495822053" y="44" width="34.74285041779467" height="11" style="fill:#002EB8;"/><line x1="1029.0110038837238" y1="46" x2="1032.0110038837238" y2="49.5" style="stroke:#ffffff;"/><line x1="1032.0110038837238" y1="49.5" x2="1029.0110038837238" y2="53" style="stroke:#ffffff;"/><line x1="1037.0110038837238" y1="46" x2="1040.0110038837238" y2="49.5" style="stroke:#ffffff;"/><line x1="1040.0110038837238" y1="49.5" x2="1037.0110038837238" y2="53" style="stroke:#ffffff;"/><line x1="1045.0110038837238" y1="46" x2="1048.0110038837238" y2="49.5" style="stroke:#ffffff;"/><line x1="1048.0110038837238" y1="49.5" x2="1045.0110038837238" y2="53" style="stroke:#ffffff;"/><line x1="1053.0110038837238" y1="46" x2="1056.0110038837238" y2="49.5" style="stroke:#ffffff;"/><line x1="1056.0110038837238" y1="49.5" x2="1053.0110038837238" y2="53" style="stroke:#ffffff;"/><text font-family="arial" x="919.8410098127606" y="54" style="font-size:8pt;fill:#002eb8;">SOX17</text><line x1="0" y1="55" x2="1060" y2="55" style="stroke:#ccc;stroke-width:0.5;"/><rect x="0" y="55" width="1060" height="12" style="fill:white;"/><rect x="953.0269506884781" y="56" width="38.235847946333934" height="11" style="fill:#336666;"/><rect x="1010.2247852183123" y="56" width="49.77521478168774" height="11" style="fill:#336666;"/><line x1="0" y1="67" x2="1060" y2="67" style="stroke:#ccc;stroke-width:0.5;"/><rect x="0" y="67" width="1060" height="203" style="fill:white;"/><path d="M49.712839825820765 67 A 686.8881802918607 686.8881802918607 1 0 0 1021.8265270095326 67" style="fill: none; stroke:rgb(184,0,138);stroke-opacity:0.5; stroke-width:1;"/><path d="M737.0848534776978 67 A 200.84276824076642 200.84276824076642 1 0 0 1021.8265270095326 67" style="fill: none; stroke:rgb(184,0,138);stroke-opacity:1; stroke-width:1;"/><path d="M49.712839825820765 67 A 686.8881802918607 686.8881802918607 1 0 0 1021.8265270095326 67" style="fill: none; stroke:rgb(184,0,138);stroke-opacity:0.5; stroke-width:1;"/><rect x="0" y="20" width="1060" height="14" style="fill:rgb(255,255,255);"/><text font-family="arial" x="513.6977310180664" y="30" style="font-size:8pt;fill:#000000;">q11.23</text><line x1="0" y1="20.5" x2="1060" y2="20.5" style="stroke:#000000;"/><line x1="0" y1="33.5" x2="1060" y2="33.5" style="stroke:#000000;"/><text font-family="arial" x="518.7414398193359" y="43" style="font-size:8pt;fill:#000000;">chr8</text><rect x="1060" y="0" width="0" height="20" style="fill:white;"/><rect x="1060" y="20" width="0" height="384" style="fill:white;"/></svg>