<svg xmlns="http://www.w3.org/2000/svg" version="1.1" width="1060" height="358"><line x1="0" y1="16.5" x2="1060" y2="16.5" style="stroke:#000000;"/><line x1="7.162964178426364" y1="15" x2="7.162964178426364" y2="17" style="stroke:#000000;"/><line x1="20.54241031984452" y1="15" x2="20.54241031984452" y2="17" style="stroke:#000000;"/><line x1="33.92185646126268" y1="15" x2="33.92185646126268" y2="17" style="stroke:#000000;"/><text font-family="arial" x="22.643099477680835" y="10" style="font-size:8pt;fill:#000000;">115066000</text><line x1="47.301302602680835" y1="12" x2="47.301302602680835" y2="17" style="stroke:#000000;"/><line x1="60.68074874409922" y1="15" x2="60.68074874409922" y2="17" style="stroke:#000000;"/><line x1="74.06019488551738" y1="15" x2="74.06019488551738" y2="17" style="stroke:#000000;"/><line x1="87.43964102693553" y1="15" x2="87.43964102693553" y2="17" style="stroke:#000000;"/><line x1="100.81908716835392" y1="15" x2="100.81908716835392" y2="17" style="stroke:#000000;"/><text font-family="arial" x="89.54033018477207" y="10" style="font-size:8pt;fill:#000000;">115071000</text><line x1="114.19853330977207" y1="12" x2="114.19853330977207" y2="17" style="stroke:#000000;"/><line x1="127.57797945119023" y1="15" x2="127.57797945119023" y2="17" style="stroke:#000000;"/><line x1="140.9574255926084" y1="15" x2="140.9574255926084" y2="17" style="stroke:#000000;"/><line x1="154.33687173402677" y1="15" x2="154.33687173402677" y2="17" style="stroke:#000000;"/><line x1="167.71631787544493" y1="15" x2="167.71631787544493" y2="17" style="stroke:#000000;"/><text font-family="arial" x="156.4375608918631" y="10" style="font-size:8pt;fill:#000000;">115076000</text><line x1="181.0957640168631" y1="12" x2="181.0957640168631" y2="17" style="stroke:#000000;"/><line x1="194.47521015828147" y1="15" x2="194.47521015828147" y2="17" style="stroke:#000000;"/><line x1="207.85465629969963" y1="15" x2="207.85465629969963" y2="17" style="stroke:#000000;"/><line x1="221.23410244111778" y1="15" x2="221.23410244111778" y2="17" style="stroke:#000000;"/><line x1="234.61354858253594" y1="15" x2="234.61354858253594" y2="17" style="stroke:#000000;"/><text font-family="arial" x="223.33479159895433" y="10" style="font-size:8pt;fill:#000000;">115081000</text><line x1="247.99299472395433" y1="12" x2="247.99299472395433" y2="17" style="stroke:#000000;"/><line x1="261.3724408653725" y1="15" x2="261.3724408653725" y2="17" style="stroke:#000000;"/><line x1="274.75188700679064" y1="15" x2="274.75188700679064" y2="17" style="stroke:#000000;"/><line x1="288.131333148209" y1="15" x2="288.131333148209" y2="17" style="stroke:#000000;"/><line x1="301.5107792896272" y1="15" x2="301.5107792896272" y2="17" style="stroke:#000000;"/><text font-family="arial" x="290.23202230604534" y="10" style="font-size:8pt;fill:#000000;">115086000</text><line x1="314.89022543104534" y1="12" x2="314.89022543104534" y2="17" style="stroke:#000000;"/><line x1="328.2696715724635" y1="15" x2="328.2696715724635" y2="17" style="stroke:#000000;"/><line x1="341.6491177138819" y1="15" x2="341.6491177138819" y2="17" style="stroke:#000000;"/><line x1="355.02856385530004" y1="15" x2="355.02856385530004" y2="17" style="stroke:#000000;"/><line x1="368.4080099967182" y1="15" x2="368.4080099967182" y2="17" style="stroke:#000000;"/><text font-family="arial" x="357.1292530131366" y="10" style="font-size:8pt;fill:#000000;">115091000</text><line x1="381.7874561381366" y1="12" x2="381.7874561381366" y2="17" style="stroke:#000000;"/><line x1="395.16690227955473" y1="15" x2="395.16690227955473" y2="17" style="stroke:#000000;"/><line x1="408.5463484209729" y1="15" x2="408.5463484209729" y2="17" style="stroke:#000000;"/><line x1="421.92579456239105" y1="15" x2="421.92579456239105" y2="17" style="stroke:#000000;"/><line x1="435.30524070380943" y1="15" x2="435.30524070380943" y2="17" style="stroke:#000000;"/><text font-family="arial" x="424.0264837202276" y="10" style="font-size:8pt;fill:#000000;">115096000</text><line x1="448.6846868452276" y1="12" x2="448.6846868452276" y2="17" style="stroke:#000000;"/><line x1="462.06413298664575" y1="15" x2="462.06413298664575" y2="17" style="stroke:#000000;"/><line x1="475.44357912806413" y1="15" x2="475.44357912806413" y2="17" style="stroke:#000000;"/><line x1="488.8230252694823" y1="15" x2="488.8230252694823" y2="17" style="stroke:#000000;"/><line x1="502.20247141090044" y1="15" x2="502.20247141090044" y2="17" style="stroke:#000000;"/><text font-family="arial" x="490.9237144273186" y="10" style="font-size:8pt;fill:#000000;">115101000</text><line x1="515.5819175523186" y1="12" x2="515.5819175523186" y2="17" style="stroke:#000000;"/><line x1="528.961363693737" y1="15" x2="528.961363693737" y2="17" style="stroke:#000000;"/><line x1="542.3408098351551" y1="15" x2="542.3408098351551" y2="17" style="stroke:#000000;"/><line x1="555.7202559765733" y1="15" x2="555.7202559765733" y2="17" style="stroke:#000000;"/><line x1="569.0997021179917" y1="15" x2="569.0997021179917" y2="17" style="stroke:#000000;"/><text font-family="arial" x="557.8209451344098" y="10" style="font-size:8pt;fill:#000000;">115106000</text><line x1="582.4791482594098" y1="12" x2="582.4791482594098" y2="17" style="stroke:#000000;"/><line x1="595.858594400828" y1="15" x2="595.858594400828" y2="17" style="stroke:#000000;"/><line x1="609.2380405422462" y1="15" x2="609.2380405422462" y2="17" style="stroke:#000000;"/><line x1="622.6174866836645" y1="15" x2="622.6174866836645" y2="17" style="stroke:#000000;"/><line x1="635.9969328250827" y1="15" x2="635.9969328250827" y2="17" style="stroke:#000000;"/><text font-family="arial" x="625.4554805290009" y="10" style="font-size:8pt;fill:#000000;">115111000</text><line x1="649.3763789665009" y1="12" x2="649.3763789665009" y2="17" style="stroke:#000000;"/><line x1="662.755825107919" y1="15" x2="662.755825107919" y2="17" style="stroke:#000000;"/><line x1="676.1352712493374" y1="15" x2="676.1352712493374" y2="17" style="stroke:#000000;"/><line x1="689.5147173907555" y1="15" x2="689.5147173907555" y2="17" style="stroke:#000000;"/><line x1="702.8941635321737" y1="15" x2="702.8941635321737" y2="17" style="stroke:#000000;"/><text font-family="arial" x="691.9840588923421" y="10" style="font-size:8pt;fill:#000000;">115116000</text><line x1="716.2736096735921" y1="12" x2="716.2736096735921" y2="17" style="stroke:#000000;"/><line x1="729.6530558150102" y1="15" x2="729.6530558150102" y2="17" style="stroke:#000000;"/><line x1="743.0325019564284" y1="15" x2="743.0325019564284" y2="17" style="stroke:#000000;"/><line x1="756.4119480978466" y1="15" x2="756.4119480978466" y2="17" style="stroke:#000000;"/><line x1="769.791394239265" y1="15" x2="769.791394239265" y2="17" style="stroke:#000000;"/><text font-family="arial" x="758.5126372556831" y="10" style="font-size:8pt;fill:#000000;">115121000</text><line x1="783.1708403806831" y1="12" x2="783.1708403806831" y2="17" style="stroke:#000000;"/><line x1="796.5502865221013" y1="15" x2="796.5502865221013" y2="17" style="stroke:#000000;"/><line x1="809.9297326635196" y1="15" x2="809.9297326635196" y2="17" style="stroke:#000000;"/><line x1="823.3091788049378" y1="15" x2="823.3091788049378" y2="17" style="stroke:#000000;"/><line x1="836.688624946356" y1="15" x2="836.688624946356" y2="17" style="stroke:#000000;"/><text font-family="arial" x="825.4098679627741" y="10" style="font-size:8pt;fill:#000000;">115126000</text><line x1="850.0680710877741" y1="12" x2="850.0680710877741" y2="17" style="stroke:#000000;"/><line x1="863.4475172291925" y1="15" x2="863.4475172291925" y2="17" style="stroke:#000000;"/><line x1="876.8269633706107" y1="15" x2="876.8269633706107" y2="17" style="stroke:#000000;"/><line x1="890.2064095120288" y1="15" x2="890.2064095120288" y2="17" style="stroke:#000000;"/><line x1="903.5858556534472" y1="15" x2="903.5858556534472" y2="17" style="stroke:#000000;"/><text font-family="arial" x="892.3070986698654" y="10" style="font-size:8pt;fill:#000000;">115131000</text><line x1="916.9653017948654" y1="12" x2="916.9653017948654" y2="17" style="stroke:#000000;"/><line x1="930.3447479362835" y1="15" x2="930.3447479362835" y2="17" style="stroke:#000000;"/><line x1="943.7241940777017" y1="15" x2="943.7241940777017" y2="17" style="stroke:#000000;"/><line x1="957.10364021912" y1="15" x2="957.10364021912" y2="17" style="stroke:#000000;"/><line x1="970.4830863605382" y1="15" x2="970.4830863605382" y2="17" style="stroke:#000000;"/><text font-family="arial" x="959.2043293769564" y="10" style="font-size:8pt;fill:#000000;">115136000</text><line x1="983.8625325019564" y1="12" x2="983.8625325019564" y2="17" style="stroke:#000000;"/><line x1="997.2419786433748" y1="15" x2="997.2419786433748" y2="17" style="stroke:#000000;"/><line x1="1010.6214247847929" y1="15" x2="1010.6214247847929" y2="17" style="stroke:#000000;"/><line x1="1024.000870926211" y1="15" x2="1024.000870926211" y2="17" style="stroke:#000000;"/><line x1="1037.3803170676292" y1="15" x2="1037.3803170676292" y2="17" style="stroke:#000000;"/><text font-family="arial" x="1026.1015600840474" y="10" style="font-size:8pt;fill:#000000;">115141000</text><line x1="1050.7597632090474" y1="12" x2="1050.7597632090474" y2="17" style="stroke:#000000;"/><line x1="0" y1="43" x2="1060" y2="43" style="stroke:#ccc;stroke-width:0.5;"/><rect x="0" y="43" width="1060" height="24" style="fill:white;"/><line x1="609.500668972307" y1="49" x2="795.622144245576" y2="49" style="stroke:#002eb8;stroke-width:1;"/><line x1="616.0614066089415" y1="46" x2="613.0614066089415" y2="49.5" style="stroke:#002eb8;"/><line x1="613.0614066089415" y1="49.5" x2="616.0614066089415" y2="53" style="stroke:#002eb8;"/><line x1="624.0614066089415" y1="46" x2="621.0614066089415" y2="49.5" style="stroke:#002eb8;"/><line x1="621.0614066089415" y1="49.5" x2="624.0614066089415" y2="53" style="stroke:#002eb8;"/><line x1="632.0614066089415" y1="46" x2="629.0614066089415" y2="49.5" style="stroke:#002eb8;"/><line x1="629.0614066089415" y1="49.5" x2="632.0614066089415" y2="53" style="stroke:#002eb8;"/><line x1="640.0614066089415" y1="46" x2="637.0614066089415" y2="49.5" style="stroke:#002eb8;"/><line x1="637.0614066089415" y1="49.5" x2="640.0614066089415" y2="53" style="stroke:#002eb8;"/><line x1="648.0614066089415" y1="46" x2="645.0614066089415" y2="49.5" style="stroke:#002eb8;"/><line x1="645.0614066089415" y1="49.5" x2="648.0614066089415" y2="53" style="stroke:#002eb8;"/><line x1="656.0614066089415" y1="46" x2="653.0614066089415" y2="49.5" style="stroke:#002eb8;"/><line x1="653.0614066089415" y1="49.5" x2="656.0614066089415" y2="53" style="stroke:#002eb8;"/><line x1="664.0614066089415" y1="46" x2="661.0614066089415" y2="49.5" style="stroke:#002eb8;"/><line x1="661.0614066089415" y1="49.5" x2="664.0614066089415" y2="53" style="stroke:#002eb8;"/><line x1="672.0614066089415" y1="46" x2="669.0614066089415" y2="49.5" style="stroke:#002eb8;"/><line x1="669.0614066089415" y1="49.5" x2="672.0614066089415" y2="53" style="stroke:#002eb8;"/><line x1="680.0614066089415" y1="46" x2="677.0614066089415" y2="49.5" style="stroke:#002eb8;"/><line x1="677.0614066089415" y1="49.5" x2="680.0614066089415" y2="53" style="stroke:#002eb8;"/><line x1="688.0614066089415" y1="46" x2="685.0614066089415" y2="49.5" style="stroke:#002eb8;"/><line x1="685.0614066089415" y1="49.5" x2="688.0614066089415" y2="53" style="stroke:#002eb8;"/><line x1="696.0614066089415" y1="46" x2="693.0614066089415" y2="49.5" style="stroke:#002eb8;"/><line x1="693.0614066089415" y1="49.5" x2="696.0614066089415" y2="53" style="stroke:#002eb8;"/><line x1="704.0614066089415" y1="46" x2="701.0614066089415" y2="49.5" style="stroke:#002eb8;"/><line x1="701.0614066089415" y1="49.5" x2="704.0614066089415" y2="53" style="stroke:#002eb8;"/><line x1="712.0614066089415" y1="46" x2="709.0614066089415" y2="49.5" style="stroke:#002eb8;"/><line x1="709.0614066089415" y1="49.5" x2="712.0614066089415" y2="53" style="stroke:#002eb8;"/><line x1="720.0614066089415" y1="46" x2="717.0614066089415" y2="49.5" style="stroke:#002eb8;"/><line x1="717.0614066089415" y1="49.5" x2="720.0614066089415" y2="53" style="stroke:#002eb8;"/><line x1="728.0614066089415" y1="46" x2="725.0614066089415" y2="49.5" style="stroke:#002eb8;"/><line x1="725.0614066089415" y1="49.5" x2="728.0614066089415" y2="53" style="stroke:#002eb8;"/><line x1="736.0614066089415" y1="46" x2="733.0614066089415" y2="49.5" style="stroke:#002eb8;"/><line x1="733.0614066089415" y1="49.5" x2="736.0614066089415" y2="53" style="stroke:#002eb8;"/><line x1="744.0614066089415" y1="46" x2="741.0614066089415" y2="49.5" style="stroke:#002eb8;"/><line x1="741.0614066089415" y1="49.5" x2="744.0614066089415" y2="53" style="stroke:#002eb8;"/><line x1="752.0614066089415" y1="46" x2="749.0614066089415" y2="49.5" style="stroke:#002eb8;"/><line x1="749.0614066089415" y1="49.5" x2="752.0614066089415" y2="53" style="stroke:#002eb8;"/><line x1="760.0614066089415" y1="46" x2="757.0614066089415" y2="49.5" style="stroke:#002eb8;"/><line x1="757.0614066089415" y1="49.5" x2="760.0614066089415" y2="53" style="stroke:#002eb8;"/><line x1="768.0614066089415" y1="46" x2="765.0614066089415" y2="49.5" style="stroke:#002eb8;"/><line x1="765.0614066089415" y1="49.5" x2="768.0614066089415" y2="53" style="stroke:#002eb8;"/><line x1="776.0614066089415" y1="46" x2="773.0614066089415" y2="49.5" style="stroke:#002eb8;"/><line x1="773.0614066089415" y1="49.5" x2="776.0614066089415" y2="53" style="stroke:#002eb8;"/><line x1="784.0614066089415" y1="46" x2="781.0614066089415" y2="49.5" style="stroke:#002eb8;"/><line x1="781.0614066089415" y1="49.5" x2="784.0614066089415" y2="53" style="stroke:#002eb8;"/><line x1="792.0614066089415" y1="46" x2="789.0614066089415" y2="49.5" style="stroke:#002eb8;"/><line x1="789.0614066089415" y1="49.5" x2="792.0614066089415" y2="53" style="stroke:#002eb8;"/><rect x="609.500668972307" y="46" width="21.233181026430657" height="7" style="fill:#002EB8;"/><rect x="782.7243581652488" y="46" width="12.89778608032725" height="7" style="fill:#002EB8;"/><rect x="630.7338499987377" y="44" width="6.18130411733523" height="11" style="fill:#002EB8;"/><rect x="661.8276828313938" y="44" width="8.977608360891509" height="11" style="fill:#002EB8;"/><line x1="667.8164870118394" y1="46" x2="664.8164870118394" y2="49.5" style="stroke:#ffffff;"/><line x1="664.8164870118394" y1="49.5" x2="667.8164870118394" y2="53" style="stroke:#ffffff;"/><rect x="690.56673314316" y="44" width="2.113952490344218" height="11" style="fill:#002EB8;"/><rect x="707.518491404337" y="44" width="1.0302173528891672" height="11" style="fill:#002EB8;"/><rect x="733.2739252265671" y="44" width="1.9667785827882653" height="11" style="fill:#002EB8;"/><rect x="751.6572842248756" y="44" width="3.585691565900106" height="11" style="fill:#002EB8;"/><rect x="777.519753616237" y="44" width="5.204604549011719" height="11" style="fill:#002EB8;"/><text font-family="arial" x="581.8403143580492" y="54" style="font-size:8pt;fill:#002eb8;">TBX3</text><line x1="609.500668972307" y1="61" x2="795.622144245576" y2="61" style="stroke:#002eb8;stroke-width:1;"/><line x1="616.0614066089415" y1="58" x2="613.0614066089415" y2="61.5" style="stroke:#002eb8;"/><line x1="613.0614066089415" y1="61.5" x2="616.0614066089415" y2="65" style="stroke:#002eb8;"/><line x1="624.0614066089415" y1="58" x2="621.0614066089415" y2="61.5" style="stroke:#002eb8;"/><line x1="621.0614066089415" y1="61.5" x2="624.0614066089415" y2="65" style="stroke:#002eb8;"/><line x1="632.0614066089415" y1="58" x2="629.0614066089415" y2="61.5" style="stroke:#002eb8;"/><line x1="629.0614066089415" y1="61.5" x2="632.0614066089415" y2="65" style="stroke:#002eb8;"/><line x1="640.0614066089415" y1="58" x2="637.0614066089415" y2="61.5" style="stroke:#002eb8;"/><line x1="637.0614066089415" y1="61.5" x2="640.0614066089415" y2="65" style="stroke:#002eb8;"/><line x1="648.0614066089415" y1="58" x2="645.0614066089415" y2="61.5" style="stroke:#002eb8;"/><line x1="645.0614066089415" y1="61.5" x2="648.0614066089415" y2="65" style="stroke:#002eb8;"/><line x1="656.0614066089415" y1="58" x2="653.0614066089415" y2="61.5" style="stroke:#002eb8;"/><line x1="653.0614066089415" y1="61.5" x2="656.0614066089415" y2="65" style="stroke:#002eb8;"/><line x1="664.0614066089415" y1="58" x2="661.0614066089415" y2="61.5" style="stroke:#002eb8;"/><line x1="661.0614066089415" y1="61.5" x2="664.0614066089415" y2="65" style="stroke:#002eb8;"/><line x1="672.0614066089415" y1="58" x2="669.0614066089415" y2="61.5" style="stroke:#002eb8;"/><line x1="669.0614066089415" y1="61.5" x2="672.0614066089415" y2="65" style="stroke:#002eb8;"/><line x1="680.0614066089415" y1="58" x2="677.0614066089415" y2="61.5" style="stroke:#002eb8;"/><line x1="677.0614066089415" y1="61.5" x2="680.0614066089415" y2="65" style="stroke:#002eb8;"/><line x1="688.0614066089415" y1="58" x2="685.0614066089415" y2="61.5" style="stroke:#002eb8;"/><line x1="685.0614066089415" y1="61.5" x2="688.0614066089415" y2="65" style="stroke:#002eb8;"/><line x1="696.0614066089415" y1="58" x2="693.0614066089415" y2="61.5" style="stroke:#002eb8;"/><line x1="693.0614066089415" y1="61.5" x2="696.0614066089415" y2="65" style="stroke:#002eb8;"/><line x1="704.0614066089415" y1="58" x2="701.0614066089415" y2="61.5" style="stroke:#002eb8;"/><line x1="701.0614066089415" y1="61.5" x2="704.0614066089415" y2="65" style="stroke:#002eb8;"/><line x1="712.0614066089415" y1="58" x2="709.0614066089415" y2="61.5" style="stroke:#002eb8;"/><line x1="709.0614066089415" y1="61.5" x2="712.0614066089415" y2="65" style="stroke:#002eb8;"/><line x1="720.0614066089415" y1="58" x2="717.0614066089415" y2="61.5" style="stroke:#002eb8;"/><line x1="717.0614066089415" y1="61.5" x2="720.0614066089415" y2="65" style="stroke:#002eb8;"/><line x1="728.0614066089415" y1="58" x2="725.0614066089415" y2="61.5" style="stroke:#002eb8;"/><line x1="725.0614066089415" y1="61.5" x2="728.0614066089415" y2="65" style="stroke:#002eb8;"/><line x1="736.0614066089415" y1="58" x2="733.0614066089415" y2="61.5" style="stroke:#002eb8;"/><line x1="733.0614066089415" y1="61.5" x2="736.0614066089415" y2="65" style="stroke:#002eb8;"/><line x1="744.0614066089415" y1="58" x2="741.0614066089415" y2="61.5" style="stroke:#002eb8;"/><line x1="741.0614066089415" y1="61.5" x2="744.0614066089415" y2="65" style="stroke:#002eb8;"/><line x1="752.0614066089415" y1="58" x2="749.0614066089415" y2="61.5" style="stroke:#002eb8;"/><line x1="749.0614066089415" y1="61.5" x2="752.0614066089415" y2="65" style="stroke:#002eb8;"/><line x1="760.0614066089415" y1="58" x2="757.0614066089415" y2="61.5" style="stroke:#002eb8;"/><line x1="757.0614066089415" y1="61.5" x2="760.0614066089415" y2="65" style="stroke:#002eb8;"/><line x1="768.0614066089415" y1="58" x2="765.0614066089415" y2="61.5" style="stroke:#002eb8;"/><line x1="765.0614066089415" y1="61.5" x2="768.0614066089415" y2="65" style="stroke:#002eb8;"/><line x1="776.0614066089415" y1="58" x2="773.0614066089415" y2="61.5" style="stroke:#002eb8;"/><line x1="773.0614066089415" y1="61.5" x2="776.0614066089415" y2="65" style="stroke:#002eb8;"/><line x1="784.0614066089415" y1="58" x2="781.0614066089415" y2="61.5" style="stroke:#002eb8;"/><line x1="781.0614066089415" y1="61.5" x2="784.0614066089415" y2="65" style="stroke:#002eb8;"/><line x1="792.0614066089415" y1="58" x2="789.0614066089415" y2="61.5" style="stroke:#002eb8;"/><line x1="789.0614066089415" y1="61.5" x2="792.0614066089415" y2="65" style="stroke:#002eb8;"/><rect x="609.500668972307" y="58" width="21.233181026430657" height="7" style="fill:#002EB8;"/><rect x="782.7243581652488" y="58" width="12.89778608032725" height="7" style="fill:#002EB8;"/><rect x="630.7338499987377" y="56" width="6.18130411733523" height="11" style="fill:#002EB8;"/><rect x="661.8276828313938" y="56" width="8.977608360891509" height="11" style="fill:#002EB8;"/><line x1="667.8164870118394" y1="58" x2="664.8164870118394" y2="61.5" style="stroke:#ffffff;"/><line x1="664.8164870118394" y1="61.5" x2="667.8164870118394" y2="65" style="stroke:#ffffff;"/><rect x="690.56673314316" y="56" width="2.113952490344218" height="11" style="fill:#002EB8;"/><rect x="707.518491404337" y="56" width="1.0302173528891672" height="11" style="fill:#002EB8;"/><rect x="733.2739252265671" y="56" width="1.9667785827882653" height="11" style="fill:#002EB8;"/><rect x="738.7327392522657" y="56" width="1" height="11" style="fill:#002EB8;"/><rect x="751.6572842248756" y="56" width="3.585691565900106" height="11" style="fill:#002EB8;"/><rect x="777.519753616237" y="56" width="5.204604549011719" height="11" style="fill:#002EB8;"/><text font-family="arial" x="581.8403143580492" y="66" style="font-size:8pt;fill:#002eb8;">TBX3</text><line x1="0" y1="67" x2="1060" y2="67" style="stroke:#ccc;stroke-width:0.5;"/><rect x="0" y="67" width="1060" height="12" style="fill:white;"/><rect x="189.2790245626436" y="68" width="7.586145962184219" height="11" style="fill:#336666;"/><rect x="581.1362431525004" y="68" width="5.137707318304592" height="11" style="fill:#336666;"/><rect x="791.8758993259789" y="68" width="15.372983616489364" height="11" style="fill:#336666;"/><line x1="0" y1="79" x2="1060" y2="79" style="stroke:#ccc;stroke-width:0.5;"/><rect x="0" y="79" width="1060" height="165" style="fill:white;"/><path d="M9.512786206548299 79 A 354.7870187100242 354.7870187100242 1 0 0 511.96450660136816 79" style="fill: none; stroke:rgb(184,0,138);stroke-opacity:0.375; stroke-width:1;"/><path d="M9.512786206548299 79 A 407.0006059779751 407.0006059779751 1 0 0 585.8056698558555 79" style="fill: none; stroke:rgb(184,0,138);stroke-opacity:0.375; stroke-width:1;"/><path d="M9.512786206548299 79 A 557.2648579397186 557.2648579397186 1 0 0 798.311412920001 79" style="fill: none; stroke:rgb(184,0,138);stroke-opacity:0.75; stroke-width:1;"/><path d="M9.512786206548299 79 A 453.8688993871848 453.8688993871848 1 0 0 652.0874460404414 79" style="fill: none; stroke:rgb(184,0,138);stroke-opacity:0.25; stroke-width:1;"/><path d="M193.80127735844303 79 A 171.6752264340345 171.6752264340345 1 0 0 437.29381768611324 79" style="fill: none; stroke:rgb(184,0,138);stroke-opacity:0.375; stroke-width:1;"/><path d="M437.2804382399718 79 A 52.309611184943066 52.309611184943066 1 0 0 511.96450660136816 79" style="fill: none; stroke:rgb(184,0,138);stroke-opacity:0.375; stroke-width:1;"/><path d="M437.2804382399718 79 A 104.523198452894 104.523198452894 1 0 0 585.8056698558555 79" style="fill: none; stroke:rgb(184,0,138);stroke-opacity:0.5; stroke-width:1;"/><path d="M437.2804382399718 79 A 73.92730404728552 73.92730404728552 1 0 0 542.5365410345089 79" style="fill: none; stroke:rgb(184,0,138);stroke-opacity:0.375; stroke-width:1;"/><path d="M9.512786206548299 79 A 354.7870187100242 354.7870187100242 1 0 0 511.96450660136816 79" style="fill: none; stroke:rgb(184,0,138);stroke-opacity:0.375; stroke-width:1;"/><path d="M511.9511271552269 79 A 51.723047965045915 51.723047965045915 1 0 0 585.8056698558555 79" style="fill: none; stroke:rgb(184,0,138);stroke-opacity:0.25; stroke-width:1;"/><path d="M511.9511271552269 79 A 201.9872999267893 201.9872999267893 1 0 0 798.311412920001 79" style="fill: none; stroke:rgb(184,0,138);stroke-opacity:0.375; stroke-width:1;"/><path d="M542.5231615883674 79 A 180.36960706444702 180.36960706444702 1 0 0 798.311412920001 79" style="fill: none; stroke:rgb(184,0,138);stroke-opacity:0.625; stroke-width:1;"/><path d="M542.5231615883674 79 A 360.3877513903335 360.3877513903335 1 0 0 1052.895514098907 79" style="fill: none; stroke:rgb(184,0,138);stroke-opacity:0.25; stroke-width:1;"/><path d="M9.512786206548299 79 A 407.0006059779751 407.0006059779751 1 0 0 585.8056698558555 79" style="fill: none; stroke:rgb(184,0,138);stroke-opacity:0.375; stroke-width:1;"/><path d="M437.2804382399718 79 A 104.523198452894 104.523198452894 1 0 0 585.8056698558555 79" style="fill: none; stroke:rgb(184,0,138);stroke-opacity:0.5; stroke-width:1;"/><path d="M585.792290409714 79 A 46.37775410630481 46.37775410630481 1 0 0 652.0874460404414 79" style="fill: none; stroke:rgb(184,0,138);stroke-opacity:0.25; stroke-width:1;"/><path d="M585.792290409714 79 A 72.92447015520303 72.92447015520303 1 0 0 689.6301719132607 79" style="fill: none; stroke:rgb(184,0,138);stroke-opacity:0.25; stroke-width:1;"/><path d="M585.792290409714 79 A 149.77371265883855 149.77371265883855 1 0 0 798.311412920001 79" style="fill: none; stroke:rgb(184,0,138);stroke-opacity:0.625; stroke-width:1;"/><path d="M585.792290409714 79 A 176.9069919276342 176.9069919276342 1 0 0 836.6836644535886 79" style="fill: none; stroke:rgb(184,0,138);stroke-opacity:0.25; stroke-width:1;"/><path d="M585.792290409714 79 A 224.86326550278227 224.86326550278227 1 0 0 904.5040769444374 79" style="fill: none; stroke:rgb(184,0,138);stroke-opacity:0.25; stroke-width:1;"/><path d="M585.792290409714 79 A 281.03142415649194 281.03142415649194 1 0 0 983.9378486860373 79" style="fill: none; stroke:rgb(184,0,138);stroke-opacity:0.25; stroke-width:1;"/><path d="M585.792290409714 79 A 329.79185698472503 329.79185698472503 1 0 0 1052.895514098907 79" style="fill: none; stroke:rgb(184,0,138);stroke-opacity:0.375; stroke-width:1;"/><path d="M652.0740665942999 79 A 102.90541924962888 102.90541924962888 1 0 0 798.311412920001 79" style="fill: none; stroke:rgb(184,0,138);stroke-opacity:1; stroke-width:1;"/><path d="M652.0740665942999 79 A 234.16313074728225 234.16313074728225 1 0 0 983.9378486860373 79" style="fill: none; stroke:rgb(184,0,138);stroke-opacity:0.625; stroke-width:1;"/><path d="M652.0740665942999 79 A 177.9949720935726 177.9949720935726 1 0 0 904.5040769444374 79" style="fill: none; stroke:rgb(184,0,138);stroke-opacity:0.25; stroke-width:1;"/><path d="M9.512786206548299 79 A 453.8688993871848 453.8688993871848 1 0 0 652.0874460404414 79" style="fill: none; stroke:rgb(184,0,138);stroke-opacity:0.25; stroke-width:1;"/><path d="M689.6167924671195 79 A 76.35870320073052 76.35870320073052 1 0 0 798.311412920001 79" style="fill: none; stroke:rgb(184,0,138);stroke-opacity:0.25; stroke-width:1;"/><path d="M511.9511271552269 79 A 201.9872999267893 201.9872999267893 1 0 0 798.311412920001 79" style="fill: none; stroke:rgb(184,0,138);stroke-opacity:0.375; stroke-width:1;"/><path d="M542.5231615883674 79 A 180.36960706444702 180.36960706444702 1 0 0 798.311412920001 79" style="fill: none; stroke:rgb(184,0,138);stroke-opacity:0.625; stroke-width:1;"/><path d="M585.792290409714 79 A 149.77371265883855 149.77371265883855 1 0 0 798.311412920001 79" style="fill: none; stroke:rgb(184,0,138);stroke-opacity:0.625; stroke-width:1;"/><path d="M9.512786206548299 79 A 557.2648579397186 557.2648579397186 1 0 0 798.311412920001 79" style="fill: none; stroke:rgb(184,0,138);stroke-opacity:0.75; stroke-width:1;"/><path d="M798.2980334738595 79 A 74.5990135410389 74.5990135410389 1 0 0 904.5040769444374 79" style="fill: none; stroke:rgb(184,0,138);stroke-opacity:0.875; stroke-width:1;"/><path d="M798.2980334738595 79 A 130.76717219474855 130.76717219474855 1 0 0 983.9378486860373 79" style="fill: none; stroke:rgb(184,0,138);stroke-opacity:0.625; stroke-width:1;"/><path d="M798.2980334738595 79 A 150.01023008621675 150.01023008621675 1 0 0 1011.1516421376823 79" style="fill: none; stroke:rgb(184,0,138);stroke-opacity:0.25; stroke-width:1;"/><path d="M652.0740665942999 79 A 102.90541924962888 102.90541924962888 1 0 0 798.311412920001 79" style="fill: none; stroke:rgb(184,0,138);stroke-opacity:1; stroke-width:1;"/><path d="M836.6702850074471 79 A 47.46573427224322 47.46573427224322 1 0 0 904.5040769444374 79" style="fill: none; stroke:rgb(184,0,138);stroke-opacity:0.25; stroke-width:1;"/><path d="M585.792290409714 79 A 224.86326550278227 224.86326550278227 1 0 0 904.5040769444374 79" style="fill: none; stroke:rgb(184,0,138);stroke-opacity:0.25; stroke-width:1;"/><path d="M798.2980334738595 79 A 74.5990135410389 74.5990135410389 1 0 0 904.5040769444374 79" style="fill: none; stroke:rgb(184,0,138);stroke-opacity:0.875; stroke-width:1;"/><path d="M904.490697498296 79 A 55.677619350804804 55.677619350804804 1 0 0 983.9378486860373 79" style="fill: none; stroke:rgb(184,0,138);stroke-opacity:0.25; stroke-width:1;"/><path d="M652.0740665942999 79 A 177.9949720935726 177.9949720935726 1 0 0 904.5040769444374 79" style="fill: none; stroke:rgb(184,0,138);stroke-opacity:0.25; stroke-width:1;"/><path d="M585.792290409714 79 A 281.03142415649194 281.03142415649194 1 0 0 983.9378486860373 79" style="fill: none; stroke:rgb(184,0,138);stroke-opacity:0.25; stroke-width:1;"/><path d="M652.0740665942999 79 A 234.16313074728225 234.16313074728225 1 0 0 983.9378486860373 79" style="fill: none; stroke:rgb(184,0,138);stroke-opacity:0.625; stroke-width:1;"/><path d="M798.2980334738595 79 A 130.76717219474855 130.76717219474855 1 0 0 983.9378486860373 79" style="fill: none; stroke:rgb(184,0,138);stroke-opacity:0.625; stroke-width:1;"/><path d="M983.9244692398961 79 A 48.269893525328115 48.269893525328115 1 0 0 1052.895514098907 79" style="fill: none; stroke:rgb(184,0,138);stroke-opacity:0.25; stroke-width:1;"/><path d="M585.792290409714 79 A 329.79185698472503 329.79185698472503 1 0 0 1052.895514098907 79" style="fill: none; stroke:rgb(184,0,138);stroke-opacity:0.375; stroke-width:1;"/><path d="M542.5231615883674 79 A 360.3877513903335 360.3877513903335 1 0 0 1052.895514098907 79" style="fill: none; stroke:rgb(184,0,138);stroke-opacity:0.25; stroke-width:1;"/><rect x="0" y="20" width="1060" height="14" style="fill:rgb(120,120,120);"/><text font-family="arial" x="513.4062423706055" y="30" style="font-size:8pt;fill:#ffffff;">q24.21</text><line x1="0" y1="20.5" x2="1060" y2="20.5" style="stroke:#000000;"/><line x1="0" y1="33.5" x2="1060" y2="33.5" style="stroke:#000000;"/><text font-family="arial" x="515.7771530151367" y="43" style="font-size:8pt;fill:#000000;">chr12</text><rect x="1060" y="0" width="0" height="20" style="fill:white;"/><rect x="1060" y="20" width="0" height="358" style="fill:white;"/></svg>